<svg width="139" height="40" viewBox="0 0 139 40" fill="none" xmlns="http://www.w3.org/2000/svg">
<path d="M21.9356 5.65374C21.3375 4.29371 19.2683 5.22817 19.2683 5.22817C20.9996 6.32334 21.9356 5.65374 21.9356 5.65374ZM18.5327 5.45435C18.6096 5.45435 18.6848 5.43166 18.7487 5.38915C18.8126 5.34664 18.8624 5.28621 18.8919 5.21552C18.9213 5.14483 18.929 5.06704 18.914 4.99199C18.899 4.91694 18.862 4.84801 18.8076 4.7939C18.7532 4.7398 18.684 4.70295 18.6086 4.68802C18.5332 4.67309 18.455 4.68076 18.384 4.71004C18.3129 4.73932 18.2522 4.78891 18.2095 4.85253C18.1668 4.91615 18.144 4.99095 18.144 5.06747C18.1448 5.16983 18.186 5.26779 18.2587 5.34017C18.3315 5.41256 18.4299 5.45357 18.5327 5.45435ZM23.2483 5.79064C22.7461 5.7993 22.2544 5.93445 21.8189 6.18347L24.0108 6.21323L24.0885 6.15668C24.0885 6.15668 22.9941 3.2164 20.0906 2.8563C20.36 3.55106 20.7841 4.17603 21.331 4.68426C21.8779 5.19248 22.5334 5.57075 23.2483 5.79064ZM24.7852 6.36203C24.7852 6.2831 24.7537 6.2074 24.6976 6.15159C24.6416 6.09578 24.5655 6.06443 24.4862 6.06443C24.4215 6.08055 24.3642 6.11772 24.3232 6.17002C24.2821 6.22232 24.2599 6.28676 24.2599 6.3531C24.2599 6.41944 24.2821 6.48388 24.3232 6.53618C24.3642 6.58848 24.4215 6.62564 24.4862 6.64177C24.5655 6.64177 24.6416 6.61042 24.6976 6.55461C24.7537 6.4988 24.7852 6.4231 24.7852 6.34417V6.36203ZM13.0846 6.19537L15.2734 6.16561C14.8402 5.91635 14.3504 5.78115 13.8501 5.77278C14.5621 5.55387 15.2152 5.17755 15.7604 4.67199C16.3057 4.16643 16.729 3.5447 16.9988 2.85332C14.0953 3.21342 13.0039 6.15371 13.0039 6.15371L13.0816 6.21025L13.0846 6.19537ZM12.3789 6.50785C12.3789 6.56671 12.3964 6.62425 12.4293 6.67319C12.4622 6.72213 12.5089 6.76027 12.5635 6.7828C12.6181 6.80532 12.6783 6.81122 12.7363 6.79973C12.7943 6.78825 12.8475 6.75991 12.8894 6.71829C12.9312 6.67666 12.9597 6.62364 12.9712 6.56591C12.9827 6.50818 12.9768 6.44834 12.9542 6.39396C12.9316 6.33958 12.8932 6.29311 12.8441 6.26041C12.7949 6.22771 12.7371 6.21025 12.6779 6.21025C12.5986 6.21025 12.5226 6.24161 12.4665 6.29742C12.4104 6.35323 12.3789 6.42892 12.3789 6.50785ZM12.5553 8.83508C10.9795 7.71611 8.66808 8.58212 8.66808 8.58212C10.7193 7.04055 10.7193 4.56452 10.7193 4.56452C8.11489 5.89479 8.09695 9.02852 8.09695 9.02852C11.2845 9.96894 12.5822 8.84401 12.5822 8.84401L12.5553 8.83508ZM13.4643 8.22798L13.4853 7.1715C12.7052 6.96477 11.8903 6.9232 11.0931 7.04948C13.3746 5.87694 13.7843 3.43364 13.7843 3.43364C10.9825 4.30264 10.4203 7.37684 10.4203 7.37684C11.3498 7.88067 12.3806 8.17147 13.4374 8.22798H13.4643ZM26.0531 6.8739C25.3408 6.70757 24.5954 6.74889 23.9061 6.99294V8.08215C24.6387 8.08215 25.3803 7.89467 26.7229 7.18935C26.7229 7.18935 26.0889 4.11515 23.2722 3.32056C23.2722 3.32056 23.7476 5.75492 26.059 6.87092L26.0531 6.8739ZM15.1568 5.79064C15.1568 5.79064 16.1166 6.4275 17.8061 5.26686C17.8061 5.26686 15.713 4.40977 15.1568 5.79064ZM29.8087 20.504H28.5858V22.0455H29.8087V20.504ZM26.5195 9.94513L25.8916 10.6921L29.3124 14.0996L30.0031 13.4092L26.5195 9.94513ZM33.1817 9.84097L30.045 6.71915L27.2342 9.75764L30.2483 12.7336L33.1817 9.84097ZM7.61254 9.49278C7.61254 9.55164 7.63008 9.60917 7.66293 9.65812C7.69579 9.70706 7.74249 9.7452 7.79713 9.76772C7.85177 9.79025 7.91189 9.79614 7.96989 9.78466C8.0279 9.77318 8.08118 9.74483 8.123 9.70321C8.16482 9.66159 8.1933 9.60857 8.20483 9.55084C8.21637 9.49311 8.21045 9.43327 8.18781 9.37889C8.16518 9.32451 8.12686 9.27803 8.07769 9.24533C8.02851 9.21263 7.9707 9.19518 7.91156 9.19518C7.83225 9.19518 7.7562 9.22653 7.70012 9.28234C7.64404 9.33815 7.61254 9.41385 7.61254 9.49278ZM30.8344 12.7664C31.4911 12.9438 32.1666 13.0437 32.8468 13.064C33.0795 12.2797 33.1507 11.4568 33.0561 10.6445L31.9946 11.6563C32.1166 11.9358 32.2637 12.2037 32.4341 12.4569C32.1946 12.2714 31.9406 12.1052 31.6746 11.9599L30.8344 12.7664ZM29.8566 28.0392H28.6336V29.5808H29.8566V28.0392ZM28.0625 8.05835L28.7741 7.34113C28.6107 6.70209 28.3089 6.10629 27.8901 5.59535C27.4712 5.0844 26.9453 4.67065 26.3491 4.38299C26.3634 5.0803 26.523 5.76707 26.818 6.39975C27.1129 7.03243 27.5367 7.59723 28.0625 8.05835ZM34.4316 18.8493C34.4316 18.9082 34.4491 18.9657 34.482 19.0147C34.5148 19.0636 34.5615 19.1017 34.6162 19.1243C34.6708 19.1468 34.7309 19.1527 34.7889 19.1412C34.8469 19.1297 34.9002 19.1014 34.942 19.0598C34.9839 19.0181 35.0123 18.9651 35.0239 18.9074C35.0354 18.8496 35.0295 18.7898 35.0069 18.7354C34.9842 18.6811 34.9459 18.6346 34.8967 18.6019C34.8476 18.5692 34.7897 18.5517 34.7306 18.5517C34.6513 18.5517 34.5752 18.5831 34.5192 18.6389C34.4631 18.6947 34.4316 18.7704 34.4316 18.8493ZM30.637 4.52881C30.8924 4.66192 31.1771 4.72946 31.4654 4.7253C31.7536 4.72114 32.0362 4.64542 32.2876 4.505C32.5669 4.36003 32.8832 4.30102 33.1963 4.33546C33.5094 4.36991 33.8051 4.49626 34.0459 4.69844C34.2475 4.84275 34.4084 5.03627 34.5131 5.26039C34.6179 5.48451 34.6629 5.73168 34.6439 5.97812C34.6439 6.53761 34.4794 6.57332 34.4794 6.57332C34.1415 6.80247 34.2253 6.41262 34.2253 6.41262L34.303 6.13883C34.3615 5.81534 34.289 5.48195 34.1013 5.2115C33.9136 4.94106 33.626 4.75554 33.3013 4.69547C32.9849 4.62868 32.6547 4.68364 32.3774 4.84928C32.1 5.01492 31.8959 5.27895 31.8062 5.58827C31.7377 5.85444 31.7204 6.13113 31.7554 6.40369L30.2603 4.91569L30.332 6.18049L33.69 9.52849H34.8861L33.6691 8.31428C34.0578 8.43398 34.4592 8.50789 34.8652 8.53451C35.3368 8.51438 35.7861 8.32888 36.1336 8.01082C36.4811 7.69275 36.7044 7.26263 36.7639 6.79652C37.2155 5.09127 35.5888 3.71041 35.5888 3.71041C34.5034 2.7819 32.8647 2.7075 32.8647 2.7075C30.5324 2.43966 29.7041 0.95166 29.7041 0.95166C29.5316 1.49359 29.4626 2.06291 29.5008 2.63012C29.6562 4.16872 30.64 4.52881 30.64 4.52881H30.637ZM34.8652 18.3732C34.8652 18.3732 36.8208 15.918 35.6217 13.2574C35.6217 13.2574 34.0578 15.1859 34.6798 17.6678C34.6798 17.6678 33.4269 15.5608 31.4922 15.4507C31.4922 15.4507 31.7912 17.1292 34.8652 18.3732ZM32.8797 13.8675C32.9235 13.8774 32.9689 13.8774 33.0127 13.8675C33.0565 13.8575 33.0975 13.8379 33.1326 13.81C33.1677 13.7821 33.1961 13.7467 33.2155 13.7064C33.235 13.6662 33.2451 13.622 33.2451 13.5773C33.2451 13.5326 33.235 13.4885 33.2155 13.4482C33.1961 13.408 33.1677 13.3726 33.1326 13.3447C33.0975 13.3168 33.0565 13.2972 33.0127 13.2872C32.9689 13.2773 32.9235 13.2772 32.8797 13.2872C32.8136 13.3022 32.7546 13.339 32.7124 13.3917C32.6701 13.4445 32.6471 13.5099 32.6471 13.5773C32.6471 13.6448 32.6701 13.7102 32.7124 13.7629C32.7546 13.8156 32.8136 13.8525 32.8797 13.8675ZM27.0279 9.18328L27.9249 8.29047C27.1774 8.11787 25.769 7.86788 24.6357 8.71009C24.6357 8.71009 25.2338 9.37076 27.0458 9.1922L27.0279 9.18328ZM34.0937 15.6442C34.0937 15.6442 35.5888 12.8854 33.9442 10.4778C33.9442 10.4778 32.7481 12.6444 33.7887 14.9805C33.7887 14.9805 32.186 13.1235 30.2633 13.3467C30.2633 13.3467 30.8613 14.9478 34.0937 15.6442ZM23.8314 36.7172C23.8314 36.7761 23.8489 36.8336 23.8817 36.8826C23.9146 36.9315 23.9613 36.9696 24.0159 36.9922C24.0706 37.0147 24.1307 37.0206 24.1887 37.0091C24.2467 36.9976 24.3 36.9693 24.3418 36.9277C24.3836 36.886 24.4121 36.833 24.4236 36.7753C24.4352 36.7176 24.4293 36.6577 24.4066 36.6033C24.384 36.549 24.3457 36.5025 24.2965 36.4698C24.2473 36.4371 24.1895 36.4196 24.1304 36.4196C24.0511 36.4196 23.975 36.451 23.9189 36.5068C23.8629 36.5626 23.8314 36.6383 23.8314 36.7172ZM25.2846 36.4434C25.2846 36.4434 26.9322 35.0358 26.9471 33.2829L26.3491 33.3067C25.8198 33.768 25.0424 34.7531 24.6088 36.747C24.6088 36.747 27.3837 38.235 29.7998 36.6012C29.7998 36.6012 27.6259 35.3959 25.2756 36.4434H25.2846ZM22.5695 37.3362C22.5695 37.3362 24.6865 36.0863 24.7972 34.1638C24.7972 34.1638 23.1107 34.4614 21.8578 37.5207C21.8578 37.5207 24.3277 39.467 26.995 38.2737C26.995 38.2737 25.0603 36.7142 22.5695 37.3362ZM19.7228 37.9314C21.9236 36.9166 22.414 35.2114 22.414 35.2114C20.7036 35.3334 19.2384 37.8898 19.2384 37.8898C19.8124 38.4622 20.5001 38.9092 21.2574 39.2023C22.0148 39.4954 22.8252 39.6281 23.637 39.592C22.4947 38.104 19.7228 37.9314 19.7228 37.9314ZM18.4939 37.0386V37.7588C18.159 37.2321 16.8552 35.3334 15.3781 35.2381C15.3781 35.2381 15.8804 36.9374 18.0872 37.9344C18.0872 37.9344 15.3183 38.1189 14.1999 39.6277C14.9929 39.6572 15.7836 39.5258 16.5239 39.2413C17.2642 38.9568 17.9385 38.5253 18.5058 37.9731V39.1456H19.2414V37.0386H18.4939ZM28.6396 30.3873V31.9288L35.5679 37.6457H36.9523L29.9014 30.3873H28.6396ZM27.7784 35.0685C28.2022 34.5308 28.5216 33.9192 28.7203 33.2651L27.5392 33.2472C27.3148 33.9719 27.192 34.724 27.1744 35.4822C27.1744 35.4822 29.725 36.3303 31.7703 34.8572L30.9809 34.2293C29.8498 34.1518 28.7245 34.4467 27.7784 35.0685ZM14.0235 36.8154C14.0235 36.7365 13.992 36.6608 13.9359 36.605C13.8799 36.5492 13.8038 36.5178 13.7245 36.5178C13.6452 36.5178 13.5691 36.5492 13.5131 36.605C13.457 36.6608 13.4255 36.7365 13.4255 36.8154C13.4255 36.8944 13.457 36.9701 13.5131 37.0259C13.5691 37.0817 13.6452 37.113 13.7245 37.113C13.8038 37.113 13.8799 37.0817 13.9359 37.0259C13.992 36.9701 14.0235 36.8944 14.0235 36.8154ZM33.394 28.7505C33.394 28.7505 33.7917 26.331 32.3803 25.0096C32.3803 25.0096 31.5251 26.4976 33.077 29.4082C33.077 29.4082 36.1629 28.7773 36.9643 25.9768C36.9643 25.9768 34.5243 26.45 33.4 28.7505H33.394ZM30.5413 33.8632L29.5187 33.0359C29.5426 33.2948 29.5755 33.5686 29.6234 33.8603C29.9287 33.8875 30.236 33.8875 30.5413 33.8603V33.8632ZM28.9984 34.2382C29.0575 34.2382 29.1154 34.2208 29.1645 34.1881C29.2137 34.1554 29.252 34.1089 29.2747 34.0545C29.2973 34.0001 29.3032 33.9403 29.2917 33.8826C29.2801 33.8248 29.2517 33.7718 29.2098 33.7302C29.168 33.6886 29.1147 33.6602 29.0567 33.6487C28.9987 33.6372 28.9386 33.6431 28.884 33.6657C28.8293 33.6882 28.7826 33.7263 28.7498 33.7753C28.7169 33.8242 28.6994 33.8818 28.6994 33.9406C28.6994 34.0195 28.7309 34.0952 28.787 34.151C28.843 34.2069 28.9191 34.2382 28.9984 34.2382ZM4.6971 30.0182C4.6971 30.0771 4.71464 30.1346 4.74749 30.1836C4.78035 30.2325 4.82705 30.2707 4.88169 30.2932C4.93633 30.3157 4.99645 30.3216 5.05445 30.3101C5.11246 30.2986 5.16574 30.2703 5.20756 30.2287C5.24938 30.1871 5.27786 30.134 5.28939 30.0763C5.30093 30.0186 5.29501 29.9587 5.27238 29.9044C5.24974 29.85 5.21142 29.8035 5.16225 29.7708C5.11307 29.7381 5.05526 29.7206 4.99612 29.7206C4.91681 29.7206 4.84076 29.752 4.78468 29.8078C4.7286 29.8636 4.6971 29.9393 4.6971 30.0182ZM2.58303 24.4204C4.99313 22.1438 4.65524 20.4712 4.65524 20.4712C2.89401 21.2748 2.49333 23.6942 2.49333 23.6942C2.17039 21.1587 0.0054848 19.9296 0.0054848 19.9296C-0.138045 22.8401 2.58303 24.4204 2.58303 24.4204ZM2.58303 24.8221C2.58303 24.881 2.60057 24.9385 2.63343 24.9875C2.66628 25.0364 2.71298 25.0746 2.76762 25.0971C2.82226 25.1196 2.88238 25.1255 2.94039 25.114C2.99839 25.1025 3.05167 25.0742 3.09349 25.0326C3.13531 24.991 3.16379 24.9379 3.17532 24.8802C3.18686 24.8225 3.18094 24.7626 3.15831 24.7083C3.13568 24.6539 3.09735 24.6074 3.04818 24.5747C2.999 24.542 2.94119 24.5245 2.88205 24.5245C2.80275 24.5245 2.72669 24.5559 2.67061 24.6117C2.61453 24.6675 2.58303 24.7432 2.58303 24.8221ZM6.71847 6.75486L4.47284 4.49905C4.08293 4.11349 3.5801 3.86108 3.03681 3.77818C2.49352 3.69528 1.93781 3.78618 1.44975 4.03777L5.87524 8.42439C6.01465 7.8072 6.31004 7.23562 6.73342 6.76379L6.71847 6.75486ZM5.00808 8.1506L1.18661 4.3443C1.18661 4.3443 -0.410154 5.48708 0.830777 8.1506H5.00808ZM3.35151 27.1732C5.32803 24.5156 4.70607 22.9294 4.70607 22.9294C3.1123 24.0276 3.13921 26.4768 3.13921 26.4768C2.37671 24.0335 0.0323954 23.2032 0.0323954 23.2032C0.397199 26.0899 3.35151 27.1762 3.35151 27.1762V27.1732ZM5.1247 34.7114C5.46997 34.5254 5.84552 34.4015 6.23406 34.3453L5.50744 34.1727L5.43568 34.265L5.50744 34.1727L2.28102 37.5535C2.28102 37.5535 1.91323 38.0773 2.26009 38.4254C2.37571 38.5026 2.51326 38.5405 2.65228 38.5335C2.79129 38.5266 2.92433 38.4751 3.03156 38.3868L6.17725 35.6488C5.85729 35.4852 5.16357 34.9108 5.1247 34.7114ZM11.2426 33.3365H10.83C10.8091 35.1548 12.5643 36.5863 12.5643 36.5863C10.1931 35.6012 8.04612 36.8482 8.04612 36.8482C10.5041 38.4314 13.2401 36.8749 13.2401 36.8749C12.7078 34.6638 11.7749 33.7174 11.2426 33.3395V33.3365ZM4.57749 29.7474C6.07259 26.7893 5.17553 25.334 5.17553 25.334C3.79705 26.6851 4.25455 29.0957 4.25455 29.0957C3.07642 26.822 0.624457 26.4173 0.624457 26.4173C1.48264 29.1969 4.58347 29.7593 4.58347 29.7593L4.57749 29.7474ZM12.9949 34.3096C13.1534 36.2321 15.2973 37.4285 15.2973 37.4285C12.7916 36.866 10.8928 38.4701 10.8928 38.4701C13.584 39.601 16.012 37.5981 16.012 37.5981C14.6873 34.5656 12.9949 34.3096 12.9949 34.3096ZM6.08754 11.0701C9.37675 11.445 10.4562 10.1148 10.4562 10.1148C8.70695 9.28743 6.5869 10.5374 6.5869 10.5374C8.33317 8.6595 7.88764 6.22215 7.88764 6.22215C5.55528 7.97799 6.09352 11.0701 6.09352 11.0701H6.08754ZM6.24901 32.0806C7.19391 28.9112 6.06362 27.6166 6.06362 27.6166C4.94229 29.1879 5.80945 31.4854 5.80945 31.4854C4.25156 29.4469 1.76372 29.4617 1.76372 29.4617C3.10034 32.0538 6.24901 32.0687 6.24901 32.0687V32.0806ZM30.3799 29.4736C30.2431 29.6289 30.1485 29.8164 30.1048 30.0182L30.7208 30.6521C30.6929 30.2358 30.5767 29.8301 30.3799 29.4617V29.4736ZM9.84023 16.8018L10.9705 17.7958H13.5242C13.4016 17.5905 13.4404 16.8227 13.4404 16.8227L9.84023 16.8018ZM16.1705 9.36183V7.93335H20.6109V9.95703H22.0821V11.4153H20.6558V12.064H22.0821V13.6473H20.6558V18.391H19.4358L17.7433 16.7096L16.1944 18.2482L15.0731 17.1322L17.6416 14.5788L18.9633 15.8971V9.36183H16.1705ZM13.886 16.162C13.886 19.5278 16.006 21.0813 18.6224 21.0813C21.2388 21.0813 23.3619 19.5338 23.3619 16.162V6.55547H13.889C13.889 6.55547 13.889 12.7842 13.889 16.1501L13.886 16.162ZM10.3964 10.6118C10.3964 10.6118 10.0974 11.0254 9.01793 11.2635L10.3964 12.5253V10.6118ZM22.5097 24.6228C22.8087 24.6228 22.8087 24.3906 22.8087 24.1525V21.9592H23.4396V24.2805C23.4396 24.6168 23.4008 25.1912 22.4917 25.1912C21.8937 25.1912 21.5528 24.9174 21.5528 24.3252V21.9592H22.1838V24.0186C22.1838 24.2597 22.1539 24.6138 22.4977 24.6138L22.5097 24.6228ZM24.1244 25.8221V26.4173H23.4815V27.1077H24.0466V27.7029H23.4815V28.4201H24.1304V29.0153H22.8506V25.831L24.1244 25.8221ZM23.948 21.9533H24.6626L24.845 22.3967C24.9066 22.5546 24.9565 22.7167 24.9945 22.8818C25.0327 22.7174 25.0806 22.5554 25.1381 22.3967L25.3324 21.9533H26.0112L25.3324 23.4949L26.065 25.1346H25.3324L25.1261 24.6287C25.0693 24.468 25.0304 24.3133 24.9856 24.1525C24.9377 24.3133 24.8989 24.468 24.845 24.6287L24.6596 25.1346H23.945L24.6267 23.4949L23.948 21.9533ZM25.8826 29.0034L25.766 28.4648H25.1291L25.0125 29.0034H24.3845L25.1291 25.8191H25.7929L26.5674 29.0034H25.8826ZM21.8399 29.0034L21.6904 26.7089L21.5887 27.4976L21.3196 29.0034H20.8322L20.5332 27.4797L20.4285 26.7714V26.7089L20.3358 29.0034H19.657L19.9381 25.8191H20.7664L21.0654 27.6999L21.3196 25.8191H22.1658L22.5007 29.0034H21.8399ZM19.7916 21.9473H20.4255V24.5394H21.0864V25.1346H19.7916V21.9473ZM18.9842 21.4593V32.2443C19.3855 31.878 19.9053 31.6669 20.4494 31.6491H27.1654V18.2571H23.5473C23.5473 18.2571 22.5187 21.4117 18.9842 21.4593ZM16.2662 22.8431C16.2728 22.7869 16.2661 22.7299 16.2465 22.6767C16.2268 22.6236 16.1949 22.5758 16.1532 22.5373C16.1116 22.4987 16.0614 22.4705 16.0067 22.4548C15.952 22.4392 15.8944 22.4366 15.8386 22.4473H15.7548V23.2955H15.8655C16.1645 23.2955 16.2662 23.102 16.2662 22.8401V22.8431ZM25.4401 26.6375L25.3683 27.1166L25.2337 27.9678H25.6703L25.5059 27.1166L25.4401 26.6375ZM8.42886 12.4688C7.81908 12.9908 7.0721 13.3284 6.27592 13.4419L6.69455 13.8318L11.0931 13.811L9.7296 12.4509L9.03587 11.7635C8.85041 12.0099 8.65072 12.2454 8.43783 12.4688H8.42886ZM32.9813 29.682C32.9663 29.6162 32.9292 29.5575 32.8763 29.5154C32.8233 29.4734 32.7576 29.4505 32.6898 29.4505C32.622 29.4505 32.5563 29.4734 32.5033 29.5154C32.4504 29.5575 32.4133 29.6162 32.3983 29.682C32.4133 29.7477 32.4504 29.8064 32.5033 29.8485C32.5563 29.8905 32.622 29.9134 32.6898 29.9134C32.7576 29.9134 32.8233 29.8905 32.8763 29.8485C32.9292 29.8064 32.9663 29.7477 32.9813 29.682ZM34.6768 24.7358C34.7359 24.7358 34.7937 24.7184 34.8429 24.6857C34.8921 24.653 34.9304 24.6065 34.953 24.5521C34.9757 24.4978 34.9816 24.4379 34.9701 24.3802C34.9585 24.3225 34.93 24.2694 34.8882 24.2278C34.8464 24.1862 34.7931 24.1578 34.7351 24.1464C34.6771 24.1349 34.617 24.1408 34.5624 24.1633C34.5077 24.1858 34.461 24.224 34.4282 24.2729C34.3953 24.3218 34.3778 24.3794 34.3778 24.4382C34.3778 24.5172 34.4093 24.5929 34.4653 24.6487C34.5214 24.7045 34.5975 24.7358 34.6768 24.7358ZM32.8109 22.5872C32.8109 22.5872 32.2278 24.1883 34.2671 26.7982C34.2671 26.7982 37.1945 25.6435 37.4906 22.7449C37.4906 22.7449 35.1672 23.6377 34.4645 26.0929C34.4645 26.0929 34.4346 23.6437 32.8109 22.5872ZM35.0296 23.3074C35.0296 23.3074 34.5781 20.8998 32.7989 20.1379C32.7989 20.1379 32.4999 21.8194 34.9638 24.0365C34.9638 24.0365 37.655 22.3908 37.4278 19.4862C37.4278 19.4862 35.2987 20.7659 35.0356 23.3074H35.0296ZM31.5819 27.3041C31.5819 27.3041 30.4815 28.6106 31.5012 31.7681C31.5012 31.7681 34.6499 31.6789 35.9207 29.057C35.9207 29.057 33.4329 29.1046 31.9258 31.1729C31.9258 31.1729 32.7391 28.8606 31.5819 27.3041ZM35.1134 20.4593C35.1134 20.4593 34.2462 18.1678 32.3594 17.7244C32.3594 17.7244 32.3594 19.4267 35.1702 21.1885C35.1702 21.1885 37.5294 19.1053 36.8088 16.281C36.8088 16.281 34.931 17.9089 35.1134 20.4474V20.4593ZM33.098 33.0627C33.6219 32.7369 34.072 32.3062 34.4196 31.7979C33.6489 31.7358 32.8736 31.831 32.1411 32.0776L33.098 33.0627ZM14.7561 27.0809L14.6843 26.5988L14.6156 27.0809L14.481 27.9261H14.9056L14.7561 27.0809ZM5.3998 8.28452C3.40833 10.4183 4.46985 13.3705 4.46985 13.3705C7.78597 13.1681 8.60528 11.6772 8.60528 11.6772C6.7394 11.1623 4.87352 12.7604 4.87352 12.7604C6.26396 10.6088 5.3998 8.29643 5.3998 8.29643V8.28452ZM17.839 33.8424H19.7527C19.7527 33.8424 19.8753 33.0151 20.4165 33.0151H28.3555V19.1172L27.5631 18.2869V32.0598H20.4435C19.7698 32.1679 19.1609 32.5223 18.7361 33.0538C18.519 32.7728 18.2432 32.5421 17.9278 32.3777C17.6123 32.2132 17.2647 32.119 16.909 32.1014H9.96881V18.4118L9.11661 19.263V33.0181H16.8672C16.8672 33.0181 17.824 33.0567 17.824 33.8454L17.839 33.8424ZM2.96877 19.2124C2.96877 19.1535 2.95123 19.096 2.91837 19.0471C2.88552 18.9981 2.83881 18.96 2.78418 18.9374C2.72954 18.9149 2.66941 18.909 2.61141 18.9205C2.55341 18.932 2.50013 18.9603 2.45831 19.002C2.41649 19.0436 2.38801 19.0966 2.37647 19.1543C2.36494 19.2121 2.37086 19.2719 2.39349 19.3263C2.41612 19.3807 2.45445 19.4271 2.50362 19.4598C2.5528 19.4925 2.61061 19.51 2.66975 19.51C2.74905 19.51 2.82511 19.4786 2.88119 19.4228C2.93726 19.367 2.96877 19.2913 2.96877 19.2124ZM2.71161 18.022C3.27676 15.5281 1.67103 13.6383 1.67103 13.6383C0.531761 16.3167 2.54416 18.7362 2.54416 18.7362C5.59117 17.4179 5.85132 15.7334 5.85132 15.7334C3.91666 15.8882 2.71161 18.022 2.71161 18.022ZM0.552691 16.7274C-0.0961813 19.5665 2.30793 21.5932 2.30793 21.5932C5.07685 19.7689 5.03798 18.0637 5.03798 18.0637C3.16313 18.5517 2.34681 20.8641 2.34681 20.8641C2.46941 18.3077 0.552691 16.7274 0.552691 16.7274ZM3.71931 11.073C3.71931 11.073 3.55185 10.0433 4.61636 8.50177H0.968328C0.968328 8.50177 1.12382 8.92436 3.70435 11.073H3.71931ZM13.3358 16.4298V16.031L11.44 14.1472H7.02347L9.53224 16.4298H13.3358ZM8.76077 32.3842C8.76077 32.5181 8.79666 32.3544 8.79666 32.3544V30.4914L8.48269 30.8366C8.63763 31.3445 8.73099 31.8691 8.76077 32.399V32.3842ZM4.09009 13.9181C4.09009 13.997 4.12159 14.0727 4.17767 14.1285C4.23375 14.1843 4.30981 14.2157 4.38911 14.2157C4.46842 14.2157 4.54447 14.1843 4.60055 14.1285C4.65663 14.0727 4.68813 13.997 4.68813 13.9181C4.68813 13.8392 4.65663 13.7635 4.60055 13.7077C4.54447 13.6518 4.46842 13.6205 4.38911 13.6205C4.30981 13.6205 4.23375 13.6518 4.17767 13.7077C4.12159 13.7635 4.09009 13.8392 4.09009 13.9181ZM8.74283 34.509C8.80197 34.509 8.85979 34.4916 8.90896 34.4589C8.95813 34.4262 8.99646 34.3797 9.01909 34.3253C9.04172 34.2709 9.04764 34.2111 9.03611 34.1534C9.02457 34.0956 8.99609 34.0426 8.95427 34.001C8.91245 33.9594 8.85917 33.931 8.80117 33.9195C8.74316 33.9081 8.68304 33.914 8.6284 33.9365C8.57376 33.959 8.52706 33.9972 8.49421 34.0461C8.46135 34.095 8.44381 34.1526 8.44381 34.2114C8.44381 34.2904 8.47532 34.3661 8.53139 34.4219C8.58747 34.4777 8.66353 34.509 8.74283 34.509ZM10.7672 12.9658L13.3358 15.4775V13.5282L10.7672 10.9748V12.9658ZM8.77274 27.9112H7.54974V29.4528H8.77274V27.9112ZM25.7839 11.3647L23.8104 13.5282L23.8314 16.9834C23.8025 17.2729 23.7414 17.5584 23.649 17.8345H24.9317L28.5977 14.1859L25.7839 11.3647ZM14.9684 21.9533V22.5485H14.3285V23.2419H14.9056V23.8371H14.3405V24.5394H14.9893V25.1346H13.7125V21.9444L12.8155 25.1197H12.2982L11.3742 21.9414H12.053L12.4357 23.4681C12.4895 23.6496 12.5105 23.8311 12.5493 24.0097C12.5721 23.8245 12.605 23.6407 12.648 23.4591L13.0308 21.9414L14.9684 21.9533ZM15.7608 29.0064H15.088L14.9684 28.4707H14.3315L14.2179 29.0064H13.5899L14.3315 25.8251H14.9953L15.7608 29.0064ZM15.1 21.9533H15.7339C16.1376 21.9533 16.8552 21.9949 16.8552 22.8639C16.8638 23.029 16.826 23.1932 16.7463 23.3383C16.6666 23.4833 16.548 23.6034 16.4037 23.6853L16.9988 25.1346H16.3319L15.7608 23.6466V25.1346H15.1299L15.1 21.9533ZM17.0855 21.9533H17.7164V25.1346H17.0855V21.9533ZM16.616 29.054C16.4239 29.0558 16.2356 29.001 16.0748 28.8963V28.3011C16.2095 28.4098 16.3768 28.4705 16.5502 28.4737C16.6007 28.4799 16.652 28.475 16.7003 28.4593C16.7487 28.4436 16.793 28.4175 16.8301 28.3828C16.8672 28.3482 16.8961 28.3058 16.915 28.2588C16.9338 28.2117 16.942 28.1612 16.939 28.1106C16.939 27.8696 16.7446 27.7743 16.5682 27.6493C16.3898 27.5636 16.2391 27.4297 16.1334 27.2629C16.0277 27.0961 15.9711 26.9032 15.9701 26.706C15.9581 26.5888 15.9707 26.4704 16.0071 26.3583C16.0436 26.2463 16.1031 26.143 16.1819 26.0551C16.2606 25.9672 16.3569 25.8966 16.4646 25.8477C16.5723 25.7989 16.689 25.7729 16.8074 25.7715C17.0047 25.7699 17.1984 25.8235 17.3666 25.9262V26.5363C17.2431 26.4168 17.0809 26.3451 16.909 26.334C16.8668 26.3309 16.8243 26.3369 16.7845 26.3515C16.7448 26.366 16.7085 26.3888 16.6783 26.4184C16.648 26.4479 16.6244 26.4836 16.609 26.5229C16.5937 26.5622 16.5869 26.6043 16.5891 26.6464C16.5891 27.1672 17.5519 27.2 17.5519 28.0571C17.5661 28.1841 17.5527 28.3126 17.5127 28.434C17.4727 28.5554 17.4069 28.6669 17.3199 28.7608C17.2329 28.8548 17.1266 28.929 17.0083 28.9786C16.8899 29.0281 16.7623 29.0518 16.634 29.0481L16.616 29.054ZM13.4913 26.4084H12.9919V29.0034H12.361V26.4113H11.8646V25.8161H13.4913V26.4084ZM10.3366 18.275V31.6669H16.9988C17.5519 31.7277 18.0791 31.9331 18.5267 32.2621V21.5634C14.493 21.4771 13.6796 18.2898 13.6796 18.2898L10.3366 18.275ZM10.6356 35.6905C10.6026 34.8846 10.4411 34.089 10.1572 33.3335H8.97906C9.19636 34.0464 9.55079 34.7104 10.0226 35.2887C7.86072 33.9079 5.53734 34.7679 5.53734 34.7679C7.68131 36.75 10.6446 35.6905 10.6446 35.6905H10.6356ZM6.63774 14.2633L6.0397 13.7127C4.59843 14.058 3.54288 15.3138 3.54288 15.3138C4.04435 14.0612 4.04435 12.6649 3.54288 11.4123L3.11529 11.0582C1.86838 13.4092 3.24685 15.9864 3.24685 15.9864C5.16357 15.5281 6.13239 14.7752 6.60783 14.2365L6.63774 14.2633ZM3.40533 32.277C5.16955 34.5983 8.27636 34.0626 8.27636 34.0626C8.65313 30.789 7.31651 29.7117 7.31651 29.7117C6.48822 31.4557 7.74112 33.5597 7.74112 33.5597C5.8543 31.8247 3.40533 32.2711 3.40533 32.2711V32.277ZM8.75778 20.6141H7.5318V22.1586H8.75778V20.6141Z" fill="#004592"/>
<path d="M46.5182 32.5092C46.1415 33.4466 45.1996 34.4496 44.4909 35.012C44.3593 35.1132 44.2277 35.0686 43.9736 34.7948C43.7194 34.521 43.6447 34.4406 43.7762 34.3275C44.9334 33.3157 45.8873 32.1164 45.8873 30.6909V29.5005H47.0056V30.673C47.0056 32.0211 48.109 33.3514 49.0121 34.1877C49.1257 34.2888 49.0689 34.4198 48.8416 34.6638C48.6144 34.9079 48.5037 34.9823 48.3811 34.89C47.5936 34.2407 46.9578 33.4282 46.5182 32.5092ZM50.9886 36.6607C50.9886 36.8095 50.7733 36.875 50.4713 36.875C50.1693 36.875 49.945 36.8095 49.945 36.6607V32.1967H48.2107V31.2861H49.945V28.9529H50.9886V36.6607Z" fill="#004592"/>
<path d="M52.3252 33.2204V32.3871H60.1984C60.3598 32.3871 60.4137 32.5181 60.4137 32.8097C60.4137 33.1014 60.3389 33.2204 60.1984 33.2204H56.8464V33.9138H58.8618C59.0681 33.9138 59.1428 33.9704 59.1428 34.1876V36.1161H54.5379V36.4732C54.5379 36.5952 54.5948 36.6428 54.7174 36.6428H59.1159C59.2744 36.6428 59.3312 36.7738 59.3312 37.0624C59.3312 37.3511 59.2565 37.485 59.1159 37.485H54.3765C54.1631 37.4498 53.9675 37.3451 53.8203 37.1874C53.6448 37.0504 53.5248 36.8549 53.4824 36.6369V35.3036H58.0963V34.7709H53.4944V33.9138H55.7998V33.2204H52.3252ZM56.3291 32.1074C55.0762 32.1074 54.0595 31.4586 54.0595 30.3218C54.0595 29.185 55.0762 28.5362 56.3291 28.5362C57.582 28.5362 58.5986 29.182 58.5986 30.3218C58.5986 31.4616 57.582 32.1074 56.3291 32.1074ZM56.3291 29.3784C55.6114 29.3784 55.0941 29.6968 55.0941 30.3248C55.0941 30.9527 55.6114 31.2711 56.3291 31.2711C57.0467 31.2711 57.561 30.9735 57.561 30.3248C57.561 29.676 57.0437 29.3784 56.3291 29.3784Z" fill="#004592"/>
<path d="M62.1833 33.5388C62.1833 33.7828 62.279 33.8572 62.4823 33.8572H64.6472C64.8087 33.8572 64.8745 34.0179 64.8745 34.3185C64.8745 34.6191 64.8087 34.7679 64.6472 34.7679H62.2102C61.9345 34.7139 61.6856 34.568 61.5045 34.3542C61.3179 34.1892 61.189 33.9692 61.1367 33.7263V29.5986H64.405C64.5665 29.5986 64.6323 29.7563 64.6323 30.0569C64.6323 30.3575 64.5665 30.5063 64.405 30.5063H62.1833V33.5388ZM67.3922 28.9468H68.4298V36.6606C68.4298 36.8005 68.2683 36.8749 67.9125 36.8749C67.5567 36.8749 67.3952 36.8005 67.3952 36.6606V32.5924H66.4234V36.5684C66.4234 36.7082 66.2739 36.7826 65.9151 36.7826C65.5562 36.7826 65.3977 36.7082 65.3977 36.5684V29.0421H66.4234V31.6818H67.3952L67.3922 28.9468Z" fill="#004592"/>
<path d="M69.5552 30.42V29.5659H71.4031V28.7059H72.4856V29.5778H74.181C74.3395 29.5778 74.4053 29.7088 74.4053 30.0094C74.4053 30.3099 74.3395 30.432 74.181 30.432L69.5552 30.42ZM71.9862 33.9347C70.829 33.9347 70.0187 33.2115 70.0187 32.3128C70.0187 31.414 70.829 30.6909 71.9862 30.6909C73.1434 30.6909 73.9537 31.414 73.9537 32.3128C73.9537 33.2115 73.1434 33.9347 71.9862 33.9347ZM75.1797 35.5179H70.7423V34.6073H75.8256C76.0708 34.6073 76.2113 34.7114 76.2113 35.0299V37.3541C76.2113 37.5059 75.9871 37.5595 75.694 37.5595C75.401 37.5595 75.1678 37.4761 75.1678 37.3363L75.1797 35.5179ZM71.9862 33.1193C72.5842 33.1193 72.955 32.7443 72.955 32.3039C72.955 31.8634 72.5783 31.5063 71.9862 31.5063C71.3941 31.5063 71.0174 31.8813 71.0174 32.3217C71.0174 32.7622 71.3941 33.1193 71.9862 33.1193ZM75.2754 28.8547H76.322V31.0391H77.7005V31.9319H76.316V33.8514C76.316 34.021 76.1276 34.0686 75.7957 34.0686C75.4638 34.0686 75.2694 34.021 75.2694 33.8424L75.2754 28.8547Z" fill="#004592"/>
<path d="M85.893 35.1996C86.0545 35.1996 86.1203 35.3781 86.1203 35.6668C86.1203 35.9555 86.0335 36.1073 85.893 36.1073H78.0288V35.1996H79.8229V32.4825H80.8665V35.1996H81.7905V32.4825H82.834V35.1996H85.893ZM83.7999 33.8038V30.7177C83.7999 30.4767 83.7042 30.4201 83.5009 30.4201H79.2339V29.5095H83.755C84.0334 29.5629 84.2854 29.7087 84.4697 29.9231C84.6563 30.0881 84.7852 30.3081 84.8375 30.5511V33.8247C84.8375 33.9735 84.6491 34.0389 84.3112 34.0389C83.9733 34.0389 83.7939 33.9526 83.7939 33.8038H83.7999Z" fill="#004592"/>
<path d="M97.3505 35.1996C97.512 35.1996 97.5778 35.3781 97.5778 35.6668C97.5778 35.9555 97.4911 36.1073 97.3505 36.1073H89.4863V35.1996H91.2804V32.4825H92.324V35.1996H93.248V32.4825H94.2946V35.1996H97.3505ZM95.2574 33.8038V30.7177C95.2574 30.4767 95.1617 30.4201 94.9584 30.4201H90.6944V29.5095H95.2126C95.4915 29.5636 95.7442 29.7092 95.9302 29.9231C96.1145 30.0896 96.242 30.3091 96.295 30.5511V33.8247C96.295 33.9735 96.1066 34.0389 95.7687 34.0389C95.4308 34.0389 95.2514 33.9526 95.2514 33.8038H95.2574Z" fill="#004592"/>
<path d="M103.942 33.7175V34.5538H104.48C104.779 34.5538 104.902 34.6461 104.902 34.9645V37.3453C104.902 37.5149 104.713 37.5596 104.384 37.5596C104.055 37.5596 103.858 37.5149 103.858 37.3364V35.4615H99.1785V34.5687H100.165V33.7324H98.0571V32.8396H105.918C106.08 32.8396 106.146 33.0093 106.146 33.2979C106.146 33.5866 106.062 33.7384 105.918 33.7384L103.942 33.7175ZM102.058 32.295C100.826 32.295 99.7885 31.6105 99.7885 30.4201C99.7885 29.2297 100.826 28.5453 102.058 28.5453C103.29 28.5453 104.328 29.2297 104.328 30.4201C104.328 31.6105 103.293 32.295 102.058 32.295ZM102.058 29.4083C101.313 29.4083 100.835 29.8577 100.835 30.4201C100.835 30.9826 101.313 31.432 102.058 31.432C102.803 31.432 103.302 30.9826 103.302 30.4201C103.302 29.8577 102.818 29.4083 102.049 29.4083H102.058ZM102.907 33.7175H101.221V34.5538H102.907V33.7175Z" fill="#004592"/>
<path d="M106.72 30.3247V29.4736H108.565V28.6016H109.647V29.4736H111.142C111.304 29.4736 111.369 29.6045 111.369 29.9021C111.369 30.1997 111.304 30.3247 111.142 30.3247H106.72ZM109.148 33.7471C107.991 33.7471 107.18 33.0716 107.18 32.1728C107.18 31.2741 107.991 30.5985 109.148 30.5985C110.305 30.5985 111.115 31.2711 111.115 32.1728C111.115 33.0745 110.308 33.7471 109.148 33.7471ZM109.148 31.4139C108.55 31.4139 108.179 31.7413 108.179 32.1817C108.179 32.6222 108.556 32.9317 109.148 32.9317C109.74 32.9317 110.12 32.6014 110.12 32.1609C110.12 31.7205 109.743 31.4139 109.148 31.4139ZM109.447 37.485C109.178 37.4333 108.935 37.2915 108.759 37.0832C108.574 36.9247 108.445 36.7107 108.391 36.4731V34.2441H109.438V34.9554H112.706V34.253H113.75V36.8838C113.75 37.2707 113.57 37.4939 113.185 37.4939L109.447 37.485ZM112.706 36.5773V35.8482H109.45V36.3273C109.45 36.497 109.525 36.5713 109.665 36.5713L112.706 36.5773ZM112.799 28.8546H113.845V33.512C113.845 33.6608 113.627 33.7263 113.328 33.7263C113.029 33.7263 112.799 33.6608 112.799 33.512V33.0061H111.519V32.1133H112.799V31.2979H111.519V30.4051H112.799V28.8546Z" fill="#004592"/>
<path d="M116.425 33.3244C116.147 33.2658 115.895 33.1172 115.711 32.9018C115.524 32.7368 115.395 32.5168 115.343 32.2739V30.7293H118.186V29.8961H115.343V29.0033H118.901C119.11 29.0033 119.233 29.0985 119.233 29.3009V31.6073H116.389V32.1489C116.389 32.3572 116.443 32.4227 116.67 32.4227H119.362C119.502 32.4227 119.586 32.5358 119.586 32.8721C119.586 33.2083 119.502 33.3125 119.362 33.3125L116.425 33.3244ZM121.003 35.0475H116.572V34.1398H121.655C121.9 34.1398 122.041 34.244 122.041 34.5624V37.3539C122.041 37.5057 121.817 37.5593 121.523 37.5593C121.23 37.5593 120.997 37.4759 120.997 37.3361L121.003 35.0475ZM122.142 33.4821C122.142 33.6428 121.906 33.6994 121.613 33.6994C121.32 33.6994 121.096 33.625 121.096 33.4821V32.2084H119.514V31.3156H121.096V30.4615H119.514V29.5687H121.096V28.8545H122.142V33.4821Z" fill="#004592"/>
<path d="M125.438 31.2144C125.125 32.0741 124.656 32.8691 124.053 33.5595C123.94 33.6905 123.874 33.6696 123.563 33.4286C123.336 33.25 123.204 33.131 123.327 32.997C123.893 32.3219 124.34 31.5548 124.645 30.7293C124.748 30.4111 124.8 30.0786 124.798 29.7443V29.1164H125.928V29.7443C125.928 30.7472 126.756 32.0953 127.396 32.8929C127.48 32.9971 127.414 33.0804 127.19 33.2768C126.906 33.5298 126.84 33.5298 126.735 33.4167C126.176 32.7645 125.736 32.0189 125.438 31.2144ZM126.439 37.3926C126.16 37.3348 125.907 37.1861 125.722 36.97C125.535 36.805 125.406 36.585 125.354 36.3421V34.3273H126.401V36.1724C126.396 36.2126 126.401 36.2531 126.415 36.2911C126.428 36.3291 126.45 36.3637 126.479 36.3922C126.507 36.4207 126.542 36.4425 126.58 36.456C126.619 36.4694 126.659 36.4742 126.7 36.47H130.862C131.02 36.47 131.086 36.6397 131.086 36.9313C131.086 37.223 131.002 37.3807 130.862 37.3807L126.439 37.3926ZM126.804 31.4674V30.5746H128.021V28.9527H129.047V34.5029C129.047 34.6428 128.885 34.7172 128.53 34.7172C128.174 34.7172 128.021 34.6428 128.021 34.5029V31.4674H126.804ZM129.875 28.8545H130.925V34.5892C130.925 34.7291 130.766 34.8065 130.407 34.8065C130.049 34.8065 129.89 34.7291 129.89 34.5892L129.875 28.8545Z" fill="#004592"/>
<path d="M133.242 33.8215C133.242 34.0656 133.335 34.14 133.541 34.14H136.532C136.69 34.14 136.756 34.2977 136.756 34.5983C136.756 34.8988 136.69 35.0476 136.532 35.0476H133.269C132.994 34.9938 132.746 34.8491 132.564 34.6369C132.377 34.472 132.248 34.252 132.196 34.009V29.545H135.981C136.143 29.545 136.209 29.7146 136.209 30.0122C136.209 30.3098 136.143 30.4527 135.981 30.4527H133.242V31.7949H135.748C135.907 31.7949 135.972 31.9526 135.972 32.2532C135.972 32.5537 135.907 32.7025 135.748 32.7025H133.242V33.8215ZM138.998 36.6606C138.998 36.8094 138.783 36.8749 138.481 36.8749C138.179 36.8749 137.955 36.8094 137.955 36.6606V32.6222H136.46V31.7115H137.955V28.9468H138.998V36.6606Z" fill="#004592"/>
<path d="M48.9196 18.9954C48.4254 18.9939 47.9337 18.9269 47.4573 18.796C46.9698 18.6621 46.5059 18.4544 46.0819 18.18C45.3427 17.7083 44.7365 17.0569 44.3206 16.2872C43.8979 15.5078 43.6809 14.6344 43.6897 13.7487H47.2391C47.2148 14.0919 47.3064 14.4334 47.4992 14.7189C47.6334 14.9013 47.7971 15.0602 47.9836 15.1891C48.2256 15.3521 48.508 15.4458 48.8 15.4599C49.0963 15.4742 49.3917 15.417 49.6611 15.2933C49.8391 15.2223 50.0001 15.1148 50.1336 14.9778C50.2417 14.8689 50.3343 14.7457 50.4087 14.6118C50.4683 14.506 50.5069 14.3898 50.5223 14.2695C50.5352 14.1788 50.5422 14.0873 50.5432 13.9957C50.5422 13.9051 50.5352 13.8146 50.5223 13.7249C50.5057 13.6011 50.4672 13.4812 50.4087 13.3708C50.3388 13.2339 50.2457 13.1101 50.1336 13.0047C49.9952 12.8713 49.8355 12.7617 49.6611 12.6803C49.5014 12.6061 49.3365 12.5435 49.1677 12.4928C48.9943 12.4363 48.8089 12.3738 48.6116 12.3024C48.2617 12.1923 47.8969 12.0673 47.5201 11.9274C47.1236 11.7787 46.7438 11.5892 46.3869 11.362C45.9029 11.0619 45.4816 10.6719 45.1459 10.2132C44.816 9.76501 44.5708 9.2608 44.4223 8.72522C44.2757 8.19168 44.2261 7.63636 44.2758 7.08545C44.3246 6.52011 44.4852 5.96993 44.7482 5.46651C44.9959 5.00643 45.3193 4.59097 45.7051 4.23742C46.0753 3.89351 46.5008 3.61385 46.964 3.41009C47.438 3.20489 47.9435 3.08112 48.4591 3.04404C49.0027 3.0044 49.5491 3.05366 50.0768 3.18987C50.5874 3.30605 51.0747 3.50728 51.518 3.78507C51.9426 4.04886 52.3205 4.38069 52.6364 4.76714C52.9503 5.14935 53.1942 5.58352 53.357 6.0498C53.525 6.52802 53.6099 7.03121 53.6082 7.5378H50.0738C50.0881 7.40983 50.0679 7.28037 50.0153 7.16271C49.9628 7.04504 49.8798 6.9434 49.7747 6.8682C49.6088 6.7606 49.4287 6.67647 49.2395 6.61822C49.1721 6.61349 49.1051 6.60354 49.0392 6.58846C48.9215 6.56757 48.801 6.56757 48.6833 6.58846C48.5392 6.61249 48.4005 6.66187 48.2737 6.73428C48.126 6.81894 48.008 6.94673 47.9358 7.10033C47.8258 7.3169 47.8033 7.56715 47.873 7.79969C47.9391 8.03562 48.0889 8.23969 48.2946 8.37406C48.5031 8.49136 48.7211 8.59092 48.9465 8.67166C49.1827 8.76094 49.4339 8.85021 49.7 8.93354C49.9661 9.01687 50.1814 9.07937 50.4236 9.1627C50.6658 9.24602 50.917 9.34423 51.1682 9.4603C52.0525 9.85084 52.8029 10.4901 53.3271 11.2995C53.7167 11.9001 53.971 12.5776 54.0725 13.2853C54.1741 13.9931 54.1204 14.7143 53.9153 15.3995C53.7102 16.0846 53.3584 16.7174 52.8842 17.2544C52.41 17.7914 51.8246 18.2199 51.1682 18.5103C50.8138 18.6744 50.4415 18.7972 50.0588 18.8764C49.6841 18.9545 49.3024 18.9944 48.9196 18.9954Z" fill="#004592"/>
<path d="M67.1416 3.32657H70.6909V18.6678H66.8455L61.8071 9.72497V18.6678H58.2637V3.37121H62.121L67.1416 12.2992V3.32657Z" fill="#004592"/>
<path d="M80.0585 18.4506C78.5292 18.458 77.0586 17.8657 75.9649 16.8019C75.4185 16.262 74.9802 15.6238 74.6731 14.9211C74.3697 14.2131 74.2092 13.4527 74.2007 12.6831V3.09146H77.75V12.6623C77.749 12.9636 77.8101 13.2619 77.9294 13.5388C78.0487 13.8157 78.2238 14.0653 78.4438 14.2723C78.8816 14.6948 79.4695 14.928 80.0794 14.9211C80.3889 14.9244 80.6953 14.8593 80.9765 14.7306C81.2491 14.6096 81.4974 14.4402 81.7091 14.2306C81.9165 14.0218 82.0783 13.7725 82.1845 13.4985C82.2963 13.2141 82.3531 12.9112 82.3519 12.6057V3.09146H85.9013V12.5789C85.9188 13.3527 85.7721 14.1213 85.4707 14.8348C85.1808 15.5284 84.7606 16.1607 84.2328 16.6977C83.7019 17.2301 83.075 17.6582 82.3848 17.9596C81.6741 18.2754 80.9056 18.4426 80.1272 18.4506H80.0585Z" fill="#004592"/>
<path d="M102.447 18.7779C101.451 18.7777 100.463 18.5899 99.5374 18.2244C98.5788 17.8455 97.7101 17.2718 96.9868 16.54C96.2723 15.8239 95.7055 14.9757 95.3183 14.0431C94.7314 12.6402 94.5767 11.0955 94.8738 9.60491C95.1709 8.11436 95.9063 6.74531 96.9868 5.67162C97.715 4.93868 98.5874 4.36322 99.5494 3.98125C101.411 3.22728 103.495 3.22728 105.356 3.98125C106.311 4.36635 107.177 4.94156 107.901 5.67162L105.407 8.17146C105.013 7.78171 104.541 7.4777 104.023 7.27866C103.521 7.08176 102.986 6.9808 102.447 6.98106C101.911 6.97977 101.38 7.0808 100.883 7.27866C100.368 7.47932 99.8997 7.7832 99.5075 8.17146C99.1252 8.56459 98.8208 9.02601 98.6105 9.53149C98.3998 10.0339 98.292 10.5732 98.2935 11.1177C98.2911 11.6603 98.3989 12.1978 98.6105 12.698C98.8232 13.1986 99.1274 13.6557 99.5075 14.0461C99.8991 14.4387 100.367 14.7476 100.883 14.9538C101.38 15.1516 101.911 15.2526 102.447 15.2514C102.986 15.2516 103.521 15.1507 104.023 14.9538C104.542 14.7492 105.013 14.4402 105.407 14.0461L107.907 16.5519C107.186 17.2822 106.32 17.8558 105.365 18.2363C104.436 18.5994 103.445 18.7832 102.447 18.7779Z" fill="#004592"/>
<path d="M132.767 18.8851C131.771 18.8846 130.785 18.6968 129.86 18.3315C128.901 17.9538 128.031 17.3811 127.307 16.6501C126.594 15.9326 126.027 15.0847 125.638 14.1532C125.052 12.7516 124.898 11.2085 125.195 9.71957C125.492 8.23067 126.227 6.86318 127.307 5.79067C128.034 5.05653 128.907 4.48003 129.869 4.09733C130.794 3.72685 131.781 3.53496 132.779 3.53189C133.772 3.53443 134.755 3.72637 135.676 4.09733C136.634 4.48101 137.503 5.05749 138.227 5.79067L135.73 8.27861C135.336 7.88249 134.863 7.57236 134.342 7.36795C133.841 7.17078 133.306 7.06981 132.767 7.07035C132.231 7.06907 131.7 7.17009 131.203 7.36795C130.686 7.57412 130.218 7.88413 129.827 8.27861C129.446 8.67143 129.142 9.13167 128.93 9.63566C128.726 10.1405 128.624 10.6806 128.631 11.2248C128.623 11.7653 128.725 12.3017 128.93 12.8021C129.144 13.3021 129.448 13.759 129.827 14.1503C130.218 14.5447 130.686 14.8547 131.203 15.0609C131.701 15.2572 132.231 15.3582 132.767 15.3585C133.306 15.3577 133.84 15.2568 134.342 15.0609C134.863 14.8565 135.336 14.5464 135.73 14.1503L138.227 16.659C137.507 17.3884 136.642 17.961 135.688 18.3405C134.758 18.7049 133.766 18.8897 132.767 18.8851Z" fill="#004592"/>
<path d="M111.964 7.16573H123.028C123.028 7.16573 123.587 6.81456 123.587 5.67773C123.587 4.5409 123.028 4.18973 123.028 4.18973H111.964C112.265 4.63234 112.425 5.15415 112.425 5.68814C112.425 6.22214 112.265 6.74395 111.964 7.18656V7.16573Z" fill="#004592"/>
<path d="M108.143 9.33781H116.151C116.004 9.08565 115.926 8.79914 115.927 8.5075C115.927 8.21497 116.004 7.92758 116.151 7.67422H108.143C107.996 7.92702 107.919 8.21394 107.919 8.50602C107.919 8.7981 107.996 9.08501 108.143 9.33781Z" fill="#C70D16"/>
<path d="M110.17 15.049H116.15C116.024 14.7849 115.959 14.4962 115.959 14.2039C115.959 13.9115 116.024 13.6228 116.15 13.3587H110.17C109.965 13.5931 109.853 13.8933 109.853 14.2039C109.853 14.5145 109.965 14.8146 110.17 15.049Z" fill="#C70D16"/>
<path d="M112.933 12.8467H121.655C121.918 12.3905 122.056 11.874 122.056 11.3483C122.056 10.8226 121.918 10.306 121.655 9.84985H112.933C113.195 10.306 113.333 10.8226 113.333 11.3483C113.333 11.874 113.195 12.3905 112.933 12.8467Z" fill="#004592"/>
<path d="M111.804 18.5605H123.854C123.854 18.5605 123.451 18.1051 123.451 17.0725C123.451 16.0398 123.854 15.5845 123.854 15.5845H111.804C111.539 16.0399 111.4 16.5568 111.4 17.0829C111.4 17.609 111.539 18.1258 111.804 18.5813V18.5605Z" fill="#004592"/>
<path d="M43.6119 25.468C43.5431 25.4293 43.4982 25.3758 43.567 25.2032C43.6358 25.0306 43.7046 25.0008 43.7853 25.0335C44.0762 25.1613 44.3886 25.234 44.7063 25.2478C45.2654 25.2478 45.6392 25.0633 45.6392 24.6883C45.6392 24.3134 45.2864 24.2449 44.6913 24.0038C44.4126 23.9036 44.1557 23.7511 43.9348 23.5545C43.8489 23.4733 43.7807 23.3754 43.7344 23.2668C43.6881 23.1583 43.6647 23.0415 43.6657 22.9236C43.6657 22.1944 44.3056 21.9564 44.9634 21.9564C45.3109 21.9665 45.6511 22.0582 45.9562 22.2242C46.0309 22.2629 46.0758 22.3075 46.001 22.4801C45.9263 22.6527 45.8665 22.6885 45.7828 22.6527C45.5235 22.5216 45.239 22.4475 44.9485 22.4355C44.5089 22.4355 44.2249 22.5932 44.2249 22.9176C44.2249 23.1944 44.473 23.364 44.9993 23.5902C45.3088 23.6985 45.6032 23.8455 45.8754 24.0277C45.9776 24.1048 46.0601 24.2048 46.1162 24.3196C46.1723 24.4344 46.2005 24.5607 46.1984 24.6883C46.2011 24.8439 46.1644 24.9977 46.0918 25.1355C46.0191 25.2733 45.9129 25.3907 45.7828 25.477C45.4573 25.6659 45.082 25.752 44.7063 25.724C44.327 25.7197 43.9533 25.6324 43.6119 25.468Z" fill="#004592"/>
<path d="M46.6431 22.0248H47.3667L48.9007 24.7389H48.9216V22.0248H49.4778V25.6615H48.8408L47.2172 22.8789H47.1992V25.593C47.1992 25.6704 47.1006 25.7061 46.9212 25.7061C46.7417 25.7061 46.6461 25.6704 46.6461 25.593L46.6431 22.0248Z" fill="#004592"/>
<path d="M52.282 24.2746V22.0248H52.8352V24.2746C52.8352 25.2627 52.2551 25.7239 51.4238 25.7239C50.5925 25.7239 50.0005 25.2627 50.0005 24.2746V22.0248H50.5567V24.2746C50.5567 24.9055 50.9125 25.2478 51.4238 25.2478C51.9351 25.2478 52.282 24.9055 52.282 24.2746Z" fill="#004592"/>
<path d="M54.7561 23.8371C54.7423 23.587 54.7816 23.3368 54.8713 23.1028C54.9611 22.8688 55.0992 22.6563 55.2769 22.4789C55.4546 22.3015 55.6677 22.1633 55.9026 22.0733C56.1374 21.9832 56.3886 21.9434 56.6399 21.9563C56.9718 21.9484 57.3002 22.0252 57.5938 22.1795C57.6745 22.2241 57.7044 22.2628 57.6207 22.4443C57.537 22.6259 57.5011 22.6318 57.4204 22.602C57.1748 22.496 56.9106 22.4393 56.6429 22.4354C56.2794 22.452 55.9364 22.6075 55.6851 22.8693C55.4338 23.1312 55.2936 23.4794 55.2936 23.8415C55.2936 24.2037 55.4338 24.5519 55.6851 24.8138C55.9364 25.0756 56.2794 25.2311 56.6429 25.2477C56.9109 25.2442 57.1754 25.1865 57.4204 25.0781C57.5011 25.0483 57.54 25.0483 57.6207 25.2328C57.7014 25.4173 57.6745 25.4501 57.5938 25.4917C57.3017 25.6508 56.9728 25.7308 56.6399 25.7239C55.4409 25.7298 54.7561 24.9174 54.7561 23.8371Z" fill="#004592"/>
<path d="M57.998 24.355C57.998 23.5069 58.5393 22.9771 59.2509 22.9771C60.1301 22.9771 60.5008 23.6289 60.5008 24.4026C60.5008 24.5425 60.4261 24.5991 60.3214 24.5991H58.5632C58.5991 25.0633 59.0177 25.2657 59.4603 25.2657C59.6744 25.2586 59.8857 25.2153 60.0852 25.1377C60.1689 25.108 60.2138 25.1377 60.2885 25.3014C60.3633 25.4651 60.3424 25.5067 60.2586 25.5514C60.0158 25.6662 59.7501 25.7252 59.4812 25.724C58.626 25.7299 57.998 25.3044 57.998 24.355ZM59.9447 24.1259C59.948 24.0343 59.9324 23.943 59.8987 23.8578C59.865 23.7725 59.814 23.695 59.7489 23.6303C59.6838 23.5655 59.606 23.5147 59.5203 23.4812C59.4346 23.4477 59.3429 23.4321 59.2509 23.4354C59.0651 23.4339 58.8862 23.5056 58.7534 23.635C58.6205 23.7644 58.5446 23.9409 58.5423 24.1259H59.9447Z" fill="#004592"/>
<path d="M60.9 23.0514H61.4203V23.3103C61.5233 23.2012 61.6487 23.1155 61.7881 23.059C61.9274 23.0025 62.0773 22.9766 62.2276 22.983C62.3551 22.9795 62.4819 23.0024 62.6001 23.0501C62.7182 23.0977 62.8252 23.1693 62.9142 23.2601C63.0033 23.351 63.0724 23.4592 63.1174 23.5779C63.1624 23.6967 63.1821 23.8234 63.1755 23.9502V25.5989C63.1755 25.6822 63.0649 25.712 62.9064 25.712C62.7479 25.712 62.6343 25.6822 62.6343 25.5989V23.8966C62.6343 23.5752 62.3353 23.4413 62.0362 23.4413C61.7372 23.4413 61.4382 23.6139 61.4382 23.7924V25.5989C61.4382 25.6822 61.3276 25.712 61.1691 25.712C61.0106 25.712 60.897 25.6822 60.897 25.5989L60.9 23.0514Z" fill="#004592"/>
<path d="M64.5426 23.5066V24.9738C64.5426 25.1524 64.6174 25.2029 64.7758 25.2029H65.1406C65.2273 25.2029 65.2692 25.2565 65.2692 25.4351C65.2692 25.6136 65.2273 25.6613 65.1406 25.6613H64.6502C64.5625 25.6725 64.4733 25.6636 64.3895 25.635C64.3058 25.6065 64.2298 25.5592 64.1674 25.4968C64.1049 25.4344 64.0578 25.3585 64.0295 25.275C64.0012 25.1916 63.9926 25.1028 64.0044 25.0155V23.5066H63.4751V23.0513H64.0044V22.2984H64.5426V23.0513H65.1406C65.2244 23.0513 65.2662 23.1227 65.2662 23.2834C65.2662 23.4441 65.2244 23.5126 65.1406 23.5126L64.5426 23.5066Z" fill="#004592"/>
<path d="M65.6016 24.355C65.6016 23.5069 66.1398 22.9771 66.8545 22.9771C67.7306 22.9771 68.1014 23.6289 68.1014 24.4026C68.1014 24.5425 68.0296 24.5991 67.9249 24.5991H66.1488C66.1846 25.0633 66.6063 25.2657 67.0458 25.2657C67.2599 25.2586 67.4712 25.2153 67.6708 25.1377C67.7545 25.108 67.7994 25.1377 67.8711 25.3014C67.9429 25.4651 67.9279 25.5067 67.8442 25.5514C67.6004 25.6666 67.3336 25.7256 67.0638 25.724C66.2295 25.7299 65.6016 25.3044 65.6016 24.355ZM67.5482 24.1259C67.5515 24.0343 67.5359 23.943 67.5022 23.8578C67.4685 23.7725 67.4175 23.695 67.3524 23.6303C67.2873 23.5655 67.2095 23.5147 67.1238 23.4812C67.0382 23.4477 66.9465 23.4321 66.8545 23.4354C66.7623 23.4343 66.6709 23.4512 66.5853 23.4853C66.4998 23.5194 66.4218 23.57 66.356 23.6341C66.2901 23.6983 66.2377 23.7748 66.2016 23.8591C66.1655 23.9435 66.1466 24.0342 66.1458 24.1259H67.5482Z" fill="#004592"/>
<path d="M69.6265 23.5066C69.4768 23.506 69.3323 23.5613 69.2216 23.6616C69.1108 23.7619 69.0419 23.8999 69.0285 24.0483V25.5928C69.0285 25.6761 68.9148 25.7059 68.7683 25.7059C68.6218 25.7059 68.4902 25.6642 68.4902 25.5928V23.0513H69.0285V23.4174C69.0888 23.3051 69.1791 23.2116 69.2893 23.1471C69.3996 23.0825 69.5255 23.0494 69.6534 23.0513H70.1438C70.2335 23.0513 70.2664 23.1019 70.2664 23.2834C70.2664 23.465 70.2335 23.5126 70.1438 23.5126L69.6265 23.5066Z" fill="#004592"/>
<path d="M72.5538 23.5066H72.0425V23.0512H72.5538V22.5632C72.5448 22.4828 72.554 22.4015 72.5809 22.3252C72.6078 22.2489 72.6515 22.1796 72.709 22.1224C72.7664 22.0652 72.836 22.0217 72.9127 21.9949C72.9894 21.9682 73.0711 21.959 73.1518 21.968H73.6213C73.711 21.968 73.7439 22.0364 73.7439 22.2001C73.7439 22.3638 73.711 22.4263 73.6213 22.4263H73.3043C73.1518 22.4263 73.107 22.5542 73.107 22.703V23.0512H73.6602C73.7499 23.0512 73.7858 23.1256 73.7858 23.2893C73.7858 23.453 73.7499 23.5125 73.6602 23.5125H73.095V25.5957C73.095 25.679 72.9784 25.7088 72.8199 25.7088C72.6614 25.7088 72.5538 25.679 72.5538 25.5957V23.5066Z" fill="#004592"/>
<path d="M73.8664 24.3551C73.8729 24.0922 73.9572 23.837 74.1087 23.6216C74.2603 23.4061 74.4723 23.2399 74.7183 23.1439C74.9643 23.0479 75.2333 23.0262 75.4916 23.0816C75.75 23.1371 75.9861 23.2671 76.1705 23.4555C76.3548 23.644 76.4792 23.8823 76.5281 24.1408C76.5769 24.3992 76.5481 24.6663 76.4451 24.9085C76.3421 25.1507 76.1696 25.3573 75.9492 25.5024C75.7288 25.6474 75.4703 25.7246 75.206 25.7241C75.0255 25.7297 74.8458 25.6979 74.6783 25.6307C74.5108 25.5634 74.3592 25.4621 74.2332 25.3334C74.1071 25.2046 74.0094 25.0511 73.9463 24.8827C73.8832 24.7142 73.856 24.5346 73.8664 24.3551ZM76.0074 24.3551C76.0074 23.8551 75.7084 23.4355 75.206 23.4355C74.7037 23.4355 74.4107 23.8551 74.4107 24.3551C74.4107 24.8551 74.7097 25.2717 75.209 25.2717C75.7084 25.2717 76.0074 24.858 76.0074 24.3551Z" fill="#004592"/>
<path d="M78.1006 23.5066C77.9509 23.506 77.8064 23.5613 77.6957 23.6616C77.585 23.7619 77.5161 23.8999 77.5026 24.0483V25.5928C77.5026 25.6761 77.389 25.7059 77.2424 25.7059C77.0959 25.7059 76.9644 25.6642 76.9644 25.5928V23.0513H77.5026V23.4174C77.563 23.3051 77.6532 23.2116 77.7634 23.1471C77.8737 23.0825 77.9996 23.0494 78.1275 23.0513H78.6179C78.7076 23.0513 78.7405 23.1019 78.7405 23.2834C78.7405 23.465 78.7076 23.5126 78.6179 23.5126L78.1006 23.5066Z" fill="#004592"/>
<path d="M81.199 25.6615C81.0479 25.6326 80.911 25.554 80.8103 25.4383C80.7093 25.3484 80.6384 25.2301 80.6069 25.099V22.0248H82.9483C83.035 22.0248 83.0709 22.0962 83.0709 22.2629C83.0709 22.4295 83.035 22.5039 82.9483 22.5039H81.1541V23.5455H82.8197C82.9034 23.5455 82.9393 23.614 82.9393 23.7806C82.9393 23.9473 82.9034 24.0247 82.8197 24.0247H81.1541V25.0157C81.1541 25.1466 81.205 25.1823 81.3186 25.1823H82.9782C83.0679 25.1823 83.1008 25.2567 83.1008 25.4234C83.1008 25.59 83.0679 25.6615 82.9782 25.6615H81.199Z" fill="#004592"/>
<path d="M85.4532 25.3933C85.3434 25.5078 85.2095 25.5967 85.0612 25.6538C84.9128 25.7109 84.7537 25.7347 84.5951 25.7237C83.9103 25.7237 83.4199 25.1285 83.4199 24.3547C83.4199 23.581 83.8475 22.9768 84.6638 22.9768C84.9578 22.9749 85.2409 23.087 85.4532 23.2893V21.9233H85.9945V25.5927C85.9945 25.6761 85.8838 25.7058 85.7224 25.7058C85.5609 25.7058 85.4532 25.6761 85.4532 25.5927V25.3933ZM84.6997 23.4351C84.2303 23.4351 83.9582 23.8548 83.9582 24.3547C83.9582 24.8547 84.2572 25.2713 84.6997 25.2713C84.9987 25.2713 85.4503 25.1077 85.4532 24.3785C85.4562 23.6494 85.0227 23.4351 84.6997 23.4351Z" fill="#004592"/>
<path d="M88.7313 25.5931C88.7313 25.6764 88.6326 25.7062 88.4741 25.7062C88.3157 25.7062 88.211 25.6645 88.211 25.5931V25.477C87.9884 25.6552 87.7066 25.7434 87.4216 25.7241C87.2955 25.7317 87.1693 25.7119 87.0517 25.666C86.9342 25.62 86.8281 25.5491 86.741 25.4581C86.6538 25.3671 86.5877 25.2583 86.5472 25.1392C86.5067 25.0201 86.4929 24.8937 86.5066 24.7688V23.0516H87.0448V24.8372C87.0448 25.1824 87.305 25.2717 87.607 25.2717C87.909 25.2717 88.1901 25.1437 88.1901 24.9741V23.0516H88.7313V25.5931Z" fill="#004592"/>
<path d="M90.5307 23.4352C90.3025 23.4576 90.0908 23.5638 89.9369 23.7329C89.7829 23.902 89.6976 24.1221 89.6976 24.3503C89.6976 24.5785 89.7829 24.7986 89.9369 24.9677C90.0908 25.1369 90.3025 25.243 90.5307 25.2654C90.7407 25.263 90.9493 25.2299 91.1497 25.1672C91.2304 25.1434 91.2842 25.1464 91.353 25.3309C91.4218 25.5154 91.3978 25.5422 91.3231 25.5868C91.0694 25.6834 90.7992 25.7299 90.5277 25.7237C90.1728 25.7073 89.8379 25.5554 89.5926 25.2996C89.3473 25.0439 89.2104 24.7039 89.2104 24.3503C89.2104 23.9967 89.3473 23.6567 89.5926 23.401C89.8379 23.1452 90.1728 22.9933 90.5277 22.9769C90.7692 22.9741 91.0092 23.0144 91.2364 23.0959C91.3201 23.1316 91.341 23.1703 91.2663 23.3489C91.1915 23.5274 91.1467 23.5364 91.0629 23.5066C90.8891 23.4614 90.7103 23.4375 90.5307 23.4352Z" fill="#004592"/>
<path d="M92.0672 23.5068C91.9805 23.5068 91.9476 23.4414 91.9476 23.2747C91.9476 23.1081 91.9805 23.0456 92.0672 23.0456H92.9643C93.6311 23.0456 93.9092 23.2985 93.9092 23.9681V25.593C93.9092 25.6763 93.8045 25.7061 93.646 25.7061C93.4875 25.7061 93.3709 25.6644 93.3709 25.593C93.105 25.7017 92.8211 25.7603 92.5337 25.7656C92.4107 25.7801 92.2861 25.7672 92.1688 25.728C92.0515 25.6888 91.9443 25.6241 91.8551 25.5388C91.7659 25.4534 91.6968 25.3494 91.6528 25.2342C91.6088 25.1191 91.591 24.9956 91.6007 24.8728C91.6007 24.2776 92.0522 23.9532 92.6503 23.9532C92.8944 23.9592 93.1368 23.9973 93.3709 24.0663V23.9443C93.3709 23.6467 93.2423 23.5068 92.9284 23.5068H92.0672ZM92.1509 24.8669C92.148 24.926 92.158 24.985 92.1801 25.0399C92.2023 25.0948 92.2361 25.1443 92.2793 25.185C92.3224 25.2257 92.3739 25.2567 92.4302 25.2757C92.4865 25.2948 92.5463 25.3015 92.6054 25.2954C92.8704 25.289 93.1323 25.2377 93.3799 25.1436V24.5217C93.1548 24.4541 92.9213 24.4181 92.6862 24.4145C92.3513 24.4145 92.1509 24.5812 92.1509 24.8669Z" fill="#004592"/>
<path d="M95.3039 23.5066V24.9738C95.3039 25.1524 95.3786 25.2029 95.5371 25.2029H95.8989C95.9856 25.2029 96.0275 25.2565 96.0275 25.4351C96.0275 25.6136 95.9856 25.6613 95.8989 25.6613H95.4085C95.3208 25.6725 95.2316 25.6636 95.1478 25.635C95.0641 25.6065 94.9881 25.5592 94.9257 25.4968C94.8632 25.4344 94.8161 25.3585 94.7878 25.275C94.7595 25.1916 94.7509 25.1028 94.7627 25.0155V23.5066H94.2334V23.0513H94.7627V22.2984H95.3039V23.0513H95.9169C96.0006 23.0513 96.0425 23.1227 96.0425 23.2834C96.0425 23.4441 96.0006 23.5126 95.9169 23.5126L95.3039 23.5066Z" fill="#004592"/>
<path d="M96.8034 21.8817C96.8729 21.8811 96.9409 21.9011 96.9989 21.9391C97.0569 21.9772 97.1022 22.0315 97.129 22.0953C97.1559 22.159 97.1631 22.2293 97.1497 22.2971C97.1363 22.3649 97.1029 22.4272 97.0538 22.4761C97.0047 22.525 96.9421 22.5582 96.8739 22.5715C96.8058 22.5849 96.7352 22.5777 96.6711 22.551C96.6071 22.5243 96.5525 22.4792 96.5143 22.4215C96.4761 22.3638 96.456 22.296 96.4566 22.2269C96.4573 22.1356 96.4941 22.0482 96.559 21.9837C96.6239 21.9191 96.7117 21.8825 96.8034 21.8817ZM96.5373 22.9917H97.0785V25.5928C97.0785 25.6761 96.9739 25.7059 96.8154 25.7059C96.6569 25.7059 96.5373 25.6761 96.5373 25.5928V22.9917Z" fill="#004592"/>
<path d="M97.5817 24.355C97.5893 24.0927 97.6743 23.8385 97.8262 23.624C97.978 23.4096 98.1899 23.2443 98.4355 23.1489C98.681 23.0535 98.9494 23.0322 99.207 23.0875C99.4647 23.1429 99.7003 23.2725 99.8844 23.4603C100.069 23.648 100.193 23.8855 100.243 24.1432C100.292 24.4009 100.264 24.6674 100.162 24.9094C100.061 25.1515 99.8894 25.3583 99.6703 25.5042C99.4512 25.6501 99.1939 25.7286 98.9303 25.7299C98.7484 25.7369 98.5672 25.7059 98.3982 25.6388C98.2292 25.5718 98.0762 25.4702 97.9491 25.3406C97.822 25.211 97.7236 25.0563 97.6603 24.8866C97.597 24.7168 97.5702 24.5357 97.5817 24.355ZM99.7226 24.355C99.7226 23.855 99.4236 23.4354 98.9213 23.4354C98.4189 23.4354 98.1229 23.855 98.1229 24.355C98.1229 24.8549 98.4219 25.2716 98.9213 25.2716C99.4206 25.2716 99.7226 24.8579 99.7226 24.355Z" fill="#004592"/>
<path d="M100.685 23.0515H101.205V23.3104C101.308 23.2011 101.433 23.1153 101.573 23.0588C101.712 23.0023 101.862 22.9764 102.012 22.983C102.14 22.9796 102.267 23.0024 102.385 23.0501C102.503 23.0978 102.61 23.1693 102.699 23.2602C102.788 23.351 102.857 23.4592 102.902 23.578C102.947 23.6968 102.967 23.8235 102.96 23.9502V25.5989C102.96 25.6823 102.85 25.712 102.691 25.712C102.533 25.712 102.419 25.6823 102.419 25.5989V23.8967C102.419 23.5753 102.12 23.4413 101.821 23.4413C101.522 23.4413 101.223 23.6139 101.223 23.7925V25.5989C101.223 25.6823 101.112 25.712 100.954 25.712C100.795 25.712 100.682 25.6823 100.682 25.5989L100.685 23.0515Z" fill="#004592"/>
<path d="M103.783 23.5068C103.699 23.5068 103.663 23.4414 103.663 23.2747C103.663 23.1081 103.699 23.0456 103.783 23.0456H104.68C105.349 23.0456 105.627 23.2985 105.627 23.9681V25.593C105.627 25.6763 105.523 25.7061 105.364 25.7061C105.206 25.7061 105.086 25.6644 105.086 25.593C104.82 25.7017 104.536 25.7603 104.249 25.7656C104.126 25.7801 104.001 25.7672 103.884 25.728C103.767 25.6888 103.66 25.6241 103.57 25.5388C103.481 25.4534 103.412 25.3494 103.368 25.2342C103.324 25.1191 103.306 24.9956 103.316 24.8728C103.316 24.2776 103.768 23.9532 104.369 23.9532C104.612 23.9592 104.853 23.9973 105.086 24.0663V23.9443C105.086 23.6467 104.958 23.5068 104.644 23.5068H103.783ZM103.866 24.8669C103.863 24.926 103.873 24.985 103.895 25.0399C103.918 25.0948 103.951 25.1443 103.995 25.185C104.038 25.2257 104.089 25.2567 104.146 25.2757C104.202 25.2948 104.262 25.3015 104.321 25.2954C104.586 25.2893 104.848 25.238 105.095 25.1436V24.5217C104.87 24.4541 104.637 24.4181 104.401 24.4145C104.055 24.4145 103.866 24.5812 103.866 24.8669Z" fill="#004592"/>
<path d="M106.157 21.9233H106.704V25.5927C106.704 25.6761 106.596 25.7058 106.438 25.7058C106.279 25.7058 106.166 25.6642 106.166 25.5927L106.157 21.9233Z" fill="#004592"/>
<path d="M108.639 23.8371C108.626 23.587 108.665 23.3368 108.755 23.1028C108.844 22.8688 108.983 22.6563 109.16 22.4789C109.338 22.3015 109.551 22.1633 109.786 22.0733C110.021 21.9832 110.272 21.9434 110.523 21.9563C110.856 21.9488 111.185 22.0256 111.48 22.1795C111.558 22.2241 111.588 22.2628 111.504 22.4443C111.42 22.6259 111.384 22.6318 111.307 22.602C111.061 22.4963 110.797 22.4396 110.529 22.4354C110.166 22.452 109.823 22.6075 109.571 22.8693C109.32 23.1312 109.18 23.4794 109.18 23.8416C109.18 24.2037 109.32 24.5519 109.571 24.8138C109.823 25.0756 110.166 25.2311 110.529 25.2477C110.797 25.2439 111.062 25.1862 111.307 25.0781C111.384 25.0483 111.423 25.0483 111.504 25.2328C111.585 25.4173 111.558 25.4501 111.48 25.4917C111.187 25.6504 110.857 25.7303 110.523 25.7239C109.324 25.7298 108.639 24.9174 108.639 23.8371Z" fill="#004592"/>
<path d="M111.893 24.355C111.9 24.0928 111.984 23.8385 112.136 23.6239C112.287 23.4094 112.499 23.2441 112.745 23.1487C112.99 23.0533 113.258 23.0321 113.516 23.0878C113.773 23.1434 114.009 23.2734 114.192 23.4615C114.376 23.6496 114.5 23.8875 114.548 24.1453C114.597 24.4031 114.568 24.6694 114.465 24.9109C114.362 25.1523 114.19 25.3583 113.97 25.5029C113.75 25.6475 113.493 25.7244 113.229 25.7239C113.049 25.7296 112.869 25.6978 112.702 25.6305C112.534 25.5632 112.383 25.4619 112.257 25.3331C112.131 25.2043 112.034 25.0507 111.971 24.8823C111.908 24.7139 111.882 24.5343 111.893 24.355ZM114.03 24.355C114.03 23.855 113.731 23.4354 113.229 23.4354C112.727 23.4354 112.431 23.855 112.431 24.355C112.431 24.8549 112.73 25.2716 113.229 25.2716C113.728 25.2716 114.03 24.8579 114.03 24.355Z" fill="#004592"/>
<path d="M115.002 21.9233H115.543V25.5927C115.543 25.6761 115.436 25.7058 115.277 25.7058C115.119 25.7058 115.002 25.6642 115.002 25.5927V21.9233Z" fill="#004592"/>
<path d="M116.073 21.9233H116.614V25.5927C116.614 25.6761 116.506 25.7058 116.348 25.7058C116.189 25.7058 116.073 25.6642 116.073 25.5927V21.9233Z" fill="#004592"/>
<path d="M117.451 23.5068C117.368 23.5068 117.332 23.4414 117.332 23.2747C117.332 23.1081 117.368 23.0456 117.451 23.0456H118.348C119.018 23.0456 119.296 23.2985 119.296 23.9681V25.593C119.296 25.6763 119.192 25.7061 119.033 25.7061C118.875 25.7061 118.755 25.6644 118.755 25.593C118.489 25.7021 118.205 25.7606 117.918 25.7656C117.795 25.7796 117.671 25.7664 117.554 25.727C117.437 25.6875 117.33 25.6228 117.241 25.5375C117.152 25.4522 117.084 25.3483 117.04 25.2334C116.996 25.1185 116.978 24.9954 116.988 24.8728C116.988 24.2776 117.436 23.9532 118.037 23.9532C118.281 23.959 118.522 23.997 118.755 24.0663V23.9443C118.755 23.6467 118.627 23.5068 118.316 23.5068H117.451ZM117.535 24.8669C117.532 24.9263 117.542 24.9856 117.564 25.0407C117.587 25.0959 117.621 25.1455 117.664 25.1863C117.708 25.227 117.76 25.2579 117.816 25.2767C117.873 25.2956 117.933 25.302 117.993 25.2954C118.257 25.2891 118.518 25.2377 118.764 25.1436V24.5217C118.539 24.4539 118.305 24.4178 118.07 24.4145C117.723 24.4145 117.535 24.5812 117.535 24.8669Z" fill="#004592"/>
<path d="M120.355 25.5927C120.355 25.6761 120.253 25.7058 120.089 25.7058C119.925 25.7058 119.817 25.6761 119.817 25.5927V21.9233H120.355V23.2893C120.567 23.0867 120.851 22.9746 121.145 22.9768C121.961 22.9768 122.385 23.6078 122.385 24.3547C122.385 25.1017 121.895 25.7237 121.213 25.7237C121.055 25.735 120.895 25.7112 120.747 25.6541C120.599 25.597 120.465 25.5079 120.355 25.3934V25.5927ZM121.109 25.2713C121.551 25.2713 121.853 24.8755 121.853 24.3547C121.853 23.8339 121.581 23.4351 121.109 23.4351C120.789 23.4351 120.352 23.6226 120.355 24.3785C120.358 25.1344 120.822 25.2713 121.109 25.2713Z" fill="#004592"/>
<path d="M122.714 24.3549C122.722 24.0921 122.807 23.8373 122.96 23.6225C123.112 23.4077 123.325 23.2425 123.571 23.1476C123.818 23.0526 124.087 23.0321 124.345 23.0887C124.603 23.1453 124.838 23.2764 125.022 23.4656C125.205 23.6548 125.329 23.8937 125.377 24.1524C125.424 24.411 125.394 24.678 125.29 24.9197C125.186 25.1615 125.013 25.3673 124.792 25.5114C124.571 25.6555 124.312 25.7315 124.048 25.7299C123.867 25.7348 123.687 25.7022 123.52 25.6342C123.353 25.5662 123.202 25.4642 123.076 25.3349C122.951 25.2056 122.854 25.0516 122.791 24.8829C122.729 24.7142 122.703 24.5344 122.714 24.3549ZM124.855 24.3549C124.855 23.855 124.556 23.4354 124.054 23.4354C123.551 23.4354 123.255 23.855 123.255 24.3549C123.255 24.8549 123.554 25.2716 124.054 25.2716C124.553 25.2716 124.855 24.8579 124.855 24.3549Z" fill="#004592"/>
<path d="M126.949 23.5066C126.799 23.506 126.655 23.5613 126.544 23.6616C126.433 23.7619 126.364 23.8999 126.351 24.0483V25.5928C126.351 25.6761 126.237 25.7059 126.088 25.7059C125.938 25.7059 125.81 25.6642 125.81 25.5928V23.0513H126.351V23.4173C126.411 23.3053 126.502 23.212 126.612 23.1475C126.722 23.0829 126.848 23.0497 126.976 23.0513H127.466C127.556 23.0513 127.592 23.1019 127.592 23.2834C127.592 23.465 127.556 23.5126 127.466 23.5126L126.949 23.5066Z" fill="#004592"/>
<path d="M128.103 23.5068C128.019 23.5068 127.983 23.4414 127.983 23.2747C127.983 23.1081 128.019 23.0456 128.103 23.0456H129C129.669 23.0456 129.947 23.2985 129.947 23.9681V25.593C129.947 25.6763 129.843 25.7061 129.684 25.7061C129.526 25.7061 129.406 25.6644 129.406 25.593C129.14 25.7021 128.856 25.7606 128.569 25.7656C128.446 25.7802 128.322 25.7673 128.204 25.7281C128.087 25.6889 127.98 25.6242 127.891 25.5387C127.802 25.4533 127.733 25.3492 127.69 25.234C127.646 25.1189 127.629 24.9955 127.639 24.8728C127.639 24.2776 128.088 23.9532 128.689 23.9532C128.932 23.959 129.173 23.997 129.406 24.0663V23.9443C129.406 23.6467 129.278 23.5068 128.967 23.5068H128.103ZM128.186 24.8669C128.183 24.9263 128.193 24.9856 128.216 25.0407C128.238 25.0959 128.272 25.1455 128.316 25.1863C128.359 25.227 128.411 25.2579 128.468 25.2767C128.524 25.2956 128.584 25.302 128.644 25.2954C128.913 25.2879 129.179 25.2335 129.43 25.1347V24.5127C129.205 24.445 128.972 24.4089 128.736 24.4056C128.375 24.4145 128.186 24.5812 128.186 24.8669Z" fill="#004592"/>
<path d="M131.339 23.5066V24.9738C131.339 25.1524 131.413 25.2029 131.572 25.2029H131.934C132.023 25.2029 132.062 25.2565 132.062 25.4351C132.062 25.6136 132.023 25.6613 131.934 25.6613H131.443C131.356 25.672 131.267 25.6627 131.183 25.6339C131.1 25.6052 131.025 25.5578 130.962 25.4955C130.9 25.4331 130.853 25.3574 130.825 25.2742C130.797 25.191 130.789 25.1025 130.8 25.0155V23.5066H130.268V23.0513H130.8V22.2984H131.339V23.0513H131.955C132.038 23.0513 132.077 23.1227 132.077 23.2834C132.077 23.4441 132.038 23.5126 131.955 23.5126L131.339 23.5066Z" fill="#004592"/>
<path d="M132.843 21.8817C132.912 21.8811 132.98 21.9011 133.038 21.9391C133.096 21.9772 133.142 22.0315 133.169 22.0953C133.195 22.159 133.203 22.2293 133.189 22.2971C133.176 22.3649 133.142 22.4272 133.093 22.4761C133.044 22.525 132.982 22.5582 132.913 22.5715C132.845 22.5849 132.775 22.5777 132.711 22.551C132.647 22.5243 132.592 22.4792 132.554 22.4215C132.516 22.3638 132.496 22.296 132.496 22.2269C132.496 22.1354 132.533 22.0475 132.598 21.9828C132.663 21.9181 132.751 21.8817 132.843 21.8817ZM132.568 22.9917H133.109V25.5928C133.109 25.6761 133.004 25.7059 132.846 25.7059C132.687 25.7059 132.568 25.6761 132.568 25.5928V22.9917Z" fill="#004592"/>
<path d="M133.616 24.355C133.623 24.0928 133.708 23.8385 133.859 23.6239C134.011 23.4094 134.222 23.2441 134.468 23.1487C134.713 23.0533 134.982 23.0321 135.239 23.0878C135.497 23.1434 135.732 23.2734 135.916 23.4615C136.099 23.6496 136.223 23.8875 136.272 24.1453C136.32 24.4031 136.291 24.6694 136.189 24.9109C136.086 25.1523 135.914 25.3583 135.694 25.5029C135.474 25.6475 135.216 25.7244 134.953 25.7239C134.772 25.7292 134.593 25.6971 134.426 25.6296C134.259 25.5621 134.107 25.4608 133.982 25.3321C133.856 25.2034 133.759 25.05 133.696 24.8818C133.633 24.7136 133.606 24.5342 133.616 24.355ZM135.757 24.355C135.769 24.2412 135.757 24.1262 135.723 24.0172C135.688 23.9081 135.631 23.8073 135.556 23.7211C135.48 23.6348 135.388 23.5649 135.284 23.5158C135.18 23.4666 135.067 23.4393 134.953 23.4354C134.447 23.4354 134.157 23.855 134.157 24.355C134.157 24.8549 134.456 25.2716 134.953 25.2716C135.068 25.2689 135.181 25.2426 135.285 25.1941C135.39 25.1456 135.483 25.076 135.559 24.9898C135.635 24.9037 135.692 24.8027 135.726 24.6934C135.761 24.5842 135.772 24.4689 135.76 24.355H135.757Z" fill="#004592"/>
<path d="M136.721 23.0514H137.241V23.3103C137.345 23.2013 137.471 23.1156 137.61 23.0592C137.75 23.0027 137.901 22.9767 138.051 22.9829C138.178 22.9795 138.305 23.0022 138.422 23.0495C138.54 23.0969 138.647 23.1679 138.736 23.2581C138.825 23.3483 138.894 23.4557 138.939 23.5738C138.985 23.6918 139.005 23.8179 138.999 23.9442V25.5929C138.999 25.6762 138.892 25.706 138.733 25.706C138.575 25.706 138.458 25.6762 138.458 25.5929V23.8906C138.458 23.5692 138.159 23.4353 137.86 23.4353C137.561 23.4353 137.262 23.6079 137.262 23.7865V25.5929C137.262 25.6762 137.154 25.706 136.996 25.706C136.837 25.706 136.721 25.6762 136.721 25.5929V23.0514Z" fill="#004592"/>
</svg>
