<svg width="216" height="42" viewBox="0 0 216 42" fill="none" xmlns="http://www.w3.org/2000/svg">
<path d="M172.748 8.48384C175 8.48384 176.826 6.58467 176.826 4.24192C176.826 1.89917 175 0 172.748 0C170.496 0 168.67 1.89917 168.67 4.24192C168.67 6.58467 170.496 8.48384 172.748 8.48384Z" fill="url(#paint0_linear_106_199)"/>
<path d="M166.033 6.42817C167.021 8.17207 168.543 9.52067 170.355 10.2581C172.167 10.9954 174.165 11.0789 176.028 10.4951L182.975 8.30858C183.336 8.23139 183.712 8.29301 184.033 8.48197C184.354 8.67094 184.598 8.97443 184.72 9.33626L184.867 9.8064C184.988 10.1705 184.976 10.5682 184.832 10.9233C184.689 11.2784 184.424 11.5658 184.089 11.7305L178.603 14.4747C176.811 15.3657 175.367 16.8681 174.51 18.732C173.653 20.5958 173.436 22.7086 173.895 24.7187L175.145 31.2237C175.503 33.1807 174.809 34.0772 173.632 34.3068C173.024 34.4538 172.385 34.3621 171.838 34.0494C171.291 33.7367 170.874 33.2249 170.668 32.6122C170.668 32.6122 169.333 28.6545 168.671 26.1946C168.265 24.9992 167.49 23.9769 166.467 23.2868C165.445 22.5968 164.232 22.2777 163.017 22.3791L160.368 22.7289C159.869 22.8213 159.354 22.7355 158.908 22.4854C158.462 22.2354 158.109 21.8358 157.909 21.3514V21.3514C157.654 20.7285 157.638 20.0277 157.865 19.3932C158.092 18.7587 158.544 18.2388 159.128 17.9404C159.229 17.8908 159.335 17.8505 159.443 17.8201C160.101 17.7126 160.726 17.4511 161.273 17.0553C161.819 16.6594 162.271 16.1396 162.596 15.5352C163.49 13.5891 163.059 11.2604 162.386 8.69123L161.114 3.76057C161.017 3.38512 161.059 2.98559 161.23 2.63994C161.401 2.29428 161.689 2.02727 162.039 1.89104V1.89104C162.346 1.76783 162.684 1.75356 162.999 1.85044C163.315 1.94732 163.59 2.14994 163.784 2.42677L166.033 6.42817Z" fill="url(#paint1_linear_106_199)"/>
<path d="M210.639 25.7335L209.63 21.5353L205.415 20.5186L209.63 19.5018L210.639 15.3146L211.658 19.5018L215.862 20.5186L211.658 21.5353L210.639 25.7335Z" fill="#FFC20F"/>
<path d="M201.996 27.485C182.9 37.4447 165.432 41.4133 162.983 36.3405C162.205 34.7225 163.057 32.3719 165.201 29.595C161.522 33.498 159.83 37.0293 160.997 39.358C163.361 44.2559 177.371 41.9272 192.296 34.154C197.021 31.6991 201.514 28.7892 205.717 25.4624C204.519 26.1512 203.268 26.8181 201.996 27.485Z" fill="#FFC20F"/>
<path d="M11.4364 13.0678C12.3239 13.2595 13.1784 13.5901 13.9705 14.0483C14.5921 14.4229 15.142 14.9133 15.593 15.4949C15.9589 15.9761 16.2413 16.52 16.4274 17.1022C16.597 17.7133 16.6803 18.3468 16.6746 18.9828C16.7067 19.9025 16.532 20.8172 16.1645 21.6543C15.797 22.4914 15.2468 23.2278 14.5577 23.8048C12.766 25.1455 10.5782 25.7884 8.37694 25.6211C7.14054 25.6399 5.90776 25.4776 4.71485 25.1389C3.7697 24.879 2.87549 24.4493 2.07257 23.8691C1.45066 23.4174 0.924705 22.8375 0.527383 22.1653C0.20547 21.6177 0.029472 20.9908 0.0174679 20.3491C0.00590587 20.0869 0.0481544 19.8251 0.141404 19.5812C0.234654 19.3374 0.376764 19.1169 0.558282 18.9346C0.740026 18.7514 0.955618 18.6086 1.192 18.5147C1.42839 18.4207 1.68065 18.3776 1.9335 18.3881C2.33485 18.3694 2.73104 18.488 3.06149 18.7256C3.43517 19.05 3.7675 19.4227 4.05041 19.8347C4.27054 20.1487 4.50786 20.4492 4.7612 20.7348C4.99411 21.0059 5.26499 21.2389 5.56469 21.426C5.93521 21.6566 6.33601 21.8298 6.7545 21.9403C7.28788 22.092 7.83959 22.1624 8.39239 22.1493C9.35221 22.2026 10.3008 21.9135 11.081 21.3296C11.3812 21.1128 11.6274 20.8247 11.7994 20.4893C11.9713 20.1539 12.0641 19.7808 12.07 19.4007C12.0678 18.929 11.9157 18.4712 11.6373 18.0988C11.2265 17.6425 10.6841 17.3379 10.0921 17.2308L4.93117 15.8646C4.07336 15.6396 3.24743 15.2993 2.47431 14.852C1.8706 14.5178 1.34349 14.0517 0.929124 13.4857C0.580761 13.0092 0.333271 12.4615 0.202895 11.8784C0.0697406 11.2992 0.00231464 10.7058 0.00201271 10.1103C-0.0208464 9.1004 0.213732 8.1022 0.6819 7.21714C1.13163 6.41805 1.75634 5.74065 2.50522 5.2401C3.29369 4.71479 4.16045 4.32917 5.07023 4.0989C6.0264 3.85876 7.00701 3.74002 7.99064 3.74529C8.90256 3.74694 9.81079 3.86572 10.6947 4.0989C11.5826 4.32952 12.4391 4.6751 13.2443 5.12757C13.9544 5.52994 14.5797 6.07652 15.0831 6.73491C15.5126 7.27327 15.7525 7.94811 15.763 8.64764C15.7754 8.91061 15.7255 9.17271 15.6177 9.41094C15.51 9.64917 15.3476 9.85623 15.1449 10.0139C14.7082 10.3774 14.1581 10.5605 13.5997 10.5282C13.2609 10.5425 12.9261 10.447 12.6417 10.255C12.3135 10 12.0176 9.70302 11.7609 9.37096C11.2851 8.80266 10.7273 8.31466 10.1076 7.92437C9.32612 7.54386 8.46563 7.37253 7.60434 7.42605C6.75163 7.37219 5.90531 7.60923 5.19385 8.10115C4.92082 8.30272 4.69927 8.57063 4.54846 8.88157C4.39765 9.19252 4.32216 9.53706 4.32855 9.88527C4.32796 10.1804 4.40551 10.4701 4.55269 10.7224C4.69988 10.9747 4.91101 11.1801 5.16295 11.3158C5.88459 11.6991 6.6544 11.9751 7.44983 12.1356L11.4364 13.0678Z" fill="#535CA8"/>
<path d="M19.933 6.70304C19.8981 6.31835 19.942 5.93032 20.0619 5.56459C20.1818 5.19886 20.3748 4.86375 20.6283 4.58134C21.2474 4.09319 22.0172 3.85866 22.7916 3.92233C23.2469 3.89146 23.7015 3.99223 24.1051 4.2135C24.5087 4.43478 24.8456 4.76792 25.0785 5.17605L33.0671 18.5652V6.20477C33.1134 5.63043 33.3655 5.09515 33.7733 4.705C34.1811 4.31486 34.715 4.09833 35.269 4.09833C35.8231 4.09833 36.3569 4.31486 36.7648 4.705C37.1726 5.09515 37.4246 5.63043 37.4709 6.20477V22.5674C37.5278 23.3576 37.3022 24.1418 36.8374 24.7695C36.5633 25.0406 36.237 25.2481 35.8801 25.3784C35.5231 25.5086 35.1437 25.5586 34.7668 25.5249C34.2404 25.5475 33.715 25.4601 33.2216 25.2678C32.8228 25.0211 32.4968 24.6653 32.2791 24.2391L24.3523 11.2197V23.2265C24.3523 23.8318 24.1211 24.4123 23.7096 24.8404C23.2981 25.2684 22.74 25.5088 22.1581 25.5088C21.5762 25.5088 21.0181 25.2684 20.6066 24.8404C20.1951 24.4123 19.9639 23.8318 19.9639 23.2265L19.933 6.70304Z" fill="#535CA8"/>
<path d="M41.6613 6.30034C41.6481 5.98383 41.6975 5.66786 41.8065 5.37203C41.9155 5.0762 42.0817 4.80679 42.2948 4.58048C42.5134 4.36032 42.7726 4.18845 43.0567 4.07519C43.3409 3.96194 43.6441 3.90965 43.9481 3.92146C44.2538 3.90012 44.5602 3.94701 44.847 4.05901C45.1338 4.171 45.3942 4.34551 45.6108 4.57081C45.8274 4.79612 45.9951 5.06701 46.1028 5.36531C46.2105 5.66361 46.2555 5.98243 46.235 6.30034V17.6964C46.1899 18.2626 46.2617 18.8323 46.4456 19.3674C46.6295 19.9024 46.9212 20.3903 47.3012 20.7985C48.2046 21.4642 49.2845 21.8217 50.3916 21.8217C51.4987 21.8217 52.5785 21.4642 53.482 20.7985C53.862 20.3903 54.1537 19.9024 54.3376 19.3674C54.5214 18.8323 54.5932 18.2626 54.5482 17.6964V6.30034C54.535 5.98383 54.5844 5.66786 54.6934 5.37203C54.8024 5.0762 54.9685 4.80679 55.1817 4.58048C55.4003 4.36032 55.6595 4.18845 55.9436 4.07519C56.2277 3.96194 56.531 3.90965 56.835 3.92146C57.1406 3.90012 57.4471 3.94701 57.7339 4.05901C58.0207 4.171 58.2811 4.34551 58.4977 4.57081C58.7142 4.79612 58.882 5.06701 58.9897 5.36531C59.0973 5.66361 59.1424 5.98243 59.1219 6.30034V17.3427C59.2053 18.4947 59.0421 19.6515 58.644 20.7299C58.2458 21.8083 57.6228 22.7814 56.8196 23.5792C54.9332 24.9297 52.6971 25.6528 50.407 25.6528C48.117 25.6528 45.8809 24.9297 43.9945 23.5792C43.1913 22.7814 42.5682 21.8083 42.1701 20.7299C41.772 19.6515 41.6088 18.4947 41.6922 17.3427L41.6613 6.30034Z" fill="#535CA8"/>
<path d="M63.3077 10.5126C63.6999 9.23131 64.3357 8.04514 65.1774 7.02462C66.0218 6.00319 67.0786 5.19517 68.2678 4.66183C69.5915 4.07804 71.0177 3.7879 72.4553 3.80994C73.6035 3.79349 74.7466 3.9727 75.8392 4.34039C76.769 4.65196 77.6414 5.12473 78.4197 5.73877C79.0359 6.22948 79.5598 6.83436 79.9649 7.52294C80.2972 8.03784 80.4845 8.63908 80.5057 9.25884C80.5441 9.54895 80.5174 9.84437 80.4278 10.122C80.3381 10.3995 80.1878 10.6517 79.9887 10.8588C79.7896 11.0659 79.5472 11.2222 79.2803 11.3155C79.0135 11.4088 78.7295 11.4365 78.4506 11.3966C78.0079 11.4219 77.5706 11.2855 77.2144 11.0108C76.8412 10.6619 76.5092 10.268 76.2255 9.83746C75.8063 9.21047 75.2831 8.66618 74.6803 8.23012C73.9801 7.80338 73.172 7.60729 72.3626 7.66759C71.6416 7.66322 70.9296 7.83382 70.2832 8.16586C69.6367 8.4979 69.0736 8.98223 68.6386 9.58033C67.5524 11.0617 67.0051 12.8951 67.0935 14.756C67.0849 15.6811 67.1835 16.6039 67.387 17.5045C67.5791 18.3115 67.9032 19.0781 68.3451 19.7708C68.772 20.421 69.3518 20.9466 70.0293 21.2978C70.7947 21.681 71.6371 21.8683 72.4862 21.8443C73.2284 21.8967 73.9652 21.681 74.5722 21.2335C75.1656 20.7299 75.686 20.1398 76.1174 19.4815C76.4094 19.0287 76.7517 18.6133 77.1372 18.2438C77.4331 17.98 77.8139 17.8422 78.2034 17.8581C78.754 17.8484 79.294 18.0169 79.7486 18.3403C79.9554 18.4895 80.124 18.6891 80.2398 18.9216C80.3556 19.1541 80.4151 19.4126 80.413 19.6744C80.4032 20.4459 80.1952 21.2007 79.8104 21.8604C79.3632 22.6211 78.7812 23.2865 78.0952 23.8213C77.3254 24.4191 76.4632 24.8757 75.5456 25.1715C74.5492 25.5145 73.5048 25.6829 72.4553 25.6697C71.11 25.7577 69.7619 25.5546 68.4959 25.0733C67.23 24.5919 66.0737 23.8427 65.1002 22.873C64.1726 21.7655 63.4644 20.4783 63.0162 19.0854C62.5681 17.6924 62.3889 16.2211 62.4888 14.756C62.5382 13.3046 62.8148 11.8713 63.3077 10.5126Z" fill="#33ABDD"/>
<path d="M82.7924 14.4178C83.105 13.4903 83.5937 12.6375 84.2295 11.9104C85.7499 10.4417 87.7481 9.62552 89.8231 9.62552C91.898 9.62552 93.8961 10.4417 95.4166 11.9104C96.0524 12.6375 96.5411 13.4903 96.8537 14.4178C97.1826 15.4269 97.3446 16.4867 97.3327 17.5522C97.3416 18.5967 97.2009 19.6368 96.9155 20.6382C96.6549 21.5603 96.2188 22.4185 95.633 23.1618C94.9948 23.9236 94.189 24.5136 93.2843 24.8816C91.0539 25.7282 88.6077 25.7282 86.3773 24.8816C85.4754 24.5081 84.6708 23.9189 84.0286 23.1618C83.4351 22.4154 82.9935 21.5514 82.7306 20.6222C82.4452 19.6207 82.3046 18.5806 82.3134 17.5361C82.3033 16.476 82.4652 15.4218 82.7924 14.4178ZM87.2426 21.024C87.5413 21.446 87.9311 21.789 88.3807 22.0255C88.8303 22.2619 89.327 22.3851 89.8308 22.3851C90.3345 22.3851 90.8313 22.2619 91.2808 22.0255C91.7304 21.789 92.1203 21.446 92.419 21.024C93.0217 19.9777 93.3172 18.7709 93.2688 17.5522C93.3299 16.3249 93.0279 15.1075 92.4035 14.0642C92.116 13.6351 91.7284 13.289 91.277 13.0584C90.8256 12.8279 90.3253 12.7205 89.8231 12.7463C89.3227 12.7186 88.824 12.8253 88.3748 13.0562C87.9256 13.287 87.541 13.6341 87.258 14.0642C86.6282 15.1057 86.3208 16.3232 86.3773 17.5522C86.3215 18.7717 86.6175 19.9807 87.2271 21.024H87.2426Z" fill="#33ABDD"/>
<path d="M99.9445 11.7335C99.9206 11.1754 100.103 10.629 100.454 10.2065C100.835 9.83469 101.338 9.62777 101.86 9.62777C102.383 9.62777 102.886 9.83469 103.267 10.2065C103.618 10.629 103.8 11.1754 103.777 11.7335V12.296C104.292 11.463 105.005 10.7822 105.847 10.319C106.72 9.84975 107.692 9.61233 108.675 9.62787C109.478 9.62802 110.267 9.84986 110.962 10.2708C111.685 10.7409 112.231 11.4561 112.507 12.296C113.038 11.4842 113.734 10.8038 114.547 10.3029C115.565 9.77843 116.701 9.55219 117.833 9.64847C118.966 9.74474 120.052 10.1599 120.975 10.8494C121.472 11.3509 121.855 11.9622 122.096 12.6381C122.337 13.314 122.429 14.0375 122.365 14.7553V23.4027C122.408 23.9798 122.243 24.5527 121.902 25.01C121.46 25.3672 120.916 25.561 120.356 25.561C119.797 25.561 119.253 25.3672 118.811 25.01C118.482 24.5471 118.323 23.977 118.363 23.4027V15.8161C118.392 15.1187 118.202 14.4304 117.822 13.8551C117.62 13.5981 117.362 13.3954 117.069 13.2639C116.776 13.1325 116.456 13.0761 116.138 13.0997C115.749 13.0966 115.363 13.1763 115.004 13.3338C114.645 13.4913 114.321 13.7234 114.052 14.0159C113.762 14.3284 113.535 14.699 113.387 15.1051C113.238 15.5112 113.17 15.9444 113.187 16.3787V23.4027C113.229 23.9798 113.064 24.5527 112.723 25.01C112.282 25.3698 111.738 25.5654 111.178 25.5654C110.618 25.5654 110.074 25.3698 109.633 25.01C109.304 24.5471 109.145 23.977 109.185 23.4027V15.8161C109.214 15.1187 109.024 14.4304 108.644 13.8551C108.442 13.5981 108.183 13.3954 107.89 13.2639C107.597 13.1325 107.278 13.0761 106.96 13.0997C106.57 13.0966 106.184 13.1763 105.826 13.3338C105.467 13.4913 105.143 13.7234 104.874 14.0159C104.583 14.3284 104.357 14.699 104.208 15.1051C104.06 15.5112 103.992 15.9444 104.008 16.3787V23.4027C104.051 23.9798 103.886 24.5527 103.545 25.01C103.103 25.3672 102.559 25.561 102 25.561C101.44 25.561 100.896 25.3672 100.454 25.01C100.125 24.5471 99.9663 23.977 100.006 23.4027L99.9445 11.7335Z" fill="#33ABDD"/>
<path d="M125.721 11.7338C125.697 11.1758 125.879 10.6294 126.231 10.2069C126.411 10.0105 126.63 9.85713 126.873 9.75725C127.116 9.65736 127.376 9.61338 127.637 9.62824C127.897 9.61444 128.158 9.65894 128.4 9.75877C128.643 9.85859 128.862 10.0114 129.043 10.2069C129.394 10.6294 129.577 11.1758 129.553 11.7338V12.2964C130.065 11.4601 130.779 10.7783 131.623 10.3194C132.496 9.84629 133.468 9.60864 134.451 9.62824C135.25 9.62815 136.034 9.85011 136.723 10.2712C137.478 10.7239 138.053 11.4419 138.345 12.2964C138.872 11.4811 139.57 10.7999 140.385 10.3033C141.23 9.83435 142.178 9.60176 143.135 9.62824C144.458 9.55944 145.76 9.99361 146.797 10.8498C147.295 11.3513 147.678 11.9625 147.919 12.6385C148.16 13.3144 148.251 14.0379 148.188 14.7556V23.4031C148.228 23.9773 148.069 24.5475 147.74 25.0104C147.298 25.3675 146.754 25.5614 146.195 25.5614C145.635 25.5614 145.091 25.3675 144.649 25.0104C144.308 24.5531 144.143 23.9802 144.186 23.4031V15.8164C144.222 15.1182 144.032 14.4276 143.645 13.8555C143.445 13.5964 143.186 13.3922 142.893 13.2605C142.599 13.1288 142.279 13.0738 141.961 13.1C141.574 13.0982 141.191 13.1785 140.835 13.336C140.479 13.4936 140.157 13.725 139.89 14.0162C139.597 14.3274 139.368 14.6974 139.217 15.1036C139.065 15.5097 138.995 15.9437 139.009 16.379V23.4031C139.057 23.9781 138.897 24.5508 138.561 25.0104C138.121 25.3702 137.576 25.5657 137.016 25.5657C136.456 25.5657 135.912 25.3702 135.471 25.0104C135.13 24.5531 134.965 23.9802 135.007 23.4031V15.8164C135.044 15.1182 134.853 14.4276 134.467 13.8555C134.266 13.5964 134.008 13.3922 133.715 13.2605C133.421 13.1288 133.101 13.0738 132.782 13.1C132.395 13.0982 132.012 13.1785 131.656 13.336C131.3 13.4936 130.979 13.725 130.712 14.0162C130.419 14.3274 130.19 14.6974 130.038 15.1036C129.887 15.5097 129.816 15.9437 129.831 16.379V23.4031C129.878 23.9781 129.718 24.5508 129.383 25.0104C128.941 25.3675 128.397 25.5614 127.838 25.5614C127.278 25.5614 126.734 25.3675 126.293 25.0104C125.957 24.5508 125.797 23.9781 125.844 23.4031L125.721 11.7338Z" fill="#33ABDD"/>
<path d="M2.73642 36.4059C2.72612 36.6212 2.78009 36.8345 2.89094 37.0167C2.98824 37.1853 3.12689 37.324 3.29269 37.4185C3.45986 37.5172 3.64327 37.5826 3.83351 37.6114C4.04402 37.6359 4.25651 37.6359 4.46703 37.6114C4.83365 37.6313 5.19813 37.5421 5.51776 37.3542C5.64073 37.2904 5.74377 37.1915 5.81488 37.0692C5.886 36.9469 5.92228 36.806 5.91951 36.6631C5.9257 36.5554 5.90639 36.4478 5.86329 36.3498C5.82018 36.2517 5.75459 36.1661 5.67227 36.1005C5.44185 35.9536 5.18353 35.8603 4.91513 35.8273L3.69443 35.6183C3.50492 35.5891 3.3186 35.5406 3.13816 35.4736C2.96089 35.4244 2.79346 35.3428 2.6437 35.2326C2.47335 35.1299 2.33415 34.9795 2.24196 34.7985C2.14399 34.5942 2.09621 34.3678 2.10289 34.1396C2.09617 33.9008 2.14458 33.6637 2.24405 33.4484C2.34352 33.233 2.49117 33.0457 2.67461 32.9019C3.12775 32.5785 3.67109 32.4202 4.2198 32.4518C4.49998 32.4452 4.77997 32.4722 5.05421 32.5322C5.30341 32.5922 5.54287 32.6896 5.76499 32.8215C5.97671 32.9612 6.15612 33.1478 6.29035 33.368C6.43393 33.6219 6.51365 33.9094 6.52213 34.2038H5.71864C5.70117 34.0755 5.66468 33.9509 5.61048 33.8342C5.55692 33.7061 5.47159 33.5951 5.36324 33.5127C5.22522 33.389 5.06112 33.3009 4.88424 33.2555C4.63252 33.1848 4.3723 33.1523 4.11164 33.1591C3.96265 33.1435 3.81253 33.1435 3.66353 33.1591C3.52179 33.1884 3.38591 33.2428 3.26178 33.3198C3.14746 33.3908 3.05188 33.4902 2.98365 33.6091C2.90198 33.7318 2.8588 33.8778 2.86003 34.027C2.86003 34.1144 2.87959 34.2005 2.91713 34.2786C2.95468 34.3568 3.0092 34.4247 3.07637 34.4771C3.27096 34.6381 3.50815 34.7334 3.75624 34.7503L5.06965 34.9915L5.56411 35.12C5.74277 35.1641 5.91447 35.2345 6.07403 35.329C6.24416 35.4428 6.39116 35.5902 6.50668 35.7629C6.62441 35.9664 6.68342 36.2007 6.67665 36.4381C6.68691 36.7359 6.61737 37.0308 6.47578 37.2899C6.35006 37.5256 6.16939 37.7245 5.95041 37.8686C5.72 38.01 5.46975 38.113 5.20872 38.174C4.92972 38.2386 4.6447 38.2709 4.35886 38.2704C4.04745 38.2717 3.73675 38.2394 3.43175 38.174C3.15643 38.1119 2.89451 37.9975 2.65916 37.8364C2.41921 37.6901 2.22168 37.479 2.08743 37.2256C1.94382 36.9325 1.87468 36.6061 1.88656 36.2773L2.73642 36.4059Z" fill="#535CA8"/>
<path d="M7.92756 36.4384C7.93861 36.6304 7.99144 36.8173 8.08207 36.9849C8.1694 37.145 8.28469 37.2868 8.42202 37.4028C8.55961 37.5144 8.71719 37.5964 8.88557 37.6439C9.04308 37.7082 9.21084 37.7409 9.38003 37.7404C9.62415 37.7453 9.86648 37.696 10.0908 37.5957C10.2133 37.5304 10.3275 37.4494 10.4308 37.3546C10.5288 37.253 10.6074 37.133 10.6625 37.001H11.466C11.379 37.2276 11.2591 37.4389 11.1106 37.6278C10.9634 37.8037 10.7915 37.9554 10.6007 38.0779C10.4231 38.1882 10.2303 38.2695 10.029 38.319C9.8317 38.3694 9.62953 38.3964 9.42638 38.3994C9.08913 38.4037 8.75398 38.3437 8.43746 38.2225C8.16209 38.1239 7.91318 37.9587 7.71123 37.7404C7.51168 37.553 7.36254 37.3148 7.27857 37.0492C7.07186 36.5016 7.07186 35.893 7.27857 35.3454C7.36891 35.0831 7.5171 34.8463 7.71123 34.6543C7.91318 34.436 8.16209 34.2707 8.43746 34.1721C8.75398 34.0509 9.08913 33.991 9.42638 33.9952C9.69382 33.9961 9.95957 34.0395 10.2144 34.1239C10.4652 34.2154 10.6963 34.3574 10.8943 34.5418C11.1166 34.7342 11.287 34.9835 11.3888 35.265C11.5181 35.6022 11.5812 35.9629 11.5742 36.3259V36.4384H7.92756ZM10.7707 35.8276C10.7249 35.4886 10.5597 35.1793 10.3071 34.9597C10.0378 34.7567 9.71261 34.6496 9.38003 34.6543C9.04041 34.6507 8.70915 34.7637 8.43746 34.9757C8.307 35.0773 8.19741 35.205 8.11514 35.3513C8.03287 35.4976 7.9796 35.6596 7.95846 35.8276H10.7707Z" fill="#535CA8"/>
<path d="M12.3017 35.3454C12.4034 35.0852 12.556 34.8498 12.7499 34.6543C12.9488 34.4399 13.1918 34.275 13.4606 34.1721C13.7828 34.0521 14.1228 33.9922 14.465 33.9952C14.8023 33.991 15.1374 34.0509 15.4539 34.1721C15.7274 34.2749 15.9754 34.4395 16.1802 34.6543C16.3695 34.8504 16.5169 35.086 16.6128 35.3454C16.7977 35.8971 16.7977 36.4976 16.6128 37.0492C16.5205 37.3106 16.3726 37.5468 16.1802 37.7404C15.9754 37.9551 15.7274 38.1198 15.4539 38.2225C15.1374 38.3437 14.8023 38.4037 14.465 38.3994C14.1228 38.4024 13.7828 38.3426 13.4606 38.2225C13.1918 38.1196 12.9488 37.9548 12.7499 37.7404C12.5527 37.5477 12.3995 37.3116 12.3017 37.0492C12.1169 36.4976 12.1169 35.8971 12.3017 35.3454V35.3454ZM15.8711 35.6348C15.8147 35.4529 15.7255 35.2838 15.6085 35.1365C15.4803 34.9852 15.3221 34.8646 15.1449 34.7829C14.9281 34.6957 14.6974 34.652 14.465 34.6543C14.2325 34.6504 14.0015 34.6941 13.7851 34.7829C13.6033 34.8643 13.4401 34.9848 13.3061 35.1365C13.1948 35.2878 13.1062 35.4558 13.0434 35.6348C12.9404 36.0021 12.9404 36.3925 13.0434 36.7599C13.1019 36.9409 13.1908 37.1096 13.3061 37.2582C13.438 37.4052 13.5953 37.5251 13.7697 37.6117C13.9919 37.6987 14.2276 37.7423 14.465 37.7404C14.6974 37.7426 14.9281 37.6989 15.1449 37.6117C15.3221 37.53 15.4803 37.4094 15.6085 37.2582C15.7286 37.1131 15.8181 36.9433 15.8711 36.7599C15.9742 36.3925 15.9742 36.0021 15.8711 35.6348V35.6348Z" fill="#535CA8"/>
<path d="M21.4806 38.2384H20.7234V37.6115C20.5618 37.8723 20.331 38.0789 20.059 38.2063C19.7791 38.3235 19.48 38.3835 19.1783 38.3831C18.7504 38.4029 18.3278 38.2789 17.973 38.0294C17.817 37.8966 17.6947 37.7261 17.6166 37.5328C17.5385 37.3395 17.507 37.1292 17.5249 36.9204V34.1236H18.2666V36.7757C18.2611 36.909 18.2846 37.0419 18.3354 37.1644C18.3863 37.2868 18.4631 37.3958 18.5602 37.483C18.8184 37.6662 19.1294 37.7514 19.4409 37.724C19.7764 37.7315 20.104 37.6179 20.368 37.4026C20.4911 37.2913 20.5883 37.1526 20.6525 36.9967C20.7168 36.8408 20.7463 36.6719 20.7389 36.5025V34.1236H21.496L21.4806 38.2384Z" fill="#535CA8"/>
<path d="M22.4062 32.5965H23.148V38.2383H22.4062V32.5965Z" fill="#535CA8"/>
<path d="M27.5535 33.8021V38.2384H26.75V32.6288H27.6771L31.1383 37.0972V32.6288H31.9418V38.2384H31.0147L27.5535 33.8021Z" fill="#535CA8"/>
<path d="M33.0231 35.4259C33.029 35.2116 33.0823 35.0015 33.1787 34.812C33.2752 34.6225 33.4123 34.4586 33.5793 34.3329C34.0064 34.0802 34.4951 33.9628 34.9855 33.9954C35.2012 33.9717 35.4187 33.9717 35.6344 33.9954C35.8333 34.0201 36.0266 34.0799 36.2062 34.1722C36.3776 34.2487 36.5268 34.3706 36.6388 34.5258C36.7472 34.6971 36.8013 34.8995 36.7933 35.1044V37.3226C36.7885 37.3703 36.7939 37.4185 36.8093 37.4637C36.8246 37.5089 36.8495 37.5499 36.8821 37.5838C36.9147 37.6177 36.9542 37.6436 36.9976 37.6596C37.0411 37.6756 37.0874 37.6813 37.1333 37.6762H37.396V38.2388C37.2006 38.2566 37.0041 38.2566 36.8088 38.2388C36.6452 38.2471 36.4831 38.2021 36.3452 38.1102C36.2789 38.057 36.225 37.9888 36.1876 37.9109C36.1501 37.833 36.1301 37.7473 36.1289 37.6602C35.951 37.8957 35.7085 38.0694 35.4336 38.1584C35.1154 38.273 34.7813 38.3327 34.4446 38.3352C34.1832 38.3374 33.9229 38.2995 33.6721 38.2227C33.4825 38.1613 33.3083 38.057 33.1621 37.9173C33.0522 37.8103 32.9675 37.6783 32.9149 37.5315C32.8929 37.3878 32.8929 37.2413 32.9149 37.0976C32.907 36.9289 32.9379 36.7606 33.0051 36.6069C33.0723 36.4531 33.1738 36.3182 33.3012 36.2135C33.7005 35.9691 34.1517 35.831 34.6146 35.8117L35.4799 35.7152C35.662 35.7131 35.8414 35.6693 36.0053 35.5867C36.0629 35.5466 36.1091 35.4911 36.139 35.426C36.1689 35.361 36.1814 35.2888 36.1753 35.217C36.1777 35.0973 36.1454 34.9797 36.0825 34.8794C36.0141 34.7936 35.9301 34.7226 35.8353 34.6705C35.7217 34.6214 35.6021 34.5889 35.4799 34.574H35.0318C34.7272 34.5586 34.4239 34.6251 34.1511 34.7669C34.0433 34.8274 33.9542 34.9184 33.8941 35.0293C33.8339 35.1402 33.8052 35.2666 33.8111 35.3938L33.0231 35.4259ZM36.1134 36.101C36.0449 36.1713 35.9595 36.2212 35.8662 36.2457L35.3718 36.3421L34.5065 36.4546C34.2691 36.4786 34.0383 36.5494 33.8266 36.6636C33.7563 36.7166 33.6997 36.787 33.662 36.8683C33.6242 36.9496 33.6065 37.0395 33.6102 37.1297C33.6117 37.2265 33.6366 37.3214 33.6825 37.4057C33.7284 37.4899 33.7938 37.5608 33.8729 37.6119C34.0733 37.7365 34.3041 37.798 34.5374 37.7887C34.7406 37.7878 34.9431 37.7608 35.14 37.7084C35.3143 37.6509 35.4805 37.5698 35.6344 37.4672C35.7743 37.3737 35.8908 37.247 35.9744 37.0976C36.0643 36.96 36.1127 36.7977 36.1134 36.6314V36.101Z" fill="#535CA8"/>
<path d="M38.2457 32.8703H39.0029V34.1401H40.1308V34.7509H39.0029V37.2905C38.9957 37.3562 39.0064 37.4226 39.0337 37.4822C39.061 37.5419 39.1039 37.5924 39.1574 37.628C39.297 37.7143 39.4589 37.7536 39.6209 37.7405C39.7903 37.7605 39.9614 37.7605 40.1308 37.7405V38.3996C39.8535 38.4299 39.5738 38.4299 39.2964 38.3996C39.1552 38.4143 39.0125 38.3991 38.8771 38.3549C38.7417 38.3107 38.6162 38.2384 38.5084 38.1424C38.419 38.0472 38.3495 37.9338 38.3043 37.8093C38.2591 37.6848 38.2391 37.5519 38.2457 37.4191V34.7509H37.4268V34.1401H38.2457V32.8703Z" fill="#535CA8"/>
<path d="M40.7036 32.5965H41.4607V33.4163H40.7036V32.5965ZM40.7036 34.2039H41.4607V38.2383H40.7036V34.2039Z" fill="#535CA8"/>
<path d="M42.3555 35.3453C42.4458 35.083 42.594 34.8462 42.7881 34.6542C42.9901 34.4359 43.239 34.2706 43.5144 34.172C43.8312 34.0522 44.1661 33.9923 44.5033 33.9951C44.8455 33.9921 45.1855 34.052 45.5077 34.172C45.7765 34.2749 46.0195 34.4397 46.2184 34.6542C46.4126 34.8462 46.5608 35.083 46.6511 35.3453C46.8578 35.8929 46.8578 36.5015 46.6511 37.0491C46.5671 37.3147 46.418 37.5529 46.2184 37.7403C46.0195 37.9547 45.7765 38.1195 45.5077 38.2224C45.1855 38.3424 44.8455 38.4023 44.5033 38.3993C44.1661 38.4021 43.8312 38.3422 43.5144 38.2224C43.239 38.1238 42.9901 37.9585 42.7881 37.7403C42.5886 37.5529 42.4394 37.3147 42.3555 37.0491C42.1706 36.4975 42.1706 35.897 42.3555 35.3453V35.3453ZM45.9094 35.6347C45.8591 35.45 45.7693 35.2797 45.6467 35.1364C45.5219 34.9813 45.3628 34.86 45.1832 34.7828C44.7449 34.6113 44.2617 34.6113 43.8234 34.7828C43.649 34.8694 43.4917 34.9894 43.3598 35.1364C43.2372 35.2797 43.1474 35.45 43.0971 35.6347C42.9734 35.9987 42.9734 36.3958 43.0971 36.7598C43.1441 36.9457 43.2343 37.1169 43.3598 37.2581C43.4847 37.4131 43.6437 37.5344 43.8234 37.6116C44.2617 37.7831 44.7449 37.7831 45.1832 37.6116C45.3628 37.5344 45.5219 37.4131 45.6467 37.2581C45.7722 37.1169 45.8624 36.9457 45.9094 36.7598C46.0331 36.3958 46.0331 35.9987 45.9094 35.6347V35.6347Z" fill="#535CA8"/>
<path d="M47.5472 34.1396H48.3043V34.7664C48.4535 34.5044 48.6816 34.301 48.9533 34.1878C49.2354 34.0577 49.541 33.9919 49.8495 33.9949C50.2794 33.9773 50.7028 34.1072 51.0548 34.3646C51.2116 34.493 51.3348 34.6604 51.4132 34.8514C51.4915 35.0425 51.5223 35.2509 51.5029 35.4575V38.2382H50.7457V35.5861C50.7521 35.4543 50.7305 35.3225 50.6824 35.2003C50.6343 35.0781 50.561 34.9684 50.4676 34.8789C50.1913 34.7081 49.8732 34.6247 49.5521 34.639C49.2311 34.6533 48.921 34.7645 48.6597 34.9593C48.5346 35.0722 48.4361 35.2136 48.3718 35.3725C48.3075 35.5313 48.2791 35.7034 48.2889 35.8755V38.2382H47.5317L47.5472 34.1396Z" fill="#535CA8"/>
<path d="M52.4299 35.4259C52.4421 35.2112 52.4997 35.0019 52.5985 34.8129C52.6973 34.624 52.835 34.4601 53.0016 34.3329C53.4239 34.0823 53.9071 33.965 54.3923 33.9953C54.608 33.97 54.8257 33.97 55.0413 33.9953C55.2456 34.0175 55.4444 34.0774 55.6285 34.1721C55.7976 34.2527 55.9459 34.3739 56.0611 34.5257C56.1695 34.6971 56.2236 34.8994 56.2157 35.1044V37.3225C56.2108 37.3702 56.2162 37.4184 56.2316 37.4636C56.247 37.5088 56.2718 37.5498 56.3044 37.5837C56.337 37.6177 56.3765 37.6436 56.42 37.6595C56.4634 37.6755 56.5097 37.6812 56.5556 37.6761H56.8183V38.2387C56.6229 38.2559 56.4265 38.2559 56.2311 38.2387C56.0626 38.2472 55.8956 38.2024 55.7521 38.1101C55.6909 38.0533 55.6416 37.984 55.607 37.9066C55.5725 37.8292 55.5535 37.7454 55.5512 37.6601C55.3733 37.8956 55.1308 38.0693 54.8559 38.1583C54.5377 38.2729 54.2037 38.3326 53.867 38.3351C53.6005 38.336 53.3353 38.2981 53.0789 38.2226C52.8938 38.1616 52.7246 38.0571 52.5844 37.9172C52.4699 37.8143 52.3845 37.681 52.3372 37.5315C52.2893 37.392 52.2632 37.2455 52.2599 37.0975C52.248 36.9283 52.2771 36.7586 52.3446 36.6041C52.4121 36.4497 52.5158 36.3153 52.6462 36.2134C53.0445 35.9665 53.4963 35.8282 53.9597 35.8116L54.825 35.7152C55.0068 35.7106 55.1857 35.6668 55.3503 35.5866C55.4064 35.5458 55.4504 35.4897 55.4777 35.4244C55.505 35.3592 55.5144 35.2873 55.5049 35.2169C55.5299 35.1059 55.5299 34.9904 55.5049 34.8794C55.4364 34.7936 55.3524 34.7226 55.2576 34.6704C55.1393 34.6194 55.0143 34.5869 54.8868 34.574H54.4387C54.1391 34.5599 53.8411 34.6263 53.5734 34.7668C53.4639 34.8266 53.3727 34.917 53.3099 35.0277C53.2471 35.1384 53.2153 35.2652 53.218 35.3937L52.4299 35.4259ZM55.5203 36.101C55.4538 36.174 55.3676 36.2245 55.2731 36.2456L54.7786 36.342L53.9288 36.4546C53.6909 36.476 53.4597 36.547 53.2489 36.6635C53.1786 36.7165 53.122 36.7869 53.0843 36.8682C53.0465 36.9496 53.0288 37.0394 53.0325 37.1296C53.034 37.2264 53.0589 37.3213 53.1048 37.4056C53.1507 37.4898 53.2162 37.5607 53.2952 37.6118C53.4956 37.7364 53.7264 37.7979 53.9597 37.7886C54.1628 37.7856 54.365 37.7587 54.5623 37.7083C54.7366 37.6508 54.9028 37.5697 55.0568 37.4672C55.1927 37.3689 55.3083 37.2432 55.3967 37.0975C55.4753 36.9556 55.5178 36.7951 55.5203 36.6314V36.101Z" fill="#535CA8"/>
<path d="M57.3279 32.5965H58.0696V38.2383H57.3125L57.3279 32.5965Z" fill="#535CA8"/>
<path d="M61.6392 32.6449H62.4427V36.2454C62.4267 36.4478 62.4577 36.6512 62.533 36.8386C62.6083 37.026 62.7257 37.1919 62.8753 37.3223C63.2355 37.5526 63.65 37.6745 64.0728 37.6745C64.4956 37.6745 64.9102 37.5526 65.2704 37.3223C65.4218 37.1926 65.5415 37.0274 65.6194 36.8401C65.6973 36.6528 65.7313 36.449 65.7185 36.2454V32.6449H66.5065V36.1329C66.5065 37.6438 65.703 38.3992 64.0806 38.3992C62.4581 38.3992 61.6392 37.6438 61.6392 36.1329V32.6449Z" fill="#535CA8"/>
<path d="M67.5435 34.1396H68.3006V34.7664C68.4596 34.507 68.6916 34.3049 68.965 34.1878C69.2471 34.0577 69.5527 33.9919 69.8612 33.9949C70.2911 33.9773 70.7146 34.1072 71.0665 34.3646C71.2202 34.4958 71.3412 34.6637 71.4192 34.854C71.4972 35.0443 71.5299 35.2513 71.5146 35.4575V38.2382H70.7575V35.5861C70.7638 35.4543 70.7422 35.3225 70.6941 35.2003C70.6461 35.0781 70.5727 34.9684 70.4793 34.8789C70.2031 34.7081 69.885 34.6247 69.5639 34.639C69.2428 34.6533 68.9327 34.7645 68.6715 34.9593C68.5463 35.0722 68.4478 35.2136 68.3835 35.3725C68.3192 35.5313 68.2908 35.7034 68.3006 35.8755V38.2382H67.5435V34.1396Z" fill="#535CA8"/>
<path d="M72.4399 32.5965H73.1971V33.4163H72.4399V32.5965ZM72.4399 34.2039H73.1971V38.2383H72.4399V34.2039Z" fill="#535CA8"/>
<path d="M77.1692 34.1397H78.019L76.242 38.2384H75.4077L73.6152 34.1236H74.4805L75.8403 37.3383L77.1692 34.1397Z" fill="#535CA8"/>
<path d="M79.0696 36.4384C79.0807 36.6304 79.1335 36.8173 79.2242 36.9849C79.3115 37.145 79.4268 37.2868 79.5641 37.4028C79.7017 37.5144 79.8593 37.5964 80.0277 37.6439C80.1852 37.7082 80.3529 37.7409 80.5221 37.7404C80.7661 37.7439 81.0082 37.6946 81.2329 37.5957C81.3529 37.5341 81.4625 37.4527 81.5574 37.3546C81.6647 37.258 81.7493 37.137 81.8046 37.001H82.6081C82.5217 37.2314 82.3961 37.4438 82.2373 37.6278C82.0991 37.8068 81.9317 37.9591 81.7428 38.0779C81.5652 38.1882 81.3724 38.2695 81.1711 38.319C80.9738 38.3694 80.7716 38.3964 80.5685 38.3994C80.2312 38.4037 79.8961 38.3437 79.5796 38.2225C79.3042 38.1239 79.0553 37.9587 78.8533 37.7404C78.6538 37.553 78.5046 37.3148 78.4207 37.0492C78.2139 36.5016 78.2139 35.893 78.4207 35.3454C78.511 35.0831 78.6592 34.8463 78.8533 34.6543C79.0553 34.436 79.3042 34.2707 79.5796 34.1721C79.8961 34.0509 80.2312 33.991 80.5685 33.9952C80.8357 33.9987 81.1011 34.042 81.3565 34.1239C81.6073 34.2154 81.8383 34.3574 82.0364 34.5418C82.2539 34.7388 82.4234 34.9867 82.5309 35.265C82.6549 35.6033 82.7127 35.964 82.7008 36.3259V36.4384H79.0696ZM81.9128 35.8276C81.8669 35.4886 81.7018 35.1793 81.4492 34.9597C81.1799 34.7567 80.8547 34.6496 80.5221 34.6543C80.1825 34.6507 79.8512 34.7637 79.5796 34.9757C79.3165 35.1839 79.1396 35.4885 79.0851 35.8276H81.9128Z" fill="#535CA8"/>
<path d="M83.4727 34.1397H84.2298V34.8952C84.3721 34.6204 84.5796 34.388 84.8324 34.2201C85.0619 34.0783 85.3227 34.0008 85.5896 33.995H85.8831H86.084V34.847H85.8059H85.5432C85.3704 34.8316 85.1965 34.8563 85.034 34.9192C84.8714 34.9821 84.7243 35.0817 84.6032 35.2108C84.482 35.3399 84.3899 35.4952 84.3333 35.6658C84.2768 35.8363 84.2573 36.0178 84.2762 36.1971V38.2384H83.519L83.4727 34.1397Z" fill="#535CA8"/>
<path d="M87.0722 36.9528C87.056 37.0539 87.056 37.1571 87.0722 37.2582C87.1307 37.3554 87.2037 37.4422 87.2885 37.5154C87.4024 37.6078 87.5342 37.6736 87.6748 37.7083C87.8658 37.764 88.0635 37.791 88.262 37.7886C88.4568 37.8158 88.6543 37.8158 88.8491 37.7886C88.9805 37.7657 89.1065 37.7166 89.22 37.644C89.3012 37.5961 89.366 37.523 89.4054 37.435C89.426 37.3615 89.426 37.2834 89.4054 37.21C89.4117 37.1398 89.4008 37.0691 89.3738 37.0045C89.3468 36.9398 89.3045 36.8834 89.2509 36.8403C89.071 36.7347 88.87 36.6741 88.6637 36.6635L87.4121 36.4867C87.1308 36.4527 86.8663 36.3292 86.655 36.1331C86.5527 36.0425 86.4716 35.9288 86.4181 35.8006C86.3645 35.6725 86.3398 35.5333 86.3459 35.3937C86.3384 35.2013 86.3785 35.0101 86.4624 34.8384C86.5463 34.6668 86.6711 34.5203 86.8249 34.4132C87.219 34.1617 87.6764 34.0385 88.1384 34.0596C88.6353 34.022 89.13 34.1577 89.5445 34.4454C89.6996 34.5585 89.8276 34.7072 89.9187 34.88C90.0098 35.0528 90.0615 35.245 90.0698 35.4419H89.3281C89.3194 35.3307 89.2854 35.2231 89.229 35.1281C89.1726 35.0331 89.0954 34.9534 89.0037 34.8954C88.7428 34.7336 88.4418 34.6553 88.1384 34.6704H87.7521L87.4276 34.7829C87.3308 34.8244 87.2457 34.8907 87.1803 34.9758C87.118 35.0581 87.0852 35.1604 87.0876 35.2651C87.0833 35.3312 87.0936 35.3974 87.1177 35.4587C87.1418 35.52 87.1791 35.5747 87.2267 35.6187C87.3882 35.712 87.5677 35.7669 87.7521 35.7794L88.8182 35.9402C89.1999 35.9571 89.5693 36.0852 89.8844 36.3098C89.988 36.393 90.0714 36.5004 90.1277 36.6232C90.1841 36.7461 90.2119 36.881 90.2089 37.0171C90.2159 37.2259 90.1712 37.4331 90.0792 37.6188C89.9872 37.8045 89.851 37.9626 89.6835 38.0779C89.2376 38.3415 88.7275 38.4644 88.2156 38.4315C87.9793 38.456 87.7412 38.456 87.5048 38.4315C87.2888 38.3906 87.0802 38.3147 86.8867 38.2065C86.6909 38.1119 86.5248 37.9614 86.4077 37.7725C86.2813 37.5528 86.2071 37.3048 86.1914 37.0493L87.0722 36.9528Z" fill="#535CA8"/>
<path d="M91.0317 32.5965H91.7734V33.4163H91.0317V32.5965ZM91.0317 34.2039H91.7734V38.2383H91.0317V34.2039Z" fill="#535CA8"/>
<path d="M93.0227 32.8703H93.7799V34.1401H94.9233V34.7509H93.7799V37.2905C93.776 37.3558 93.7882 37.421 93.8152 37.48C93.8422 37.5391 93.8832 37.59 93.9344 37.628C94.0741 37.7143 94.236 37.7536 94.3979 37.7405C94.5725 37.7606 94.7487 37.7606 94.9233 37.7405V38.3996C94.6408 38.4298 94.356 38.4298 94.0735 38.3996C93.9323 38.4134 93.7898 38.3977 93.6545 38.3535C93.5192 38.3094 93.3937 38.2376 93.2854 38.1424C93.196 38.0472 93.1265 37.9338 93.0813 37.8093C93.0361 37.6848 93.0162 37.5519 93.0227 37.4191V34.7509H92.2192V34.1401H93.0227V32.8703Z" fill="#535CA8"/>
<path d="M98.553 34.1397H99.4028L97.3323 38.9617C97.2528 39.1456 97.1598 39.3229 97.0541 39.4921C96.9775 39.6085 96.8837 39.7116 96.776 39.7975C96.6656 39.8648 96.5456 39.9136 96.4206 39.9421C96.2666 39.9605 96.1111 39.9605 95.9571 39.9421H95.3853V39.2671H96.127C96.1967 39.2548 96.2612 39.2212 96.3124 39.1706L96.4824 38.9938C96.5397 38.8843 96.5913 38.7716 96.6369 38.6563L96.8224 38.2866L94.999 34.1075H95.8643L97.2241 37.3222L98.553 34.1397Z" fill="#535CA8"/>
<path d="M106.899 34.6694C106.842 34.2631 106.637 33.8951 106.327 33.6407C105.966 33.3486 105.517 33.2004 105.06 33.2228C104.777 33.2076 104.494 33.2525 104.229 33.3548C103.963 33.457 103.72 33.6145 103.515 33.8175C103.129 34.2911 102.935 34.9019 102.974 35.5213C102.971 35.7933 103.007 36.0643 103.082 36.325C103.16 36.5707 103.281 36.7995 103.438 37.0001C103.617 37.2133 103.838 37.3834 104.087 37.4983C104.382 37.6198 104.697 37.6798 105.014 37.6751C105.451 37.6928 105.881 37.5569 106.234 37.2894C106.587 36.9963 106.823 36.5787 106.899 36.116H107.702C107.669 36.4202 107.58 36.7149 107.44 36.984C107.303 37.2707 107.108 37.523 106.868 37.7233C106.624 37.9357 106.347 38.1041 106.049 38.2216C105.71 38.34 105.355 38.3998 104.998 38.3985C104.647 38.4013 104.298 38.3471 103.963 38.2377C103.632 38.1245 103.323 37.9503 103.051 37.7233C102.774 37.4674 102.557 37.1484 102.418 36.7911C102.243 36.3649 102.158 35.9043 102.171 35.441C102.167 35.0469 102.229 34.6551 102.356 34.2837C102.477 33.9624 102.655 33.6679 102.881 33.4157C103.139 33.1494 103.443 32.9366 103.778 32.7888C104.163 32.6415 104.572 32.5707 104.983 32.5799C105.279 32.5802 105.574 32.6125 105.864 32.6763C106.163 32.7462 106.45 32.8656 106.713 33.03C106.975 33.208 107.201 33.4373 107.378 33.705C107.558 34.0173 107.664 34.3701 107.687 34.7337L106.899 34.6694Z" fill="#535CA8"/>
<path d="M108.46 35.3448C108.556 35.0854 108.703 34.8498 108.893 34.6536C109.1 34.4421 109.347 34.2779 109.619 34.1715C110.264 33.9362 110.967 33.9362 111.612 34.1715C111.886 34.2742 112.134 34.4389 112.338 34.6536C112.528 34.8498 112.675 35.0854 112.771 35.3448C112.956 35.8965 112.956 36.497 112.771 37.0486C112.679 37.3099 112.531 37.5462 112.338 37.7397C112.134 37.9545 111.886 38.1191 111.612 38.2219C110.967 38.4572 110.264 38.4572 109.619 38.2219C109.347 38.1155 109.1 37.9513 108.893 37.7397C108.7 37.5462 108.552 37.3099 108.46 37.0486C108.275 36.497 108.275 35.8965 108.46 35.3448V35.3448ZM112.029 35.6341C111.973 35.4523 111.884 35.2832 111.767 35.1359C111.635 34.9889 111.478 34.8689 111.303 34.7822C111.081 34.6953 110.845 34.6517 110.608 34.6536C110.38 34.6515 110.155 34.6952 109.943 34.7822C109.762 34.8637 109.598 34.9842 109.464 35.1359C109.347 35.2832 109.258 35.4523 109.202 35.6341C109.099 36.0015 109.099 36.3918 109.202 36.7592C109.255 36.9426 109.344 37.1125 109.464 37.2576C109.596 37.4046 109.753 37.5245 109.928 37.6111C110.145 37.6968 110.375 37.7405 110.608 37.7397C110.845 37.7417 111.081 37.6981 111.303 37.6111C111.478 37.5245 111.635 37.4046 111.767 37.2576C111.887 37.1125 111.976 36.9426 112.029 36.7592C112.132 36.3918 112.132 36.0015 112.029 35.6341Z" fill="#535CA8"/>
<path d="M119.66 35.6341C119.67 35.4961 119.651 35.3574 119.606 35.2272C119.561 35.0969 119.49 34.9782 119.397 34.8787C119.2 34.7281 118.961 34.649 118.717 34.6536C118.385 34.6357 118.058 34.7379 117.79 34.943C117.668 35.0376 117.571 35.1618 117.506 35.3047C117.442 35.4476 117.412 35.6049 117.419 35.7627V38.238H116.662V35.618C116.673 35.4785 116.654 35.3381 116.606 35.2073C116.558 35.0765 116.482 34.9587 116.384 34.8626C116.189 34.7074 115.949 34.6278 115.704 34.6376C115.373 34.6312 115.051 34.7449 114.792 34.959C114.663 35.0687 114.56 35.2091 114.493 35.3685C114.425 35.5278 114.396 35.7016 114.406 35.8752V38.238H113.695V34.1232H114.452V34.7501C114.607 34.487 114.841 34.2838 115.117 34.1715C115.394 34.0432 115.694 33.9774 115.998 33.9786C116.266 33.9772 116.531 34.0434 116.77 34.1715C117.017 34.2933 117.218 34.4968 117.342 34.7501C117.528 34.51 117.763 34.3162 118.031 34.1827C118.298 34.0493 118.591 33.9795 118.887 33.9786C119.031 33.9662 119.176 33.9662 119.32 33.9786C119.493 34.0231 119.66 34.0935 119.814 34.1875C119.983 34.3045 120.125 34.4581 120.231 34.6376C120.345 34.8654 120.398 35.1206 120.386 35.377V38.238H119.629L119.66 35.6341Z" fill="#535CA8"/>
<path d="M127.34 35.6345C127.354 35.4962 127.337 35.3565 127.291 35.2258C127.246 35.0951 127.173 34.9766 127.078 34.879C126.882 34.7262 126.642 34.6468 126.398 34.654C126.067 34.6446 125.742 34.7461 125.471 34.9433C125.349 35.0379 125.252 35.1621 125.187 35.305C125.122 35.448 125.092 35.6053 125.1 35.763V38.2384H124.343V35.6184C124.353 35.4803 124.334 35.3416 124.289 35.2114C124.244 35.0812 124.173 34.9624 124.08 34.8629C123.879 34.71 123.634 34.6309 123.385 34.6379C123.054 34.6316 122.732 34.7452 122.473 34.9594C122.346 35.0715 122.245 35.2124 122.178 35.3711C122.111 35.5299 122.08 35.7024 122.087 35.8756V38.2384H121.422V34.1236H122.164V34.7504C122.319 34.4873 122.552 34.2841 122.828 34.1718C123.111 34.0418 123.416 33.976 123.725 33.9789C123.989 33.9749 124.249 34.0413 124.482 34.1718C124.73 34.2974 124.935 34.4994 125.069 34.7504C125.241 34.5074 125.47 34.3139 125.733 34.1879C126.021 34.0398 126.34 33.968 126.661 33.9789C126.804 33.9655 126.949 33.9655 127.093 33.9789C127.268 34.0205 127.435 34.0911 127.588 34.1879C127.76 34.3004 127.903 34.4549 128.005 34.6379C128.118 34.8658 128.172 35.1209 128.159 35.3773V38.2384H127.402L127.34 35.6345Z" fill="#535CA8"/>
<path d="M132.998 38.2384H132.241V37.6115C132.087 37.8737 131.861 38.0812 131.592 38.2063C131.306 38.3233 131.002 38.3832 130.696 38.3831C130.268 38.3985 129.847 38.2749 129.49 38.0294C129.337 37.894 129.217 37.7231 129.139 37.5304C129.061 37.3378 129.028 37.1288 129.042 36.9204V34.1236H129.799V36.7757C129.791 36.9079 129.811 37.0403 129.86 37.1629C129.908 37.2855 129.982 37.395 130.077 37.483C130.354 37.6538 130.672 37.7371 130.993 37.7229C131.314 37.7086 131.624 37.5973 131.885 37.4026C132.008 37.2913 132.106 37.1526 132.17 36.9967C132.234 36.8408 132.264 36.6719 132.256 36.5025V34.1236H133.013L132.998 38.2384Z" fill="#535CA8"/>
<path d="M133.925 34.1396H134.682V34.7664C134.831 34.5044 135.059 34.301 135.331 34.1878C135.613 34.0577 135.918 33.9919 136.227 33.9949C136.657 33.9773 137.08 34.1072 137.432 34.3646C137.586 34.4958 137.707 34.6637 137.785 34.854C137.863 35.0443 137.896 35.2513 137.88 35.4575V38.2382H137.123V35.5861C137.13 35.4543 137.108 35.3225 137.06 35.2003C137.012 35.0781 136.938 34.9684 136.845 34.8789C136.569 34.7081 136.251 34.6247 135.93 34.639C135.609 34.6533 135.298 34.7645 135.037 34.9593C134.912 35.0722 134.814 35.2136 134.749 35.3725C134.685 35.5313 134.657 35.7034 134.666 35.8755V38.2382H133.909L133.925 34.1396Z" fill="#535CA8"/>
<path d="M138.823 32.5965H139.58V33.4163H138.823V32.5965ZM138.823 34.2039H139.58V38.2383H138.823V34.2039Z" fill="#535CA8"/>
<path d="M140.831 32.8703H141.511V34.1401H142.654V34.7509H141.511V37.2905C141.505 37.3578 141.518 37.4253 141.548 37.4851C141.578 37.5449 141.624 37.5945 141.68 37.628C141.814 37.7163 141.971 37.7559 142.129 37.7405C142.303 37.7615 142.479 37.7615 142.654 37.7405V38.3996C142.371 38.4298 142.087 38.4298 141.804 38.3996C141.663 38.4134 141.52 38.3977 141.385 38.3535C141.25 38.3094 141.124 38.2376 141.016 38.1424C140.929 38.0464 140.862 37.9324 140.819 37.8079C140.776 37.6833 140.759 37.5509 140.769 37.4191V34.7509H139.965V34.1401H140.784L140.831 32.8703Z" fill="#535CA8"/>
<path d="M146.347 34.1397H147.197L145.127 38.9617C145.047 39.1456 144.954 39.3229 144.849 39.4921C144.776 39.6122 144.682 39.716 144.57 39.7975C144.46 39.8648 144.34 39.9136 144.215 39.9421C144.061 39.9605 143.905 39.9605 143.751 39.9421H143.18V39.2671H143.921C143.995 39.2517 144.064 39.2186 144.122 39.1706C144.181 39.1192 144.233 39.0598 144.277 38.9938L144.447 38.6563L144.617 38.2866L142.793 34.1075H143.659L145.019 37.3222L146.347 34.1397Z" fill="#535CA8"/>
<defs>
<linearGradient id="paint0_linear_106_199" x1="179.885" y1="4.24192" x2="156.689" y2="4.24192" gradientUnits="userSpaceOnUse">
<stop stop-color="#00C3FF"/>
<stop offset="1" stop-color="#29ABE2"/>
</linearGradient>
<linearGradient id="paint1_linear_106_199" x1="5808.39" y1="14056.8" x2="5207.11" y2="14056.8" gradientUnits="userSpaceOnUse">
<stop stop-color="#00C3FF"/>
<stop offset="1" stop-color="#29ABE2"/>
</linearGradient>
</defs>
</svg>
