<svg width="250" height="49" viewBox="0 0 250 49" fill="none" xmlns="http://www.w3.org/2000/svg">
<path d="M75.122 35.348C73.0533 35.348 71.178 34.9033 69.496 34.014C67.8333 33.1053 66.5187 31.8583 65.552 30.273C64.6047 28.6683 64.131 26.8607 64.131 24.85C64.131 22.8393 64.6047 21.0413 65.552 19.456C66.5187 17.8513 67.8333 16.6043 69.496 15.715C71.178 14.8063 73.063 14.352 75.151 14.352C76.9103 14.352 78.4957 14.6613 79.907 15.28C81.3377 15.8987 82.5363 16.788 83.503 17.948L80.487 20.732C79.1143 19.1467 77.413 18.354 75.383 18.354C74.1263 18.354 73.005 18.6343 72.019 19.195C71.033 19.7363 70.2597 20.5 69.699 21.486C69.1577 22.472 68.887 23.5933 68.887 24.85C68.887 26.1067 69.1577 27.228 69.699 28.214C70.2597 29.2 71.033 29.9733 72.019 30.534C73.005 31.0753 74.1263 31.346 75.383 31.346C77.413 31.346 79.1143 30.5437 80.487 28.939L83.503 31.723C82.5363 32.9023 81.3377 33.8013 79.907 34.42C78.4763 35.0387 76.8813 35.348 75.122 35.348ZM102.104 31.23V35H86.3856V14.7H101.727V18.47H91.0546V22.878H100.48V26.532H91.0546V31.23H102.104ZM115.21 35.348C113.141 35.348 111.266 34.9033 109.584 34.014C107.921 33.1053 106.607 31.8583 105.64 30.273C104.693 28.6683 104.219 26.8607 104.219 24.85C104.219 22.8393 104.693 21.0413 105.64 19.456C106.607 17.8513 107.921 16.6043 109.584 15.715C111.266 14.8063 113.151 14.352 115.239 14.352C116.998 14.352 118.584 14.6613 119.995 15.28C121.426 15.8987 122.624 16.788 123.591 17.948L120.575 20.732C119.202 19.1467 117.501 18.354 115.471 18.354C114.214 18.354 113.093 18.6343 112.107 19.195C111.121 19.7363 110.348 20.5 109.787 21.486C109.246 22.472 108.975 23.5933 108.975 24.85C108.975 26.1067 109.246 27.228 109.787 28.214C110.348 29.2 111.121 29.9733 112.107 30.534C113.093 31.0753 114.214 31.346 115.471 31.346C117.501 31.346 119.202 30.5437 120.575 28.939L123.591 31.723C122.624 32.9023 121.426 33.8013 119.995 34.42C118.564 35.0387 116.969 35.348 115.21 35.348ZM152.869 35L152.84 22.82L146.866 32.854H144.749L138.804 23.081V35H134.396V14.7H138.282L145.88 27.315L153.362 14.7H157.219L157.277 35H152.869ZM176.971 19.398L169.924 35.957C169.208 37.755 168.319 39.0213 167.256 39.756C166.212 40.4907 164.945 40.858 163.457 40.858C162.645 40.858 161.842 40.7323 161.05 40.481C160.257 40.2297 159.609 39.8817 159.107 39.437L160.76 36.218C161.108 36.5273 161.504 36.769 161.949 36.943C162.413 37.117 162.867 37.204 163.312 37.204C163.93 37.204 164.433 37.0493 164.82 36.74C165.206 36.45 165.554 35.957 165.864 35.261L165.922 35.116L159.165 19.398H163.834L168.213 29.983L172.621 19.398H176.971ZM185.642 35.232C183.979 35.232 182.481 34.8937 181.147 34.217C179.832 33.521 178.798 32.564 178.044 31.346C177.309 30.128 176.942 28.7457 176.942 27.199C176.942 25.6523 177.309 24.27 178.044 23.052C178.798 21.834 179.832 20.8867 181.147 20.21C182.481 19.514 183.979 19.166 185.642 19.166C187.285 19.166 188.716 19.514 189.934 20.21C191.171 20.8867 192.07 21.863 192.631 23.139L189.122 25.024C188.31 23.5933 187.14 22.878 185.613 22.878C184.434 22.878 183.457 23.2647 182.684 24.038C181.911 24.8113 181.524 25.865 181.524 27.199C181.524 28.533 181.911 29.5867 182.684 30.36C183.457 31.1333 184.434 31.52 185.613 31.52C187.16 31.52 188.329 30.8047 189.122 29.374L192.631 31.288C192.07 32.5253 191.171 33.492 189.934 34.188C188.716 34.884 187.285 35.232 185.642 35.232ZM194.832 13.482H199.356V35H194.832V13.482ZM209.558 19.166C211.975 19.166 213.831 19.746 215.126 20.906C216.421 22.0467 217.069 23.777 217.069 26.097V35H212.835V33.057C211.984 34.507 210.399 35.232 208.079 35.232C206.88 35.232 205.836 35.029 204.947 34.623C204.077 34.217 203.41 33.6563 202.946 32.941C202.482 32.2257 202.25 31.4137 202.25 30.505C202.25 29.055 202.791 27.9143 203.874 27.083C204.976 26.2517 206.668 25.836 208.949 25.836H212.545C212.545 24.85 212.245 24.096 211.646 23.574C211.047 23.0327 210.148 22.762 208.949 22.762C208.118 22.762 207.296 22.8973 206.484 23.168C205.691 23.4193 205.015 23.7673 204.454 24.212L202.83 21.051C203.681 20.4517 204.696 19.9877 205.875 19.659C207.074 19.3303 208.301 19.166 209.558 19.166ZM209.21 32.187C209.983 32.187 210.67 32.013 211.269 31.665C211.868 31.2977 212.294 30.766 212.545 30.07V28.475H209.442C207.586 28.475 206.658 29.084 206.658 30.302C206.658 30.882 206.88 31.346 207.325 31.694C207.789 32.0227 208.417 32.187 209.21 32.187ZM226.123 35.232C224.827 35.232 223.561 35.0773 222.324 34.768C221.086 34.4393 220.1 34.0333 219.366 33.55L220.874 30.302C221.57 30.7467 222.411 31.114 223.397 31.404C224.383 31.6747 225.349 31.81 226.297 31.81C228.211 31.81 229.168 31.3363 229.168 30.389C229.168 29.9443 228.907 29.6253 228.385 29.432C227.863 29.2387 227.06 29.0743 225.978 28.939C224.702 28.7457 223.648 28.5233 222.817 28.272C221.985 28.0207 221.26 27.576 220.642 26.938C220.042 26.3 219.743 25.3913 219.743 24.212C219.743 23.226 220.023 22.356 220.584 21.602C221.164 20.8287 221.995 20.2293 223.078 19.804C224.18 19.3787 225.475 19.166 226.964 19.166C228.066 19.166 229.158 19.2917 230.241 19.543C231.343 19.775 232.251 20.1037 232.967 20.529L231.459 23.748C230.086 22.9747 228.588 22.588 226.964 22.588C225.997 22.588 225.272 22.7233 224.789 22.994C224.305 23.2647 224.064 23.6127 224.064 24.038C224.064 24.5213 224.325 24.8597 224.847 25.053C225.369 25.2463 226.2 25.43 227.341 25.604C228.617 25.8167 229.661 26.0487 230.473 26.3C231.285 26.532 231.99 26.967 232.59 27.605C233.189 28.243 233.489 29.1323 233.489 30.273C233.489 31.2397 233.199 32.1 232.619 32.854C232.039 33.608 231.188 34.1977 230.067 34.623C228.965 35.029 227.65 35.232 226.123 35.232ZM241.239 35.232C239.943 35.232 238.677 35.0773 237.44 34.768C236.202 34.4393 235.216 34.0333 234.482 33.55L235.99 30.302C236.686 30.7467 237.527 31.114 238.513 31.404C239.499 31.6747 240.465 31.81 241.413 31.81C243.327 31.81 244.284 31.3363 244.284 30.389C244.284 29.9443 244.023 29.6253 243.501 29.432C242.979 29.2387 242.176 29.0743 241.094 28.939C239.818 28.7457 238.764 28.5233 237.933 28.272C237.101 28.0207 236.376 27.576 235.758 26.938C235.158 26.3 234.859 25.3913 234.859 24.212C234.859 23.226 235.139 22.356 235.7 21.602C236.28 20.8287 237.111 20.2293 238.194 19.804C239.296 19.3787 240.591 19.166 242.08 19.166C243.182 19.166 244.274 19.2917 245.357 19.543C246.459 19.775 247.367 20.1037 248.083 20.529L246.575 23.748C245.202 22.9747 243.704 22.588 242.08 22.588C241.113 22.588 240.388 22.7233 239.905 22.994C239.421 23.2647 239.18 23.6127 239.18 24.038C239.18 24.5213 239.441 24.8597 239.963 25.053C240.485 25.2463 241.316 25.43 242.457 25.604C243.733 25.8167 244.777 26.0487 245.589 26.3C246.401 26.532 247.106 26.967 247.706 27.605C248.305 28.243 248.605 29.1323 248.605 30.273C248.605 31.2397 248.315 32.1 247.735 32.854C247.155 33.608 246.304 34.1977 245.183 34.623C244.081 35.029 242.766 35.232 241.239 35.232Z" fill="white"/>
<path d="M27.4995 5.95659C26.7498 4.23371 24.1557 5.41748 24.1557 5.41748C26.3262 6.80484 27.4995 5.95659 27.4995 5.95659ZM23.2335 5.704C23.3299 5.704 23.4241 5.67526 23.5043 5.62141C23.5844 5.56755 23.6469 5.49101 23.6838 5.40146C23.7206 5.3119 23.7303 5.21336 23.7115 5.11829C23.6927 5.02322 23.6463 4.93589 23.5781 4.86735C23.51 4.79881 23.4231 4.75213 23.3286 4.73322C23.2341 4.71431 23.1361 4.72402 23.047 4.76111C22.958 4.79821 22.8819 4.86102 22.8283 4.94162C22.7748 5.02221 22.7462 5.11697 22.7462 5.2139C22.7472 5.34358 22.7988 5.46767 22.89 5.55937C22.9812 5.65107 23.1046 5.70302 23.2335 5.704V5.704ZM29.1452 6.13001C28.5157 6.14099 27.8992 6.31219 27.3533 6.62765L30.1011 6.66535L30.1985 6.59372C30.1985 6.59372 28.8265 2.86897 25.1866 2.4128C25.5243 3.29292 26.0559 4.08463 26.7415 4.72845C27.4272 5.37228 28.2489 5.85146 29.1452 6.13001ZM31.072 6.85385C31.072 6.75386 31.0325 6.65797 30.9622 6.58727C30.8919 6.51657 30.7965 6.47685 30.6971 6.47685C30.616 6.49728 30.5441 6.54436 30.4927 6.61062C30.4413 6.67687 30.4134 6.7585 30.4134 6.84254C30.4134 6.92658 30.4413 7.00821 30.4927 7.07446C30.5441 7.14072 30.616 7.1878 30.6971 7.20823C30.7965 7.20823 30.8919 7.16851 30.9622 7.09781C31.0325 7.02711 31.072 6.93122 31.072 6.83123V6.85385ZM16.4035 6.64273L19.1475 6.60503C18.6045 6.28927 17.9903 6.11799 17.3631 6.10739C18.2558 5.83007 19.0745 5.35336 19.758 4.71291C20.4416 4.07247 20.9723 3.28486 21.3105 2.40903C17.6705 2.8652 16.3023 6.58995 16.3023 6.58995L16.3997 6.66158L16.4035 6.64273ZM15.5188 7.03858C15.5188 7.11315 15.5408 7.18603 15.582 7.24803C15.6232 7.31003 15.6817 7.35835 15.7502 7.38688C15.8187 7.41542 15.8941 7.42288 15.9668 7.40834C16.0395 7.39379 16.1063 7.35788 16.1587 7.30516C16.2112 7.25243 16.2469 7.18526 16.2613 7.11213C16.2758 7.039 16.2684 6.9632 16.24 6.89431C16.2116 6.82542 16.1636 6.76654 16.1019 6.72512C16.0403 6.68369 15.9678 6.66158 15.8937 6.66158C15.7943 6.66158 15.6989 6.7013 15.6286 6.772C15.5583 6.8427 15.5188 6.9386 15.5188 7.03858ZM15.74 9.98672C13.7644 8.5692 10.8667 9.66627 10.8667 9.66627C13.4383 7.71341 13.4383 4.57677 13.4383 4.57677C10.1732 6.26196 10.1507 10.2318 10.1507 10.2318C14.1468 11.4231 15.7737 9.99803 15.7737 9.99803L15.74 9.98672ZM16.8796 9.21764L16.9058 7.87929C15.9279 7.61741 14.9063 7.56475 13.9069 7.72472C16.7671 6.23934 17.2807 3.14418 17.2807 3.14418C13.7682 4.24502 13.0634 8.13942 13.0634 8.13942C14.2286 8.77767 15.5209 9.14605 16.8458 9.21764H16.8796ZM32.6614 7.50229C31.7684 7.29158 30.834 7.34393 29.9699 7.65309V9.03291C30.8883 9.03291 31.818 8.7954 33.5011 7.90191C33.5011 7.90191 32.7064 4.0075 29.1751 3.00092C29.1751 3.00092 29.7712 6.08477 32.6689 7.49852L32.6614 7.50229ZM19.0013 6.13001C19.0013 6.13001 20.2046 6.93679 22.3226 5.46649C22.3226 5.46649 19.6986 4.38074 19.0013 6.13001V6.13001ZM37.3697 24.7689H35.8365V26.7217H37.3697V24.7689ZM33.2462 11.3929L32.459 12.3392L36.7474 16.6558L37.6134 15.7812L33.2462 11.3929ZM41.5982 11.261L37.6659 7.30625L34.1421 11.1554L37.9208 14.9254L41.5982 11.261ZM9.54345 10.8199C9.54345 10.8945 9.56544 10.9673 9.60663 11.0293C9.64782 11.0913 9.70636 11.1397 9.77486 11.1682C9.84336 11.1967 9.91873 11.2042 9.99145 11.1896C10.0642 11.1751 10.131 11.1392 10.1834 11.0865C10.2358 11.0337 10.2715 10.9666 10.286 10.8934C10.3004 10.8203 10.293 10.7445 10.2646 10.6756C10.2363 10.6067 10.1882 10.5478 10.1266 10.5064C10.0649 10.465 9.99246 10.4429 9.91832 10.4429C9.8189 10.4429 9.72355 10.4826 9.65325 10.5533C9.58295 10.624 9.54345 10.7199 9.54345 10.8199ZM38.6555 14.9669C39.4788 15.1917 40.3256 15.3182 41.1783 15.3439C41.4701 14.3504 41.5593 13.3079 41.4407 12.2789L40.11 13.5607C40.2629 13.9147 40.4473 14.2541 40.661 14.5748C40.3607 14.3399 40.0424 14.1294 39.7089 13.9452L38.6555 14.9669ZM37.4297 34.3145H35.8965V36.2674H37.4297V34.3145ZM35.1805 9.00275L36.0727 8.09418C35.8677 7.28465 35.4895 6.52988 34.9644 5.88262C34.4393 5.23536 33.78 4.71121 33.0325 4.3468C33.0504 5.23016 33.2506 6.10016 33.6203 6.90163C33.9901 7.70311 34.5214 8.4186 35.1805 9.00275V9.00275ZM43.1651 22.6728C43.1651 22.7473 43.1871 22.8202 43.2283 22.8822C43.2695 22.9442 43.328 22.9925 43.3965 23.0211C43.465 23.0496 43.5404 23.0571 43.6131 23.0425C43.6858 23.028 43.7526 22.9921 43.8051 22.9393C43.8575 22.8866 43.8932 22.8194 43.9077 22.7463C43.9221 22.6732 43.9147 22.5974 43.8863 22.5285C43.8579 22.4596 43.8099 22.4007 43.7483 22.3593C43.6866 22.3179 43.6141 22.2958 43.54 22.2958C43.4406 22.2958 43.3452 22.3355 43.2749 22.4062C43.2046 22.4769 43.1651 22.5728 43.1651 22.6728ZM38.4081 4.53154C38.7282 4.70015 39.0852 4.78571 39.4465 4.78045C39.8079 4.77518 40.1622 4.67925 40.4773 4.50137C40.8275 4.31773 41.224 4.24297 41.6165 4.2866C42.009 4.33024 42.3798 4.4903 42.6815 4.74643C42.9343 4.92924 43.1361 5.17439 43.2674 5.4583C43.3987 5.74221 43.4551 6.05532 43.4313 6.36752C43.4313 7.07628 43.2251 7.12152 43.2251 7.12152C42.8015 7.41181 42.9065 6.91794 42.9065 6.91794L43.0039 6.5711C43.0773 6.1613 42.9864 5.73897 42.7511 5.39637C42.5158 5.05377 42.1552 4.81875 41.7481 4.74265C41.3514 4.65805 40.9376 4.72767 40.5898 4.9375C40.2421 5.14733 39.9863 5.48181 39.8738 5.87365C39.7879 6.21084 39.7663 6.56135 39.8101 6.90663L37.9358 5.02163L38.0257 6.62388L42.2355 10.8651H43.7349L42.2092 9.32697C42.6965 9.4786 43.1997 9.57224 43.7087 9.60595C44.3 9.58045 44.8633 9.34546 45.2989 8.94254C45.7345 8.53962 46.0144 7.99473 46.0891 7.40427C46.6551 5.24406 44.6159 3.49479 44.6159 3.49479C43.2551 2.31855 41.2008 2.2243 41.2008 2.2243C38.2769 1.885 37.2385 0 37.2385 0C37.0222 0.686522 36.9357 1.40773 36.9836 2.12628C37.1785 4.07536 38.4118 4.53154 38.4118 4.53154H38.4081ZM43.7087 22.0696C43.7087 22.0696 46.1603 18.9593 44.6571 15.5889C44.6571 15.5889 42.6965 18.0319 43.4763 21.1761C43.4763 21.1761 41.9056 18.5069 39.4802 18.3674C39.4802 18.3674 39.8551 20.4937 43.7087 22.0696ZM41.2196 16.3618C41.2745 16.3744 41.3315 16.3743 41.3864 16.3617C41.4413 16.3491 41.4926 16.3242 41.5366 16.2889C41.5807 16.2536 41.6162 16.2088 41.6406 16.1578C41.6651 16.1067 41.6777 16.0508 41.6777 15.9942C41.6777 15.9376 41.6651 15.8817 41.6406 15.8307C41.6162 15.7796 41.5807 15.7348 41.5366 15.6995C41.4926 15.6642 41.4413 15.6393 41.3864 15.6267C41.3315 15.6141 41.2745 15.614 41.2196 15.6266C41.1368 15.6456 41.0628 15.6923 41.0098 15.7591C40.9569 15.8259 40.928 15.9088 40.928 15.9942C40.928 16.0796 40.9569 16.1625 41.0098 16.2293C41.0628 16.2961 41.1368 16.3428 41.2196 16.3618ZM33.8835 10.4278L35.0081 9.29681C34.0709 9.07815 32.3053 8.76147 30.8845 9.82838C30.8845 9.82838 31.6343 10.6653 33.906 10.4391L33.8835 10.4278ZM42.7415 18.6125C42.7415 18.6125 44.6159 15.1177 42.5541 12.0678C42.5541 12.0678 41.0546 14.8123 42.3592 17.7718C42.3592 17.7718 40.3499 15.4193 37.9395 15.702C37.9395 15.702 38.6892 17.7303 42.7415 18.6125ZM29.8762 45.3078C29.8762 45.3824 29.8981 45.4553 29.9393 45.5173C29.9805 45.5792 30.0391 45.6276 30.1076 45.6561C30.1761 45.6846 30.2514 45.6921 30.3241 45.6776C30.3969 45.663 30.4637 45.6271 30.5161 45.5744C30.5685 45.5217 30.6042 45.4545 30.6187 45.3814C30.6331 45.3082 30.6257 45.2324 30.5973 45.1635C30.569 45.0946 30.5209 45.0358 30.4593 44.9943C30.3976 44.9529 30.3252 44.9308 30.251 44.9308C30.1516 44.9308 30.0562 44.9705 29.9859 45.0412C29.9156 45.1119 29.8762 45.2078 29.8762 45.3078ZM31.698 44.961C31.698 44.961 33.7635 43.1778 33.7822 40.9572L33.0325 40.9874C32.369 41.5717 31.3944 42.8196 30.8508 45.3455C30.8508 45.3455 34.3295 47.2305 37.3585 45.1608C37.3585 45.1608 34.6332 43.6339 31.6867 44.961H31.698ZM28.2942 46.092C28.2942 46.092 30.9483 44.5086 31.087 42.0731C31.087 42.0731 28.9727 42.4501 27.402 46.3257C27.402 46.3257 30.4984 48.7913 33.8422 47.2795C33.8422 47.2795 31.4168 45.304 28.2942 46.092V46.092ZM24.7255 46.846C27.4845 45.5604 28.0993 43.4002 28.0993 43.4002C25.9551 43.5548 24.1182 46.7932 24.1182 46.7932C24.8379 47.5183 25.6999 48.0846 26.6494 48.4559C27.5988 48.8272 28.6148 48.9953 29.6325 48.9496C28.2005 47.0646 24.7255 46.846 24.7255 46.846V46.846ZM23.1848 45.715V46.6273C22.765 45.96 21.1305 43.5548 19.2787 43.4341C19.2787 43.4341 19.9085 45.5868 22.675 46.8497C22.675 46.8497 19.2037 47.0835 17.8017 48.9949C18.7959 49.0322 19.7871 48.8657 20.7152 48.5053C21.6432 48.1449 22.4886 47.5983 23.1998 46.8987V48.3841H24.122V45.715H23.1848ZM35.904 37.289V39.2419L44.5896 46.484H46.3252L37.4859 37.289H35.904ZM34.8244 43.2192C35.3556 42.538 35.7561 41.7633 36.0052 40.9346L34.5245 40.912C34.2432 41.8301 34.0893 42.7828 34.0671 43.7433C34.0671 43.7433 37.2647 44.8177 39.8288 42.9516L38.8392 42.1561C37.4212 42.0579 36.0104 42.4315 34.8244 43.2192V43.2192ZM17.5806 45.4322C17.5806 45.3322 17.5411 45.2363 17.4708 45.1656C17.4005 45.0949 17.3051 45.0552 17.2057 45.0552C17.1063 45.0552 17.0109 45.0949 16.9406 45.1656C16.8703 45.2363 16.8308 45.3322 16.8308 45.4322C16.8308 45.5322 16.8703 45.6281 16.9406 45.6988C17.0109 45.7695 17.1063 45.8092 17.2057 45.8092C17.3051 45.8092 17.4005 45.7695 17.4708 45.6988C17.5411 45.6281 17.5806 45.5322 17.5806 45.4322ZM41.8643 35.2155C41.8643 35.2155 42.3629 32.1505 40.5936 30.4766C40.5936 30.4766 39.5214 32.3616 41.467 36.0487C41.467 36.0487 45.3356 35.2495 46.3402 31.7019C46.3402 31.7019 43.2813 32.3013 41.8718 35.2155H41.8643ZM38.2881 41.6924L37.0061 40.6443C37.0361 40.9723 37.0773 41.3191 37.1373 41.6886C37.5201 41.7231 37.9053 41.7231 38.2881 41.6886V41.6924ZM36.3538 42.1674C36.428 42.1674 36.5004 42.1453 36.5621 42.1039C36.6237 42.0624 36.6718 42.0036 36.7002 41.9347C36.7285 41.8658 36.7359 41.79 36.7215 41.7168C36.707 41.6437 36.6713 41.5765 36.6189 41.5238C36.5665 41.4711 36.4997 41.4352 36.427 41.4206C36.3542 41.4061 36.2789 41.4136 36.2104 41.4421C36.1419 41.4706 36.0833 41.5189 36.0421 41.5809C36.0009 41.6429 35.979 41.7158 35.979 41.7904C35.979 41.8904 36.0185 41.9863 36.0888 42.057C36.1591 42.1277 36.2544 42.1674 36.3538 42.1674ZM5.88851 36.8215C5.88851 36.8961 5.9105 36.969 5.95169 37.031C5.99288 37.093 6.05143 37.1413 6.11992 37.1698C6.18842 37.1984 6.26379 37.2058 6.33651 37.1913C6.40923 37.1768 6.47602 37.1408 6.52845 37.0881C6.58088 37.0354 6.61658 36.9682 6.63104 36.8951C6.64551 36.822 6.63808 36.7462 6.60971 36.6773C6.58134 36.6084 6.53329 36.5495 6.47165 36.5081C6.41 36.4667 6.33752 36.4445 6.26338 36.4445C6.16396 36.4445 6.06861 36.4843 5.99831 36.555C5.92801 36.6257 5.88851 36.7216 5.88851 36.8215ZM3.23821 29.7302C6.25963 26.8461 5.83603 24.7274 5.83603 24.7274C3.62808 25.7453 3.12576 28.8103 3.12576 28.8103C2.7209 25.5983 0.00687601 24.0413 0.00687601 24.0413C-0.173059 27.7283 3.23821 29.7302 3.23821 29.7302V29.7302ZM3.23821 30.2391C3.23821 30.3137 3.2602 30.3866 3.30139 30.4486C3.34258 30.5106 3.40113 30.5589 3.46963 30.5874C3.53813 30.616 3.6135 30.6234 3.68622 30.6089C3.75893 30.5943 3.82572 30.5584 3.87815 30.5057C3.93058 30.453 3.96628 30.3858 3.98074 30.3127C3.99521 30.2396 3.98779 30.1637 3.95941 30.0949C3.93104 30.026 3.88299 29.9671 3.82134 29.9257C3.7597 29.8842 3.68722 29.8621 3.61308 29.8621C3.51366 29.8621 3.41831 29.9018 3.34801 29.9726C3.27771 30.0433 3.23821 30.1391 3.23821 30.2391ZM8.4226 7.35149L5.60737 4.49384C5.11856 4.00541 4.48819 3.68565 3.8071 3.58064C3.126 3.47562 2.42933 3.59077 1.81748 3.90949L7.36549 9.46646C7.54027 8.68459 7.91057 7.96052 8.44135 7.3628L8.4226 7.35149ZM6.27837 9.11962L1.48759 4.29779C1.48759 4.29779 -0.514189 5.74547 1.0415 9.11962H6.27837ZM4.20162 33.2174C6.67948 29.8508 5.89976 27.8414 5.89976 27.8414C3.90173 29.2325 3.93546 32.3352 3.93546 32.3352C2.97956 29.2401 0.0406125 28.1883 0.0406125 28.1883C0.497948 31.8451 4.20162 33.2212 4.20162 33.2212V33.2174ZM6.42457 42.7668C6.85742 42.5312 7.32822 42.3742 7.81532 42.3031L6.9044 42.0845L6.81443 42.2013L6.9044 42.0845L2.8596 46.3672C2.8596 46.3672 2.39852 47.0307 2.83336 47.4718C2.9783 47.5695 3.15075 47.6175 3.32503 47.6087C3.4993 47.5999 3.66608 47.5347 3.80051 47.4228L7.7441 43.9544C7.34299 43.747 6.4733 43.0194 6.42457 42.7668V42.7668ZM14.0943 41.0251H13.577C13.5508 43.3286 15.7512 45.1419 15.7512 45.1419C12.7785 43.8941 10.087 45.4737 10.087 45.4737C13.1684 47.4793 16.5984 45.5076 16.5984 45.5076C15.9312 42.7065 14.7616 41.5076 14.0943 41.0289V41.0251ZM5.73857 36.4785C7.6129 32.7311 6.4883 30.8876 6.4883 30.8876C4.76017 32.5991 5.33372 35.6528 5.33372 35.6528C3.85675 32.7726 0.78285 32.2598 0.78285 32.2598C1.85871 35.781 5.74606 36.4935 5.74606 36.4935L5.73857 36.4785ZM16.291 42.2579C16.4897 44.6933 19.1775 46.2088 19.1775 46.2088C16.0361 45.4963 13.6557 47.5283 13.6557 47.5283C17.0295 48.9609 20.0734 46.4237 20.0734 46.4237C18.4128 42.5821 16.291 42.2579 16.291 42.2579V42.2579ZM7.63164 12.818C11.7552 13.293 13.1084 11.6078 13.1084 11.6078C10.9155 10.5598 8.25766 12.1432 8.25766 12.1432C10.4469 9.76429 9.88833 6.67666 9.88833 6.67666C6.96438 8.90096 7.63914 12.818 7.63914 12.818H7.63164ZM7.83407 39.4341C9.01864 35.4191 7.60165 33.7792 7.60165 33.7792C6.1959 35.7697 7.28301 38.6801 7.28301 38.6801C5.32997 36.0977 2.21109 36.1166 2.21109 36.1166C3.88673 39.4002 7.83407 39.4191 7.83407 39.4191V39.4341ZM38.0857 36.1316C37.9143 36.3284 37.7956 36.5658 37.7408 36.8215L38.513 37.6245C38.4782 37.0972 38.3325 36.5832 38.0857 36.1166V36.1316ZM12.3362 20.079L13.7532 21.3382H16.9545C16.8008 21.078 16.8496 20.1054 16.8496 20.1054L12.3362 20.079ZM20.2721 10.654V8.84441H25.8389V11.408H27.6832V13.2553H25.8951V14.0772H27.6832V16.0828H25.8951V22.0922H24.3656L22.2439 19.9621L20.3021 21.9112L18.8963 20.4975L22.1164 17.2628L23.7733 18.9329V10.654H20.2721ZM17.4081 19.2684C17.4081 23.5323 20.0659 25.5002 23.346 25.5002C26.6261 25.5002 29.2876 23.5399 29.2876 19.2684V7.0989H17.4119C17.4119 7.0989 17.4119 14.9895 17.4119 19.2534L17.4081 19.2684ZM13.0334 12.2374C13.0334 12.2374 12.6586 12.7614 11.3053 13.063L13.0334 14.6615V12.2374ZM28.2192 29.9865C28.5941 29.9865 28.5941 29.6925 28.5941 29.3909V26.6124H29.3851V29.553C29.3851 29.979 29.3363 30.7066 28.1968 30.7066C27.447 30.7066 27.0197 30.3598 27.0197 29.6095V26.6124H27.8106V29.2212C27.8106 29.5266 27.7732 29.9752 28.2042 29.9752L28.2192 29.9865ZM30.2435 31.5058V32.2598H29.4376V33.1345H30.1461V33.8885H29.4376V34.7971H30.251V35.5511H28.6466V31.5172L30.2435 31.5058ZM30.0223 26.6049H30.9183L31.1469 27.1666C31.2241 27.3666 31.2867 27.572 31.3344 27.7811C31.3822 27.5729 31.4423 27.3677 31.5143 27.1666L31.758 26.6049H32.6089L31.758 28.5577L32.6764 30.635H31.758L31.4993 29.9941C31.4281 29.7905 31.3794 29.5945 31.3231 29.3909C31.2632 29.5945 31.2144 29.7905 31.1469 29.9941L30.9145 30.635H30.0186L30.8733 28.5577L30.0223 26.6049ZM32.4477 35.536L32.3015 34.8536H31.5031L31.3569 35.536H30.5696L31.5031 31.5021H32.3353L33.3062 35.536H32.4477ZM27.3795 35.536L27.1921 32.6293L27.0647 33.6284L26.7273 35.536H26.1163L25.7414 33.6057L25.6102 32.7085V32.6293L25.494 35.536H24.643L24.9954 31.5021H26.0338L26.4086 33.8847L26.7273 31.5021H27.7881L28.208 35.536H27.3795ZM24.8117 26.5973H25.6064V29.881H26.4349V30.635H24.8117V26.5973ZM23.7996 25.979V39.6415C24.3026 39.1775 24.9542 38.9101 25.6364 38.8875H34.0559V21.9225H29.52C29.52 21.9225 28.2305 25.9187 23.7996 25.979ZM20.3921 27.7321C20.4004 27.6609 20.3919 27.5887 20.3674 27.5213C20.3428 27.454 20.3027 27.3935 20.2505 27.3446C20.1983 27.2958 20.1353 27.26 20.0668 27.2402C19.9983 27.2204 19.926 27.2171 19.856 27.2307H19.751V28.3051H19.8897C20.2646 28.3051 20.3921 28.0601 20.3921 27.7283V27.7321ZM31.8929 32.5388L31.803 33.1458L31.6343 34.224H32.1816L31.9754 33.1458L31.8929 32.5388ZM10.5668 14.5899C9.80239 15.2511 8.86593 15.6789 7.8678 15.8227L8.39261 16.3165L13.9069 16.2901L12.1975 14.5673L11.3278 13.6964C11.0953 14.0086 10.845 14.3069 10.5781 14.5899H10.5668ZM41.347 36.3955C41.3282 36.3122 41.2817 36.2379 41.2153 36.1846C41.1489 36.1313 41.0665 36.1023 40.9815 36.1023C40.8966 36.1023 40.8142 36.1313 40.7478 36.1846C40.6814 36.2379 40.6349 36.3122 40.616 36.3955C40.6349 36.4788 40.6814 36.5532 40.7478 36.6065C40.8142 36.6597 40.8966 36.6888 40.9815 36.6888C41.0665 36.6888 41.1489 36.6597 41.2153 36.6065C41.2817 36.5532 41.3282 36.4788 41.347 36.3955ZM43.4725 30.1298C43.5467 30.1298 43.6191 30.1077 43.6808 30.0663C43.7424 30.0248 43.7905 29.966 43.8188 29.8971C43.8472 29.8282 43.8546 29.7524 43.8402 29.6793C43.8257 29.6061 43.79 29.5389 43.7376 29.4862C43.6852 29.4335 43.6184 29.3976 43.5457 29.383C43.4729 29.3685 43.3976 29.376 43.3291 29.4045C43.2606 29.433 43.202 29.4814 43.1608 29.5434C43.1196 29.6053 43.0977 29.6782 43.0977 29.7528C43.0977 29.8528 43.1371 29.9487 43.2074 30.0194C43.2777 30.0901 43.3731 30.1298 43.4725 30.1298ZM41.1334 27.4079C41.1334 27.4079 40.4024 29.4361 42.959 32.7424C42.959 32.7424 46.6289 31.2796 47 27.6077C47 27.6077 44.0873 28.7387 43.2064 31.8489C43.2064 31.8489 43.1689 28.7462 41.1334 27.4079ZM43.9149 28.3202C43.9149 28.3202 43.3488 25.2703 41.1184 24.3052C41.1184 24.3052 40.7435 26.4352 43.8324 29.2439C43.8324 29.2439 47.2062 27.159 46.9213 23.4795C46.9213 23.4795 44.2522 25.1006 43.9224 28.3202H43.9149ZM39.5927 33.3833C39.5927 33.3833 38.2132 35.0383 39.4914 39.0383C39.4914 39.0383 43.4388 38.9252 45.032 35.6038C45.032 35.6038 41.9131 35.6642 40.0238 38.2843C40.0238 38.2843 41.0434 35.355 39.5927 33.3833V33.3833ZM44.0198 24.7123C44.0198 24.7123 42.9327 21.8094 40.5673 21.2477C40.5673 21.2477 40.5673 23.4041 44.091 25.636C44.091 25.636 47.0487 22.997 46.1453 19.4192C46.1453 19.4192 43.7912 21.4814 44.0198 24.6972V24.7123ZM41.4932 40.6782C42.1501 40.2656 42.7143 39.7199 43.1501 39.076C42.1839 38.9974 41.2119 39.118 40.2937 39.4304L41.4932 40.6782ZM18.499 33.1006L18.409 32.4898L18.3228 33.1006L18.1541 34.1712H18.6864L18.499 33.1006ZM6.76945 9.28927C4.27285 11.9924 5.60362 15.7322 5.60362 15.7322C9.76088 15.4758 10.788 13.5871 10.788 13.5871C8.44884 12.9349 6.10968 14.9593 6.10968 14.9593C7.85281 12.2336 6.76945 9.30435 6.76945 9.30435V9.28927ZM22.3638 41.666H24.763C24.763 41.666 24.9167 40.6179 25.5952 40.6179H35.5479V23.012L34.5545 21.9602V39.4078H25.6289C24.7844 39.5447 24.0211 39.9937 23.4884 40.6669C23.2164 40.311 22.8706 40.0188 22.4751 39.8105C22.0797 39.6022 21.6439 39.4828 21.198 39.4605H12.4974V22.1186L11.429 23.1968V40.6217H21.1455C21.1455 40.6217 22.3451 40.6707 22.3451 41.6698L22.3638 41.666ZM3.72179 23.1327C3.72179 23.0581 3.69981 22.9852 3.65862 22.9232C3.61743 22.8612 3.55888 22.8129 3.49038 22.7844C3.42188 22.7559 3.34651 22.7484 3.27379 22.7629C3.20108 22.7775 3.13428 22.8134 3.08186 22.8661C3.02943 22.9188 2.99373 22.986 2.97926 23.0591C2.9648 23.1323 2.97223 23.2081 3.0006 23.277C3.02897 23.3458 3.07702 23.4047 3.13866 23.4462C3.20031 23.4876 3.27279 23.5097 3.34693 23.5097C3.44635 23.5097 3.5417 23.47 3.612 23.3993C3.6823 23.3286 3.72179 23.2327 3.72179 23.1327ZM3.39941 21.6247C4.1079 18.4654 2.09488 16.0715 2.09488 16.0715C0.666642 19.4645 3.18949 22.5295 3.18949 22.5295C7.00936 20.8594 7.3355 18.7256 7.3355 18.7256C4.91012 18.9216 3.39941 21.6247 3.39941 21.6247ZM0.69288 19.9847C-0.120578 23.5813 2.89334 26.1487 2.89334 26.1487C6.36459 23.8377 6.31586 21.6775 6.31586 21.6775C3.96546 22.2958 2.94207 25.225 2.94207 25.225C3.09577 21.9866 0.69288 19.9847 0.69288 19.9847ZM4.6627 12.8218C4.6627 12.8218 4.45278 11.5173 5.7873 9.56448H1.21394C1.21394 9.56448 1.40887 10.0998 4.64396 12.8218H4.6627ZM16.7184 19.6077V19.1026L14.3417 16.7162H8.80497L11.9501 19.6077H16.7184ZM10.9829 39.8187C10.9829 39.9883 11.0279 39.781 11.0279 39.781V37.421L10.6343 37.8583C10.8286 38.5017 10.9456 39.1662 10.9829 39.8375V39.8187ZM5.12754 16.4259C5.12754 16.5259 5.16703 16.6217 5.23733 16.6924C5.30763 16.7631 5.40298 16.8029 5.5024 16.8029C5.60182 16.8029 5.69717 16.7631 5.76747 16.6924C5.83778 16.6217 5.87727 16.5259 5.87727 16.4259C5.87727 16.3259 5.83778 16.23 5.76747 16.1593C5.69717 16.0886 5.60182 16.0489 5.5024 16.0489C5.40298 16.0489 5.30763 16.0886 5.23733 16.1593C5.16703 16.23 5.12754 16.3259 5.12754 16.4259ZM10.9604 42.5105C11.0346 42.5105 11.1071 42.4884 11.1687 42.4469C11.2304 42.4055 11.2784 42.3466 11.3068 42.2777C11.3351 42.2089 11.3426 42.133 11.3281 42.0599C11.3136 41.9868 11.2779 41.9196 11.2255 41.8669C11.1731 41.8142 11.1063 41.7783 11.0336 41.7637C10.9609 41.7492 10.8855 41.7566 10.817 41.7852C10.7485 41.8137 10.6899 41.862 10.6488 41.924C10.6076 41.986 10.5856 42.0589 10.5856 42.1335C10.5856 42.2335 10.6251 42.3293 10.6954 42.4C10.7657 42.4707 10.861 42.5105 10.9604 42.5105ZM13.4983 15.2195L16.7184 18.4013V15.932L13.4983 12.6973V15.2195ZM10.9979 34.1524H9.46473V36.1052H10.9979V34.1524ZM32.324 13.1912L29.8499 15.932L29.8762 20.309C29.84 20.6758 29.7633 21.0374 29.6475 21.3872H31.2557L35.8515 16.7652L32.324 13.1912ZM18.7651 26.6049V27.3589H17.9629V28.2373H18.6864V28.9913H17.9779V29.881H18.7914V30.635H17.1907V26.5935L16.0661 30.6161H15.4176L14.2593 26.5898H15.1102L15.59 28.5238C15.6575 28.7538 15.6837 28.9837 15.7325 29.2099C15.761 28.9753 15.8023 28.7425 15.8562 28.5125L16.336 26.5898L18.7651 26.6049ZM19.7585 35.5397H18.9151L18.7651 34.8611H17.9667L17.8242 35.5397H17.037L17.9667 31.5096H18.7989L19.7585 35.5397ZM18.9301 26.6049H19.7248C20.2309 26.6049 21.1305 26.6576 21.1305 27.7585C21.1412 27.9676 21.094 28.1756 20.994 28.3593C20.8941 28.5431 20.7454 28.6953 20.5645 28.799L21.3105 30.635H20.4745L19.7585 28.75V30.635H18.9676L18.9301 26.6049ZM21.4192 26.6049H22.2102V30.635H21.4192V26.6049ZM20.8306 35.6001C20.5898 35.6024 20.3537 35.5328 20.1521 35.4003V34.6463C20.321 34.784 20.5308 34.8609 20.7482 34.8649C20.8115 34.8728 20.8757 34.8665 20.9363 34.8466C20.997 34.8267 21.0525 34.7937 21.099 34.7498C21.1455 34.7059 21.1818 34.6522 21.2054 34.5927C21.229 34.5331 21.2393 34.469 21.2355 34.405C21.2355 34.0996 20.9918 33.979 20.7707 33.8206C20.547 33.712 20.3582 33.5423 20.2256 33.3311C20.0931 33.1198 20.0222 32.8753 20.0209 32.6255C20.0058 32.4771 20.0216 32.3271 20.0673 32.1852C20.113 32.0432 20.1876 31.9124 20.2864 31.801C20.3851 31.6897 20.5058 31.6002 20.6408 31.5384C20.7759 31.4765 20.9222 31.4436 21.0706 31.4418C21.3179 31.4397 21.5608 31.5077 21.7716 31.6378V32.4107C21.6168 32.2593 21.4134 32.1684 21.198 32.1543C21.145 32.1505 21.0918 32.158 21.0419 32.1765C20.992 32.1949 20.9466 32.2238 20.9087 32.2612C20.8708 32.2987 20.8412 32.3438 20.8219 32.3936C20.8026 32.4434 20.7941 32.4968 20.7969 32.5501C20.7969 33.2099 22.004 33.2514 22.004 34.3371C22.0218 34.498 22.005 34.6608 21.9548 34.8146C21.9046 34.9684 21.8222 35.1096 21.7131 35.2286C21.604 35.3476 21.4708 35.4417 21.3224 35.5045C21.1741 35.5673 21.014 35.5973 20.8531 35.5925L20.8306 35.6001ZM16.9133 32.2485H16.2873V35.536H15.4963V32.2523H14.874V31.4983H16.9133V32.2485ZM12.9585 21.9451V38.9101H21.3105C22.004 38.9871 22.6648 39.2473 23.226 39.6641V26.111C18.1691 26.0017 17.1495 21.964 17.1495 21.964L12.9585 21.9451ZM13.3333 44.0072C13.292 42.9862 13.0895 41.9784 12.7336 41.0213H11.2566C11.529 41.9244 11.9733 42.7656 12.5649 43.4982C9.85459 41.7489 6.94189 42.8385 6.94189 42.8385C9.62967 45.3493 13.3446 44.0072 13.3446 44.0072H13.3333ZM8.32139 16.8632L7.57166 16.1657C5.76481 16.6031 4.44153 18.194 4.44153 18.194C5.07019 16.6072 5.07019 14.8384 4.44153 13.2515L3.90548 12.8029C2.34229 15.7812 4.07042 19.046 4.07042 19.046C6.4733 18.4654 7.68787 17.5116 8.2839 16.8293L8.32139 16.8632ZM4.26909 39.683C6.4808 42.6236 10.3757 41.945 10.3757 41.945C10.848 37.798 9.17233 36.4332 9.17233 36.4332C8.13396 38.6425 9.70464 41.3078 9.70464 41.3078C7.33924 39.1099 4.26909 39.6754 4.26909 39.6754V39.683ZM10.9792 24.9084H9.44224V26.865H10.9792V24.9084Z" fill="white"/>
</svg>
