<svg width="151" height="42" viewBox="0 0 151 42" fill="none" xmlns="http://www.w3.org/2000/svg">
<g clip-path="url(#clip0_201_791)">
<path d="M77.1783 21.9843C77.9209 22.1397 78.6358 22.4062 79.2988 22.775C79.8212 23.086 80.2804 23.4925 80.6526 23.9731C80.9681 24.3806 81.2038 24.844 81.3475 25.3389C81.4928 25.8288 81.5655 26.3374 81.5631 26.8485C81.5783 27.5785 81.4264 28.3023 81.1191 28.9646C80.8118 29.627 80.3572 30.2104 79.79 30.6703C78.3088 31.742 76.4981 32.2593 74.6743 32.1318C73.6389 32.1504 72.6062 32.0213 71.6073 31.7485C70.8167 31.5457 70.0697 31.2006 69.4029 30.7301C68.8779 30.3651 68.4334 29.8961 68.097 29.3523C67.8253 28.9168 67.6764 28.416 67.6657 27.9027C67.6465 27.6817 67.6774 27.4591 67.7563 27.2517C67.8351 27.0442 67.9597 26.8572 68.1209 26.7047C68.2779 26.5503 68.4659 26.431 68.6724 26.3546C68.8789 26.2782 69.0993 26.2464 69.319 26.2614C69.6558 26.2501 69.9874 26.3466 70.2655 26.5369C70.5752 26.7987 70.8527 27.0963 71.0921 27.4235C71.2751 27.677 71.4711 27.9209 71.6792 28.1543C72.1287 28.6321 72.7072 28.9692 73.3445 29.1248C73.7947 29.238 74.2581 29.2903 74.7222 29.2805C75.5202 29.3198 76.3085 29.0922 76.9626 28.6335C77.2136 28.4576 77.4193 28.2248 77.563 27.9541C77.7067 27.6834 77.7842 27.3825 77.7893 27.0761C77.7931 26.694 77.6663 26.322 77.4299 26.0218C77.0951 25.656 76.6485 25.4116 76.1599 25.3269L71.8589 24.2367C71.138 24.0607 70.4446 23.7866 69.7982 23.422C69.3021 23.1481 68.8693 22.7725 68.5283 22.3198C68.2397 21.9473 68.0316 21.5189 67.9173 21.0618C67.8077 20.5987 67.7554 20.124 67.7615 19.6481C67.7411 18.8373 67.9353 18.0354 68.3246 17.3239C68.6967 16.6745 69.2234 16.1271 69.8581 15.7305C70.5104 15.3048 71.2321 14.9967 71.9907 14.82C72.7749 14.6269 73.5791 14.5264 74.3868 14.5205C75.1509 14.5288 75.9112 14.6293 76.6511 14.82C77.3957 14.9991 78.1129 15.2771 78.7837 15.6467C79.3703 15.9644 79.8908 16.3914 80.3172 16.9046C80.6727 17.3375 80.8712 17.878 80.8803 18.4381C80.8897 18.6485 80.849 18.8582 80.7615 19.0498C80.674 19.2415 80.5422 19.4096 80.3771 19.5403C80.0353 19.8078 79.613 19.9514 79.179 19.9476C78.8955 19.9617 78.6147 19.8863 78.3763 19.732C78.1016 19.5221 77.8523 19.2809 77.6335 19.0132C77.2382 18.5458 76.7735 18.1417 76.2557 17.8151C75.6046 17.511 74.8889 17.3711 74.1711 17.4078C73.4543 17.3668 72.7436 17.5602 72.1464 17.9589C71.9191 18.1196 71.7347 18.3336 71.6094 18.5821C71.484 18.8307 71.4216 19.1063 71.4276 19.3846C71.4051 19.6316 71.4599 19.8796 71.5844 20.0942C71.7088 20.3088 71.8969 20.4795 72.1225 20.5826C72.7274 20.881 73.3674 21.1023 74.0274 21.2416L77.1783 21.9843Z" fill="#535CA8"/>
<path d="M84.2839 16.8686C84.2533 16.5577 84.2899 16.2438 84.3912 15.9482C84.4924 15.6526 84.6561 15.3822 84.871 15.1554C85.3889 14.7638 86.0328 14.5762 86.68 14.6283C87.0597 14.6026 87.439 14.6831 87.7755 14.8609C88.1119 15.0386 88.3922 15.3066 88.5849 15.6347L95.2701 26.4172V16.5092C95.2496 16.2552 95.2819 15.9998 95.365 15.7589C95.4481 15.518 95.5802 15.297 95.753 15.1097C95.9258 14.9224 96.1355 14.7729 96.3689 14.6707C96.6023 14.5684 96.8543 14.5157 97.1091 14.5157C97.3639 14.5157 97.616 14.5684 97.8494 14.6707C98.0828 14.7729 98.2924 14.9224 98.4652 15.1097C98.638 15.297 98.7701 15.518 98.8532 15.7589C98.9363 15.9998 98.9686 16.2552 98.9481 16.5092V29.6878C98.9935 30.3252 98.8015 30.9567 98.409 31.4609C98.1834 31.6824 97.912 31.8518 97.614 31.9574C97.316 32.0629 96.9985 32.102 96.6838 32.072C96.2418 32.0986 95.7994 32.0249 95.3899 31.8563C95.0501 31.6708 94.7744 31.3868 94.5992 31.0417L88.0578 20.4988V30.1551C88.0783 30.4091 88.046 30.6646 87.9629 30.9054C87.8798 31.1463 87.7477 31.3673 87.5749 31.5546C87.4021 31.7419 87.1924 31.8914 86.959 31.9936C86.7256 32.0959 86.4736 32.1487 86.2188 32.1487C85.964 32.1487 85.7119 32.0959 85.4785 31.9936C85.2451 31.8914 85.0354 31.7419 84.8627 31.5546C84.6899 31.3673 84.5578 31.1463 84.4747 30.9054C84.3916 30.6646 84.3592 30.4091 84.3798 30.1551L84.2839 16.8686Z" fill="#535CA8"/>
<path d="M102.434 16.5092C102.418 16.2534 102.457 15.9971 102.548 15.7574C102.639 15.5177 102.779 15.3 102.96 15.1188C103.142 14.9375 103.359 14.7969 103.599 14.7061C103.839 14.6154 104.095 14.5766 104.351 14.5924C104.606 14.579 104.862 14.619 105.101 14.7098C105.34 14.8005 105.558 14.9401 105.741 15.1195C105.916 15.3042 106.052 15.5226 106.141 15.7615C106.229 16.0003 106.269 16.2548 106.256 16.5092V25.6744C106.219 26.1298 106.28 26.5879 106.435 27.0177C106.59 27.4476 106.835 27.8392 107.154 28.1663C107.906 28.6969 108.804 28.9818 109.724 28.9818C110.644 28.9818 111.542 28.6969 112.294 28.1663C112.613 27.8392 112.858 27.4476 113.013 27.0177C113.168 26.5879 113.229 26.1298 113.193 25.6744V16.5092C113.182 16.254 113.223 15.9993 113.314 15.7604C113.405 15.5216 113.543 15.3036 113.72 15.1195C113.901 14.9422 114.117 14.8039 114.354 14.7132C114.591 14.6226 114.844 14.5814 115.097 14.5924C115.355 14.5803 115.612 14.6208 115.853 14.7114C116.094 14.802 116.314 14.9409 116.499 15.1195C116.672 15.3057 116.807 15.5244 116.896 15.7629C116.984 16.0014 117.024 16.255 117.014 16.5092V25.3749C117.085 26.3004 116.948 27.23 116.614 28.0962C116.281 28.9623 115.758 29.7435 115.085 30.3827C113.508 31.4671 111.638 32.0476 109.724 32.0476C107.81 32.0476 105.94 31.4671 104.363 30.3827C103.69 29.7435 103.168 28.9623 102.834 28.0962C102.5 27.23 102.364 26.3004 102.434 25.3749V16.5092Z" fill="#535CA8"/>
<path d="M120.668 17.1681C120.639 16.8573 120.674 16.5438 120.771 16.247C120.867 15.9502 121.024 15.6765 121.231 15.4429C121.704 15.0725 122.298 14.8929 122.897 14.9398H131.858C132.36 14.9075 132.86 15.0242 133.296 15.2752C133.474 15.4157 133.613 15.5999 133.699 15.8098C133.785 16.0197 133.815 16.2482 133.787 16.4732C133.812 16.6981 133.78 16.9256 133.694 17.1349C133.608 17.3441 133.471 17.5285 133.296 17.6713C132.861 17.9265 132.361 18.0474 131.858 18.0188H124.478V21.613H130.948C131.408 21.5879 131.865 21.6961 132.266 21.9245C132.444 22.064 132.583 22.2483 132.667 22.4588C132.751 22.6692 132.778 22.8983 132.745 23.1225C132.779 23.3468 132.753 23.5762 132.669 23.7869C132.584 23.9976 132.445 24.1819 132.266 24.3206C131.869 24.5585 131.409 24.6711 130.948 24.644H124.478V28.6934H132.05C132.548 28.6607 133.044 28.7775 133.476 29.0289C133.636 29.1842 133.764 29.3703 133.852 29.5762C133.939 29.782 133.984 30.0034 133.984 30.227C133.984 30.4506 133.939 30.6719 133.852 30.8777C133.764 31.0835 133.636 31.2697 133.476 31.425C133.048 31.6871 132.55 31.8086 132.05 31.7724H122.897C122.298 31.8193 121.704 31.6397 121.231 31.2693C121.024 31.0357 120.867 30.762 120.771 30.4652C120.674 30.1684 120.639 29.8549 120.668 29.5441V17.1681Z" fill="#33ABDD"/>
<path d="M136.518 17.1681C136.488 16.8573 136.523 16.5438 136.62 16.247C136.717 15.9502 136.874 15.6765 137.081 15.4429C137.553 15.0725 138.148 14.8929 138.746 14.9398H144.593C145.363 14.9281 146.13 15.0332 146.869 15.2513C147.543 15.4411 148.171 15.7673 148.714 16.2097C149.235 16.6664 149.645 17.236 149.912 17.875C150.222 18.6349 150.373 19.4505 150.355 20.2711C150.381 20.981 150.256 21.6882 149.99 22.3467C149.723 23.0052 149.321 23.6002 148.81 24.0929C147.633 25.1286 146.098 25.6619 144.533 25.5785H140.292V30.1071C140.304 30.3606 140.266 30.6139 140.179 30.8525C140.093 31.091 139.96 31.3101 139.788 31.4969C139.52 31.7796 139.173 31.9739 138.791 32.054C138.41 32.1341 138.014 32.0961 137.655 31.9452C137.296 31.7942 136.991 31.5375 136.781 31.2092C136.572 30.8808 136.467 30.4964 136.482 30.1071L136.518 17.1681ZM140.328 22.6193H143.922C144.62 22.6464 145.304 22.4114 145.839 21.9604C146.086 21.7504 146.282 21.4872 146.413 21.1904C146.544 20.8937 146.605 20.5712 146.593 20.2471C146.621 19.9043 146.562 19.5599 146.422 19.2459C146.282 18.9318 146.065 18.6581 145.791 18.4501C145.115 18.0247 144.324 17.8196 143.526 17.863H140.351L140.328 22.6193Z" fill="#33ABDD"/>
<path d="M69.331 39.1525C69.3231 39.3092 69.365 39.4644 69.4508 39.5958C69.5197 39.7164 69.6243 39.8127 69.7503 39.8713C69.8769 39.9445 70.0144 39.9971 70.1576 40.0271C70.3131 40.0398 70.4694 40.0398 70.6249 40.0271C70.9 40.0416 71.1738 39.9794 71.4156 39.8473C71.5077 39.8001 71.5847 39.7278 71.6377 39.6388C71.6907 39.5499 71.7175 39.4477 71.7151 39.3442C71.7184 39.2688 71.7038 39.1936 71.6726 39.1249C71.6414 39.0562 71.5943 38.9959 71.5354 38.9488C71.3637 38.8428 71.172 38.7734 70.9723 38.7451L70.0498 38.5894C69.9064 38.576 69.7654 38.5437 69.6305 38.4935C69.4995 38.4551 69.3745 38.3987 69.2591 38.3258C69.1398 38.2464 69.0412 38.1396 68.9716 38.0143C68.8858 37.8697 68.8441 37.7031 68.8517 37.5351C68.8459 37.3633 68.8822 37.1928 68.9574 37.0383C69.0325 36.8838 69.1443 36.75 69.283 36.6485C69.6319 36.4023 70.055 36.2838 70.4811 36.3131C70.6901 36.3141 70.8987 36.3341 71.1041 36.373C71.2897 36.4177 71.4675 36.4904 71.6312 36.5886C71.7966 36.682 71.9333 36.8187 72.0266 36.984C72.1305 37.1678 72.1919 37.3725 72.2063 37.5831H71.6073C71.5882 37.4887 71.5602 37.3964 71.5234 37.3074C71.4811 37.2158 71.4149 37.1371 71.3317 37.0798C71.2252 36.9964 71.103 36.9353 70.9723 36.9002C70.7895 36.8471 70.5995 36.8228 70.4092 36.8283C70.2937 36.8159 70.1773 36.8159 70.0618 36.8283C69.9574 36.8557 69.8568 36.8959 69.7623 36.948C69.6789 37.0075 69.606 37.0803 69.5466 37.1637C69.4937 37.2504 69.4648 37.3496 69.4628 37.4512C69.4604 37.5154 69.4733 37.5794 69.5003 37.6377C69.5274 37.696 69.5679 37.747 69.6185 37.7867C69.7653 37.8978 69.9389 37.9681 70.1217 37.9904L71.1161 38.1581L71.4875 38.242C71.6195 38.2775 71.7449 38.3342 71.8589 38.4097C71.9921 38.4826 72.1069 38.5851 72.1943 38.7092C72.2801 38.8539 72.3217 39.0204 72.3141 39.1884C72.3235 39.4053 72.2738 39.6206 72.1703 39.8114C72.0776 39.9834 71.9413 40.128 71.775 40.2307C71.601 40.3342 71.4105 40.4071 71.2119 40.4464C71.0078 40.4946 70.7987 40.5187 70.5889 40.5182C70.3554 40.5199 70.1223 40.4958 69.894 40.4464C69.6859 40.4012 69.4873 40.3202 69.307 40.2068C69.127 40.103 68.9813 39.9489 68.8877 39.7635C68.7745 39.5543 68.7207 39.3182 68.7319 39.0806L69.331 39.1525Z" fill="#535CA8"/>
<path d="M73.476 37.2715V40.4703H72.877V36.4329H73.5718L76.1716 39.6437V36.4329H76.7706V40.4703H76.0758L73.476 37.2715Z" fill="#535CA8"/>
<path d="M77.6465 36.4449H78.2455V39.0327C78.2346 39.1787 78.2582 39.3253 78.3144 39.4606C78.3706 39.5958 78.4578 39.7161 78.569 39.8114C78.8419 39.9763 79.1547 40.0635 79.4735 40.0635C79.7924 40.0635 80.1052 39.9763 80.3781 39.8114C80.4892 39.7161 80.5765 39.5958 80.6326 39.4606C80.6888 39.3253 80.7124 39.1787 80.7015 39.0327V36.4449H81.3006V38.9608C81.3006 40.039 80.6896 40.5901 79.4795 40.5901C78.2695 40.5901 77.6465 40.039 77.6465 38.9608V36.4449Z" fill="#535CA8"/>
<path d="M84.043 36.4449H87.2897V36.972H84.642V38.1701H87.2059V38.6972H84.642V40.0031H87.3496V40.4703H84.043V36.4449Z" fill="#535CA8"/>
<path d="M90.5485 40.1109C90.4271 40.267 90.2656 40.387 90.0812 40.4583C89.6689 40.6182 89.2117 40.6182 88.7993 40.4583C88.6072 40.3927 88.4315 40.2865 88.2841 40.1468C88.1355 40.009 88.0172 39.8417 87.9367 39.6557C87.8535 39.4461 87.8128 39.2222 87.8169 38.9967C87.8115 38.7712 87.8522 38.5469 87.9367 38.3378C88.0172 38.1517 88.1355 37.9845 88.2841 37.8466C88.4315 37.707 88.6072 37.6007 88.7993 37.5351C88.999 37.4626 89.2099 37.4261 89.4223 37.4273C89.6484 37.4282 89.8722 37.473 90.0812 37.5591C90.2656 37.6304 90.4271 37.7504 90.5485 37.9065V37.9065V36.3969H91.1115V40.4703H90.5485V40.1109ZM88.4638 39.428C88.5053 39.5574 88.5749 39.676 88.6675 39.7754C88.7576 39.8849 88.8727 39.9712 89.003 40.0271C89.1553 40.0875 89.3184 40.116 89.4822 40.1109C89.65 40.1177 89.8174 40.0891 89.9734 40.0271C90.1042 39.9714 90.2224 39.8899 90.3209 39.7874C90.4071 39.679 90.4758 39.5577 90.5245 39.428C90.5628 39.2956 90.583 39.1585 90.5844 39.0207C90.5932 38.8752 90.5711 38.7295 90.5195 38.5932C90.4679 38.4569 90.3879 38.3331 90.2849 38.23C90.0655 38.0346 89.782 37.9267 89.4882 37.9267C89.1944 37.9267 88.9109 38.0346 88.6915 38.23C88.5924 38.3354 88.5159 38.4598 88.4664 38.5957C88.417 38.7317 88.3957 38.8762 88.404 39.0207C88.4044 39.1586 88.4246 39.2958 88.4638 39.428V39.428Z" fill="#535CA8"/>
<path d="M94.7773 40.4703H94.2142V40.0271C94.099 40.2153 93.927 40.3621 93.723 40.4463C93.514 40.5325 93.2902 40.5773 93.0641 40.5782C92.74 40.5912 92.4206 40.4987 92.1536 40.3146C92.0369 40.2206 91.9453 40.0992 91.8868 39.9612C91.8282 39.8233 91.8047 39.6731 91.8181 39.5239V37.5112H92.3812V39.416C92.3735 39.5111 92.3892 39.6067 92.4268 39.6943C92.4644 39.782 92.5227 39.8592 92.5969 39.9192C92.7888 40.0541 93.0219 40.1177 93.2558 40.0989C93.5071 40.1084 93.7536 40.0276 93.9507 39.8713C94.0429 39.7891 94.1156 39.6871 94.1633 39.5731C94.211 39.4591 94.2325 39.3358 94.2262 39.2124V37.5112H94.7893L94.7773 40.4703Z" fill="#535CA8"/>
<path d="M98.4927 39.4041C98.4216 39.7629 98.2266 40.0852 97.9416 40.3146C97.6511 40.507 97.3075 40.6033 96.9592 40.5901C96.7055 40.5937 96.4534 40.549 96.2164 40.4583C96.0221 40.381 95.8495 40.2577 95.7133 40.0989C95.5891 39.9511 95.4954 39.7801 95.4377 39.5958C95.3749 39.4105 95.3425 39.2163 95.3418 39.0207C95.3314 38.8153 95.3621 38.6099 95.432 38.4165C95.5019 38.2231 95.6098 38.0457 95.7492 37.8945C95.8841 37.7371 96.0574 37.6174 96.2524 37.5471C96.4738 37.4616 96.71 37.421 96.9473 37.4273C97.3109 37.4105 97.6709 37.5067 97.9776 37.7028C98.1185 37.7907 98.2373 37.91 98.3245 38.0513C98.4118 38.1926 98.4653 38.3521 98.4808 38.5175H97.8817C97.8756 38.4308 97.8511 38.3465 97.8098 38.2701C97.7684 38.1936 97.7113 38.1268 97.6421 38.0742C97.4568 37.9553 97.2391 37.8967 97.0191 37.9065C96.8755 37.8978 96.7316 37.9201 96.5973 37.9718C96.4629 38.0235 96.3412 38.1033 96.2404 38.206C96.0552 38.4358 95.9613 38.7259 95.9768 39.0207C95.9643 39.3114 96.058 39.5967 96.2404 39.8234C96.3397 39.9281 96.4612 40.0093 96.5959 40.0611C96.7307 40.113 96.8752 40.1341 97.0191 40.1229C97.2317 40.1334 97.4419 40.0745 97.6182 39.9552C97.7813 39.817 97.8914 39.6264 97.9296 39.416L98.4927 39.4041Z" fill="#535CA8"/>
<path d="M99.0305 38.4456C99.0356 38.2923 99.0761 38.1422 99.1489 38.0071C99.2216 37.872 99.3246 37.7555 99.4499 37.6669C99.7652 37.4838 100.129 37.4003 100.492 37.4273C100.656 37.415 100.82 37.415 100.983 37.4273C101.132 37.4472 101.277 37.4875 101.415 37.5471C101.54 37.6114 101.65 37.7012 101.738 37.8107C101.822 37.934 101.864 38.081 101.858 38.23V39.8234C101.854 39.8574 101.858 39.8918 101.869 39.9241C101.881 39.9563 101.899 39.9856 101.923 40.0098C101.947 40.0339 101.977 40.0524 102.009 40.0636C102.041 40.0749 102.076 40.0788 102.11 40.075H102.313V40.4704C102.166 40.4827 102.017 40.4827 101.87 40.4704C101.744 40.4801 101.619 40.4508 101.511 40.3865C101.464 40.3459 101.426 40.2964 101.399 40.2408C101.373 40.1851 101.357 40.1246 101.355 40.063C101.222 40.2279 101.042 40.349 100.84 40.4105C100.601 40.4958 100.35 40.5404 100.097 40.5422C99.8981 40.5431 99.7003 40.5148 99.5098 40.4584C99.3729 40.4118 99.2466 40.3385 99.1384 40.2427C99.0525 40.1683 98.9867 40.0736 98.9467 39.9672C98.9292 39.8601 98.9292 39.7508 98.9467 39.6437C98.94 39.5225 98.9627 39.4016 99.0127 39.291C99.0628 39.1805 99.1388 39.0837 99.2342 39.0088C99.531 38.8288 99.8697 38.7297 100.217 38.7212L100.864 38.6613C101.001 38.6483 101.134 38.6119 101.259 38.5535C101.299 38.5252 101.33 38.4872 101.351 38.4432C101.372 38.3991 101.382 38.3505 101.379 38.3019C101.382 38.2162 101.357 38.1318 101.307 38.0623C101.268 37.9901 101.204 37.9347 101.127 37.9065C101.043 37.8699 100.954 37.8457 100.864 37.8346H100.516C100.293 37.8278 100.072 37.8729 99.8692 37.9664C99.7884 38.0116 99.7213 38.0778 99.6749 38.1579C99.6285 38.238 99.6046 38.3291 99.6056 38.4217L99.0305 38.4456ZM101.331 38.9368C101.278 38.9892 101.211 39.0264 101.139 39.0447L100.768 39.1166L100.133 39.1884C99.9524 39.206 99.7774 39.2589 99.6176 39.3442C99.5646 39.3816 99.5223 39.4323 99.495 39.4912C99.4677 39.55 99.4562 39.615 99.4618 39.6797C99.4612 39.7476 99.4787 39.8144 99.5124 39.8733C99.546 39.9322 99.5947 39.9812 99.6535 40.0151C99.8051 40.1064 99.9798 40.1521 100.157 40.1469C100.306 40.1454 100.455 40.1253 100.6 40.087C100.737 40.054 100.866 39.9972 100.983 39.9192C101.085 39.8457 101.171 39.7519 101.235 39.6437C101.297 39.5473 101.33 39.435 101.331 39.3202V38.9368Z" fill="#535CA8"/>
<path d="M102.949 36.6126H103.512V37.5231H104.351V37.9664H103.512V39.7874C103.509 39.8349 103.517 39.8826 103.535 39.9263C103.554 39.9701 103.583 40.0087 103.62 40.0391C103.727 40.0932 103.847 40.118 103.967 40.1109H104.351V40.5782C104.144 40.6011 103.935 40.6011 103.728 40.5782C103.62 40.5882 103.511 40.5764 103.409 40.5435C103.306 40.5105 103.21 40.4571 103.129 40.3865C103.065 40.3172 103.017 40.2358 102.986 40.1473C102.955 40.0588 102.943 39.9649 102.949 39.8713V37.9545H102.338V37.5112H102.949V36.6126Z" fill="#535CA8"/>
<path d="M104.83 36.4209H105.393V37.0319H104.83V36.4209ZM104.83 37.5231H105.393V40.4703H104.83V37.5231Z" fill="#535CA8"/>
<path d="M106.028 38.3857C106.104 38.1996 106.214 38.0291 106.351 37.8826C106.508 37.7314 106.696 37.6168 106.902 37.5471C107.14 37.4608 107.392 37.4202 107.645 37.4273C107.898 37.4213 108.15 37.4619 108.388 37.5471C108.589 37.6201 108.773 37.7344 108.927 37.8826C109.065 38.0291 109.175 38.1996 109.251 38.3857C109.324 38.5851 109.361 38.7963 109.358 39.0088C109.36 39.2173 109.323 39.4242 109.251 39.6197C109.18 39.8087 109.07 39.9804 108.927 40.1229C108.773 40.2711 108.589 40.3854 108.388 40.4584C108.151 40.5479 107.899 40.5925 107.645 40.5901C107.392 40.5937 107.139 40.549 106.902 40.4584C106.696 40.3886 106.508 40.2741 106.351 40.1229C106.209 39.9804 106.098 39.8087 106.028 39.6197C105.955 39.4242 105.919 39.2173 105.92 39.0088C105.918 38.7963 105.954 38.5851 106.028 38.3857V38.3857ZM108.7 38.6014C108.655 38.4722 108.59 38.3509 108.508 38.242C108.409 38.1318 108.286 38.0457 108.148 37.9904C107.989 37.9252 107.818 37.8926 107.645 37.8945C107.469 37.8916 107.294 37.9242 107.13 37.9904C106.994 38.0427 106.875 38.1294 106.783 38.242C106.692 38.3475 106.623 38.4696 106.579 38.6014C106.541 38.7338 106.52 38.8709 106.519 39.0088C106.521 39.1465 106.541 39.2834 106.579 39.416C106.623 39.5443 106.692 39.6624 106.783 39.7635C106.875 39.876 106.994 39.9627 107.13 40.0151C107.294 40.0812 107.469 40.1138 107.645 40.1109C107.818 40.1128 107.989 40.0802 108.148 40.0151C108.286 39.9597 108.409 39.8737 108.508 39.7635C108.591 39.6591 108.655 39.5417 108.7 39.416C108.717 39.2808 108.717 39.144 108.7 39.0088C108.714 38.873 108.71 38.736 108.688 38.6014H108.7Z" fill="#535CA8"/>
<path d="M109.91 37.5231H110.473V37.9664C110.592 37.7812 110.763 37.6353 110.965 37.5471C111.178 37.4639 111.406 37.4232 111.636 37.4273C111.954 37.4117 112.27 37.4999 112.534 37.6789C112.651 37.7729 112.742 37.8943 112.801 38.0322C112.859 38.1702 112.883 38.3204 112.87 38.4697V40.4704H112.307V38.5654C112.311 38.4707 112.294 38.3762 112.257 38.289C112.22 38.2018 112.163 38.1242 112.091 38.0623C111.899 37.9274 111.666 37.8639 111.432 37.8826C111.179 37.8776 110.933 37.9625 110.737 38.1222C110.644 38.2008 110.57 38.3004 110.522 38.4128C110.474 38.5251 110.453 38.6473 110.462 38.7692V40.4704H109.898L109.91 37.5231Z" fill="#535CA8"/>
<path d="M115.613 36.4449H117.686C118.046 36.4232 118.403 36.5292 118.692 36.7444C118.812 36.8526 118.905 36.9864 118.965 37.1358C119.025 37.2852 119.051 37.4463 119.04 37.607C119.052 37.7757 119.029 37.9451 118.971 38.1041C118.913 38.2631 118.822 38.4081 118.704 38.5295C118.574 38.6481 118.42 38.739 118.253 38.7966C118.087 38.8543 117.91 38.8775 117.734 38.8649H116.212V40.4703H115.613V36.4449ZM117.65 38.3498C117.76 38.3577 117.871 38.3439 117.976 38.3089C118.081 38.274 118.178 38.2186 118.261 38.1461C118.387 38.0003 118.451 37.8113 118.441 37.619C118.448 37.4436 118.388 37.272 118.273 37.1397C118.128 37.0209 117.945 36.9611 117.758 36.972H116.212V38.3498H117.65Z" fill="#535CA8"/>
<path d="M119.542 38.4456C119.544 38.2917 119.584 38.1406 119.657 38.005C119.73 37.8694 119.834 37.7535 119.962 37.6669C120.277 37.4838 120.64 37.4003 121.004 37.4273C121.167 37.415 121.332 37.415 121.495 37.4273C121.644 37.4472 121.789 37.4875 121.926 37.5471C122.051 37.6114 122.162 37.7012 122.25 37.8107C122.329 37.9362 122.371 38.0817 122.37 38.23V39.8234C122.366 39.8574 122.37 39.8918 122.381 39.9241C122.392 39.9563 122.411 39.9856 122.435 40.0098C122.459 40.0339 122.488 40.0524 122.521 40.0636C122.553 40.0749 122.587 40.0788 122.621 40.075H122.825V40.4704C122.677 40.4827 122.529 40.4827 122.382 40.4704C122.256 40.4801 122.131 40.4508 122.022 40.3865C121.976 40.3459 121.938 40.2964 121.911 40.2408C121.884 40.1851 121.869 40.1246 121.866 40.063C121.734 40.2279 121.554 40.349 121.351 40.4105C121.113 40.4958 120.862 40.5404 120.609 40.5422C120.41 40.5431 120.212 40.5148 120.021 40.4584C119.883 40.4148 119.756 40.3411 119.65 40.2427C119.564 40.1683 119.498 40.0736 119.458 39.9672C119.441 39.8601 119.441 39.7508 119.458 39.6437C119.452 39.5238 119.474 39.4041 119.522 39.2939C119.57 39.1838 119.642 39.0862 119.734 39.0088C120.036 38.8308 120.378 38.7319 120.728 38.7212L121.375 38.6613C121.509 38.6519 121.64 38.6152 121.759 38.5535C121.802 38.5285 121.838 38.4915 121.861 38.447C121.885 38.4024 121.895 38.352 121.89 38.3019C121.894 38.2162 121.869 38.1318 121.819 38.0623C121.774 37.9949 121.712 37.9411 121.639 37.9065C121.551 37.8684 121.458 37.8442 121.363 37.8346H121.028C120.805 37.8264 120.583 37.8716 120.381 37.9664C120.298 38.0095 120.23 38.0752 120.183 38.1558C120.136 38.2364 120.114 38.3286 120.117 38.4217L119.542 38.4456ZM121.843 38.9368C121.789 38.9892 121.723 39.0264 121.651 39.0447L121.279 39.1166L120.644 39.1884C120.464 39.204 120.288 39.2571 120.129 39.3442C120.076 39.3816 120.034 39.4323 120.007 39.4912C119.979 39.55 119.968 39.615 119.974 39.6797C119.973 39.7476 119.99 39.8144 120.024 39.8733C120.058 39.9322 120.106 39.9812 120.165 40.0151C120.312 40.1067 120.483 40.1526 120.656 40.1469C120.81 40.1462 120.963 40.1261 121.112 40.087C121.245 40.0555 121.371 39.9985 121.483 39.9192C121.589 39.846 121.678 39.7523 121.747 39.6437C121.809 39.5473 121.842 39.435 121.843 39.3202V38.9368Z" fill="#535CA8"/>
<path d="M123.207 37.5231H123.77V38.0743C123.874 37.875 124.032 37.7089 124.226 37.595C124.394 37.4892 124.59 37.4351 124.789 37.4393H124.968H125.112V38.0743H124.909H124.705C124.576 38.0628 124.445 38.0802 124.324 38.1252C124.202 38.1703 124.092 38.2418 124.001 38.3347C123.911 38.4276 123.842 38.5396 123.8 38.6624C123.758 38.7852 123.744 38.9157 123.758 39.0447V40.4704H123.195L123.207 37.5231Z" fill="#535CA8"/>
<path d="M125.748 36.6126H126.323V37.5231H127.162V37.9664H126.323V39.7874C126.32 39.8349 126.328 39.8826 126.347 39.9263C126.366 39.9701 126.395 40.0087 126.431 40.0391C126.539 40.0932 126.659 40.118 126.779 40.1109H127.162V40.5782C126.955 40.6011 126.746 40.6011 126.539 40.5782C126.431 40.5882 126.323 40.5764 126.22 40.5435C126.117 40.5105 126.022 40.4571 125.94 40.3865C125.875 40.3182 125.824 40.2373 125.791 40.1487C125.758 40.0601 125.744 39.9657 125.748 39.8713V37.9545H125.197V37.5112H125.808L125.748 36.6126Z" fill="#535CA8"/>
<path d="M127.594 37.5231H128.157V37.9663C128.282 37.7825 128.457 37.6374 128.66 37.5471C128.87 37.4639 129.094 37.4232 129.319 37.4273C129.638 37.4098 129.954 37.4982 130.217 37.6788C130.336 37.7723 130.429 37.8932 130.489 38.0311C130.55 38.1689 130.576 38.3194 130.565 38.4696V40.4703H129.99V38.5654C129.995 38.4706 129.978 38.3761 129.94 38.2889C129.903 38.2017 129.846 38.1241 129.774 38.0622C129.575 37.9257 129.339 37.8526 129.097 37.8526C128.856 37.8526 128.62 37.9257 128.42 38.0622C128.323 38.1383 128.246 38.2371 128.196 38.3499C128.146 38.4627 128.124 38.5861 128.133 38.7092V40.4703H127.594V37.5231Z" fill="#535CA8"/>
<path d="M131.726 39.1764C131.74 39.3146 131.781 39.4489 131.846 39.5718C131.913 39.6847 131.998 39.7859 132.097 39.8713C132.207 39.943 132.323 40.0032 132.445 40.0511C132.569 40.0893 132.698 40.1095 132.828 40.1109C133.006 40.1136 133.182 40.0768 133.343 40.0031C133.438 39.9656 133.524 39.9085 133.595 39.8353C133.672 39.765 133.733 39.6793 133.775 39.5838H134.374C134.312 39.7494 134.223 39.9033 134.11 40.0391C134.001 40.1594 133.876 40.2642 133.739 40.3506C133.604 40.4306 133.459 40.491 133.307 40.5302C132.91 40.6302 132.492 40.6051 132.109 40.4583C131.908 40.3854 131.725 40.2711 131.57 40.1229C131.42 39.9844 131.305 39.8118 131.235 39.6197C131.162 39.4242 131.126 39.2173 131.127 39.0087C131.125 38.7963 131.161 38.5851 131.235 38.3857C131.311 38.1968 131.425 38.0255 131.57 37.8826C131.725 37.7344 131.908 37.6201 132.109 37.5471C132.348 37.4619 132.599 37.4213 132.852 37.4273C133.051 37.4248 133.249 37.4531 133.439 37.5112C133.627 37.5802 133.802 37.6815 133.954 37.8107C134.117 37.956 134.244 38.1362 134.326 38.3378C134.417 38.5829 134.462 38.843 134.458 39.1045V39.1764H131.726ZM133.859 38.7331C133.828 38.4916 133.703 38.272 133.511 38.1221C133.318 37.9676 133.076 37.8869 132.828 37.8945C132.574 37.8873 132.324 37.9677 132.121 38.1221C132.022 38.1941 131.938 38.2853 131.874 38.3902C131.81 38.4951 131.768 38.6117 131.75 38.7331H133.859Z" fill="#535CA8"/>
<path d="M135.033 37.5231H135.597V38.0742C135.703 37.8767 135.86 37.7113 136.052 37.595C136.221 37.491 136.416 37.437 136.615 37.4392H136.795H136.938V38.0742H136.735H136.531C136.406 38.0677 136.281 38.0865 136.164 38.1298C136.046 38.173 135.939 38.2398 135.848 38.3258C135.756 38.4202 135.685 38.5331 135.639 38.657C135.594 38.7809 135.575 38.913 135.585 39.0446V40.4703H135.021L135.033 37.5231Z" fill="#535CA8"/>
<path d="M137.729 39.5478C137.712 39.6187 137.712 39.6925 137.729 39.7634C137.77 39.8357 137.822 39.9006 137.885 39.9551C137.974 40.013 138.07 40.0574 138.172 40.0869C138.316 40.1278 138.466 40.1479 138.616 40.1468C138.759 40.1608 138.903 40.1608 139.047 40.1468L139.334 40.039C139.391 39.9963 139.44 39.9435 139.478 39.8833C139.491 39.828 139.491 39.7707 139.478 39.7155C139.481 39.6669 139.472 39.6183 139.451 39.5742C139.43 39.5302 139.398 39.4922 139.358 39.4639C139.23 39.3793 139.081 39.3298 138.927 39.3201L137.993 39.2004C137.782 39.1691 137.583 39.0822 137.417 38.9488C137.342 38.8814 137.282 38.7981 137.243 38.7048C137.204 38.6116 137.185 38.5108 137.19 38.4097C137.186 38.2728 137.216 38.1371 137.279 38.0155C137.342 37.8938 137.435 37.7903 137.549 37.7148C137.844 37.533 138.186 37.4452 138.532 37.4632C138.902 37.436 139.272 37.5284 139.586 37.7268C139.702 37.8111 139.799 37.9206 139.867 38.0471C139.935 38.1736 139.974 38.3139 139.981 38.4576H139.418C139.414 38.3755 139.39 38.2957 139.348 38.2248C139.306 38.154 139.248 38.0941 139.179 38.0502C138.982 37.9382 138.758 37.8842 138.532 37.8945H138.244C138.162 37.9112 138.082 37.9353 138.005 37.9663C137.931 37.994 137.868 38.0444 137.825 38.1102C137.776 38.1715 137.751 38.2478 137.753 38.3258C137.75 38.3704 137.757 38.415 137.774 38.4564C137.79 38.4979 137.816 38.5351 137.849 38.5654C137.969 38.6385 138.104 38.6836 138.244 38.6972L139.047 38.805C139.329 38.8233 139.601 38.9142 139.838 39.0686C139.914 39.1306 139.975 39.2092 140.017 39.2984C140.058 39.3877 140.079 39.4853 140.077 39.5838C140.085 39.7334 140.052 39.8824 139.982 40.0151C139.913 40.1478 139.809 40.2595 139.682 40.3385C139.354 40.5352 138.973 40.6271 138.592 40.6021C138.416 40.615 138.24 40.615 138.064 40.6021C137.903 40.5701 137.746 40.5177 137.597 40.4463C137.457 40.364 137.334 40.254 137.238 40.1229C137.138 39.9693 137.084 39.7907 137.082 39.6077L137.729 39.5478Z" fill="#535CA8"/>
<path d="M140.688 36.4209H141.251V37.9664C141.37 37.7812 141.54 37.6353 141.742 37.5471C141.952 37.4648 142.176 37.4241 142.401 37.4273C142.724 37.4107 143.043 37.4989 143.311 37.6788C143.428 37.7729 143.52 37.8942 143.578 38.0322C143.637 38.1701 143.66 38.3204 143.647 38.4696V40.4703H143.084V38.5654C143.089 38.4706 143.072 38.3761 143.034 38.2889C142.997 38.2017 142.94 38.1241 142.868 38.0622C142.676 37.9273 142.443 37.8638 142.209 37.8826C141.957 37.8776 141.71 37.9624 141.514 38.1221C141.421 38.2008 141.347 38.3003 141.299 38.4127C141.252 38.5251 141.231 38.6472 141.239 38.7691V40.4703H140.676L140.688 36.4209Z" fill="#535CA8"/>
<path d="M144.365 36.4209H144.928V37.0319H144.365V36.4209ZM144.365 37.5231H144.928V40.4703H144.365V37.5231Z" fill="#535CA8"/>
<path d="M145.564 37.5231H146.14V37.9305C146.258 37.7717 146.421 37.651 146.607 37.5831C146.812 37.4982 147.032 37.4534 147.254 37.4512C147.47 37.4489 147.685 37.4855 147.889 37.5591C148.079 37.6276 148.255 37.7335 148.404 37.8706C148.553 38.0058 148.668 38.174 148.739 38.3618C148.828 38.5701 148.873 38.7943 148.871 39.0207C148.871 39.2469 148.827 39.471 148.739 39.6797C148.668 39.8675 148.553 40.0357 148.404 40.1709C148.255 40.308 148.079 40.4139 147.889 40.4824C147.685 40.556 147.47 40.5925 147.254 40.5901C147.032 40.5892 146.812 40.5444 146.607 40.4584C146.422 40.3871 146.261 40.267 146.14 40.111V40.111V41.6684H145.564V37.5231ZM148.212 38.6134C148.175 38.4847 148.109 38.366 148.02 38.2659C147.93 38.1564 147.815 38.0702 147.685 38.0144C147.529 37.9523 147.362 37.9237 147.194 37.9305C147.03 37.9254 146.867 37.9539 146.715 38.0144C146.584 38.07 146.466 38.1515 146.367 38.254C146.277 38.3596 146.208 38.4816 146.163 38.6134C146.145 38.7486 146.145 38.8855 146.163 39.0207C146.156 39.1679 146.179 39.315 146.23 39.4531C146.282 39.5911 146.361 39.7172 146.463 39.8234C146.569 39.9214 146.694 39.9972 146.829 40.0465C146.965 40.0959 147.109 40.1178 147.254 40.111C147.4 40.1217 147.546 40.1008 147.683 40.0498C147.82 39.9988 147.945 39.9189 148.048 39.8154C148.152 39.7119 148.232 39.5874 148.283 39.4503C148.334 39.3132 148.355 39.1666 148.344 39.0207C148.338 38.8801 148.305 38.7419 148.248 38.6134H148.212Z" fill="#535CA8"/>
<path fill-rule="evenodd" clip-rule="evenodd" d="M30.3594 2.46806V29.1487C32.7928 28.9475 35.0619 27.8396 36.7172 26.0446C38.3725 24.2495 39.2932 21.8982 39.2969 19.4565C39.2724 19.093 39.3229 18.7283 39.4452 18.3852C39.5675 18.042 39.759 17.7276 40.0078 17.4615C40.2567 17.1954 40.5575 16.9833 40.8917 16.8382C41.2258 16.6932 41.5863 16.6183 41.9506 16.6183C42.3149 16.6183 42.6753 16.6932 43.0095 16.8382C43.3437 16.9833 43.6445 17.1954 43.8933 17.4615C44.1421 17.7276 44.3336 18.042 44.4559 18.3852C44.5782 18.7283 44.6287 19.093 44.6043 19.4565C44.6036 23.308 43.1262 27.0126 40.4762 29.8074C37.8262 32.6023 34.2054 34.2746 30.3594 34.4801V35.0431C30.3594 35.8727 30.5232 36.6942 30.8414 37.4603C31.1596 38.2265 31.6259 38.9222 32.2136 39.5077C32.8013 40.0932 33.4988 40.5569 34.2662 40.8722C35.0335 41.1875 35.8555 41.3481 36.6851 41.3449C44.1227 40.0006 51.7575 40.2045 59.1127 41.944V2.46806C49.8278 -1.20997 37.6436 -0.419253 30.3594 2.46806ZM41.5972 13.4302C41.0024 13.4302 40.421 13.2539 39.9265 12.9235C39.432 12.5931 39.0465 12.1234 38.8189 11.5739C38.5913 11.0244 38.5318 10.4198 38.6478 9.83643C38.7639 9.25311 39.0502 8.7173 39.4708 8.29674C39.8913 7.87619 40.4272 7.58984 41.0105 7.47381C41.5938 7.35778 42.1985 7.41732 42.7479 7.64492C43.2974 7.87252 43.767 8.25793 44.0975 8.75245C44.4279 9.24697 44.6043 9.82835 44.6043 10.4231C44.6011 11.2197 44.2833 11.9828 43.72 12.546C43.1568 13.1093 42.3937 13.4271 41.5972 13.4302V13.4302Z" fill="#00ABC5"/>
<path fill-rule="evenodd" clip-rule="evenodd" d="M14.5082 19.4565C14.4838 19.093 14.5343 18.7283 14.6566 18.3852C14.7789 18.042 14.9704 17.7276 15.2192 17.4615C15.468 17.1954 15.7688 16.9833 16.103 16.8382C16.4372 16.6932 16.7976 16.6183 17.1619 16.6183C17.5262 16.6183 17.8866 16.6932 18.2208 16.8382C18.555 16.9833 18.8558 17.1954 19.1046 17.4615C19.3534 17.7276 19.5449 18.042 19.6672 18.3852C19.7895 18.7283 19.84 19.093 19.8156 19.4565C19.8195 21.9002 20.7419 24.253 22.3997 26.0484C24.0574 27.8437 26.3295 28.9504 28.7651 29.1487V2.46806C21.4689 -0.419253 9.28468 -1.20997 0.0117188 2.46806V41.9201C7.37096 40.1806 15.0098 39.9767 22.4513 41.321C23.2805 41.3226 24.1018 41.1608 24.8684 40.845C25.635 40.5292 26.3319 40.0654 26.9193 39.4802C27.5067 38.895 27.9731 38.1999 28.2919 37.4345C28.6106 36.6691 28.7755 35.8484 28.7771 35.0192V34.4801C24.9268 34.2806 21.3 32.6108 18.645 29.8153C15.9899 27.0198 14.5092 23.3119 14.5082 19.4565V19.4565ZM17.5153 7.41597C18.1101 7.41597 18.6915 7.59236 19.186 7.92279C19.6805 8.25321 20.0659 8.72288 20.2935 9.27236C20.5211 9.82184 20.5807 10.4264 20.4647 11.0098C20.3486 11.5931 20.0622 12.1289 19.6417 12.5495C19.2211 12.97 18.6853 13.2564 18.102 13.3725C17.5187 13.4885 16.914 13.429 16.3646 13.2014C15.8151 12.9738 15.3454 12.5883 15.015 12.0938C14.6846 11.5992 14.5082 11.0179 14.5082 10.4231C14.5082 9.62556 14.825 8.86069 15.389 8.29674C15.9529 7.7328 16.7178 7.41597 17.5153 7.41597Z" fill="#89B829"/>
</g>
<defs>
<clipPath id="clip0_201_791">
<rect width="150.38" height="41.92" fill="white"/>
</clipPath>
</defs>
</svg>
