<svg width="34" height="34" viewBox="0 0 34 34" fill="none" xmlns="http://www.w3.org/2000/svg">
<path d="M17 33C25.8366 33 33 25.8366 33 17C33 8.16344 25.8366 1 17 1C8.16344 1 1 8.16344 1 17C1 25.8366 8.16344 33 17 33Z" fill="white" stroke="#E9E9E9" stroke-linecap="round" stroke-linejoin="round"/>
<path d="M17.0013 20.6491C19.9468 20.6491 22.3346 18.2613 22.3346 15.3158C22.3346 12.3702 19.9468 9.98242 17.0013 9.98242C14.0558 9.98242 11.668 12.3702 11.668 15.3158C11.668 18.2613 14.0558 20.6491 17.0013 20.6491Z" fill="#E9E9E9"/>
<path fill-rule="evenodd" clip-rule="evenodd" d="M26.3259 30.0042C23.7007 31.8897 20.4813 32.9999 17.0025 32.9999C13.5669 32.9999 10.3842 31.9171 7.77712 30.0741L7.73828 29.9122C10.0142 27.5003 13.321 25.9824 17.0014 25.9824C20.6818 25.9824 23.9887 27.5003 26.2646 29.9122L26.3259 30.0042Z" fill="#E9E9E9"/>
</svg>
