<svg width="30" height="31" viewBox="0 0 30 31" fill="none" xmlns="http://www.w3.org/2000/svg">
<path fill-rule="evenodd" clip-rule="evenodd" d="M9.33125 1.87223C10.7975 1.80473 11.265 1.78973 15 1.78973C18.735 1.78973 19.2025 1.80598 20.6675 1.87223C22.1325 1.93848 23.1325 2.17223 24.0075 2.51098C24.9237 2.85723 25.755 3.39848 26.4425 4.09848C27.1425 4.78473 27.6825 5.61473 28.0275 6.53223C28.3675 7.40723 28.6 8.40723 28.6675 9.86973C28.735 11.3385 28.75 11.806 28.75 15.5397C28.75 19.2747 28.7338 19.7422 28.6675 21.2085C28.6013 22.671 28.3675 23.671 28.0275 24.546C27.6825 25.4636 27.1416 26.295 26.4425 26.9822C25.755 27.6822 24.9237 28.2222 24.0075 28.5672C23.1325 28.9072 22.1325 29.1397 20.67 29.2072C19.2025 29.2747 18.735 29.2897 15 29.2897C11.265 29.2897 10.7975 29.2735 9.33125 29.2072C7.86875 29.141 6.86875 28.9072 5.99375 28.5672C5.07615 28.2222 4.24478 27.6813 3.5575 26.9822C2.85797 26.2956 2.31664 25.4646 1.97125 24.5472C1.6325 23.6722 1.4 22.6722 1.3325 21.2097C1.265 19.741 1.25 19.2735 1.25 15.5397C1.25 11.8047 1.26625 11.3372 1.3325 9.87223C1.39875 8.40723 1.6325 7.40723 1.97125 6.53223C2.31715 5.61484 2.8589 4.78388 3.55875 4.09723C4.24505 3.39786 5.07559 2.85654 5.9925 2.51098C6.8675 2.17223 7.8675 1.93973 9.33 1.87223H9.33125ZM20.5562 4.34723C19.1062 4.28098 18.6713 4.26723 15 4.26723C11.3287 4.26723 10.8937 4.28098 9.44375 4.34723C8.1025 4.40848 7.375 4.63223 6.89 4.82098C6.24875 5.07098 5.79 5.36723 5.30875 5.84848C4.85256 6.2923 4.50148 6.83259 4.28125 7.42973C4.0925 7.91473 3.86875 8.64223 3.8075 9.98348C3.74125 11.4335 3.7275 11.8685 3.7275 15.5397C3.7275 19.211 3.74125 19.646 3.8075 21.096C3.86875 22.4372 4.0925 23.1647 4.28125 23.6497C4.50125 24.246 4.8525 24.7872 5.30875 25.231C5.7525 25.6872 6.29375 26.0385 6.89 26.2585C7.375 26.4472 8.1025 26.671 9.44375 26.7322C10.8937 26.7985 11.3275 26.8122 15 26.8122C18.6725 26.8122 19.1062 26.7985 20.5562 26.7322C21.8975 26.671 22.625 26.4472 23.11 26.2585C23.7513 26.0085 24.21 25.7122 24.6913 25.231C25.1475 24.7872 25.4988 24.246 25.7188 23.6497C25.9075 23.1647 26.1313 22.4372 26.1925 21.096C26.2588 19.646 26.2725 19.211 26.2725 15.5397C26.2725 11.8685 26.2588 11.4335 26.1925 9.98348C26.1313 8.64223 25.9075 7.91473 25.7188 7.42973C25.4688 6.78848 25.1725 6.32973 24.6913 5.84848C24.2474 5.39232 23.7071 5.04125 23.11 4.82098C22.625 4.63223 21.8975 4.40848 20.5562 4.34723V4.34723ZM13.2438 19.7785C14.2246 20.1868 15.3167 20.2419 16.3337 19.9344C17.3506 19.6269 18.2292 18.9759 18.8195 18.0925C19.4098 17.2092 19.6751 16.1483 19.5701 15.0911C19.465 14.0339 18.9963 13.0459 18.2438 12.296C17.764 11.8166 17.184 11.4495 16.5454 11.2212C15.9068 10.9928 15.2255 10.9089 14.5506 10.9755C13.8757 11.0421 13.2239 11.2575 12.6423 11.6061C12.0606 11.9548 11.5634 12.4282 11.1866 12.992C10.8098 13.5559 10.5627 14.1963 10.4631 14.8672C10.3636 15.538 10.4139 16.2226 10.6107 16.8716C10.8074 17.5207 11.1456 18.118 11.6009 18.6206C12.0562 19.1233 12.6173 19.5187 13.2438 19.7785ZM10.0025 10.5422C10.6588 9.88595 11.4379 9.36536 12.2954 9.01019C13.1528 8.65501 14.0719 8.4722 15 8.4722C15.9281 8.4722 16.8472 8.65501 17.7046 9.01019C18.5621 9.36536 19.3412 9.88595 19.9975 10.5422C20.6538 11.1985 21.1744 11.9776 21.5295 12.8351C21.8847 13.6926 22.0675 14.6116 22.0675 15.5397C22.0675 16.4679 21.8847 17.3869 21.5295 18.2444C21.1744 19.1018 20.6538 19.881 19.9975 20.5372C18.6721 21.8627 16.8744 22.6073 15 22.6073C13.1256 22.6073 11.3279 21.8627 10.0025 20.5372C8.67708 19.2118 7.93247 17.4142 7.93247 15.5397C7.93247 13.6653 8.67708 11.8677 10.0025 10.5422V10.5422ZM23.635 9.52473C23.7976 9.37132 23.9278 9.18684 24.0179 8.9822C24.1079 8.77757 24.156 8.55694 24.1593 8.3334C24.1625 8.10985 24.1209 7.88792 24.0369 7.68075C23.9528 7.47357 23.828 7.28537 23.67 7.12728C23.5119 6.96919 23.3237 6.84443 23.1165 6.76038C22.9093 6.67633 22.6874 6.6347 22.4638 6.63796C22.2403 6.64122 22.0197 6.6893 21.815 6.77935C21.6104 6.86941 21.4259 6.9996 21.2725 7.16223C20.9741 7.47852 20.8108 7.89864 20.8171 8.3334C20.8235 8.76816 20.999 9.18333 21.3064 9.49079C21.6139 9.79824 22.0291 9.97377 22.4638 9.98011C22.8986 9.98645 23.3187 9.8231 23.635 9.52473V9.52473Z" fill="white" fill-opacity="0.6"/>
</svg>
