<svg width="20" height="20" viewBox="0 0 20 20" fill="none" xmlns="http://www.w3.org/2000/svg">
<path d="M10 5.17969C5.28375 5.17969 1.5625 10.0009 1.5625 10.0009C1.5625 10.0009 5.28375 14.8228 10 14.8228C13.6062 14.8228 18.4375 10.0009 18.4375 10.0009C18.4375 10.0009 13.6062 5.17969 10 5.17969ZM10 13.0047C8.34375 13.0047 6.99563 11.6572 6.99563 10.0009C6.99563 8.34469 8.34375 6.99656 10 6.99656C11.6562 6.99656 13.0044 8.34469 13.0044 10.0009C13.0044 11.6572 11.6562 13.0053 10 13.0053V13.0047ZM10 8.24719C9.76695 8.24279 9.53536 8.28489 9.31877 8.37103C9.10218 8.45717 8.90494 8.58563 8.73857 8.74889C8.5722 8.91214 8.44004 9.10693 8.34983 9.32185C8.25961 9.53678 8.21314 9.76753 8.21314 10.0006C8.21314 10.2337 8.25961 10.4645 8.34983 10.6794C8.44004 10.8943 8.5722 11.0891 8.73857 11.2524C8.90494 11.4156 9.10218 11.5441 9.31877 11.6302C9.53536 11.7164 9.76695 11.7585 10 11.7541C10.4593 11.7454 10.8969 11.5568 11.2186 11.229C11.5404 10.9011 11.7206 10.46 11.7206 10.0006C11.7206 9.54124 11.5404 9.10019 11.2186 8.7723C10.8969 8.44441 10.4593 8.25586 10 8.24719Z" fill="#B5B5B5"/>
</svg>
