<svg width="15" height="15" viewBox="0 0 15 15" fill="none" xmlns="http://www.w3.org/2000/svg">
<path d="M8.75 11.875C11.1069 11.875 12.2856 11.875 13.0175 11.1425C13.75 10.4106 13.75 9.23187 13.75 6.875C13.75 4.51813 13.75 3.33937 13.0175 2.6075C12.2856 1.875 11.1069 1.875 8.75 1.875H6.25C3.89313 1.875 2.71437 1.875 1.9825 2.6075C1.25 3.33937 1.25 4.51813 1.25 6.875C1.25 9.23187 1.25 10.4106 1.9825 11.1425C2.39062 11.5512 2.9375 11.7319 3.75 11.8113" stroke="black" stroke-linecap="round" stroke-linejoin="round"/>
<path d="M8.7493 11.875C7.9768 11.875 7.12555 12.1875 6.34867 12.5906C5.09992 13.2387 4.47555 13.5631 4.16805 13.3563C3.86055 13.15 3.91867 12.5094 4.03555 11.2287L4.0618 10.9375" stroke="black" stroke-linecap="round"/>
</svg>
