<svg width="11" height="17" viewBox="0 0 11 17" fill="none" xmlns="http://www.w3.org/2000/svg">
<path d="M9.71482 0.942746C9.93744 1.16544 10.0625 1.46743 10.0625 1.78231C10.0625 2.09719 9.93744 2.39918 9.71482 2.62187L3.83669 8.5L9.71482 14.3781C9.93113 14.6021 10.0508 14.9021 10.0481 15.2134C10.0454 15.5248 9.92052 15.8226 9.70035 16.0428C9.48018 16.263 9.18234 16.3878 8.87098 16.3905C8.55962 16.3933 8.25966 16.2736 8.03569 16.0572L1.318 9.33956C1.09538 9.11687 0.970319 8.81488 0.970319 8.5C0.970319 8.18511 1.09538 7.88312 1.318 7.66043L8.03569 0.942746C8.25838 0.720124 8.56037 0.595062 8.87525 0.595062C9.19014 0.595062 9.49213 0.720124 9.71482 0.942746Z" fill="black"/>
</svg>
