<svg width="10" height="10" viewBox="0 0 10 10" fill="none" xmlns="http://www.w3.org/2000/svg">
<g clip-path="url(#clip0_14_1423)">
<path d="M8.97753 3.30811C8.86033 3.19094 8.70138 3.12512 8.53566 3.12512C8.36993 3.12512 8.21099 3.19094 8.09378 3.30811L5.00003 6.40186L1.90628 3.30811C1.7884 3.19426 1.63053 3.13127 1.46665 3.13269C1.30278 3.13412 1.14602 3.19985 1.03014 3.31573C0.914264 3.43161 0.848534 3.58836 0.84711 3.75224C0.845686 3.91611 0.908682 4.07399 1.02253 4.19186L4.55816 7.72749C4.67536 7.84466 4.8343 7.91048 5.00003 7.91048C5.16576 7.91048 5.3247 7.84466 5.44191 7.72749L8.97753 4.19186C9.0947 4.07466 9.16052 3.91572 9.16052 3.74999C9.16052 3.58426 9.0947 3.42532 8.97753 3.30811Z" fill="#666666"/>
</g>
<defs>
<clipPath id="clip0_14_1423">
<rect width="10" height="10" fill="white" transform="translate(10) rotate(90)"/>
</clipPath>
</defs>
</svg>
