<svg width="44" height="44" viewBox="0 0 44 44" fill="none" xmlns="http://www.w3.org/2000/svg">
<path d="M6.59961 13.1996C6.59961 11.4492 7.29496 9.77044 8.5327 8.5327C9.77044 7.29496 11.4492 6.59961 13.1996 6.59961H30.7996C32.55 6.59961 34.2288 7.29496 35.4665 8.5327C36.7043 9.77044 37.3996 11.4492 37.3996 13.1996V30.7996C37.3996 32.55 36.7043 34.2288 35.4665 35.4665C34.2288 36.7043 32.55 37.3996 30.7996 37.3996H13.1996C11.4492 37.3996 9.77044 36.7043 8.5327 35.4665C7.29496 34.2288 6.59961 32.55 6.59961 30.7996V13.1996ZM13.1996 8.79961C12.0327 8.79961 10.9135 9.26318 10.0883 10.0883C9.26318 10.9135 8.79961 12.0327 8.79961 13.1996V20.8996H20.8996V8.79961H13.1996ZM23.0996 8.79961V20.8996H35.1996V13.1996C35.1996 12.0327 34.736 10.9135 33.9109 10.0883C33.0857 9.26318 31.9666 8.79961 30.7996 8.79961H23.0996ZM35.1996 23.0996H23.0996V35.1996H30.7996C31.9666 35.1996 33.0857 34.736 33.9109 33.9109C34.736 33.0857 35.1996 31.9666 35.1996 30.7996V23.0996ZM20.8996 35.1996V23.0996H8.79961V30.7996C8.79961 31.9666 9.26318 33.0857 10.0883 33.9109C10.9135 34.736 12.0327 35.1996 13.1996 35.1996H20.8996Z" fill="white"/>
</svg>
