<svg width="15" height="15" viewBox="0 0 15 15" fill="none" xmlns="http://www.w3.org/2000/svg">
<path d="M13.7597 6.3412L7.94174 0.98863C7.7526 0.814622 7.50353 0.720451 7.24658 0.725802C6.98963 0.731153 6.7447 0.83561 6.56297 1.01734L1.2121 6.36824L0.9375 6.64281V14.5311H6.09375V9.60927H8.90625V14.5311H14.0625V6.61975L13.7597 6.3412ZM7.26674 1.6631C7.275 1.6631 7.2699 1.66489 7.26636 1.66838C7.2627 1.66489 7.25848 1.6631 7.26674 1.6631ZM13.125 13.5936H9.84375V9.60927C9.84375 9.36063 9.74498 9.12217 9.56916 8.94635C9.39335 8.77054 9.15489 8.67177 8.90625 8.67177H6.09375C5.84511 8.67177 5.60665 8.77054 5.43084 8.94635C5.25502 9.12217 5.15625 9.36063 5.15625 9.60927V13.5936H1.875V7.03114L7.26674 1.68024L7.26744 1.67922L13.125 7.03114V13.5936Z" fill="#0EBCF6"/>
<path d="M13.125 13.5936H9.84375V9.60927C9.84375 9.36063 9.74498 9.12217 9.56916 8.94635C9.39335 8.77054 9.15489 8.67177 8.90625 8.67177H6.09375C5.84511 8.67177 5.60665 8.77054 5.43084 8.94635C5.25502 9.12217 5.15625 9.36063 5.15625 9.60927V13.5936H1.875V7.03114L7.26674 1.68024L7.26744 1.67922L13.125 7.03114V13.5936Z" fill="#0EBCF6"/>
</svg>
