<svg width="27" height="27" viewBox="0 0 27 27" fill="none" xmlns="http://www.w3.org/2000/svg">
<path fill-rule="evenodd" clip-rule="evenodd" d="M1.6875 13.5001C1.6875 13.2763 1.77639 13.0617 1.93463 12.9035C2.09286 12.7452 2.30747 12.6563 2.53125 12.6563H22.4319L17.1214 7.34746C16.9629 7.18903 16.8739 6.97415 16.8739 6.75009C16.8739 6.52603 16.9629 6.31115 17.1214 6.15271C17.2798 5.99428 17.4947 5.90527 17.7188 5.90527C17.9428 5.90527 18.1577 5.99428 18.3161 6.15271L25.0661 12.9027C25.1447 12.9811 25.207 13.0742 25.2496 13.1767C25.2921 13.2792 25.314 13.3891 25.314 13.5001C25.314 13.6111 25.2921 13.721 25.2496 13.8235C25.207 13.926 25.1447 14.0191 25.0661 14.0975L18.3161 20.8475C18.1577 21.0059 17.9428 21.0949 17.7188 21.0949C17.4947 21.0949 17.2798 21.0059 17.1214 20.8475C16.9629 20.689 16.8739 20.4741 16.8739 20.2501C16.8739 20.026 16.9629 19.8111 17.1214 19.6527L22.4319 14.3438H2.53125C2.30747 14.3438 2.09286 14.2549 1.93463 14.0967C1.77639 13.9385 1.6875 13.7239 1.6875 13.5001V13.5001Z" fill="white"/>
</svg>
