<svg width="21" height="22" viewBox="0 0 21 22" fill="none" xmlns="http://www.w3.org/2000/svg">
<path d="M19.9438 0.84375H1.25635C0.806934 0.84375 0.443848 1.20684 0.443848 1.65625V20.3438C0.443848 20.7932 0.806934 21.1562 1.25635 21.1562H19.9438C20.3933 21.1562 20.7563 20.7932 20.7563 20.3438V1.65625C20.7563 1.20684 20.3933 0.84375 19.9438 0.84375ZM15.2593 7.28535L9.91201 14.6994C9.83727 14.8037 9.73875 14.8887 9.62461 14.9474C9.51046 15.006 9.38399 15.0366 9.25566 15.0366C9.12734 15.0366 9.00086 15.006 8.88672 14.9474C8.77258 14.8887 8.67405 14.8037 8.59932 14.6994L5.43311 10.3119C5.33662 10.1773 5.43311 9.98945 5.59814 9.98945H6.78896C7.04795 9.98945 7.29424 10.1139 7.44658 10.3271L9.25439 12.8357L13.2458 7.30059C13.3981 7.08984 13.6419 6.96289 13.9034 6.96289H15.0942C15.2593 6.96289 15.3558 7.15078 15.2593 7.28535Z" fill="#0B1F7D"/>
</svg>
