<svg width="28" height="28" viewBox="0 0 28 28" fill="none" xmlns="http://www.w3.org/2000/svg">
<path d="M12.7016 3.92779C14.3863 3.92625 16.0337 4.42443 17.4353 5.35932C18.8369 6.29421 19.9297 7.62379 20.5755 9.17987C21.2213 10.736 21.3911 12.4486 21.0633 14.1012C20.7356 15.7538 19.9251 17.272 18.7343 18.4639C17.5435 19.6557 16.026 20.4677 14.3737 20.7969C12.7214 21.1262 11.0086 20.9579 9.45196 20.3136C7.89529 19.6692 6.56471 18.5776 5.62854 17.1769C4.69237 15.7761 4.19268 14.1292 4.19268 12.4445C4.20289 10.1902 5.1024 8.03104 6.69569 6.43629C8.28899 4.84154 10.4473 3.94006 12.7016 3.92779ZM12.7016 2.33334C10.7018 2.33334 8.7469 2.92635 7.08414 4.03737C5.42137 5.1484 4.12541 6.72754 3.36012 8.5751C2.59484 10.4227 2.3946 12.4557 2.78474 14.417C3.17488 16.3784 4.13787 18.18 5.55193 19.5941C6.966 21.0082 8.76763 21.9711 10.729 22.3613C12.6904 22.7514 14.7234 22.5512 16.5709 21.7859C18.4185 21.0206 19.9976 19.7246 21.1087 18.0619C22.2197 16.3991 22.8127 14.4442 22.8127 12.4445C22.8127 9.76282 21.7474 7.19102 19.8512 5.29482C17.955 3.39862 15.3832 2.33334 12.7016 2.33334Z" fill="black"/>
<path d="M27.2227 25.8922L21.4904 20.1211L20.386 21.2178L26.1182 26.9889C26.1902 27.0614 26.2758 27.119 26.3701 27.1585C26.4644 27.1979 26.5655 27.2184 26.6677 27.2188C26.7699 27.2191 26.8711 27.1994 26.9657 27.1606C27.0603 27.1218 27.1462 27.0648 27.2188 26.9928C27.2913 26.9208 27.3489 26.8352 27.3883 26.7409C27.4278 26.6466 27.4483 26.5455 27.4486 26.4433C27.449 26.3411 27.4292 26.2399 27.3905 26.1453C27.3517 26.0507 27.2947 25.9648 27.2227 25.8922Z" fill="black"/>
</svg>
