<svg width="16" height="16" viewBox="0 0 16 16" fill="none" xmlns="http://www.w3.org/2000/svg">
<path d="M14.6771 6.76342L8.47119 1.05402C8.26944 0.868409 8.00377 0.767961 7.72969 0.773668C7.45561 0.779375 7.19434 0.890797 7.0005 1.08464L1.29291 6.79227L1 7.08514V15.4994H6.5V10.2494H9.5V15.4994H15V7.06055L14.6771 6.76342ZM7.75119 1.77346C7.76 1.77346 7.75456 1.77536 7.75078 1.77908C7.74687 1.77536 7.74237 1.77346 7.75119 1.77346ZM14 14.4994H10.5V10.2494C10.5 9.98415 10.3946 9.72979 10.2071 9.54226C10.0196 9.35472 9.76522 9.24936 9.5 9.24936H6.5C6.23478 9.24936 5.98043 9.35472 5.79289 9.54226C5.60536 9.72979 5.5 9.98415 5.5 10.2494V14.4994H2V7.49936L7.75119 1.79174C7.75159 1.79136 7.75163 1.79102 7.75194 1.79064L14 7.49936V14.4994Z" fill="white"/>
</svg>
