<svg width="16" height="16" viewBox="0 0 16 16" fill="none" xmlns="http://www.w3.org/2000/svg">
<path d="M14.6771 6.76407L8.47119 1.05466C8.26944 0.86905 8.00377 0.768602 7.72969 0.774309C7.45561 0.780016 7.19434 0.891438 7.0005 1.08528L1.29291 6.79291L1 7.08578V15.5H6.5V10.25H9.5V15.5H15V7.06119L14.6771 6.76407ZM7.75119 1.7741C7.76 1.7741 7.75456 1.776 7.75078 1.77972C7.74687 1.776 7.74237 1.7741 7.75119 1.7741ZM14 14.5H10.5V10.25C10.5 9.98479 10.3946 9.73043 10.2071 9.5429C10.0196 9.35536 9.76522 9.25 9.5 9.25H6.5C6.23478 9.25 5.98043 9.35536 5.79289 9.5429C5.60536 9.73043 5.5 9.98479 5.5 10.25V14.5H2V7.5L7.75119 1.79238C7.75159 1.792 7.75163 1.79166 7.75194 1.79128L14 7.5V14.5Z" fill="#A0A0A0"/>
</svg>
