<svg width="100" height="100" viewBox="0 0 100 100" fill="none" xmlns="http://www.w3.org/2000/svg">
<path d="M68.2617 34.4727H63.6817C62.6856 34.4727 61.7383 34.9512 61.1524 35.7715L45.8008 57.0605L38.8477 47.4121C38.2617 46.6016 37.3242 46.1133 36.3184 46.1133H31.7383C31.1035 46.1133 30.7324 46.8359 31.1035 47.3535L43.2715 64.2285C43.559 64.6297 43.9379 64.9566 44.3769 65.1822C44.8159 65.4077 45.3024 65.5253 45.7959 65.5253C46.2895 65.5253 46.7759 65.4077 47.2149 65.1822C47.6539 64.9566 48.0329 64.6297 48.3203 64.2285L68.8867 35.7129C69.2676 35.1953 68.8965 34.4727 68.2617 34.4727Z" fill="#0EBCF6"/>
<path d="M50 6.25C25.8398 6.25 6.25 25.8398 6.25 50C6.25 74.1602 25.8398 93.75 50 93.75C74.1602 93.75 93.75 74.1602 93.75 50C93.75 25.8398 74.1602 6.25 50 6.25ZM50 86.3281C29.9414 86.3281 13.6719 70.0586 13.6719 50C13.6719 29.9414 29.9414 13.6719 50 13.6719C70.0586 13.6719 86.3281 29.9414 86.3281 50C86.3281 70.0586 70.0586 86.3281 50 86.3281Z" fill="#0EBCF6"/>
</svg>
