<svg width="35" height="35" viewBox="0 0 35 35" fill="none" xmlns="http://www.w3.org/2000/svg">
<path d="M20.6094 27.9994C26.1088 27.9994 28.8592 27.9994 30.5669 26.2902C32.2761 24.5825 32.2761 21.8321 32.2761 16.3327C32.2761 10.8333 32.2761 8.08289 30.5669 6.37518C28.8592 4.66602 26.1088 4.66602 20.6094 4.66602H14.776C9.27667 4.66602 6.52625 4.66602 4.81854 6.37518C3.10937 8.08289 3.10938 10.8333 3.10938 16.3327C3.10938 21.8321 3.10937 24.5825 4.81854 26.2902C5.77083 27.2439 7.04688 27.6654 8.94271 27.8506" stroke="#DBDBDB" stroke-width="1.5" stroke-linecap="round" stroke-linejoin="round"/>
<path d="M20.609 28C18.8065 28 16.8203 28.7292 15.0076 29.6698C12.0938 31.1821 10.637 31.939 9.91945 31.4562C9.20195 30.975 9.33758 29.4802 9.61028 26.4921L9.67153 25.8125" stroke="#DBDBDB" stroke-width="1.5" stroke-linecap="round"/>
</svg>
