<svg width="30" height="30" viewBox="0 0 30 30" fill="none" xmlns="http://www.w3.org/2000/svg">
<path d="M28.0164 14.6083C25.2081 9.41666 20.2831 6.27499 14.8331 6.27499C9.38311 6.27499 4.44977 9.41666 1.66644 14.6083L1.43311 15L1.64977 15.4C4.45811 20.5917 9.38311 23.7333 14.8331 23.7333C20.2831 23.7333 25.2164 20.6333 28.0164 15.4L28.2331 15L28.0164 14.6083ZM14.8331 22.025C10.1414 22.025 5.83311 19.4083 3.33311 15C5.83311 10.5917 10.1414 7.97499 14.8331 7.97499C19.5248 7.97499 23.7831 10.6 26.3248 15C23.7831 19.4083 19.5164 22.025 14.8331 22.025Z" fill="#DDDDDD"/>
<path d="M15.0749 9.30833C13.9449 9.31658 12.8428 9.65948 11.9077 10.2937C10.9726 10.928 10.2464 11.8251 9.82082 12.8719C9.39527 13.9186 9.28947 15.068 9.51676 16.1748C9.74406 17.2816 10.2943 18.2963 11.0979 19.0906C11.9015 19.8849 12.9225 20.4233 14.0319 20.6377C15.1413 20.8521 16.2894 20.7329 17.3311 20.2952C18.3728 19.8575 19.2614 19.1209 19.8847 18.1784C20.508 17.236 20.8381 16.1299 20.8332 15C20.8299 14.2479 20.6783 13.5038 20.3869 12.8103C20.0955 12.1169 19.6702 11.4878 19.1353 10.9591C18.6003 10.4303 17.9663 10.0124 17.2695 9.7291C16.5728 9.44583 15.827 9.30284 15.0749 9.30833ZM15.0749 19.075C14.2767 19.0668 13.4988 18.8229 12.8389 18.374C12.1789 17.9251 11.6663 17.2912 11.3654 16.552C11.0645 15.8127 10.9888 15.001 11.1477 14.2188C11.3066 13.4366 11.6931 12.7188 12.2587 12.1556C12.8242 11.5924 13.5436 11.2088 14.3264 11.0531C15.1092 10.8973 15.9206 10.9764 16.6586 11.2803C17.3967 11.5842 18.0285 12.0994 18.4747 12.7612C18.9209 13.423 19.1615 14.2019 19.1665 15C19.1687 15.5372 19.0643 16.0694 18.8593 16.5659C18.6542 17.0624 18.3526 17.5133 17.972 17.8923C17.5914 18.2714 17.1393 18.5711 16.642 18.7741C16.1447 18.9772 15.612 19.0794 15.0749 19.075Z" fill="#DDDDDD"/>
</svg>
