<svg width="27" height="27" viewBox="0 0 27 27" fill="none" xmlns="http://www.w3.org/2000/svg">
<path d="M10.8709 19.125H16.128H10.8709ZM13.5 3.375V4.5V3.375ZM20.6595 6.3405L19.8641 7.13587L20.6595 6.3405ZM23.625 13.5H22.5H23.625ZM4.5 13.5H3.375H4.5ZM7.13587 7.13587L6.3405 6.3405L7.13587 7.13587ZM9.522 17.478C8.73548 16.6913 8.1999 15.689 7.98297 14.5979C7.76605 13.5068 7.87753 12.3759 8.30332 11.3481C8.72911 10.3204 9.45008 9.44195 10.3751 8.82393C11.3001 8.20591 12.3875 7.87605 13.5 7.87605C14.6125 7.87605 15.6999 8.20591 16.6249 8.82393C17.5499 9.44195 18.2709 10.3204 18.6967 11.3481C19.1225 12.3759 19.2339 13.5068 19.017 14.5979C18.8001 15.689 18.2645 16.6913 17.478 17.478L16.8615 18.0934C16.509 18.4459 16.2295 18.8644 16.0388 19.3249C15.8481 19.7855 15.7499 20.2791 15.75 20.7776V21.375C15.75 21.9717 15.5129 22.544 15.091 22.966C14.669 23.3879 14.0967 23.625 13.5 23.625C12.9033 23.625 12.331 23.3879 11.909 22.966C11.4871 22.544 11.25 21.9717 11.25 21.375V20.7776C11.25 19.7707 10.8495 18.8044 10.1385 18.0934L9.522 17.478Z" stroke="white" stroke-linecap="round" stroke-linejoin="round"/>
</svg>
