<svg width="10" height="10" viewBox="0 0 10 10" fill="none" xmlns="http://www.w3.org/2000/svg">
<g clip-path="url(#clip0_14_1704)">
<path d="M6.69176 8.97741C6.80893 8.8602 6.87476 8.70126 6.87476 8.53553C6.87476 8.36981 6.80893 8.21086 6.69176 8.09366L3.59801 4.99991L6.69176 1.90616C6.80561 1.78828 6.86861 1.63041 6.86719 1.46653C6.86576 1.30266 6.80003 1.1459 6.68415 1.03002C6.56827 0.914142 6.41151 0.848412 6.24764 0.846988C6.08377 0.845564 5.92589 0.90856 5.80802 1.02241L2.27239 4.55803C2.15522 4.67524 2.0894 4.83418 2.0894 4.99991C2.0894 5.16564 2.15522 5.32458 2.27239 5.44178L5.80801 8.97741C5.92522 9.09458 6.08416 9.1604 6.24989 9.1604C6.41562 9.1604 6.57456 9.09458 6.69176 8.97741V8.97741Z" fill="#121212"/>
</g>
<defs>
<clipPath id="clip0_14_1704">
<rect width="10" height="10" fill="white" transform="translate(10 10) rotate(-180)"/>
</clipPath>
</defs>
</svg>
