<svg width="28" height="31" viewBox="0 0 28 31" fill="none" xmlns="http://www.w3.org/2000/svg">
<g clip-path="url(#clip0_1904_409)">
<path d="M14 1.10352C6.63654 1.10352 0.665894 6.69719 0.665894 13.5977C0.665894 18.6941 2.77408 21.1266 5.65856 23.3472L5.67378 23.3549V29.334C5.67378 29.6155 5.99343 29.7774 6.21414 29.6078L11.2715 25.8028L11.3819 25.8491C12.2305 26.0071 13.1057 26.092 14.0038 26.092C21.3672 26.092 27.3378 20.4983 27.3378 13.5977C27.3378 6.69719 21.3672 1.10352 14 1.10352Z" fill="#FFF3A3"/>
<path d="M14 0.390625C6.26746 0.390625 0 6.26572 0 13.5094C0 18.8602 2.21093 21.4161 5.24382 23.7445L5.25904 23.7522V30.0321C5.25904 30.3289 5.59391 30.4986 5.82604 30.3212L11.1345 26.3274L11.2487 26.3775C12.1392 26.5433 13.0601 26.632 14 26.632C21.7325 26.632 28 20.7569 28 13.5132C28 6.26958 21.7325 0.390625 14 0.390625ZM9.30796 16.8324C10.6817 16.8324 11.8538 15.9997 12.2077 14.716H14.2359C13.7412 17.1909 11.8385 18.8101 9.30796 18.8101C6.3664 18.8101 4.0337 16.5857 4.0337 13.4939C4.0337 10.4022 6.3664 8.17783 9.30796 8.17783C11.8652 8.17783 13.7793 9.83164 14.2512 12.349H12.2267C11.9185 10.9804 10.7045 10.1285 9.30796 10.1285C7.32916 10.1285 6.0125 11.5587 6.0125 13.4939C6.0125 15.4292 7.50802 16.8324 9.30796 16.8324ZM22.6839 18.6057H20.823V14.3536C20.823 13.3744 20.2599 12.8501 19.396 12.8501C18.4295 12.8501 17.8092 13.4477 17.8092 14.662V18.6057H15.9484V8.20867H17.8092V12.1215C18.2544 11.4353 18.9774 11.1 19.9592 11.1C20.7507 11.1 21.4015 11.3621 21.9076 11.9018C22.4289 12.4415 22.6877 13.174 22.6877 14.1223V18.6057H22.6839Z" fill="#231815"/>
</g>
<defs>
<clipPath id="clip0_1904_409">
<rect width="28" height="30" fill="white" transform="translate(0 0.390625)"/>
</clipPath>
</defs>
</svg>
