<svg width="27" height="25" viewBox="0 0 27 25" fill="none" xmlns="http://www.w3.org/2000/svg">
<path d="M13.5 0C20.9559 0 27 4.74638 27 10.6029C27 16.4582 20.9559 21.2046 13.5 21.2046C12.7576 21.205 12.0159 21.1574 11.2796 21.0621L5.61214 24.7967C4.968 25.14 4.74043 25.1025 5.00529 24.2617L6.15214 19.4972C2.44929 17.6059 0 14.3285 0 10.6029C0 4.74768 6.04414 0 13.5 0ZM21.0947 10.441L22.9847 8.59634C23.0938 8.48223 23.1546 8.32992 23.1544 8.1715C23.1542 8.01309 23.093 7.86093 22.9837 7.74708C22.8744 7.63323 22.7254 7.56658 22.5683 7.56117C22.4112 7.55575 22.2581 7.612 22.1413 7.71805L19.6624 10.1353V8.13777C19.6624 7.9756 19.5985 7.82008 19.4847 7.70542C19.3709 7.59075 19.2165 7.52633 19.0556 7.52633C18.8946 7.52633 18.7403 7.59075 18.6265 7.70542C18.5127 7.82008 18.4487 7.9756 18.4487 8.13777V11.4501C18.426 11.5446 18.426 11.6432 18.4487 11.7377V13.6018C18.4487 13.764 18.5127 13.9195 18.6265 14.0342C18.7403 14.1488 18.8946 14.2132 19.0556 14.2132C19.2165 14.2132 19.3709 14.1488 19.4847 14.0342C19.5985 13.9195 19.6624 13.764 19.6624 13.6018V11.8362L20.2114 11.3012L22.0474 13.9347C22.0933 14.0005 22.1515 14.0565 22.2188 14.0996C22.2862 14.1426 22.3612 14.1719 22.4398 14.1857C22.5184 14.1996 22.5989 14.1977 22.6767 14.1802C22.7545 14.1627 22.8282 14.1299 22.8934 14.0837C22.9587 14.0375 23.0143 13.9788 23.057 13.911C23.0998 13.8432 23.1288 13.7675 23.1426 13.6884C23.1563 13.6092 23.1544 13.5281 23.137 13.4497C23.1197 13.3713 23.0871 13.2971 23.0413 13.2313L21.0947 10.4397V10.441ZM17.2916 12.9334H15.4144V8.1572C15.4072 8.00007 15.3402 7.85178 15.2273 7.74315C15.1144 7.63452 14.9643 7.5739 14.8082 7.5739C14.6521 7.5739 14.502 7.63452 14.3891 7.74315C14.2762 7.85178 14.2092 8.00007 14.202 8.1572V13.5448C14.202 13.8816 14.472 14.1562 14.8076 14.1562H17.2916C17.4525 14.1562 17.6069 14.0918 17.7207 13.9772C17.8345 13.8625 17.8984 13.707 17.8984 13.5448C17.8984 13.3826 17.8345 13.2271 17.7207 13.1125C17.6069 12.9978 17.4525 12.9334 17.2916 12.9334ZM9.76114 11.5188L10.656 9.30752L11.4763 11.5188H9.76114ZM13.005 12.1509L13.0076 12.1302C13.0073 11.9762 12.9489 11.828 12.8443 11.7157L11.4994 8.08854C11.4431 7.91569 11.3357 7.76429 11.1916 7.65457C11.0476 7.54485 10.8737 7.48204 10.6933 7.47452C10.5115 7.47371 10.3339 7.52868 10.1839 7.63212C10.0339 7.73556 9.91873 7.88256 9.85371 8.05356L7.71814 13.3324C7.688 13.4067 7.67269 13.4863 7.67309 13.5666C7.67348 13.6469 7.68956 13.7263 7.72043 13.8004C7.75129 13.8744 7.79632 13.9416 7.85296 13.9981C7.90959 14.0546 7.97672 14.0993 8.0505 14.1297C8.12428 14.1601 8.20328 14.1755 8.28298 14.1751C8.36268 14.1747 8.44153 14.1585 8.51501 14.1274C8.5885 14.0963 8.65518 14.0509 8.71126 13.9939C8.76734 13.9368 8.81172 13.8692 8.84186 13.7948L9.26614 12.7417H11.9276L12.312 13.778C12.3381 13.8554 12.3794 13.9268 12.4335 13.9879C12.4875 14.049 12.5531 14.0986 12.6265 14.1336C12.6999 14.1687 12.7795 14.1886 12.8606 14.1921C12.9417 14.1956 13.0227 14.1826 13.0988 14.154C13.1749 14.1254 13.2445 14.0817 13.3035 14.0255C13.3625 13.9693 13.4097 13.9017 13.4423 13.8268C13.4749 13.7518 13.4923 13.6711 13.4934 13.5893C13.4944 13.5075 13.4792 13.4263 13.4486 13.3505L13.005 12.1509ZM8.73386 8.16367C8.73386 8.00174 8.6701 7.84641 8.55657 7.73178C8.44304 7.61715 8.28901 7.55258 8.12829 7.55224H3.95614C3.79519 7.55224 3.64084 7.61666 3.52703 7.73133C3.41322 7.84599 3.34929 8.00151 3.34929 8.16367C3.34929 8.32584 3.41322 8.48136 3.52703 8.59602C3.64084 8.71069 3.79519 8.77511 3.95614 8.77511H5.44757V13.6148C5.44757 13.7769 5.51151 13.9324 5.62532 14.0471C5.73912 14.1618 5.89348 14.2262 6.05443 14.2262C6.21538 14.2262 6.36973 14.1618 6.48354 14.0471C6.59735 13.9324 6.66129 13.7769 6.66129 13.6148V8.77511H8.127C8.28795 8.77511 8.44231 8.71069 8.55611 8.59602C8.66992 8.48136 8.73386 8.32584 8.73386 8.16367Z" fill="white"/>
<path d="M8.73386 8.16367C8.73386 8.00174 8.6701 7.84641 8.55657 7.73178C8.44304 7.61715 8.28901 7.55258 8.12829 7.55224H3.95614C3.79519 7.55224 3.64084 7.61666 3.52703 7.73133C3.41322 7.84599 3.34929 8.00151 3.34929 8.16367C3.34929 8.32584 3.41322 8.48136 3.52703 8.59602C3.64084 8.71069 3.79519 8.77511 3.95614 8.77511H5.44757V13.6148C5.44757 13.7769 5.51151 13.9324 5.62532 14.0471C5.73912 14.1618 5.89348 14.2262 6.05443 14.2262C6.21538 14.2262 6.36973 14.1618 6.48354 14.0471C6.59735 13.9324 6.66129 13.7769 6.66129 13.6148V8.77511H8.127C8.28795 8.77511 8.44231 8.71069 8.55611 8.59602C8.66992 8.48136 8.73386 8.32584 8.73386 8.16367Z" fill="white"/>
<path fill-rule="evenodd" clip-rule="evenodd" d="M13.005 12.1509L13.0076 12.1302C13.0073 11.9762 12.9489 11.828 12.8443 11.7157L11.4994 8.08854C11.4431 7.91569 11.3357 7.76429 11.1916 7.65457C11.0476 7.54485 10.8737 7.48204 10.6933 7.47452C10.5115 7.47371 10.3339 7.52868 10.1839 7.63212C10.0339 7.73556 9.91873 7.88256 9.85371 8.05356L7.71814 13.3324C7.688 13.4067 7.67269 13.4863 7.67309 13.5666C7.67348 13.6469 7.68956 13.7263 7.72043 13.8004C7.75129 13.8744 7.79632 13.9416 7.85296 13.9981C7.90959 14.0546 7.97672 14.0993 8.0505 14.1297C8.12428 14.1601 8.20328 14.1755 8.28298 14.1751C8.36268 14.1747 8.44153 14.1585 8.51501 14.1274C8.5885 14.0963 8.65518 14.0509 8.71126 13.9939C8.76734 13.9368 8.81172 13.8692 8.84186 13.7948L9.26614 12.7417H11.9276L12.312 13.778C12.3381 13.8554 12.3794 13.9268 12.4335 13.9879C12.4875 14.049 12.5531 14.0986 12.6265 14.1336C12.6999 14.1687 12.7795 14.1886 12.8606 14.1921C12.9417 14.1956 13.0227 14.1826 13.0988 14.154C13.1749 14.1254 13.2445 14.0817 13.3035 14.0255C13.3625 13.9693 13.4097 13.9017 13.4423 13.8268C13.4749 13.7518 13.4923 13.6711 13.4934 13.5893C13.4944 13.5075 13.4792 13.4263 13.4486 13.3505L13.005 12.1509ZM10.656 9.30752L9.76114 11.5188H11.4763L10.656 9.30752Z" fill="white"/>
<path d="M17.2916 12.9334H15.4144V8.1572C15.4072 8.00007 15.3402 7.85178 15.2273 7.74315C15.1144 7.63452 14.9643 7.5739 14.8082 7.5739C14.6521 7.5739 14.502 7.63452 14.3891 7.74315C14.2762 7.85178 14.2092 8.00007 14.202 8.1572V13.5448C14.202 13.8816 14.472 14.1562 14.8076 14.1562H17.2916C17.4525 14.1562 17.6069 14.0918 17.7207 13.9772C17.8345 13.8625 17.8984 13.707 17.8984 13.5448C17.8984 13.3826 17.8345 13.2271 17.7207 13.1125C17.6069 12.9978 17.4525 12.9334 17.2916 12.9334Z" fill="white"/>
<path d="M21.0947 10.441L22.9847 8.59634C23.0938 8.48223 23.1546 8.32992 23.1544 8.1715C23.1542 8.01309 23.093 7.86093 22.9837 7.74708C22.8744 7.63323 22.7254 7.56658 22.5683 7.56117C22.4112 7.55575 22.2581 7.612 22.1413 7.71805L19.6624 10.1353V8.13777C19.6624 7.9756 19.5985 7.82008 19.4847 7.70542C19.3709 7.59075 19.2165 7.52633 19.0556 7.52633C18.8946 7.52633 18.7403 7.59075 18.6265 7.70542C18.5127 7.82008 18.4487 7.9756 18.4487 8.13777V11.4501C18.426 11.5446 18.426 11.6432 18.4487 11.7377V13.6018C18.4487 13.764 18.5127 13.9195 18.6265 14.0342C18.7403 14.1488 18.8946 14.2132 19.0556 14.2132C19.2165 14.2132 19.3709 14.1488 19.4847 14.0342C19.5985 13.9195 19.6624 13.764 19.6624 13.6018V11.8362L20.2114 11.3012L22.0474 13.9347C22.0933 14.0005 22.1515 14.0565 22.2188 14.0996C22.2862 14.1426 22.3612 14.1719 22.4398 14.1857C22.5184 14.1996 22.5989 14.1977 22.6767 14.1802C22.7545 14.1627 22.8282 14.1299 22.8934 14.0837C22.9587 14.0375 23.0143 13.9788 23.057 13.911C23.0998 13.8432 23.1288 13.7675 23.1426 13.6884C23.1563 13.6092 23.1544 13.5281 23.137 13.4497C23.1197 13.3713 23.0871 13.2971 23.0413 13.2313L21.0947 10.441Z" fill="white"/>
</svg>
