<svg width="19" height="19" viewBox="0 0 19 19" fill="none" xmlns="http://www.w3.org/2000/svg">
<path d="M11.875 5.9375H4.64016L6.76994 3.80831L5.9375 2.96875L2.375 6.53125L5.9375 10.0938L6.76994 9.25359L4.64194 7.125H11.875C12.8198 7.125 13.726 7.50033 14.3941 8.16843C15.0622 8.83653 15.4375 9.74267 15.4375 10.6875C15.4375 11.6323 15.0622 12.5385 14.3941 13.2066C13.726 13.8747 12.8198 14.25 11.875 14.25H7.125V15.4375H11.875C13.1348 15.4375 14.343 14.9371 15.2338 14.0463C16.1246 13.1555 16.625 11.9473 16.625 10.6875C16.625 9.42772 16.1246 8.21954 15.2338 7.32874C14.343 6.43794 13.1348 5.9375 11.875 5.9375Z" fill="white"/>
</svg>
