<svg width="26" height="26" viewBox="0 0 26 26" fill="none" xmlns="http://www.w3.org/2000/svg">
<path d="M6.5 8.56851V17.3327C6.5 19.0566 7.18482 20.7099 8.40381 21.9289C9.62279 23.1479 11.2761 23.8327 13 23.8327C14.7239 23.8327 16.3772 23.1479 17.5962 21.9289C18.8152 20.7099 19.5 19.0566 19.5 17.3327V6.49935C19.5 5.35008 19.0435 4.24788 18.2308 3.43522C17.4181 2.62256 16.3159 2.16602 15.1667 2.16602C14.0174 2.16602 12.9152 2.62256 12.1025 3.43522C11.2899 4.24788 10.8333 5.35008 10.8333 6.49935V16.4465C10.8333 16.731 10.8894 17.0128 10.9983 17.2757C11.1071 17.5385 11.2667 17.7774 11.4679 17.9786C11.6691 18.1798 11.908 18.3394 12.1709 18.4483C12.4337 18.5571 12.7155 18.6132 13 18.6132V18.6132C13.5746 18.6132 14.1257 18.3849 14.5321 17.9786C14.9384 17.5722 15.1667 17.0211 15.1667 16.4465V8.66601" stroke="#DDDDDD" stroke-width="2" stroke-linecap="round" stroke-linejoin="round"/>
</svg>
