<svg width="17" height="17" viewBox="0 0 17 17" fill="none" xmlns="http://www.w3.org/2000/svg">
<path d="M3.19041 5.6588L8.50079 10.8353L13.8112 5.6588C13.906 5.56613 14.0334 5.51425 14.166 5.51425C14.2987 5.51425 14.426 5.56613 14.5209 5.6588C14.5669 5.70381 14.6034 5.75754 14.6283 5.81683C14.6532 5.87613 14.666 5.9398 14.666 6.00411C14.666 6.06843 14.6532 6.1321 14.6283 6.19139C14.6034 6.25069 14.5669 6.30442 14.5209 6.34943L8.8716 11.8574C8.77239 11.9541 8.63933 12.0083 8.50079 12.0083C8.36225 12.0083 8.22919 11.9541 8.12998 11.8574L2.48066 6.35049C2.4344 6.30544 2.39763 6.25158 2.37252 6.19209C2.34741 6.1326 2.33448 6.06869 2.33448 6.00411C2.33448 5.93954 2.34741 5.87562 2.37252 5.81613C2.39763 5.75664 2.4344 5.70278 2.48066 5.65774C2.57554 5.56506 2.70291 5.51318 2.83554 5.51318C2.96817 5.51318 3.09554 5.56506 3.19041 5.65774L3.19041 5.6588Z" fill="#60DF7C"/>
</svg>
