<svg width="27" height="26" viewBox="0 0 27 26" fill="none" xmlns="http://www.w3.org/2000/svg">
<path d="M13.5 0.539734C20.9559 0.539734 27 5.28612 27 11.1427C27 16.9979 20.9559 21.7443 13.5 21.7443C12.7576 21.7447 12.0159 21.6971 11.2796 21.6018L5.61214 25.3365C4.968 25.6798 4.74043 25.6422 5.00529 24.8015L6.15214 20.037C2.44929 18.1457 0 14.8683 0 11.1427C0 5.28741 6.04414 0.539734 13.5 0.539734ZM21.0947 10.9807L22.9847 9.13608C23.0938 9.02196 23.1546 8.86965 23.1544 8.71124C23.1542 8.55282 23.093 8.40066 22.9837 8.28682C22.8744 8.17297 22.7254 8.10632 22.5683 8.1009C22.4112 8.09549 22.2581 8.15173 22.1413 8.25779L19.6624 10.675V8.6775C19.6624 8.51534 19.5985 8.35982 19.4847 8.24515C19.3709 8.13049 19.2165 8.06607 19.0556 8.06607C18.8946 8.06607 18.7403 8.13049 18.6265 8.24515C18.5127 8.35982 18.4487 8.51534 18.4487 8.6775V11.9899C18.426 12.0844 18.426 12.183 18.4487 12.2774V14.1415C18.4487 14.3037 18.5127 14.4592 18.6265 14.5739C18.7403 14.6886 18.8946 14.753 19.0556 14.753C19.2165 14.753 19.3709 14.6886 19.4847 14.5739C19.5985 14.4592 19.6624 14.3037 19.6624 14.1415V12.3759L20.2114 11.8409L22.0474 14.4745C22.0933 14.5402 22.1515 14.5962 22.2188 14.6393C22.2862 14.6824 22.3612 14.7116 22.4398 14.7255C22.5184 14.7393 22.5989 14.7374 22.6767 14.7199C22.7545 14.7024 22.8282 14.6696 22.8934 14.6234C22.9587 14.5772 23.0143 14.5186 23.057 14.4507C23.0998 14.3829 23.1288 14.3072 23.1426 14.2281C23.1563 14.1489 23.1544 14.0678 23.137 13.9894C23.1197 13.911 23.0871 13.8368 23.0413 13.7711L21.0947 10.9794V10.9807ZM17.2916 13.4731H15.4144V8.69693C15.4072 8.53981 15.3402 8.39152 15.2273 8.28288C15.1144 8.17425 14.9643 8.11363 14.8082 8.11363C14.6521 8.11363 14.502 8.17425 14.3891 8.28288C14.2762 8.39152 14.2092 8.53981 14.202 8.69693V14.0845C14.202 14.4213 14.472 14.696 14.8076 14.696H17.2916C17.4525 14.696 17.6069 14.6316 17.7207 14.5169C17.8345 14.4022 17.8984 14.2467 17.8984 14.0845C17.8984 13.9224 17.8345 13.7669 17.7207 13.6522C17.6069 13.5375 17.4525 13.4731 17.2916 13.4731ZM9.76114 12.0585L10.656 9.84726L11.4763 12.0585H9.76114ZM13.005 12.6907L13.0076 12.67C13.0073 12.5159 12.9489 12.3677 12.8443 12.2554L11.4994 8.62828C11.4431 8.45543 11.3357 8.30403 11.1916 8.19431C11.0476 8.08459 10.8737 8.02177 10.6933 8.01425C10.5115 8.01345 10.3339 8.06842 10.1839 8.17186C10.0339 8.2753 9.91873 8.4223 9.85371 8.5933L7.71814 13.8721C7.688 13.9464 7.67269 14.026 7.67309 14.1063C7.67348 14.1866 7.68956 14.2661 7.72043 14.3401C7.75129 14.4141 7.79632 14.4813 7.85296 14.5378C7.90959 14.5943 7.97672 14.6391 8.0505 14.6694C8.12428 14.6998 8.20328 14.7152 8.28298 14.7148C8.36268 14.7144 8.44153 14.6982 8.51501 14.6671C8.5885 14.636 8.65518 14.5907 8.71126 14.5336C8.76734 14.4765 8.81172 14.4089 8.84186 14.3346L9.26614 13.2814H11.9276L12.312 14.3177C12.3381 14.3952 12.3794 14.4666 12.4335 14.5277C12.4875 14.5887 12.5531 14.6383 12.6265 14.6734C12.6999 14.7084 12.7795 14.7283 12.8606 14.7318C12.9417 14.7353 13.0227 14.7224 13.0988 14.6937C13.1749 14.6651 13.2445 14.6214 13.3035 14.5652C13.3625 14.509 13.4097 14.4414 13.4423 14.3665C13.4749 14.2916 13.4923 14.2108 13.4934 14.129C13.4944 14.0472 13.4792 13.966 13.4486 13.8902L13.005 12.6907ZM8.73386 8.70341C8.73386 8.54147 8.6701 8.38615 8.55657 8.27152C8.44304 8.15689 8.28901 8.09232 8.12829 8.09197H3.95614C3.79519 8.09197 3.64084 8.15639 3.52703 8.27106C3.41322 8.38573 3.34929 8.54125 3.34929 8.70341C3.34929 8.86557 3.41322 9.02109 3.52703 9.13576C3.64084 9.25042 3.79519 9.31484 3.95614 9.31484H5.44757V14.1545C5.44757 14.3167 5.51151 14.4722 5.62532 14.5868C5.73912 14.7015 5.89348 14.7659 6.05443 14.7659C6.21538 14.7659 6.36973 14.7015 6.48354 14.5868C6.59735 14.4722 6.66129 14.3167 6.66129 14.1545V9.31484H8.127C8.28795 9.31484 8.44231 9.25042 8.55611 9.13576C8.66992 9.02109 8.73386 8.86557 8.73386 8.70341Z" fill="white" fill-opacity="0.6"/>
<path d="M8.73386 8.70341C8.73386 8.54147 8.6701 8.38615 8.55657 8.27152C8.44304 8.15689 8.28901 8.09232 8.12829 8.09197H3.95614C3.79519 8.09197 3.64084 8.15639 3.52703 8.27106C3.41322 8.38573 3.34929 8.54125 3.34929 8.70341C3.34929 8.86557 3.41322 9.02109 3.52703 9.13576C3.64084 9.25042 3.79519 9.31484 3.95614 9.31484H5.44757V14.1545C5.44757 14.3167 5.51151 14.4722 5.62532 14.5868C5.73912 14.7015 5.89348 14.7659 6.05443 14.7659C6.21538 14.7659 6.36973 14.7015 6.48354 14.5868C6.59735 14.4722 6.66129 14.3167 6.66129 14.1545V9.31484H8.127C8.28795 9.31484 8.44231 9.25042 8.55611 9.13576C8.66992 9.02109 8.73386 8.86557 8.73386 8.70341Z" fill="white" fill-opacity="0.6"/>
<path fill-rule="evenodd" clip-rule="evenodd" d="M13.005 12.6907L13.0076 12.67C13.0073 12.5159 12.9489 12.3677 12.8443 12.2554L11.4994 8.62828C11.4431 8.45543 11.3357 8.30403 11.1916 8.19431C11.0476 8.08459 10.8737 8.02177 10.6933 8.01425C10.5115 8.01345 10.3339 8.06842 10.1839 8.17186C10.0339 8.2753 9.91873 8.4223 9.85371 8.5933L7.71814 13.8721C7.688 13.9464 7.67269 14.026 7.67309 14.1063C7.67348 14.1866 7.68956 14.2661 7.72043 14.3401C7.75129 14.4141 7.79632 14.4813 7.85296 14.5378C7.90959 14.5943 7.97672 14.6391 8.0505 14.6694C8.12428 14.6998 8.20328 14.7152 8.28298 14.7148C8.36268 14.7144 8.44153 14.6982 8.51501 14.6671C8.5885 14.636 8.65518 14.5907 8.71126 14.5336C8.76734 14.4765 8.81172 14.4089 8.84186 14.3346L9.26614 13.2814H11.9276L12.312 14.3177C12.3381 14.3952 12.3794 14.4666 12.4335 14.5277C12.4875 14.5887 12.5531 14.6383 12.6265 14.6734C12.6999 14.7084 12.7795 14.7283 12.8606 14.7318C12.9417 14.7353 13.0227 14.7224 13.0988 14.6937C13.1749 14.6651 13.2445 14.6214 13.3035 14.5652C13.3625 14.509 13.4097 14.4414 13.4423 14.3665C13.4749 14.2916 13.4923 14.2108 13.4934 14.129C13.4944 14.0472 13.4792 13.966 13.4486 13.8902L13.005 12.6907ZM10.656 9.84726L9.76114 12.0585H11.4763L10.656 9.84726Z" fill="white" fill-opacity="0.6"/>
<path d="M17.2916 13.4731H15.4144V8.69693C15.4072 8.53981 15.3402 8.39152 15.2273 8.28288C15.1144 8.17425 14.9643 8.11363 14.8082 8.11363C14.6521 8.11363 14.502 8.17425 14.3891 8.28288C14.2762 8.39152 14.2092 8.53981 14.202 8.69693V14.0845C14.202 14.4213 14.472 14.696 14.8076 14.696H17.2916C17.4525 14.696 17.6069 14.6316 17.7207 14.5169C17.8345 14.4022 17.8984 14.2467 17.8984 14.0845C17.8984 13.9224 17.8345 13.7669 17.7207 13.6522C17.6069 13.5375 17.4525 13.4731 17.2916 13.4731Z" fill="white" fill-opacity="0.6"/>
<path d="M21.0947 10.9807L22.9847 9.13608C23.0938 9.02196 23.1546 8.86965 23.1544 8.71124C23.1542 8.55282 23.093 8.40066 22.9837 8.28682C22.8744 8.17297 22.7254 8.10632 22.5683 8.1009C22.4112 8.09549 22.2581 8.15173 22.1413 8.25779L19.6624 10.675V8.6775C19.6624 8.51534 19.5985 8.35982 19.4847 8.24515C19.3709 8.13049 19.2165 8.06607 19.0556 8.06607C18.8946 8.06607 18.7403 8.13049 18.6265 8.24515C18.5127 8.35982 18.4487 8.51534 18.4487 8.6775V11.9899C18.426 12.0844 18.426 12.183 18.4487 12.2774V14.1415C18.4487 14.3037 18.5127 14.4592 18.6265 14.5739C18.7403 14.6886 18.8946 14.753 19.0556 14.753C19.2165 14.753 19.3709 14.6886 19.4847 14.5739C19.5985 14.4592 19.6624 14.3037 19.6624 14.1415V12.3759L20.2114 11.8409L22.0474 14.4745C22.0933 14.5402 22.1515 14.5962 22.2188 14.6393C22.2862 14.6824 22.3612 14.7116 22.4398 14.7255C22.5184 14.7393 22.5989 14.7374 22.6767 14.7199C22.7545 14.7024 22.8282 14.6696 22.8934 14.6234C22.9587 14.5772 23.0143 14.5186 23.057 14.4507C23.0998 14.3829 23.1288 14.3072 23.1426 14.2281C23.1563 14.1489 23.1544 14.0678 23.137 13.9894C23.1197 13.911 23.0871 13.8368 23.0413 13.7711L21.0947 10.9807Z" fill="white" fill-opacity="0.6"/>
</svg>
