<svg width="33" height="33" viewBox="0 0 33 33" fill="none" xmlns="http://www.w3.org/2000/svg">
<path d="M29.4853 3.59842C26.0676 0.180733 20.5065 0.180733 17.0889 3.59842L10.8906 9.79669L12.3491 11.2551L18.5472 5.05681C19.8043 3.79973 21.5093 3.09351 23.2871 3.09352C24.1674 3.09352 25.039 3.26691 25.8523 3.60377C26.6655 3.94064 27.4045 4.43439 28.0269 5.05684C28.6494 5.67928 29.1431 6.41823 29.48 7.2315C29.8168 8.04476 29.9902 8.91641 29.9902 9.79668C29.9902 10.6769 29.8168 11.5486 29.4799 12.3619C29.1431 13.1751 28.6493 13.9141 28.0269 14.5365L21.8286 20.7348L23.2868 22.1932L29.4851 15.9949C32.9032 12.5772 32.9032 7.01618 29.4853 3.59842ZM14.5366 28.0268C13.2795 29.2839 11.5745 29.9901 9.79676 29.9901C8.01899 29.9901 6.31402 29.2839 5.05694 28.0268C3.79987 26.7697 3.09365 25.0648 3.09365 23.287C3.09365 21.5092 3.79987 19.8042 5.05694 18.5472L10.8907 12.7134L9.43228 11.2551L3.5985 17.0888C2.78136 17.9021 2.13267 18.8685 1.68959 19.9328C1.24651 20.9972 1.01773 22.1385 1.01636 23.2913C1.01499 24.4442 1.24106 25.586 1.68162 26.6514C2.12217 27.7168 2.76856 28.6848 3.58377 29.5C4.39897 30.3152 5.36698 30.9616 6.43236 31.4021C7.49774 31.8427 8.63956 32.0687 9.79243 32.0674C10.9453 32.066 12.0866 31.8372 13.1509 31.3941C14.2152 30.951 15.1817 30.3023 15.995 29.4852L21.8286 23.6515L20.3702 22.1932L14.5366 28.0268Z" fill="white"/>
<path d="M8.33838 23.2873L22.9224 8.70312L24.3809 10.1616L9.79676 24.7456L8.33838 23.2873Z" fill="white"/>
</svg>
