<svg width="70" height="70" viewBox="0 0 70 70" fill="none" xmlns="http://www.w3.org/2000/svg">
<path d="M35.4284 56H52.5049C53.4332 56 54.3234 55.6313 54.9798 54.9749C55.6362 54.3185 56.0049 53.4283 56.0049 52.5V17.5C56.0049 16.5717 55.6362 15.6815 54.9798 15.0251C54.3234 14.3687 53.4332 14 52.5049 14H17.5014C16.5732 14 15.6829 14.3687 15.0265 15.0251C14.3702 15.6815 14.0014 16.5717 14.0014 17.5V32.3995C12.7664 32.8362 11.5906 33.4253 10.5014 34.153V17.5C10.5014 15.6435 11.2389 13.863 12.5517 12.5503C13.8644 11.2375 15.6449 10.5 17.5014 10.5H52.5014C54.3579 10.5 56.1384 11.2375 57.4512 12.5503C58.7639 13.863 59.5014 15.6435 59.5014 17.5V52.5C59.5014 54.3565 58.7639 56.137 57.4512 57.4497C56.1384 58.7625 54.3579 59.5 52.5014 59.5H38.9249L35.4249 56H35.4284ZM23.6299 28C24.3261 28 24.9938 27.7234 25.4861 27.2312C25.9784 26.7389 26.2549 26.0712 26.2549 25.375C26.2549 24.6788 25.9784 24.0111 25.4861 23.5188C24.9938 23.0266 24.3261 22.75 23.6299 22.75C22.9337 22.75 22.266 23.0266 21.7738 23.5188C21.2815 24.0111 21.0049 24.6788 21.0049 25.375C21.0049 26.0712 21.2815 26.7389 21.7738 27.2312C22.266 27.7234 22.9337 28 23.6299 28ZM31.5014 26.25C31.5014 25.7859 31.6858 25.3408 32.014 25.0126C32.3422 24.6844 32.7873 24.5 33.2514 24.5H47.2514C47.7155 24.5 48.1607 24.6844 48.4889 25.0126C48.817 25.3408 49.0014 25.7859 49.0014 26.25C49.0014 26.7141 48.817 27.1592 48.4889 27.4874C48.1607 27.8156 47.7155 28 47.2514 28H33.2514C32.7873 28 32.3422 27.8156 32.014 27.4874C31.6858 27.1592 31.5014 26.7141 31.5014 26.25ZM31.5014 36.75C31.5014 36.2859 31.6858 35.8408 32.014 35.5126C32.3422 35.1844 32.7873 35 33.2514 35H47.2514C47.7155 35 48.1607 35.1844 48.4889 35.5126C48.817 35.8408 49.0014 36.2859 49.0014 36.75C49.0014 37.2141 48.817 37.6593 48.4889 37.9874C48.1607 38.3156 47.7155 38.5 47.2514 38.5H33.2514C32.7873 38.5 32.3422 38.3156 32.014 37.9874C31.6858 37.6593 31.5014 37.2141 31.5014 36.75ZM47.2514 49H34.9034C35.0334 47.837 35.0334 46.663 34.9034 45.5H47.2549C47.719 45.5 48.1642 45.6844 48.4924 46.0126C48.8205 46.3408 49.0049 46.7859 49.0049 47.25C49.0049 47.7141 48.8205 48.1593 48.4924 48.4874C48.1642 48.8156 47.719 49 47.2549 49H47.2514ZM8.34892 41.6675C7.08742 44.1326 6.69833 46.9523 7.2451 49.6669C7.79186 52.3815 9.24223 54.8308 11.3597 56.6153C13.4771 58.3997 16.1367 59.4142 18.9047 59.4931C21.6726 59.5721 24.3857 58.7109 26.6014 57.05L35.5019 66.003C35.8305 66.3311 36.276 66.5153 36.7404 66.515C37.2048 66.5146 37.65 66.3299 37.9782 66.0013C38.3063 65.6726 38.4905 65.2272 38.4901 64.7628C38.4898 64.2984 38.305 63.8531 37.9764 63.525L29.0514 54.6C30.0677 53.2426 30.7911 51.689 31.1758 50.0375C31.5605 48.386 31.5982 46.6726 31.2864 45.0059C30.9746 43.3391 30.3202 41.7552 29.3645 40.3544C28.4088 38.9537 27.1728 37.7666 25.7346 36.8683C24.2963 35.97 22.6873 35.3801 21.0093 35.1359C19.3312 34.8917 17.6208 34.9986 15.9862 35.4497C14.3516 35.9009 12.8285 36.6864 11.5133 37.7567C10.198 38.827 9.11931 40.1587 8.34542 41.6675H8.34892ZM26.5279 42.3885C27.1788 43.3436 27.634 44.4181 27.8673 45.5501C28.1006 46.6821 28.1073 47.849 27.887 48.9836C27.6668 50.1182 27.2239 51.1979 26.5841 52.1604C25.9442 53.1229 25.12 53.949 24.1591 54.5912C23.1981 55.2334 22.1195 55.6788 20.9854 55.9018C19.8514 56.1247 18.6844 56.1208 17.5519 55.8903C16.4193 55.6597 15.3437 55.2071 14.3871 54.5585C13.4305 53.9099 12.6118 53.0782 11.9784 52.1115C10.7142 50.1819 10.2631 47.8312 10.7232 45.5707C11.1834 43.3102 12.5177 41.3228 14.4357 40.0411C16.3537 38.7594 18.7002 38.2869 20.9648 38.7265C23.2294 39.1661 25.2288 40.4822 26.5279 42.3885Z" fill="#0EBCF6"/>
<path d="M35.427 56H52.5035C53.4318 56 54.322 55.6313 54.9784 54.9749C55.6347 54.3185 56.0035 53.4283 56.0035 52.5V17.5C56.0035 16.5717 55.6347 15.6815 54.9784 15.0251C54.322 14.3687 53.4318 14 52.5035 14H17.5C16.5717 14 15.6815 14.3687 15.0251 15.0251C14.3687 15.6815 14 16.5717 14 17.5V32.3995C12.765 32.8362 11.5892 33.4253 10.5 34.153V17.5C10.5 15.6435 11.2375 13.863 12.5503 12.5503C13.863 11.2375 15.6435 10.5 17.5 10.5H52.5C54.3565 10.5 56.137 11.2375 57.4497 12.5503C58.7625 13.863 59.5 15.6435 59.5 17.5V52.5C59.5 54.3565 58.7625 56.137 57.4497 57.4497C56.137 58.7625 54.3565 59.5 52.5 59.5H38.9235L35.4235 56H35.427ZM23.6285 28C24.3247 28 24.9924 27.7234 25.4847 27.2312C25.9769 26.7389 26.2535 26.0712 26.2535 25.375C26.2535 24.6788 25.9769 24.0111 25.4847 23.5188C24.9924 23.0266 24.3247 22.75 23.6285 22.75C22.9323 22.75 22.2646 23.0266 21.7723 23.5188C21.2801 24.0111 21.0035 24.6788 21.0035 25.375C21.0035 26.0712 21.2801 26.7389 21.7723 27.2312C22.2646 27.7234 22.9323 28 23.6285 28ZM31.5 26.25C31.5 25.7859 31.6844 25.3408 32.0126 25.0126C32.3407 24.6844 32.7859 24.5 33.25 24.5H47.25C47.7141 24.5 48.1592 24.6844 48.4874 25.0126C48.8156 25.3408 49 25.7859 49 26.25C49 26.7141 48.8156 27.1592 48.4874 27.4874C48.1592 27.8156 47.7141 28 47.25 28H33.25C32.7859 28 32.3407 27.8156 32.0126 27.4874C31.6844 27.1592 31.5 26.7141 31.5 26.25ZM31.5 36.75C31.5 36.2859 31.6844 35.8407 32.0126 35.5126C32.3407 35.1844 32.7859 35 33.25 35H47.25C47.7141 35 48.1592 35.1844 48.4874 35.5126C48.8156 35.8407 49 36.2859 49 36.75C49 37.2141 48.8156 37.6592 48.4874 37.9874C48.1592 38.3156 47.7141 38.5 47.25 38.5H33.25C32.7859 38.5 32.3407 38.3156 32.0126 37.9874C31.6844 37.6592 31.5 37.2141 31.5 36.75ZM47.25 49H34.902C35.032 47.837 35.032 46.663 34.902 45.5H47.2535C47.7176 45.5 48.1627 45.6844 48.4909 46.0126C48.8191 46.3407 49.0035 46.7859 49.0035 47.25C49.0035 47.7141 48.8191 48.1592 48.4909 48.4874C48.1627 48.8156 47.7176 49 47.2535 49H47.25Z" fill="#E9E9E9"/>
</svg>
