<svg width="20" height="20" viewBox="0 0 20 20" fill="none" xmlns="http://www.w3.org/2000/svg">
<path d="M4.37506 3.125C4.37506 2.95924 4.30921 2.80027 4.192 2.68306C4.07479 2.56585 3.91582 2.5 3.75006 2.5C3.5843 2.5 3.42533 2.56585 3.30812 2.68306C3.19091 2.80027 3.12506 2.95924 3.12506 3.125V14.1163L1.69256 12.6825C1.5752 12.5651 1.41603 12.4992 1.25006 12.4992C1.08409 12.4992 0.924915 12.5651 0.807557 12.6825C0.690199 12.7999 0.624268 12.959 0.624268 13.125C0.624268 13.291 0.690199 13.4501 0.807557 13.5675L3.30756 16.0662L3.31631 16.075C3.43365 16.1894 3.59146 16.2528 3.75535 16.2514C3.91924 16.25 4.07594 16.1839 4.19131 16.0675L6.69131 13.5675C6.74942 13.5095 6.79553 13.4406 6.82701 13.3647C6.85849 13.2889 6.87472 13.2076 6.87478 13.1254C6.87484 13.0433 6.85872 12.962 6.82735 12.8861C6.79597 12.8102 6.74996 12.7412 6.69193 12.6831C6.6339 12.625 6.565 12.5789 6.48915 12.5474C6.4133 12.5159 6.332 12.4997 6.24987 12.4997C6.16775 12.4996 6.08642 12.5157 6.01053 12.5471C5.93464 12.5785 5.86567 12.6245 5.80756 12.6825L4.37506 14.1163V3.125ZM8.75006 4.375C8.75006 4.20924 8.81591 4.05027 8.93312 3.93306C9.05033 3.81585 9.2093 3.75 9.37506 3.75H18.1251C18.2908 3.75 18.4498 3.81585 18.567 3.93306C18.6842 4.05027 18.7501 4.20924 18.7501 4.375C18.7501 4.54076 18.6842 4.69973 18.567 4.81694C18.4498 4.93415 18.2908 5 18.1251 5H9.37506C9.2093 5 9.05033 4.93415 8.93312 4.81694C8.81591 4.69973 8.75006 4.54076 8.75006 4.375ZM9.37506 7.5C9.2093 7.5 9.05033 7.56585 8.93312 7.68306C8.81591 7.80027 8.75006 7.95924 8.75006 8.125C8.75006 8.29076 8.81591 8.44973 8.93312 8.56694C9.05033 8.68415 9.2093 8.75 9.37506 8.75H15.6251C15.7908 8.75 15.9498 8.68415 16.067 8.56694C16.1842 8.44973 16.2501 8.29076 16.2501 8.125C16.2501 7.95924 16.1842 7.80027 16.067 7.68306C15.9498 7.56585 15.7908 7.5 15.6251 7.5H9.37506ZM9.37506 11.25C9.2093 11.25 9.05033 11.3158 8.93312 11.4331C8.81591 11.5503 8.75006 11.7092 8.75006 11.875C8.75006 12.0408 8.81591 12.1997 8.93312 12.3169C9.05033 12.4342 9.2093 12.5 9.37506 12.5H13.1251C13.2908 12.5 13.4498 12.4342 13.567 12.3169C13.6842 12.1997 13.7501 12.0408 13.7501 11.875C13.7501 11.7092 13.6842 11.5503 13.567 11.4331C13.4498 11.3158 13.2908 11.25 13.1251 11.25H9.37506ZM9.37506 15C9.2093 15 9.05033 15.0658 8.93312 15.1831C8.81591 15.3003 8.75006 15.4592 8.75006 15.625C8.75006 15.7908 8.81591 15.9497 8.93312 16.0669C9.05033 16.1842 9.2093 16.25 9.37506 16.25H10.6251C10.7908 16.25 10.9498 16.1842 11.067 16.0669C11.1842 15.9497 11.2501 15.7908 11.2501 15.625C11.2501 15.4592 11.1842 15.3003 11.067 15.1831C10.9498 15.0658 10.7908 15 10.6251 15H9.37506Z" fill="#0C0C0C"/>
</svg>
