<svg width="21" height="21" viewBox="0 0 21 21" fill="none" xmlns="http://www.w3.org/2000/svg">
<path d="M4.59375 18.375C4.4197 18.375 4.25278 18.3059 4.12971 18.1828C4.00664 18.0597 3.9375 17.8928 3.9375 17.7188C3.9375 17.5447 4.00664 17.3778 4.12971 17.2547C4.25278 17.1316 4.4197 17.0625 4.59375 17.0625H16.4062C16.5803 17.0625 16.7472 17.1316 16.8703 17.2547C16.9934 17.3778 17.0625 17.5447 17.0625 17.7188C17.0625 17.8928 16.9934 18.0597 16.8703 18.1828C16.7472 18.3059 16.5803 18.375 16.4062 18.375H4.59375ZM10.9646 15.5584C10.9037 15.6195 10.8312 15.668 10.7515 15.7011C10.6718 15.7341 10.5863 15.7512 10.5 15.7512C10.4137 15.7512 10.3282 15.7341 10.2485 15.7011C10.1688 15.668 10.0963 15.6195 10.0354 15.5584L5.44162 10.9646C5.38061 10.9036 5.33221 10.8312 5.29919 10.7515C5.26617 10.6717 5.24917 10.5863 5.24917 10.5C5.24917 10.4137 5.26617 10.3283 5.29919 10.2485C5.33221 10.1688 5.38061 10.0964 5.44162 10.0354C5.50264 9.97436 5.57508 9.92596 5.6548 9.89294C5.73452 9.85992 5.81996 9.84292 5.90625 9.84292C5.99254 9.84292 6.07798 9.85992 6.1577 9.89294C6.23742 9.92596 6.30986 9.97436 6.37088 10.0354L9.84375 13.5096V3.28125C9.84375 3.1072 9.91289 2.94028 10.036 2.81721C10.159 2.69414 10.326 2.625 10.5 2.625C10.674 2.625 10.841 2.69414 10.964 2.81721C11.0871 2.94028 11.1562 3.1072 11.1562 3.28125V13.5096L14.6291 10.0354C14.7524 9.91215 14.9195 9.84292 15.0938 9.84292C15.268 9.84292 15.4351 9.91215 15.5584 10.0354C15.6816 10.1586 15.7508 10.3257 15.7508 10.5C15.7508 10.6743 15.6816 10.8414 15.5584 10.9646L10.9646 15.5584Z" fill="black"/>
</svg>
