<svg width="12" height="12" viewBox="0 0 12 12" fill="none" xmlns="http://www.w3.org/2000/svg">
<path d="M5.64844 10.2188H6.35156C6.41406 10.2188 6.44531 10.1875 6.44531 10.125V1.875C6.44531 1.8125 6.41406 1.78125 6.35156 1.78125H5.64844C5.58594 1.78125 5.55469 1.8125 5.55469 1.875V10.125C5.55469 10.1875 5.58594 10.2188 5.64844 10.2188Z" fill="#444444"/>
<path d="M2.0625 6.44531H9.9375C10 6.44531 10.0312 6.41406 10.0312 6.35156V5.64844C10.0312 5.58594 10 5.55469 9.9375 5.55469H2.0625C2 5.55469 1.96875 5.58594 1.96875 5.64844V6.35156C1.96875 6.41406 2 6.44531 2.0625 6.44531Z" fill="#444444"/>
</svg>
