<svg width="17" height="17" viewBox="0 0 17 17" fill="none" xmlns="http://www.w3.org/2000/svg">
<path d="M3.18968 5.65892L8.50006 10.8354L13.8104 5.65892C13.9053 5.56625 14.0327 5.51437 14.1653 5.51437C14.2979 5.51437 14.4253 5.56625 14.5202 5.65892C14.5661 5.70394 14.6026 5.75766 14.6275 5.81696C14.6524 5.87625 14.6653 5.93992 14.6653 6.00424C14.6653 6.06855 14.6524 6.13222 14.6275 6.19152C14.6026 6.25081 14.5661 6.30454 14.5202 6.34955L8.87087 11.8575C8.77166 11.9543 8.6386 12.0084 8.50006 12.0084C8.36151 12.0084 8.22845 11.9543 8.12924 11.8575L2.47993 6.35061C2.43367 6.30557 2.3969 6.25171 2.37179 6.19222C2.34668 6.13273 2.33374 6.06881 2.33374 6.00424C2.33374 5.93966 2.34668 5.87575 2.37179 5.81625C2.3969 5.75676 2.43367 5.70291 2.47993 5.65786C2.57481 5.56519 2.70218 5.5133 2.83481 5.5133C2.96744 5.5133 3.0948 5.56519 3.18968 5.65786L3.18968 5.65892Z" fill="#0EBCF6"/>
</svg>
