<svg width="26" height="26" viewBox="0 0 26 26" fill="none" xmlns="http://www.w3.org/2000/svg">
<path d="M13 3.25C13.8035 3.25 14.5889 3.48826 15.257 3.93465C15.9251 4.38105 16.4458 5.01552 16.7533 5.75785C17.0607 6.50017 17.1412 7.31701 16.9844 8.10505C16.8277 8.8931 16.4408 9.61697 15.8726 10.1851C15.3045 10.7533 14.5806 11.1402 13.7926 11.2969C13.0045 11.4537 12.1877 11.3732 11.4453 11.0658C10.703 10.7583 10.0685 10.2376 9.62216 9.5695C9.17576 8.90143 8.9375 8.11599 8.9375 7.3125C8.9375 6.23506 9.36551 5.20175 10.1274 4.43988C10.8892 3.67801 11.9226 3.25 13 3.25ZM13 1.625C11.8751 1.625 10.7755 1.95857 9.84019 2.58352C8.90489 3.20847 8.17591 4.09673 7.74544 5.13599C7.31496 6.17524 7.20233 7.31881 7.42178 8.42208C7.64124 9.52534 8.18292 10.5388 8.97833 11.3342C9.77374 12.1296 10.7872 12.6713 11.8904 12.8907C12.9937 13.1102 14.1373 12.9975 15.1765 12.5671C16.2158 12.1366 17.104 11.4076 17.729 10.4723C18.3539 9.537 18.6875 8.43738 18.6875 7.3125C18.6875 5.80408 18.0883 4.35744 17.0217 3.29083C15.9551 2.22422 14.5084 1.625 13 1.625ZM21.125 24.375H19.5V20.3125C19.5 19.779 19.3949 19.2507 19.1908 18.7578C18.9866 18.265 18.6874 17.8171 18.3101 17.4399C17.9329 17.0626 17.485 16.7634 16.9922 16.5592C16.4993 16.3551 15.971 16.25 15.4375 16.25H10.5625C9.48506 16.25 8.45175 16.678 7.68988 17.4399C6.92801 18.2017 6.5 19.2351 6.5 20.3125V24.375H4.875V20.3125C4.875 18.8041 5.47422 17.3574 6.54083 16.2908C7.60744 15.2242 9.05408 14.625 10.5625 14.625H15.4375C16.9459 14.625 18.3926 15.2242 19.4592 16.2908C20.5258 17.3574 21.125 18.8041 21.125 20.3125V24.375Z" fill="white"/>
</svg>
