<svg width="28" height="28" viewBox="0 0 28 28" fill="none" xmlns="http://www.w3.org/2000/svg">
<g clip-path="url(#clip0_4_953)">
<path d="M22.9762 19.4485C25.8254 16.9059 27.3999 14.0249 27.3999 14.0249C27.3999 14.0249 22.3749 4.81238 13.9999 4.81238C12.3912 4.81792 10.8008 5.15311 9.32666 5.79728L10.6164 7.0887C11.7009 6.69366 12.8457 6.49019 13.9999 6.48738C17.5509 6.48738 20.4972 8.44378 22.6563 10.6029C23.6954 11.6475 24.6269 12.794 25.4368 14.0249C25.3397 14.1706 25.2325 14.3314 25.1102 14.5073C24.5491 15.3113 23.7199 16.3833 22.6563 17.4469C22.3799 17.7233 22.0918 17.9963 21.7903 18.261L22.9762 19.4485Z" fill="#DDDDDD"/>
<path d="M19.5226 15.9947C19.8964 14.9492 19.9656 13.8191 19.7222 12.7358C19.4788 11.6526 18.9328 10.6607 18.1478 9.8756C17.3627 9.09051 16.3708 8.54451 15.2875 8.30111C14.2043 8.05772 13.0741 8.12694 12.0287 8.50072L13.4072 9.87925C14.0509 9.78711 14.7073 9.84616 15.3242 10.0517C15.9411 10.2573 16.5017 10.6037 16.9615 11.0635C17.4214 11.5233 17.7678 12.0839 17.9733 12.7008C18.1789 13.3178 18.2379 13.9741 18.1458 14.6178L19.5226 15.9947ZM14.5931 18.1705L15.97 19.5473C14.9245 19.9211 13.7944 19.9904 12.7111 19.747C11.6278 19.5036 10.636 18.9576 9.85088 18.1725C9.06579 17.3874 8.51979 16.3955 8.27639 15.3122C8.033 14.229 8.10222 13.0989 8.476 12.0534L9.85453 13.4319C9.76239 14.0756 9.82144 14.732 10.027 15.3489C10.2325 15.9658 10.579 16.5264 11.0388 16.9863C11.4986 17.4461 12.0592 17.7925 12.6761 17.998C13.2931 18.2036 13.9494 18.2626 14.5931 18.1705Z" fill="#DDDDDD"/>
<path d="M6.21135 9.78713C5.90985 10.0551 5.62007 10.3265 5.3437 10.6029C4.3046 11.6475 3.37309 12.794 2.5632 14.0249L2.88982 14.5073C3.45095 15.3113 4.28007 16.3833 5.3437 17.4469C7.50277 19.606 10.4508 21.5624 14.0001 21.5624C15.1994 21.5624 16.3283 21.3396 17.3836 20.9594L18.6733 22.2525C17.1992 22.8966 15.6088 23.2318 14.0001 23.2374C5.6251 23.2374 0.600098 14.0249 0.600098 14.0249C0.600098 14.0249 2.17292 11.1422 5.02377 8.60123L6.20967 9.7888L6.21135 9.78713ZM23.4571 24.6678L3.35715 4.56783L4.54305 3.38193L24.643 23.4819L23.4571 24.6678Z" fill="#DDDDDD"/>
</g>
<defs>
<clipPath id="clip0_4_953">
<rect width="26.8" height="26.8" fill="white" transform="translate(0.600098 0.624878)"/>
</clipPath>
</defs>
</svg>
