<svg width="18" height="18" viewBox="0 0 18 18" fill="none" xmlns="http://www.w3.org/2000/svg">
<path d="M5.99207 3.37768L11.4731 9.00043L5.99208 14.6232C5.89395 14.7236 5.83902 14.8585 5.83902 14.9989C5.83902 15.1394 5.89395 15.2742 5.99208 15.3747C6.03974 15.4233 6.09662 15.462 6.1594 15.4884C6.22219 15.5147 6.2896 15.5283 6.3577 15.5283C6.4258 15.5283 6.49321 15.5147 6.556 15.4884C6.61878 15.462 6.67567 15.4233 6.72333 15.3747L12.5553 9.39306C12.6577 9.28801 12.715 9.14712 12.715 9.00043C12.715 8.85374 12.6577 8.71285 12.5553 8.60781L6.72445 2.62618C6.67675 2.5772 6.61973 2.53826 6.55674 2.51168C6.49375 2.48509 6.42607 2.4714 6.3577 2.4714C6.28933 2.4714 6.22165 2.48509 6.15866 2.51168C6.09567 2.53826 6.03864 2.5772 5.99095 2.62618C5.89282 2.72664 5.83789 2.8615 5.83789 3.00194C5.83789 3.14237 5.89282 3.27722 5.99095 3.37768L5.99207 3.37768Z" fill="#0EBCF6"/>
</svg>
