<svg width="22" height="22" viewBox="0 0 22 22" fill="none" xmlns="http://www.w3.org/2000/svg">
<path d="M9.64639 7.81799C9.55266 7.91176 9.5 8.03891 9.5 8.17149C9.5 8.30408 9.55266 8.43123 9.64639 8.52499L12.1214 11L9.64639 13.475C9.55531 13.5693 9.50492 13.6956 9.50606 13.8267C9.5072 13.9578 9.55978 14.0832 9.65248 14.1759C9.74519 14.2686 9.87059 14.3212 10.0017 14.3223C10.1328 14.3235 10.2591 14.2731 10.3534 14.182L13.1819 11.3535C13.2756 11.2597 13.3283 11.1326 13.3283 11C13.3283 10.8674 13.2756 10.7403 13.1819 10.6465L10.3534 7.81799C10.2596 7.72426 10.1325 7.6716 9.99989 7.6716C9.86731 7.6716 9.74016 7.72426 9.64639 7.81799Z" fill="#0B1F7D"/>
<circle cx="11" cy="11" r="10.5" stroke="#DDDDDD"/>
</svg>
