<svg width="10" height="10" viewBox="0 0 10 10" fill="none" xmlns="http://www.w3.org/2000/svg">
<path d="M3.30824 1.02259C3.19107 1.1398 3.12524 1.29874 3.12524 1.46447C3.12524 1.63019 3.19107 1.78914 3.30824 1.90634L6.40199 5.00009L3.30824 8.09384C3.19439 8.21172 3.13139 8.36959 3.13281 8.53347C3.13424 8.69734 3.19997 8.8541 3.31585 8.96998C3.43173 9.08586 3.58849 9.15159 3.75236 9.15301C3.91623 9.15444 4.07411 9.09144 4.19199 8.97759L7.72761 5.44197C7.84478 5.32476 7.9106 5.16582 7.9106 5.00009C7.9106 4.83436 7.84478 4.67542 7.72761 4.55822L4.19199 1.02259C4.07478 0.905422 3.91584 0.8396 3.75011 0.8396C3.58438 0.8396 3.42544 0.905422 3.30824 1.02259Z" fill="#121212"/>
</svg>
