<svg width="33" height="33" viewBox="0 0 33 33" fill="none" xmlns="http://www.w3.org/2000/svg">
<path d="M29.4855 3.59842C26.0678 0.180733 20.5067 0.180733 17.0891 3.59842L10.8908 9.79669L12.3494 11.2551L18.5475 5.05681C19.8046 3.79973 21.5095 3.09351 23.2873 3.09352C24.1676 3.09352 25.0392 3.26691 25.8525 3.60377C26.6658 3.94064 27.4047 4.43439 28.0272 5.05684C28.6496 5.67928 29.1433 6.41823 29.4802 7.2315C29.8171 8.04476 29.9904 8.91641 29.9904 9.79668C29.9904 10.6769 29.8171 11.5486 29.4802 12.3619C29.1433 13.1751 28.6496 13.9141 28.0271 14.5365L21.8289 20.7348L23.287 22.1932L29.4853 15.9949C32.9035 12.5772 32.9035 7.01618 29.4855 3.59842ZM14.5368 28.0268C13.2797 29.2839 11.5748 29.9901 9.79701 29.9901C8.01923 29.9901 6.31427 29.2839 5.05719 28.0268C3.80011 26.7697 3.0939 25.0648 3.0939 23.287C3.0939 21.5092 3.80011 19.8042 5.05719 18.5472L10.8909 12.7134L9.43252 11.2551L3.59874 17.0888C2.7816 17.9021 2.13292 18.8685 1.68984 19.9328C1.24675 20.9972 1.01798 22.1385 1.01661 23.2913C1.01524 24.4442 1.24131 25.586 1.68186 26.6514C2.12241 27.7168 2.7688 28.6848 3.58401 29.5C4.39922 30.3152 5.36723 30.9616 6.43261 31.4021C7.49799 31.8427 8.63981 32.0687 9.79268 32.0674C10.9456 32.066 12.0868 31.8372 13.1512 31.3941C14.2155 30.951 15.1819 30.3023 15.9952 29.4852L21.8289 23.6515L20.3705 22.1932L14.5368 28.0268Z" fill="#0EBCF6"/>
<path d="M8.33838 23.2873L22.9224 8.70312L24.3809 10.1616L9.79676 24.7456L8.33838 23.2873Z" fill="#0EBCF6"/>
</svg>
