<svg width="22" height="22" viewBox="0 0 22 22" fill="none" xmlns="http://www.w3.org/2000/svg">
<path d="M20.3438 0.84375H1.65625C1.20684 0.84375 0.84375 1.20684 0.84375 1.65625V20.3438C0.84375 20.7932 1.20684 21.1562 1.65625 21.1562H20.3438C20.7932 21.1562 21.1562 20.7932 21.1562 20.3438V1.65625C21.1562 1.20684 20.7932 0.84375 20.3438 0.84375ZM15.6592 7.28535L10.3119 14.6994C10.2372 14.8037 10.1387 14.8887 10.0245 14.9474C9.91037 15.006 9.78389 15.0366 9.65557 15.0366C9.52724 15.0366 9.40077 15.006 9.28662 14.9474C9.17248 14.8887 9.07396 14.8037 8.99922 14.6994L5.83301 10.3119C5.73652 10.1773 5.83301 9.98945 5.99805 9.98945H7.18887C7.44785 9.98945 7.69414 10.1139 7.84648 10.3271L9.6543 12.8357L13.6457 7.30059C13.798 7.08984 14.0418 6.96289 14.3033 6.96289H15.4941C15.6592 6.96289 15.7557 7.15078 15.6592 7.28535Z" fill="#DDDDDD"/>
</svg>
