<svg width="24" height="24" viewBox="0 0 24 24" fill="none" xmlns="http://www.w3.org/2000/svg">
<path d="M12.9608 8.20077V6.9595C12.9608 6.77145 12.9217 6.58545 12.8462 6.41326C12.7706 6.24106 12.6601 6.08641 12.5216 5.95909C12.3832 5.83176 12.2199 5.73453 12.042 5.67353C11.864 5.61253 11.6754 5.58909 11.4879 5.6047L6.0479 6.05743C5.70794 6.08574 5.39103 6.24073 5.16003 6.49168C4.92902 6.74263 4.8008 7.0712 4.80078 7.41223V15.7871C4.8008 16.1281 4.92902 16.4567 5.16003 16.7077C5.39103 16.9586 5.70794 17.1136 6.0479 17.1419L11.4879 17.5953C11.6754 17.6109 11.8641 17.5875 12.0421 17.5264C12.2201 17.4654 12.3835 17.3681 12.5219 17.2407C12.6603 17.1133 12.7708 16.9586 12.8464 16.7863C12.9219 16.614 12.9609 16.4279 12.9608 16.2398V14.9986M12.2808 11.5997H18.4008H12.2808ZM18.4008 11.5997L16.1343 8.88055L18.4008 11.5997ZM18.4008 11.5997L16.1343 14.3188L18.4008 11.5997Z" stroke="#0B1F7D" stroke-linecap="round" stroke-linejoin="round"/>
</svg>
