<svg width="34" height="34" viewBox="0 0 34 34" fill="none" xmlns="http://www.w3.org/2000/svg">
<path d="M30.5358 9.02474C30.6002 9.18002 30.6172 9.35092 30.5845 9.51584C30.5518 9.68076 30.471 9.83228 30.3522 9.95124L26.9522 13.3512C26.8731 13.4301 26.7793 13.4926 26.676 13.5352C26.5727 13.5778 26.4621 13.5996 26.3504 13.5994H21.6023L19.3022 15.8995C19.5615 16.4423 19.6205 17.0593 19.4689 17.6414C19.3172 18.2236 18.9647 18.7333 18.4735 19.0806C17.9824 19.428 17.3842 19.5905 16.7849 19.5394C16.1855 19.4884 15.6234 19.2271 15.1981 18.8017C14.7727 18.3764 14.5114 17.8144 14.4604 17.215C14.4094 16.6156 14.5719 16.0175 14.9192 15.5263C15.2665 15.0352 15.7763 14.6826 16.3584 14.531C16.9405 14.3793 17.5575 14.4384 18.1003 14.6976L20.4004 12.3975V7.64944C20.4002 7.53774 20.422 7.4271 20.4646 7.32384C20.5072 7.22058 20.5697 7.12672 20.6486 7.04764L24.0486 3.64764C24.1675 3.52846 24.3191 3.44726 24.4841 3.41434C24.6492 3.38141 24.8204 3.39825 24.9759 3.46271C25.1314 3.52717 25.2642 3.63635 25.3576 3.77641C25.451 3.91647 25.5007 4.08111 25.5004 4.24944V8.49944H29.7504C29.9186 8.49947 30.083 8.5494 30.2228 8.64291C30.3626 8.73641 30.4715 8.8693 30.5358 9.02474ZM27.6985 10.1994H24.6504C24.425 10.1994 24.2088 10.1099 24.0494 9.95048C23.8899 9.79108 23.8004 9.57488 23.8004 9.34944V6.30134L22.1004 8.00134V11.8994H25.9985L27.6985 10.1994ZM29.9323 12.7749C30.3658 14.1043 30.6004 15.5255 30.6004 16.9994C30.5998 19.8723 29.6894 22.6712 27.9998 24.9948C26.3102 27.3183 23.9282 29.0471 21.1954 29.9333C18.4626 30.8195 15.5194 30.8175 12.7878 29.9276C10.0562 29.0377 7.67656 27.3057 5.99014 24.9799C4.30371 22.654 3.39713 19.8539 3.4004 16.981C3.40367 14.1081 4.31663 11.31 6.00834 8.98806C7.70006 6.66607 10.0836 4.93945 12.8173 4.0558C15.5509 3.17214 18.4941 3.17685 21.2249 4.06924L19.8513 5.44284C17.3278 4.82063 14.67 5.0417 12.284 6.07227C9.89793 7.10283 7.91492 8.88622 6.63791 11.1499C5.36089 13.4137 4.86012 16.0332 5.21209 18.6083C5.56406 21.1835 6.74943 23.5726 8.58707 25.4106C10.4247 27.2486 12.8136 28.4344 15.3886 28.7869C17.9637 29.1393 20.5833 28.6391 22.8473 27.3625C25.1113 26.0859 26.8951 24.1033 27.9261 21.7175C28.9571 19.3316 29.1787 16.6739 28.557 14.1502L29.9323 12.7749ZM25.3304 15.2994C25.6955 17.0897 25.474 18.9499 24.6989 20.6043C23.9237 22.2588 22.6361 23.6195 21.0268 24.4846C19.4176 25.3498 17.5724 25.6734 15.7648 25.4075C13.9572 25.1416 12.2834 24.3003 10.9914 23.0084C9.6995 21.7165 8.85823 20.0427 8.59233 18.235C8.32643 16.4274 8.65005 14.5823 9.51521 12.973C10.3804 11.3638 11.741 10.0761 13.3955 9.30096C15.05 8.52579 16.9102 8.30434 18.7004 8.66944V10.4136C17.2562 10.0411 15.7296 10.1537 14.3556 10.734C12.9817 11.3144 11.8367 12.3304 11.097 13.6256C10.3573 14.9207 10.0639 16.4231 10.262 17.9014C10.4602 19.3796 11.1388 20.7518 12.1934 21.8064C13.2481 22.861 14.6202 23.5397 16.0985 23.7378C17.5767 23.9359 19.0791 23.6425 20.3743 22.9028C21.6694 22.1631 22.6854 21.0181 23.2658 19.6442C23.8462 18.2703 23.9588 16.7436 23.5862 15.2994H25.3304Z" fill="white"/>
</svg>
