<svg width="16" height="22" viewBox="0 0 16 22" fill="none" xmlns="http://www.w3.org/2000/svg">
<path d="M14 2.75H10.6667C10.6667 1.2332 9.47083 0 8 0C6.52917 0 5.33333 1.2332 5.33333 2.75H2C0.895833 2.75 0 3.67383 0 4.8125V19.9375C0 21.0762 0.895833 22 2 22H14C15.1042 22 16 21.0762 16 19.9375V4.8125C16 3.67383 15.1042 2.75 14 2.75ZM4 18.2188C3.44583 18.2188 3 17.759 3 17.1875C3 16.616 3.44583 16.1562 4 16.1562C4.55417 16.1562 5 16.616 5 17.1875C5 17.759 4.55417 18.2188 4 18.2188ZM4 14.0938C3.44583 14.0938 3 13.634 3 13.0625C3 12.491 3.44583 12.0312 4 12.0312C4.55417 12.0312 5 12.491 5 13.0625C5 13.634 4.55417 14.0938 4 14.0938ZM4 9.96875C3.44583 9.96875 3 9.50898 3 8.9375C3 8.36602 3.44583 7.90625 4 7.90625C4.55417 7.90625 5 8.36602 5 8.9375C5 9.50898 4.55417 9.96875 4 9.96875ZM8 1.71875C8.55417 1.71875 9 2.17852 9 2.75C9 3.32148 8.55417 3.78125 8 3.78125C7.44583 3.78125 7 3.32148 7 2.75C7 2.17852 7.44583 1.71875 8 1.71875ZM13.3333 17.5312C13.3333 17.7203 13.1833 17.875 13 17.875H7C6.81667 17.875 6.66667 17.7203 6.66667 17.5312V16.8438C6.66667 16.6547 6.81667 16.5 7 16.5H13C13.1833 16.5 13.3333 16.6547 13.3333 16.8438V17.5312ZM13.3333 13.4062C13.3333 13.5953 13.1833 13.75 13 13.75H7C6.81667 13.75 6.66667 13.5953 6.66667 13.4062V12.7188C6.66667 12.5297 6.81667 12.375 7 12.375H13C13.1833 12.375 13.3333 12.5297 13.3333 12.7188V13.4062ZM13.3333 9.28125C13.3333 9.47031 13.1833 9.625 13 9.625H7C6.81667 9.625 6.66667 9.47031 6.66667 9.28125V8.59375C6.66667 8.40469 6.81667 8.25 7 8.25H13C13.1833 8.25 13.3333 8.40469 13.3333 8.59375V9.28125Z" fill="white"/>
</svg>
