<svg width="818" height="1134" viewBox="0 0 818 1134" fill="none" xmlns="http://www.w3.org/2000/svg">
<mask id="mask0_124_659" style="mask-type:alpha" maskUnits="userSpaceOnUse" x="0" y="0" width="818" height="1134">
<rect width="818" height="1134" fill="#C4C4C4"/>
</mask>
<g mask="url(#mask0_124_659)">
<path d="M387.999 1104C480.629 1220.87 598.878 1247.51 778.999 1311C959.12 1374.49 996.407 1356.56 996.407 1356.56L996.407 554.619C996.407 554.619 126.227 -248.503 65.7965 -59.2208C32.3358 45.5852 134.968 505.677 269.889 610.342C377.067 693.485 280.999 969 387.999 1104Z" fill="#F5FCFF"/>
<path d="M250.888 493.589C250.888 417.187 102.623 63.2555 -75.9658 -69.8343L1137.08 -136.643L1004.93 1309.09C1004.93 1309.09 408.233 1204.43 349.323 960.307C290.414 716.187 250.888 582.038 250.888 493.589Z" fill="#E5F8FF"/>
</g>
</svg>
