<svg width="230" height="802" viewBox="0 0 230 802" fill="none" xmlns="http://www.w3.org/2000/svg">
<mask id="mask0_216_1065" style="mask-type:alpha" maskUnits="userSpaceOnUse" x="0" y="0" width="230" height="802">
<rect width="230" height="802" transform="matrix(1 0 0 -1 0 802)" fill="#C4C4C4"/>
</mask>
<g mask="url(#mask0_216_1065)">
<path d="M207.725 393.692C238.857 432.971 278.601 441.926 339.139 463.264C399.677 484.602 412.208 478.577 412.208 478.577L412.208 209.048C412.208 209.048 119.745 -60.8786 99.434 2.73818C88.188 37.9631 122.682 192.598 168.029 227.776C204.051 255.72 171.763 348.319 207.725 393.692Z" fill="#F5FCFF"/>
<path d="M161.641 188.535C161.641 162.857 111.81 43.9018 51.7872 -0.8291L459.486 -23.2832L415.072 462.623C415.072 462.623 219.3 441.548 199.501 359.5C179.702 277.452 161.641 218.263 161.641 188.535Z" fill="#E5F8FF"/>
<path d="M162.478 603.274C159.698 629.466 82.3832 753.657 -0.0748248 802.728L524.683 802.224L289.452 306.625C289.452 306.625 216.214 346.307 209.576 445.436C202.938 544.564 165.697 572.953 162.478 603.274Z" fill="#E5F8FF"/>
</g>
</svg>
