<svg width="476" height="280" viewBox="0 0 476 280" fill="none" xmlns="http://www.w3.org/2000/svg">
<mask id="mask0_124_663" style="mask-type:alpha" maskUnits="userSpaceOnUse" x="0" y="0" width="476" height="280">
<rect width="476" height="280" fill="#C4C4C4"/>
</mask>
<g mask="url(#mask0_124_663)">
<path d="M116.333 95.1585C135.117 128.283 164.053 153.899 198.509 167.905C232.965 181.911 270.947 183.497 306.373 172.409L438.461 130.876C445.327 129.41 452.472 130.58 458.571 134.169C464.671 137.759 469.311 143.523 471.633 150.396L474.431 159.326C476.732 166.241 476.495 173.796 473.766 180.541C471.037 187.286 466.008 192.746 459.643 195.875L355.331 247.998C321.263 264.922 293.799 293.461 277.511 328.863C261.222 364.266 257.092 404.397 265.807 442.579L289.587 566.139C296.381 603.31 283.192 620.339 260.811 624.7C249.252 627.493 237.108 625.752 226.708 619.811C216.308 613.871 208.385 604.149 204.458 592.512C204.458 592.512 179.08 517.338 166.491 470.613C158.766 447.906 144.037 428.488 124.593 415.381C105.15 402.274 82.0829 396.213 58.9811 398.139L8.62381 404.784C-0.867521 406.538 -10.651 404.908 -19.139 400.159C-27.627 395.409 -34.3217 387.819 -38.137 378.619V378.619C-42.9829 366.788 -43.2805 353.476 -38.9685 341.424C-34.6565 329.372 -26.063 319.496 -14.9565 313.828C-13.0265 312.885 -11.0203 312.121 -8.96145 311.543C3.54244 309.502 15.4364 304.534 25.8218 297.015C36.2073 289.497 44.8127 279.623 50.988 268.142C67.9737 231.178 59.7806 186.945 46.9914 138.144L22.8117 44.4886C20.9698 37.357 21.7509 29.7681 25.0022 23.2026C28.2536 16.637 33.7421 11.5653 40.3969 8.97768V8.97768C46.2323 6.63734 52.6483 6.36624 58.6472 8.20642C64.6462 10.0466 69.8921 13.8954 73.569 19.1536L116.333 95.1585Z" fill="#FBFBFB"/>
<path d="M272 118C304.585 118 331 91.5848 331 59C331 26.4152 304.585 0 272 0C239.415 0 213 26.4152 213 59C213 91.5848 239.415 118 272 118Z" fill="#FBFBFB"/>
</g>
</svg>
