<svg width="33" height="33" viewBox="0 0 33 33" fill="none" xmlns="http://www.w3.org/2000/svg">
<path fill-rule="evenodd" clip-rule="evenodd" d="M2.0625 16.4998C2.0625 16.2263 2.17115 15.964 2.36455 15.7706C2.55794 15.5772 2.82025 15.4686 3.09375 15.4686H27.4168L20.9261 8.97996C20.7325 8.78632 20.6237 8.52369 20.6237 8.24984C20.6237 7.97599 20.7325 7.71335 20.9261 7.51971C21.1198 7.32607 21.3824 7.21729 21.6562 7.21729C21.9301 7.21729 22.1927 7.32607 22.3864 7.51971L30.6364 15.7697C30.7324 15.8655 30.8086 15.9793 30.8606 16.1046C30.9126 16.2299 30.9393 16.3642 30.9393 16.4998C30.9393 16.6355 30.9126 16.7698 30.8606 16.8951C30.8086 17.0204 30.7324 17.1342 30.6364 17.23L22.3864 25.48C22.1927 25.6736 21.9301 25.7824 21.6562 25.7824C21.3824 25.7824 21.1198 25.6736 20.9261 25.48C20.7325 25.2863 20.6237 25.0237 20.6237 24.7498C20.6237 24.476 20.7325 24.2134 20.9261 24.0197L27.4168 17.5311H3.09375C2.82025 17.5311 2.55794 17.4224 2.36455 17.229C2.17115 17.0356 2.0625 16.7733 2.0625 16.4998Z" fill="white"/>
</svg>
