<svg width="1438" height="230" viewBox="0 0 1438 230" fill="none" xmlns="http://www.w3.org/2000/svg">
<rect width="1438" height="230" fill="#58E8B4"/>
<mask id="mask0_136_440" style="mask-type:alpha" maskUnits="userSpaceOnUse" x="0" y="0" width="1438" height="230">
<rect width="1438" height="230" fill="#C4C4C4"/>
</mask>
<g mask="url(#mask0_136_440)">
<path d="M1052.62 91.2855C1059.56 98.3366 1068.54 102.821 1078.12 104.022C1087.7 105.222 1097.33 103.068 1105.46 97.9057L1135.79 78.6093C1137.41 77.7801 1139.28 77.5939 1141.05 78.0849C1142.82 78.5759 1144.37 79.7109 1145.42 81.2797L1146.72 83.3328C1147.76 84.9136 1148.21 86.8254 1147.98 88.7014C1147.75 90.5774 1146.85 92.2856 1145.47 93.4983L1122.82 113.587C1115.42 120.123 1110.45 129.129 1108.75 139.108C1107.05 149.087 1108.71 159.436 1113.46 168.432L1127.73 197.843C1131.93 206.715 1129.77 211.875 1124.45 214.473C1121.74 215.95 1118.58 216.329 1115.58 215.537C1112.57 214.745 1109.93 212.837 1108.16 210.181C1108.16 210.181 1096.74 193.02 1090.45 182.14C1086.98 176.96 1081.98 173.077 1076.23 171.093C1070.47 169.11 1064.28 169.139 1058.62 171.174L1046.44 176.224C1044.18 177.302 1041.62 177.55 1039.17 176.929C1036.72 176.307 1034.53 174.852 1032.96 172.799V172.799C1030.95 170.156 1029.98 166.835 1030.25 163.521C1030.52 160.207 1032.01 157.151 1034.41 154.982C1034.83 154.616 1035.28 154.289 1035.76 154.006C1038.76 152.654 1041.41 150.608 1043.51 148.024C1045.6 145.439 1047.1 142.383 1047.87 139.087C1049.65 128.669 1044.62 118.119 1038.13 106.731L1025.77 84.852C1024.83 83.186 1024.51 81.2291 1024.89 79.363C1025.26 77.4969 1026.3 75.8554 1027.79 74.7589V74.7589C1029.1 73.7796 1030.69 73.2805 1032.31 73.3394C1033.94 73.3982 1035.52 74.0116 1036.79 75.0842L1052.62 91.2855Z" fill="white" fill-opacity="0.15"/>
<path d="M667.275 185.65C678.011 182.773 684.288 171.388 681.296 160.22C678.303 149.053 667.174 142.332 656.439 145.208C645.703 148.085 639.426 159.47 642.418 170.638C645.41 181.805 656.539 188.526 667.275 185.65Z" fill="white" fill-opacity="0.15"/>
<path d="M18.6239 37.2855C25.5606 44.3366 34.5378 48.8213 44.1181 50.0216C53.6984 51.2219 63.3275 49.0683 71.4635 43.9057L101.787 24.6093C103.409 23.7801 105.279 23.5939 107.05 24.0849C108.821 24.5759 110.372 25.7109 111.416 27.2797L112.718 29.3328C113.76 30.9136 114.208 32.8254 113.978 34.7014C113.747 36.5774 112.853 38.2856 111.468 39.4983L88.8209 59.5867C81.4176 66.1226 76.4512 75.1295 74.7481 85.1083C73.0451 95.087 74.7082 105.436 79.4606 114.432L93.7312 143.843C97.9342 152.715 95.7726 157.875 90.4547 160.473C87.7445 161.95 84.5828 162.329 81.576 161.537C78.5692 160.745 75.929 158.837 74.162 156.181C74.162 156.181 62.7443 139.02 56.4461 128.14C52.9826 122.96 47.984 119.077 42.228 117.093C36.4719 115.11 30.2812 115.139 24.6189 117.174L12.4406 122.224C10.179 123.302 7.61655 123.55 5.16914 122.929C2.72172 122.307 0.532884 120.852 -1.0423 118.799V118.799C-3.0528 116.156 -4.02252 112.835 -3.7519 109.521C-3.48129 106.207 -1.99091 103.151 0.412493 100.982C0.832982 100.616 1.28451 100.289 1.76188 100.006C4.75946 98.6539 7.40735 96.6082 9.50551 94.0236C11.6037 91.4391 13.0972 88.3832 13.8733 85.0869C15.6462 74.6694 10.6178 64.1193 4.12979 52.7314L-8.23013 30.852C-9.17146 29.186 -9.48595 27.2291 -9.1123 25.363C-8.73865 23.4969 -7.70367 21.8554 -6.20922 20.7589V20.7589C-4.9036 19.7796 -3.31328 19.2805 -1.68553 19.3394C-0.0577877 19.3982 1.51621 20.0116 2.79166 21.0842L18.6239 37.2855Z" fill="white" fill-opacity="0.15"/>
<path d="M562.208 56.3379L552.036 37.6146L530.647 38.1509L549.438 27.9212L548.9 6.67245L559.108 25.3303L580.446 24.8073L561.705 35.0237L562.208 56.3379Z" fill="white" fill-opacity="0.15"/>
<path d="M913.762 -43.6067C835.452 28.2618 757.255 69.4907 739.102 48.4372C733.328 41.7176 734.384 29.4254 741.058 13.4497C728.508 36.7532 724.952 55.7477 733.488 65.3581C751.016 85.6852 814.825 56.6901 876.038 0.57401C895.425 -17.1631 913.128 -36.7736 928.914 -58.0002C924.083 -53.1866 918.973 -48.4101 913.762 -43.6067Z" fill="white" fill-opacity="0.15"/>
</g>
</svg>
