<svg width="272" height="277" viewBox="0 0 272 277" fill="none" xmlns="http://www.w3.org/2000/svg">
<path d="M159.146 34.4001C154.807 24.6956 139.795 31.3634 139.795 31.3634C152.356 39.1779 159.146 34.4001 159.146 34.4001ZM134.458 32.9773C135.016 32.9773 135.561 32.8154 136.025 32.5121C136.489 32.2087 136.85 31.7776 137.063 31.2732C137.277 30.7687 137.333 30.2137 137.224 29.6782C137.115 29.1427 136.847 28.6508 136.452 28.2647C136.058 27.8787 135.555 27.6158 135.008 27.5092C134.461 27.4027 133.894 27.4574 133.379 27.6663C132.863 27.8753 132.423 28.2291 132.113 28.6831C131.803 29.137 131.638 29.6708 131.638 30.2167C131.643 30.9472 131.942 31.6461 132.47 32.1626C132.998 32.6791 133.712 32.9718 134.458 32.9773ZM168.67 35.3769C165.027 35.4387 161.459 36.403 158.3 38.1799L174.202 38.3922L174.766 37.9888C174.766 37.9888 166.826 17.0085 145.761 14.4391C147.715 19.3965 150.792 23.856 154.76 27.4824C158.727 31.1088 163.483 33.8079 168.67 35.3769ZM179.821 39.454C179.821 38.8908 179.592 38.3507 179.185 37.9524C178.778 37.5542 178.227 37.3305 177.651 37.3305C177.182 37.4456 176.766 37.7108 176.468 38.084C176.171 38.4571 176.009 38.9169 176.009 39.3903C176.009 39.8637 176.171 40.3234 176.468 40.6966C176.766 41.0698 177.182 41.335 177.651 41.4501C178.227 41.4501 178.778 41.2264 179.185 40.8281C179.592 40.4299 179.821 39.8898 179.821 39.3266V39.454ZM94.9308 38.2648L110.811 38.0525C107.668 36.2739 104.114 35.3092 100.485 35.2495C105.65 33.6874 110.388 31.0023 114.344 27.3948C118.3 23.7874 121.372 19.3511 123.329 14.4178C102.264 16.9873 94.3451 37.9675 94.3451 37.9675L94.9091 38.371L94.9308 38.2648ZM89.811 40.4945C89.811 40.9145 89.9382 41.3251 90.1766 41.6743C90.415 42.0235 90.7538 42.2957 91.1502 42.4564C91.5466 42.6171 91.9828 42.6592 92.4036 42.5772C92.8244 42.4953 93.211 42.293 93.5144 41.9961C93.8178 41.6991 94.0244 41.3207 94.1082 40.9088C94.1919 40.4969 94.1489 40.0699 93.9847 39.6819C93.8205 39.2939 93.5424 38.9622 93.1857 38.7289C92.8289 38.4956 92.4095 38.371 91.9804 38.371C91.405 38.371 90.8532 38.5947 90.4464 38.993C90.0395 39.3912 89.811 39.9313 89.811 40.4945ZM91.0909 57.1004C79.658 49.116 62.8883 55.2954 62.8883 55.2954C77.7706 44.2956 77.7706 26.628 77.7706 26.628C58.8748 36.1201 58.7447 58.4806 58.7447 58.4806C81.8708 65.1909 91.2862 57.1641 91.2862 57.1641L91.0909 57.1004ZM97.686 52.7684L97.8379 45.2299C92.1786 43.7548 86.2661 43.4582 80.4824 44.3593C97.0352 35.9927 100.007 18.5587 100.007 18.5587C79.6797 24.7593 75.6012 46.6952 75.6012 46.6952C82.3445 50.2902 89.8232 52.3652 97.4907 52.7684H97.686ZM189.019 43.1064C183.851 41.9196 178.444 42.2145 173.443 43.9558V51.7279C178.758 51.7279 184.138 50.3901 193.879 45.3573C193.879 45.3573 189.279 23.4215 168.843 17.7517C168.843 17.7517 172.293 35.122 189.063 43.0852L189.019 43.1064ZM109.965 35.3769C109.965 35.3769 116.929 39.9212 129.186 31.6395C129.186 31.6395 114 25.5238 109.965 35.3769ZM216.267 140.363H207.394V151.363H216.267V140.363ZM192.403 65.021L187.848 70.351L212.666 94.6652L217.677 89.7387L192.403 65.021ZM240.738 64.2778L217.981 42.0022L197.588 63.6832L219.456 84.9183L240.738 64.2778ZM55.2302 61.7933C55.2302 62.2133 55.3574 62.6238 55.5958 62.973C55.8342 63.3223 56.173 63.5944 56.5694 63.7552C56.9658 63.9159 57.402 63.9579 57.8228 63.876C58.2437 63.7941 58.6302 63.5918 58.9336 63.2948C59.237 62.9979 59.4437 62.6195 59.5274 62.2076C59.6111 61.7957 59.5681 61.3687 59.4039 60.9807C59.2397 60.5927 58.9617 60.261 58.6049 60.0277C58.2481 59.7943 57.8287 59.6698 57.3996 59.6698C56.8243 59.6698 56.2724 59.8935 55.8656 60.2918C55.4588 60.69 55.2302 61.2301 55.2302 61.7933ZM223.708 85.1519C228.473 86.418 233.374 87.1308 238.309 87.2754C239.997 81.6794 240.513 75.8074 239.827 70.0113L232.126 77.2312C233.011 79.2254 234.078 81.1372 235.315 82.9434C233.577 81.6202 231.734 80.4344 229.805 79.3972L223.708 85.1519ZM216.614 194.13H207.741V205.13H216.614V194.13ZM203.598 51.558L208.761 46.4403C207.575 41.8805 205.386 37.6292 202.347 33.9834C199.308 30.3376 195.492 27.3853 191.167 25.3327C191.27 30.3083 192.429 35.2087 194.569 39.7231C196.709 44.2376 199.783 48.2677 203.598 51.558ZM249.807 128.556C249.807 128.976 249.934 129.387 250.172 129.736C250.411 130.085 250.749 130.358 251.146 130.518C251.542 130.679 251.979 130.721 252.399 130.639C252.82 130.557 253.207 130.355 253.51 130.058C253.814 129.761 254.02 129.383 254.104 128.971C254.188 128.559 254.145 128.132 253.98 127.744C253.816 127.356 253.538 127.024 253.181 126.791C252.825 126.557 252.405 126.433 251.976 126.433C251.401 126.433 250.849 126.657 250.442 127.055C250.035 127.453 249.807 127.993 249.807 128.556ZM222.277 26.3732C224.129 27.323 226.195 27.8049 228.286 27.7752C230.377 27.7456 232.428 27.2052 234.252 26.2033C236.278 25.1689 238.573 24.7478 240.845 24.9936C243.116 25.2394 245.262 26.1409 247.008 27.5836C248.471 28.6133 249.638 29.9942 250.398 31.5933C251.158 33.1925 251.485 34.9562 251.347 36.7147C251.347 40.7069 250.154 40.9617 250.154 40.9617C247.702 42.5968 248.31 39.815 248.31 39.815L248.874 37.8614C249.298 35.5531 248.772 33.1743 247.41 31.2445C246.049 29.3148 243.962 27.991 241.606 27.5624C239.31 27.0858 236.915 27.4779 234.903 28.6599C232.89 29.8418 231.41 31.7258 230.759 33.9329C230.262 35.8321 230.137 37.8064 230.39 39.7513L219.543 29.1337L220.064 38.1587L244.426 62.0481H253.104L244.275 53.3842C247.094 54.2383 250.007 54.7657 252.952 54.9556C256.374 54.812 259.634 53.4884 262.155 51.2188C264.676 48.9493 266.296 45.8802 266.728 42.5543C270.004 30.3866 258.202 20.5336 258.202 20.5336C250.327 13.9082 238.439 13.3773 238.439 13.3773C221.517 11.4662 215.508 0.848633 215.508 0.848633C214.256 4.71557 213.756 8.77787 214.033 12.8252C215.161 23.8037 222.298 26.3732 222.298 26.3732H222.277ZM252.952 125.159C252.952 125.159 267.14 107.64 258.441 88.6557C258.441 88.6557 247.095 102.416 251.607 120.126C251.607 120.126 242.517 105.092 228.481 104.306C228.481 104.306 230.651 116.282 252.952 125.159ZM238.547 93.0089C238.865 93.0797 239.195 93.0796 239.513 93.0086C239.83 92.9375 240.128 92.7973 240.382 92.5984C240.637 92.3995 240.843 92.147 240.984 91.8596C241.125 91.5723 241.199 91.2574 241.199 90.9384C241.199 90.6195 241.125 90.3046 240.984 90.0172C240.843 89.7298 240.637 89.4773 240.382 89.2784C240.128 89.0795 239.83 88.9393 239.513 88.8683C239.195 88.7972 238.865 88.7971 238.547 88.868C238.068 88.9749 237.64 89.238 237.333 89.6142C237.027 89.9903 236.86 90.4572 236.86 90.9384C236.86 91.4196 237.027 91.8865 237.333 92.2627C237.64 92.6389 238.068 92.9019 238.547 93.0089ZM196.091 59.5849L202.6 53.2143C197.176 51.9827 186.958 50.1989 178.736 56.2085C178.736 56.2085 183.075 60.9227 196.222 59.6486L196.091 59.5849ZM247.355 105.686C247.355 105.686 258.202 86.0013 246.271 68.8221C246.271 68.8221 237.593 84.2813 245.142 100.951C245.142 100.951 233.514 87.7001 219.565 89.2927C219.565 89.2927 223.904 100.717 247.355 105.686ZM172.9 256.052C172.9 256.472 173.027 256.882 173.266 257.232C173.504 257.581 173.843 257.853 174.239 258.014C174.636 258.174 175.072 258.216 175.493 258.134C175.914 258.053 176.3 257.85 176.604 257.553C176.907 257.256 177.114 256.878 177.197 256.466C177.281 256.054 177.238 255.627 177.074 255.239C176.91 254.851 176.632 254.519 176.275 254.286C175.918 254.053 175.499 253.928 175.07 253.928C174.494 253.928 173.943 254.152 173.536 254.55C173.129 254.948 172.9 255.489 172.9 256.052ZM183.444 254.098C183.444 254.098 195.397 244.054 195.506 231.546L191.167 231.716C187.327 235.008 181.686 242.037 178.541 256.264C178.541 256.264 198.673 266.882 216.202 255.224C216.202 255.224 200.43 246.623 183.379 254.098H183.444ZM163.745 260.469C163.745 260.469 179.105 251.55 179.908 237.832C179.908 237.832 167.672 239.956 158.582 261.785C158.582 261.785 176.502 275.673 195.853 267.158C195.853 267.158 181.817 256.03 163.745 260.469ZM143.092 264.716C159.059 257.474 162.617 245.307 162.617 245.307C150.208 246.177 139.578 264.418 139.578 264.418C143.742 268.503 148.731 271.693 154.226 273.784C159.721 275.875 165.601 276.822 171.49 276.565C163.203 265.947 143.092 264.716 143.092 264.716ZM134.176 258.345V263.484C131.746 259.725 122.287 246.177 111.57 245.498C111.57 245.498 115.215 257.623 131.225 264.737C131.225 264.737 111.136 266.053 103.023 276.82C108.776 277.03 114.513 276.092 119.884 274.062C125.254 272.032 130.147 268.953 134.263 265.013V273.38H139.599V258.345H134.176ZM207.785 210.885V221.885L258.051 262.677H268.095L216.94 210.885H207.785ZM201.537 244.288C204.611 240.451 206.929 236.087 208.37 231.419L199.801 231.292C198.173 236.463 197.283 241.829 197.155 247.239C197.155 247.239 215.66 253.291 230.499 242.78L224.771 238.299C216.565 237.746 208.401 239.85 201.537 244.288ZM101.743 256.753C101.743 256.189 101.514 255.649 101.107 255.251C100.701 254.853 100.149 254.629 99.5734 254.629C98.998 254.629 98.4462 254.853 98.0394 255.251C97.6325 255.649 97.404 256.189 97.404 256.753C97.404 257.316 97.6325 257.856 98.0394 258.254C98.4462 258.652 98.998 258.876 99.5734 258.876C100.149 258.876 100.701 258.652 101.107 258.254C101.514 257.856 101.743 257.316 101.743 256.753ZM242.279 199.205C242.279 199.205 245.164 181.941 234.924 172.513C234.924 172.513 228.72 183.131 239.979 203.898C239.979 203.898 262.368 199.397 268.182 179.414C268.182 179.414 250.479 182.791 242.322 199.205H242.279ZM221.582 235.687L214.163 229.784C214.336 231.631 214.575 233.585 214.922 235.666C217.138 235.86 219.367 235.86 221.582 235.666V235.687ZM210.388 238.363C210.817 238.363 211.237 238.238 211.593 238.005C211.95 237.772 212.228 237.44 212.392 237.052C212.557 236.664 212.6 236.237 212.516 235.825C212.432 235.413 212.226 235.035 211.922 234.738C211.619 234.441 211.232 234.239 210.811 234.157C210.39 234.075 209.954 234.117 209.558 234.278C209.161 234.438 208.823 234.71 208.584 235.06C208.346 235.409 208.219 235.819 208.219 236.239C208.219 236.803 208.447 237.343 208.854 237.741C209.261 238.139 209.813 238.363 210.388 238.363ZM34.0782 208.252C34.0782 208.672 34.2055 209.082 34.4438 209.431C34.6822 209.781 35.021 210.053 35.4174 210.213C35.8138 210.374 36.25 210.416 36.6709 210.334C37.0917 210.252 37.4783 210.05 37.7817 209.753C38.0851 209.456 38.2917 209.078 38.3754 208.666C38.4591 208.254 38.4161 207.827 38.2519 207.439C38.0877 207.051 37.8097 206.719 37.4529 206.486C37.0962 206.253 36.6767 206.128 36.2476 206.128C35.6723 206.128 35.1205 206.352 34.7136 206.75C34.3068 207.148 34.0782 207.688 34.0782 208.252ZM18.7403 168.308C36.2259 152.064 33.7745 140.129 33.7745 140.129C20.9965 145.863 18.0895 163.127 18.0895 163.127C15.7465 145.035 0.0397931 136.265 0.0397931 136.265C-1.00153 157.033 18.7403 168.308 18.7403 168.308ZM18.7403 171.175C18.7403 171.595 18.8675 172.006 19.1059 172.355C19.3443 172.704 19.6831 172.976 20.0795 173.137C20.476 173.298 20.9122 173.34 21.333 173.258C21.7538 173.176 22.1404 172.974 22.4438 172.677C22.7472 172.38 22.9538 172.001 23.0375 171.589C23.1212 171.178 23.0783 170.751 22.9141 170.363C22.7499 169.975 22.4718 169.643 22.115 169.41C21.7582 169.176 21.3388 169.052 20.9097 169.052C20.3344 169.052 19.7826 169.275 19.3757 169.674C18.9689 170.072 18.7403 170.612 18.7403 171.175ZM48.7436 42.257L32.4511 26.1609C29.6223 23.4097 25.9742 21.6086 22.0326 21.0171C18.0909 20.4256 14.0591 21.0742 10.5182 22.8694L42.6258 54.1699C43.6373 49.7659 45.7803 45.6875 48.8521 42.3207L48.7436 42.257ZM36.3344 52.2163L8.60905 25.0566C8.60905 25.0566 -2.97573 33.2109 6.02742 52.2163H36.3344ZM24.3158 187.951C38.6557 168.988 34.1433 157.67 34.1433 157.67C22.5802 165.505 22.7754 182.982 22.7754 182.982C17.2434 165.548 0.235034 159.623 0.235034 159.623C2.88174 180.221 24.3158 187.972 24.3158 187.972V187.951ZM37.1805 241.739C39.6855 240.412 42.4102 239.528 45.2291 239.127L39.9574 237.896L16.5492 262.019C16.5492 262.019 13.8808 265.756 16.3973 268.241C17.2361 268.791 18.2341 269.062 19.2427 269.012C20.2513 268.962 21.2165 268.595 21.9945 267.965L44.8169 248.428C42.4956 247.26 37.4625 243.162 37.1805 241.739ZM81.5671 231.929H78.5733C78.4214 244.903 91.156 255.117 91.156 255.117C73.9524 248.089 58.3759 256.986 58.3759 256.986C76.2086 268.283 96.0589 257.177 96.0589 257.177C92.1973 241.4 85.4287 234.647 81.5671 231.95V231.929ZM33.2105 206.319C44.0576 185.212 37.5493 174.828 37.5493 174.828C27.5482 184.468 30.8675 201.669 30.8675 201.669C22.3199 185.445 4.53054 182.557 4.53054 182.557C10.7568 202.391 33.2538 206.404 33.2538 206.404L33.2105 206.319ZM94.28 238.873C95.4298 252.59 110.985 261.127 110.985 261.127C92.8048 257.113 79.0289 268.559 79.0289 268.559C98.5538 276.629 116.17 262.337 116.17 262.337C106.559 240.699 94.28 238.873 94.28 238.873ZM44.1661 73.0479C68.0298 75.7235 75.8615 66.2314 75.8615 66.2314C63.1703 60.3281 47.789 69.2468 47.789 69.2468C60.4585 55.8475 57.2261 38.4559 57.2261 38.4559C40.3045 50.9846 44.2095 73.0479 44.2095 73.0479H44.1661ZM45.3376 222.967C52.193 200.352 43.9925 191.115 43.9925 191.115C35.8571 202.327 42.1485 218.72 42.1485 218.72C30.8458 204.174 12.7961 204.281 12.7961 204.281C22.4934 222.776 45.3376 222.883 45.3376 222.883V222.967ZM220.411 204.366C219.419 205.474 218.732 206.811 218.415 208.252L222.884 212.775C222.682 209.804 221.839 206.909 220.411 204.281V204.366ZM71.3925 113.947L79.5929 121.039H98.1199C97.2304 119.574 97.5125 114.095 97.5125 114.095L71.3925 113.947ZM117.319 60.859V50.6661H149.535V65.106H160.209V75.5112H149.861V80.1404H160.209V91.4374H149.861V125.286H141.01L128.731 113.288L117.493 124.267L109.358 116.304L127.993 98.084L137.582 107.491V60.859H117.319ZM100.745 109.381C100.745 133.398 116.126 144.483 135.109 144.483C154.091 144.483 169.494 133.44 169.494 109.381V40.8343H100.767C100.767 40.8343 100.767 85.2793 100.767 109.296L100.745 109.381ZM75.4276 69.7777C75.4276 69.7777 73.2582 72.7294 65.4265 74.4282L75.4276 83.4318V69.7777ZM163.311 169.752C165.481 169.752 165.481 168.096 165.481 166.397V150.747H170.058V167.31C170.058 169.71 169.776 173.808 163.181 173.808C158.842 173.808 156.369 171.855 156.369 167.629V150.747H160.947V165.442C160.947 167.162 160.73 169.689 163.225 169.689L163.311 169.752ZM175.026 178.31V182.557H170.362V187.484H174.462V191.731H170.362V196.848H175.07V201.095H165.785V178.374L175.026 178.31ZM173.746 150.705H178.931L180.255 153.869C180.701 154.995 181.064 156.152 181.339 157.33C181.616 156.157 181.964 155.001 182.381 153.869L183.791 150.705H188.715L183.791 161.704L189.106 173.405H183.791L182.294 169.795C181.882 168.648 181.6 167.544 181.274 166.397C180.927 167.544 180.645 168.648 180.255 169.795L178.91 173.405H173.725L178.671 161.704L173.746 150.705ZM187.783 201.01L186.937 197.167H182.316L181.47 201.01H176.914L182.316 178.289H187.132L192.751 201.01H187.783ZM158.452 201.01L157.367 184.638L156.63 190.265L154.677 201.01H151.141L148.971 190.138L148.212 185.084V184.638L147.54 201.01H142.615L144.654 178.289H150.664L152.833 191.709L154.677 178.289H160.817L163.246 201.01H158.452ZM143.591 150.662H148.19V169.158H152.985V173.405H143.591V150.662ZM137.734 147.18V224.135C140.645 221.522 144.416 220.015 148.364 219.888H197.089V124.331H170.839C170.839 124.331 163.376 146.84 137.734 147.18ZM118.014 157.054C118.062 156.653 118.013 156.246 117.871 155.867C117.728 155.488 117.497 155.147 117.194 154.871C116.892 154.596 116.528 154.395 116.131 154.283C115.735 154.172 115.317 154.153 114.911 154.23H114.304V160.282H115.107C117.276 160.282 118.014 158.901 118.014 157.033V157.054ZM184.572 184.129L184.051 187.547L183.075 193.621H186.242L185.049 187.547L184.572 184.129ZM61.1527 83.0284C56.7287 86.753 51.3092 89.1622 45.5328 89.9723L48.57 92.754L80.4824 92.6054L70.5898 82.901L65.5567 77.9957C64.2111 79.754 62.7624 81.4344 61.2178 83.0284H61.1527ZM239.285 205.852C239.176 205.383 238.907 204.964 238.523 204.664C238.138 204.364 237.661 204.2 237.17 204.2C236.678 204.2 236.201 204.364 235.817 204.664C235.433 204.964 235.164 205.383 235.055 205.852C235.164 206.321 235.433 206.74 235.817 207.04C236.201 207.34 236.678 207.504 237.17 207.504C237.661 207.504 238.138 207.34 238.523 207.04C238.907 206.74 239.176 206.321 239.285 205.852ZM251.586 170.559C252.015 170.559 252.434 170.435 252.791 170.201C253.148 169.968 253.426 169.636 253.59 169.248C253.754 168.86 253.797 168.433 253.713 168.022C253.63 167.61 253.423 167.231 253.12 166.934C252.816 166.637 252.43 166.435 252.009 166.353C251.588 166.271 251.152 166.313 250.755 166.474C250.359 166.635 250.02 166.907 249.782 167.256C249.543 167.605 249.416 168.016 249.416 168.436C249.416 168.999 249.645 169.539 250.052 169.937C250.458 170.336 251.01 170.559 251.586 170.559ZM238.048 155.228C238.048 155.228 233.818 166.652 248.613 185.275C248.613 185.275 269.852 177.036 272 156.353C272 156.353 255.144 162.724 250.045 180.243C250.045 180.243 249.828 162.766 238.048 155.228ZM254.146 160.367C254.146 160.367 250.87 143.187 237.962 137.751C237.962 137.751 235.792 149.749 253.668 165.569C253.668 165.569 273.193 153.826 271.544 133.101C271.544 133.101 256.098 142.232 254.189 160.367H254.146ZM229.132 188.885C229.132 188.885 221.148 198.207 228.546 220.738C228.546 220.738 251.39 220.101 260.61 201.393C260.61 201.393 242.561 201.732 231.627 216.491C231.627 216.491 237.528 199.991 229.132 188.885ZM254.753 140.045C254.753 140.045 248.462 123.694 234.772 120.53C234.772 120.53 234.773 132.676 255.165 145.247C255.165 145.247 272.282 130.383 267.054 110.23C267.054 110.23 253.43 121.846 254.753 139.96V140.045ZM240.131 229.975C243.932 227.651 247.198 224.577 249.72 220.95C244.128 220.507 238.503 221.187 233.189 222.946L240.131 229.975ZM107.058 187.293L106.537 183.852L106.038 187.293L105.062 193.323H108.143L107.058 187.293ZM39.1764 53.1719C24.728 68.3974 32.4295 89.4626 32.4295 89.4626C56.4885 88.0186 62.4327 77.3798 62.4327 77.3798C48.8954 73.7062 35.3582 85.1094 35.3582 85.1094C45.446 69.7564 39.1764 53.2568 39.1764 53.2568V53.1719ZM129.425 235.539H143.309C143.309 235.539 144.199 229.635 148.125 229.635H205.724V130.468L199.975 124.543V222.819H148.321C143.433 223.59 139.016 226.119 135.933 229.911C134.358 227.906 132.358 226.26 130.069 225.087C127.78 223.914 125.258 223.241 122.678 223.116H72.3253V125.435L66.1424 131.508V229.657H122.374C122.374 229.657 129.316 229.933 129.316 235.56L129.425 235.539ZM21.5389 131.147C21.5389 130.727 21.4116 130.317 21.1733 129.967C20.9349 129.618 20.5961 129.346 20.1996 129.185C19.8032 129.024 19.367 128.982 18.9462 129.064C18.5254 129.146 18.1388 129.349 17.8354 129.646C17.532 129.942 17.3254 130.321 17.2417 130.733C17.158 131.145 17.201 131.572 17.3652 131.96C17.5294 132.348 17.8074 132.679 18.1642 132.913C18.5209 133.146 18.9404 133.271 19.3695 133.271C19.9448 133.271 20.4966 133.047 20.9035 132.649C21.3103 132.25 21.5389 131.71 21.5389 131.147ZM19.6732 122.653C23.7734 104.858 12.1236 91.3737 12.1236 91.3737C3.85801 110.485 18.4583 127.749 18.4583 127.749C40.5648 118.342 42.4522 106.323 42.4522 106.323C28.416 107.427 19.6732 122.653 19.6732 122.653ZM4.00986 113.416C-0.697811 133.674 16.7444 148.135 16.7444 148.135C36.8334 135.118 36.5514 122.95 36.5514 122.95C22.949 126.433 17.0265 142.932 17.0265 142.932C17.9159 124.692 4.00986 113.416 4.00986 113.416ZM26.9842 73.0691C26.9842 73.0691 25.7693 65.7218 33.4925 54.722H7.02537C7.02537 54.722 8.15347 57.7374 26.8757 73.0691H26.9842ZM96.7531 111.292V108.447L82.9989 95.005H50.9564L69.158 111.292H96.7531ZM63.5608 225.133C63.5608 226.089 63.8212 224.921 63.8212 224.921V211.628L61.5433 214.091C62.6674 217.715 63.3447 221.458 63.5608 225.24V225.133ZM29.6743 93.3698C29.6743 93.933 29.9028 94.4732 30.3097 94.8714C30.7165 95.2696 31.2683 95.4933 31.8437 95.4933C32.4191 95.4933 32.9709 95.2696 33.3777 94.8714C33.7846 94.4732 34.0131 93.933 34.0131 93.3698C34.0131 92.8067 33.7846 92.2665 33.3777 91.8683C32.9709 91.4701 32.4191 91.2463 31.8437 91.2463C31.2683 91.2463 30.7165 91.4701 30.3097 91.8683C29.9028 92.2665 29.6743 92.8067 29.6743 93.3698ZM63.4306 240.295C63.8597 240.295 64.2792 240.171 64.6359 239.937C64.9927 239.704 65.2707 239.372 65.4349 238.984C65.5991 238.596 65.6421 238.169 65.5584 237.758C65.4747 237.346 65.2681 236.967 64.9647 236.67C64.6613 236.373 64.2747 236.171 63.8539 236.089C63.433 236.007 62.9968 236.049 62.6004 236.21C62.204 236.371 61.8652 236.643 61.6268 236.992C61.3885 237.341 61.2612 237.752 61.2612 238.172C61.2612 238.735 61.4898 239.275 61.8966 239.673C62.3035 240.072 62.8553 240.295 63.4306 240.295ZM78.1177 86.5746L96.7531 104.497V90.5881L78.1177 72.3684V86.5746ZM63.6476 193.217H54.7746V204.217H63.6476V193.217ZM187.067 75.1502L172.748 90.5881L172.9 115.242C172.691 117.308 172.247 119.345 171.577 121.315H180.884L207.481 95.281L187.067 75.1502ZM108.598 150.705V154.952H103.956V159.899H108.143V164.146H104.042V169.158H108.75V173.405H99.4866V150.641L92.9783 173.299H89.2252L82.5217 150.62H87.4463L90.2232 161.513C90.6137 162.809 90.7655 164.104 91.0475 165.378C91.2124 164.057 91.4514 162.745 91.7634 161.449L94.5403 150.62L108.598 150.705ZM114.347 201.032H109.466L108.598 197.209H103.977L103.153 201.032H98.5972L103.977 178.331H108.794L114.347 201.032ZM109.553 150.705H114.152C117.081 150.705 122.287 151.002 122.287 157.202C122.349 158.38 122.076 159.552 121.497 160.587C120.919 161.622 120.058 162.479 119.012 163.063L123.329 173.405H118.491L114.347 162.787V173.405H109.77L109.553 150.705ZM123.958 150.705H128.535V173.405H123.958V150.705ZM120.552 201.371C119.158 201.384 117.792 200.993 116.625 200.246V195.999C117.602 196.775 118.817 197.208 120.075 197.231C120.441 197.275 120.813 197.24 121.163 197.128C121.514 197.016 121.836 196.829 122.105 196.582C122.374 196.335 122.584 196.033 122.721 195.697C122.857 195.361 122.917 195.001 122.895 194.64C122.895 192.92 121.485 192.24 120.205 191.348C118.91 190.736 117.817 189.781 117.05 188.591C116.283 187.401 115.873 186.024 115.866 184.617C115.778 183.781 115.87 182.936 116.134 182.137C116.399 181.337 116.831 180.6 117.402 179.973C117.973 179.346 118.672 178.842 119.453 178.493C120.235 178.145 121.082 177.96 121.94 177.949C123.372 177.938 124.777 178.32 125.997 179.053V183.407C125.101 182.554 123.925 182.042 122.678 181.963C122.371 181.941 122.063 181.984 121.775 182.088C121.486 182.191 121.223 182.354 121.004 182.565C120.784 182.776 120.613 183.03 120.501 183.311C120.39 183.591 120.34 183.892 120.357 184.192C120.357 187.908 127.342 188.142 127.342 194.258C127.445 195.164 127.348 196.081 127.058 196.947C126.767 197.814 126.29 198.609 125.659 199.279C125.027 199.95 124.256 200.48 123.398 200.833C122.539 201.187 121.613 201.356 120.682 201.329L120.552 201.371ZM97.8813 182.493H94.2583V201.01H89.6808V182.515H86.0795V178.268H97.8813V182.493ZM74.9937 124.458V220.016H123.329C127.342 220.45 131.167 221.915 134.415 224.263V147.923C105.149 147.307 99.248 124.564 99.248 124.564L74.9937 124.458ZM77.1632 248.726C76.9237 242.975 75.752 237.298 73.6921 231.907H65.1445C66.7211 236.994 69.2925 241.732 72.7158 245.859C57.0308 236.006 40.1743 242.143 40.1743 242.143C55.7292 256.285 77.2282 248.726 77.2282 248.726H77.1632ZM48.1578 95.8331L43.819 91.9046C33.3623 94.3679 25.7042 103.329 25.7042 103.329C29.3424 94.391 29.3424 84.428 25.7042 75.4899L22.6019 72.9629C13.5554 89.7386 23.5564 108.128 23.5564 108.128C37.4625 104.858 44.4915 99.4856 47.9409 95.642L48.1578 95.8331ZM24.7062 224.369C37.5059 240.932 60.0463 237.11 60.0463 237.11C62.7798 213.751 53.0824 206.064 53.0824 206.064C47.0731 218.508 56.163 233.521 56.163 233.521C42.4739 221.141 24.7062 224.327 24.7062 224.327V224.369ZM63.5391 141.149H54.6444V152.17H63.5391V141.149Z" fill="black" fill-opacity="0.02"/>
</svg>
