<svg width="697" height="590" viewBox="0 0 697 590" fill="none" xmlns="http://www.w3.org/2000/svg">
<mask id="mask0_106_211" style="mask-type:alpha" maskUnits="userSpaceOnUse" x="0" y="0" width="697" height="590">
<rect width="697" height="590" fill="white"/>
</mask>
<g mask="url(#mask0_106_211)">
<path d="M420.099 90.3214C408.645 64.1968 369.017 82.1467 369.017 82.1467C402.174 103.184 420.099 90.3214 420.099 90.3214ZM354.929 86.4913C356.402 86.4913 357.841 86.0555 359.065 85.2389C360.29 84.4223 361.244 83.2617 361.807 81.9037C362.371 80.5458 362.518 79.0516 362.231 77.61C361.944 76.1684 361.235 74.8443 360.194 73.805C359.152 72.7656 357.826 72.0579 356.382 71.7711C354.938 71.4844 353.441 71.6315 352.08 72.194C350.72 72.7565 349.557 73.709 348.739 74.9311C347.921 76.1532 347.485 77.59 347.485 79.0598C347.5 81.0261 348.289 82.9077 349.682 84.2982C351.075 85.6886 352.96 86.4764 354.929 86.4913V86.4913ZM445.239 92.951C435.622 93.1174 426.205 95.7135 417.865 100.497L459.842 101.068L461.331 99.9824C461.331 99.9824 440.371 43.5029 384.765 36.5859C389.924 49.9314 398.046 61.9364 408.52 71.6988C418.994 81.4612 431.548 88.7273 445.239 92.951ZM474.674 103.927C474.674 102.411 474.071 100.957 472.997 99.8845C471.923 98.8125 470.466 98.2102 468.947 98.2102C467.709 98.52 466.61 99.2339 465.825 100.239C465.039 101.243 464.613 102.481 464.613 103.755C464.613 105.03 465.039 106.267 465.825 107.272C466.61 108.277 467.709 108.991 468.947 109.3C470.466 109.3 471.923 108.698 472.997 107.626C474.071 106.554 474.674 105.1 474.674 103.584V103.927ZM250.589 100.726L292.509 100.154C284.213 95.3659 274.831 92.7687 265.25 92.608C278.886 88.4029 291.393 81.1744 301.835 71.4632C312.278 61.7519 320.385 49.8093 325.552 36.5287C269.946 43.4457 249.043 99.9252 249.043 99.9252L250.532 101.011L250.589 100.726ZM237.075 106.728C237.075 107.859 237.41 108.964 238.04 109.904C238.669 110.844 239.563 111.577 240.61 112.009C241.656 112.442 242.808 112.555 243.918 112.335C245.029 112.114 246.05 111.57 246.851 110.77C247.651 109.971 248.197 108.952 248.418 107.843C248.639 106.734 248.525 105.585 248.092 104.54C247.658 103.496 246.925 102.603 245.983 101.975C245.041 101.347 243.934 101.011 242.801 101.011C241.282 101.011 239.826 101.614 238.752 102.686C237.678 103.758 237.075 105.212 237.075 106.728ZM240.453 151.431C210.274 129.937 166.007 146.572 166.007 146.572C205.292 116.96 205.292 69.3988 205.292 69.3988C155.412 94.9518 155.069 155.147 155.069 155.147C216.115 173.211 240.969 151.603 240.969 151.603L240.453 151.431ZM257.862 139.77L258.263 119.476C243.324 115.505 227.717 114.706 212.45 117.132C256.144 94.6088 263.99 47.676 263.99 47.676C210.331 64.3683 199.565 123.42 199.565 123.42C217.365 133.098 237.107 138.684 257.347 139.77H257.862ZM498.955 113.759C485.314 110.564 471.039 111.358 457.838 116.046V136.968C471.868 136.968 486.07 133.367 511.783 119.819C511.783 119.819 499.642 60.7668 445.697 45.5037C445.697 45.5037 454.802 92.265 499.07 113.702L498.955 113.759ZM290.275 92.951C290.275 92.951 308.658 105.184 341.014 82.8899C341.014 82.8899 300.927 66.4262 290.275 92.951V92.951ZM570.882 375.577H547.46V405.189H570.882V375.577ZM507.889 172.754L495.863 187.102L561.376 252.557L574.604 239.295L507.889 172.754ZM635.479 170.753L575.406 110.787L521.575 169.153L579.3 226.318L635.479 170.753ZM145.791 164.065C145.791 165.195 146.127 166.301 146.757 167.241C147.386 168.181 148.28 168.914 149.327 169.346C150.373 169.779 151.524 169.892 152.635 169.671C153.746 169.451 154.767 168.906 155.568 168.107C156.368 167.308 156.914 166.289 157.135 165.18C157.356 164.071 157.242 162.922 156.809 161.877C156.375 160.833 155.641 159.94 154.7 159.312C153.758 158.684 152.651 158.348 151.518 158.348C149.999 158.348 148.543 158.951 147.469 160.023C146.395 161.095 145.791 162.549 145.791 164.065ZM590.524 226.947C603.102 230.355 616.038 232.274 629.065 232.663C633.521 217.599 634.885 201.791 633.074 186.188L612.744 205.624C615.08 210.993 617.898 216.139 621.162 221.002C616.575 217.439 611.711 214.247 606.616 211.455L590.524 226.947ZM571.798 520.32H548.376V549.931H571.798V520.32ZM537.438 136.511L551.068 122.734C547.937 110.459 542.158 99.0143 534.136 89.1997C526.115 79.3852 516.043 71.4374 504.624 65.9117C504.898 79.3064 507.955 92.4983 513.604 104.651C519.253 116.804 527.369 127.654 537.438 136.511V136.511ZM659.416 343.793C659.416 344.924 659.752 346.029 660.381 346.969C661.011 347.909 661.905 348.642 662.951 349.074C663.998 349.507 665.149 349.62 666.26 349.4C667.371 349.179 668.391 348.635 669.192 347.835C669.993 347.036 670.539 346.017 670.76 344.908C670.981 343.799 670.867 342.65 670.434 341.605C670 340.561 669.266 339.668 668.324 339.04C667.383 338.412 666.276 338.076 665.143 338.076C663.624 338.076 662.167 338.679 661.094 339.751C660.02 340.823 659.416 342.277 659.416 343.793ZM586.745 68.7129C591.635 71.2697 597.088 72.567 602.608 72.4872C608.129 72.4073 613.542 70.9528 618.356 68.2555C623.705 65.4708 629.763 64.3372 635.759 64.9989C641.755 65.6606 647.418 68.0876 652.029 71.9713C655.89 74.7433 658.972 78.4606 660.978 82.7656C662.984 87.0706 663.846 91.8185 663.482 96.5524C663.482 107.3 660.333 107.985 660.333 107.985C653.861 112.387 655.465 104.899 655.465 104.899L656.954 99.6393C658.074 93.4255 656.685 87.0215 653.091 81.8266C649.496 76.6316 643.988 73.068 637.769 71.9141C631.709 70.6313 625.387 71.6869 620.075 74.8686C614.762 78.0503 610.854 83.1221 609.136 89.0638C607.824 94.1766 607.493 99.4914 608.163 104.727L579.529 76.1444L580.904 100.44L645.214 164.751H668.121L644.813 141.427C652.257 143.727 659.945 145.146 667.72 145.658C676.753 145.271 685.358 141.708 692.013 135.598C698.668 129.488 702.944 121.226 704.084 112.273C712.732 79.5171 681.578 52.9924 681.578 52.9924C660.791 35.1568 629.408 33.7276 629.408 33.7276C584.74 28.5827 568.878 0 568.878 0C565.573 10.4099 564.253 21.3457 564.983 32.2413C567.961 61.7958 586.802 68.7129 586.802 68.7129H586.745ZM667.72 334.646C667.72 334.646 705.172 287.485 682.208 236.379C682.208 236.379 652.258 273.422 664.169 321.098C664.169 321.098 640.175 280.625 603.123 278.51C603.123 278.51 608.85 310.751 667.72 334.646ZM629.695 248.098C630.533 248.289 631.404 248.289 632.243 248.097C633.082 247.906 633.866 247.529 634.539 246.993C635.211 246.458 635.754 245.778 636.127 245.004C636.5 244.231 636.694 243.383 636.694 242.524C636.694 241.666 636.5 240.818 636.127 240.044C635.754 239.271 635.211 238.591 634.539 238.056C633.866 237.52 633.082 237.143 632.243 236.951C631.404 236.76 630.533 236.76 629.695 236.951C628.43 237.239 627.3 237.947 626.491 238.959C625.681 239.972 625.241 241.229 625.241 242.524C625.241 243.82 625.681 245.077 626.491 246.089C627.3 247.102 628.43 247.81 629.695 248.098ZM517.624 158.12L534.804 140.97C520.487 137.654 493.515 132.852 471.811 149.03C471.811 149.03 483.264 161.721 517.968 158.291L517.624 158.12ZM652.945 282.226C652.945 282.226 681.578 229.233 650.082 182.987C650.082 182.987 627.175 224.603 647.104 269.478C647.104 269.478 616.409 233.807 579.586 238.094C579.586 238.094 591.04 268.849 652.945 282.226ZM456.406 687.014C456.406 688.145 456.742 689.25 457.371 690.19C458 691.13 458.895 691.863 459.941 692.296C460.987 692.728 462.139 692.841 463.25 692.621C464.361 692.4 465.381 691.856 466.182 691.056C466.983 690.257 467.528 689.238 467.749 688.129C467.97 687.021 467.857 685.871 467.423 684.827C466.99 683.782 466.256 682.889 465.314 682.261C464.372 681.633 463.265 681.298 462.133 681.298C460.614 681.298 459.157 681.9 458.083 682.972C457.009 684.044 456.406 685.498 456.406 687.014ZM484.238 681.755C484.238 681.755 515.791 654.716 516.078 621.045L504.624 621.503C494.488 630.363 479.599 649.285 471.295 687.586C471.295 687.586 524.439 716.169 570.71 684.785C570.71 684.785 529.077 661.633 484.066 681.755H484.238ZM432.239 698.905C432.239 698.905 472.784 674.895 474.903 637.966C474.903 637.966 442.605 643.683 418.61 702.449C418.61 702.449 465.912 739.835 516.994 716.912C516.994 716.912 479.942 686.957 432.239 698.905V698.905ZM377.721 710.338C419.87 690.844 429.261 658.088 429.261 658.088C396.505 660.432 368.444 709.537 368.444 709.537C379.438 720.533 392.607 729.12 407.111 734.75C421.616 740.38 437.137 742.929 452.684 742.236C430.808 713.653 377.721 710.338 377.721 710.338V710.338ZM354.185 693.188V707.022C347.771 696.904 322.803 660.432 294.513 658.603C294.513 658.603 304.134 691.244 346.397 710.395C346.397 710.395 293.368 713.939 271.95 742.922C287.137 743.489 302.28 740.963 316.458 735.498C330.635 730.034 343.549 721.746 354.414 711.138V733.661H368.502V693.188H354.185ZM548.491 565.423V595.035L681.178 704.85H707.692L572.657 565.423H548.491ZM531.998 655.345C540.114 645.016 546.231 633.268 550.037 620.702L527.417 620.359C523.119 634.28 520.768 648.727 520.43 663.291C520.43 663.291 569.278 679.583 608.449 651.286L593.33 639.224C571.668 637.735 550.117 643.399 531.998 655.345V655.345ZM268.571 688.901C268.571 687.385 267.968 685.93 266.894 684.858C265.82 683.786 264.363 683.184 262.845 683.184C261.326 683.184 259.869 683.786 258.795 684.858C257.721 685.93 257.118 687.385 257.118 688.901C257.118 690.417 257.721 691.871 258.795 692.943C259.869 694.015 261.326 694.617 262.845 694.617C264.363 694.617 265.82 694.015 266.894 692.943C267.968 691.871 268.571 690.417 268.571 688.901ZM639.545 533.982C639.545 533.982 647.161 487.507 620.131 462.125C620.131 462.125 603.753 490.708 633.474 546.616C633.474 546.616 692.574 534.497 707.921 480.704C707.921 480.704 661.192 489.793 639.659 533.982H639.545ZM584.912 632.193L565.327 616.301C565.785 621.274 566.415 626.533 567.331 632.135C573.18 632.658 579.064 632.658 584.912 632.135V632.193ZM555.363 639.395C556.495 639.395 557.603 639.06 558.544 638.432C559.486 637.804 560.22 636.911 560.653 635.866C561.087 634.822 561.2 633.673 560.979 632.564C560.758 631.455 560.213 630.436 559.412 629.637C558.611 628.837 557.591 628.293 556.48 628.072C555.369 627.852 554.218 627.965 553.171 628.397C552.125 628.83 551.23 629.563 550.601 630.503C549.972 631.443 549.636 632.548 549.636 633.679C549.636 635.195 550.239 636.649 551.313 637.721C552.387 638.793 553.844 639.395 555.363 639.395ZM89.9565 558.335C89.9565 559.465 90.2923 560.571 90.9216 561.511C91.5509 562.451 92.4452 563.184 93.4916 563.616C94.538 564.049 95.6894 564.162 96.8003 563.942C97.9112 563.721 98.9316 563.176 99.7325 562.377C100.533 561.578 101.079 560.559 101.3 559.45C101.521 558.341 101.407 557.192 100.974 556.147C100.54 555.103 99.8065 554.21 98.8647 553.582C97.923 552.954 96.8158 552.618 95.6831 552.618C94.1643 552.618 92.7077 553.221 91.6338 554.293C90.5598 555.365 89.9565 556.819 89.9565 558.335ZM49.4689 450.807C95.6258 407.075 89.1547 374.948 89.1547 374.948C55.4247 390.383 47.751 436.858 47.751 436.858C41.5662 388.153 0.105042 364.544 0.105042 364.544C-2.64376 420.452 49.4689 450.807 49.4689 450.807V450.807ZM49.4689 458.524C49.4689 459.655 49.8048 460.76 50.434 461.7C51.0633 462.64 51.9577 463.373 53.0041 463.805C54.0505 464.238 55.202 464.351 56.3128 464.131C57.4237 463.91 58.444 463.366 59.2449 462.566C60.0458 461.767 60.5912 460.748 60.8122 459.639C61.0332 458.53 60.9198 457.381 60.4864 456.336C60.0529 455.292 59.3189 454.399 58.3771 453.771C57.4354 453.143 56.3282 452.807 55.1956 452.807C53.6767 452.807 52.2201 453.41 51.1462 454.482C50.0722 455.554 49.4689 457.008 49.4689 458.524ZM128.669 111.473L85.6615 68.1412C78.1942 60.7351 68.5643 55.8865 58.1595 54.2941C47.7546 52.7017 37.1119 54.4477 27.7649 59.2806L112.52 143.542C115.19 131.687 120.847 120.707 128.955 111.644L128.669 111.473ZM95.9122 138.283L22.7254 65.1686C22.7254 65.1686 -7.85506 87.1201 15.9106 138.283H95.9122ZM64.1865 503.685C102.04 452.636 90.1283 422.167 90.1283 422.167C59.6051 443.261 60.1205 490.308 60.1205 490.308C45.5175 443.375 0.620421 427.426 0.620421 427.426C7.60695 482.876 64.1865 503.742 64.1865 503.742V503.685ZM98.1456 648.485C104.758 644.911 111.95 642.531 119.392 641.453L105.476 638.138L104.101 639.91L105.476 638.138L43.685 703.078C43.685 703.078 36.6412 713.139 43.2842 719.827C45.4983 721.309 48.1327 722.037 50.7951 721.903C53.4574 721.769 56.0052 720.781 58.0589 719.084L118.303 666.492C112.176 663.348 98.89 652.315 98.1456 648.485V648.485ZM215.313 622.074H207.41C207.009 657.002 240.625 684.499 240.625 684.499C195.213 665.577 154.095 689.529 154.095 689.529C201.168 719.941 253.567 690.044 253.567 690.044C243.374 647.57 225.507 629.391 215.313 622.131V622.074ZM87.6658 553.133C116.299 496.31 99.1192 468.356 99.1192 468.356C72.7192 494.309 81.481 540.613 81.481 540.613C58.918 496.939 11.9593 489.165 11.9593 489.165C28.3948 542.557 87.7803 553.361 87.7803 553.361L87.6658 553.133ZM248.871 640.767C251.907 677.696 292.967 700.677 292.967 700.677C244.977 689.872 208.613 720.685 208.613 720.685C260.153 742.407 306.654 703.935 306.654 703.935C281.284 645.684 248.871 640.767 248.871 640.767V640.767ZM116.585 194.362C179.579 201.565 200.252 176.012 200.252 176.012C166.751 160.12 126.149 184.13 126.149 184.13C159.593 148.058 151.06 101.24 151.06 101.24C106.392 134.968 116.7 194.362 116.7 194.362H116.585ZM119.678 597.95C137.774 537.069 116.127 512.202 116.127 512.202C94.6523 542.386 111.26 586.517 111.26 586.517C81.4237 547.359 33.7779 547.645 33.7779 547.645C59.3761 597.436 119.678 597.722 119.678 597.722V597.95ZM581.82 547.874C579.201 550.857 577.388 554.457 576.551 558.335L588.348 570.511C587.815 562.514 585.59 554.721 581.82 547.645V547.874ZM188.455 304.463L210.102 323.556H259.008C256.66 319.612 257.404 304.863 257.404 304.863L188.455 304.463ZM309.689 161.55V134.11H394.73V172.983H422.905V200.994H395.589V213.456H422.905V243.868H395.589V334.989H372.224L339.811 302.691L310.147 332.246L288.672 310.808L337.864 261.761L363.176 287.085V161.55H309.689ZM265.937 292.173C265.937 356.827 306.539 386.667 356.647 386.667C406.756 386.667 447.415 356.941 447.415 292.173V107.643H265.994C265.994 107.643 265.994 227.29 265.994 291.944L265.937 292.173ZM199.107 185.559C199.107 185.559 193.38 193.505 172.707 198.078L199.107 222.316V185.559ZM431.094 454.694C436.821 454.694 436.821 450.235 436.821 445.662V403.531H448.904V448.12C448.904 454.58 448.159 465.612 430.75 465.612C419.297 465.612 412.769 460.353 412.769 448.977V403.531H424.852V443.089C424.852 447.72 424.279 454.522 430.865 454.522L431.094 454.694ZM462.018 477.732V489.165H449.706V502.427H460.529V513.86H449.706V527.637H462.133V539.07H437.622V477.903L462.018 477.732ZM458.639 403.416H472.326L475.819 411.934C476.998 414.967 477.955 418.081 478.683 421.252C479.414 418.095 480.331 414.983 481.431 411.934L485.154 403.416H498.153L485.154 433.028L499.184 464.526H485.154L481.202 454.808C480.114 451.721 479.37 448.749 478.511 445.662C477.595 448.749 476.85 451.721 475.819 454.808L472.269 464.526H458.582L471.639 433.028L458.639 403.416ZM495.691 538.841L493.457 528.494H481.26L479.026 538.841H467L481.26 477.674H493.973L508.805 538.841H495.691ZM418.266 538.841L415.403 494.767L413.456 509.916L408.302 538.841H398.967L393.241 509.573L391.236 495.967V494.767L389.461 538.841H376.462L381.845 477.674H397.708L403.434 513.803L408.302 477.674H424.508L430.922 538.841H418.266ZM379.039 403.302H391.179V453.093H403.835V464.526H379.039V403.302ZM363.577 393.927V601.095C371.261 594.059 381.216 590.003 391.637 589.661H520.258V332.417H450.965C450.965 332.417 431.266 393.012 363.577 393.927ZM311.521 420.509C311.649 419.429 311.52 418.334 311.144 417.313C310.768 416.292 310.157 415.374 309.359 414.634C308.561 413.893 307.6 413.351 306.552 413.05C305.505 412.75 304.402 412.701 303.332 412.906H301.729V429.198H303.847C309.574 429.198 311.521 425.482 311.521 420.452V420.509ZM487.215 493.395L485.841 502.599L483.264 518.948H491.625L488.475 502.599L487.215 493.395ZM161.425 221.23C149.747 231.257 135.441 237.743 120.193 239.923L128.211 247.412L212.45 247.012L186.336 220.887L173.05 207.682C169.498 212.416 165.674 216.939 161.597 221.23H161.425ZM631.642 551.875C631.354 550.612 630.644 549.484 629.63 548.677C628.615 547.869 627.356 547.429 626.058 547.429C624.761 547.429 623.502 547.869 622.487 548.677C621.473 549.484 620.763 550.612 620.475 551.875C620.763 553.138 621.473 554.266 622.487 555.074C623.502 555.881 624.761 556.321 626.058 556.321C627.356 556.321 628.615 555.881 629.63 555.074C630.644 554.266 631.354 553.138 631.642 551.875ZM664.112 456.866C665.245 456.866 666.352 456.531 667.294 455.903C668.235 455.275 668.969 454.382 669.403 453.337C669.836 452.293 669.95 451.143 669.729 450.034C669.508 448.925 668.962 447.907 668.161 447.107C667.361 446.308 666.34 445.763 665.229 445.543C664.118 445.322 662.967 445.435 661.921 445.868C660.874 446.301 659.98 447.034 659.351 447.974C658.721 448.914 658.385 450.019 658.385 451.15C658.385 452.666 658.989 454.12 660.063 455.192C661.137 456.264 662.593 456.866 664.112 456.866ZM628.378 415.593C628.378 415.593 617.211 446.348 656.267 496.482C656.267 496.482 712.331 474.302 718 418.622C718 418.622 673.504 435.772 660.046 482.934C660.046 482.934 659.474 435.886 628.378 415.593ZM670.87 429.427C670.87 429.427 662.222 383.18 628.149 368.546C628.149 368.546 622.422 400.844 669.61 443.432C669.61 443.432 721.15 411.82 716.797 356.026C716.797 356.026 676.024 380.607 670.984 429.427H670.87ZM604.841 506.2C604.841 506.2 583.767 531.296 603.295 591.948C603.295 591.948 663.597 590.233 687.935 539.87C687.935 539.87 640.289 540.785 611.427 580.515C611.427 580.515 627.003 536.097 604.841 506.2V506.2ZM672.473 374.719C672.473 374.719 655.866 330.702 619.73 322.184C619.73 322.184 619.73 354.883 673.561 388.725C673.561 388.725 718.744 348.709 704.943 294.459C704.943 294.459 668.98 325.729 672.473 374.491V374.719ZM633.875 616.815C643.91 610.557 652.53 602.283 659.187 592.52C644.427 591.328 629.578 593.156 615.55 597.893L633.875 616.815ZM282.602 501.912L281.227 492.652L279.91 501.912L277.333 518.148H285.465L282.602 501.912ZM103.414 140.856C65.2746 181.843 85.6042 238.551 85.6042 238.551C149.113 234.664 164.804 206.024 164.804 206.024C129.07 196.135 93.3352 226.832 93.3352 226.832C119.964 185.502 103.414 141.084 103.414 141.084V140.856ZM341.643 631.792H378.294C378.294 631.792 380.642 615.9 391.007 615.9H543.05V348.938L527.875 332.989V597.55H391.523C378.621 599.627 366.96 606.435 358.823 616.644C354.667 611.246 349.385 606.815 343.343 603.656C337.302 600.498 330.645 598.688 323.834 598.351H190.918V335.39L174.597 351.739V615.958H323.032C323.032 615.958 341.357 616.701 341.357 631.85L341.643 631.792ZM56.8563 350.767C56.8563 349.637 56.5205 348.531 55.8912 347.591C55.2619 346.651 54.3675 345.918 53.3211 345.486C52.2747 345.053 51.1233 344.94 50.0124 345.16C48.9015 345.381 47.8812 345.925 47.0803 346.725C46.2794 347.524 45.734 348.543 45.513 349.652C45.292 350.761 45.4055 351.91 45.8389 352.955C46.2724 353.999 47.0063 354.892 47.9481 355.52C48.8898 356.148 49.997 356.484 51.1297 356.484C52.6485 356.484 54.1051 355.881 55.179 354.809C56.253 353.737 56.8563 352.283 56.8563 350.767ZM51.9314 327.901C62.7548 279.996 32.0026 243.696 32.0026 243.696C10.184 295.145 48.7245 341.621 48.7245 341.621C107.079 316.296 112.061 283.941 112.061 283.941C75.0099 286.913 51.9314 327.901 51.9314 327.901ZM10.5849 303.034C-1.84201 357.57 44.2004 396.499 44.2004 396.499C97.2293 361.457 96.4849 328.701 96.4849 328.701C60.5787 338.076 44.9449 382.494 44.9449 382.494C47.2928 333.389 10.5849 303.034 10.5849 303.034ZM71.2302 194.42C71.2302 194.42 68.0233 174.64 88.4102 145.029H18.5449C18.5449 145.029 21.5227 153.146 70.9439 194.42H71.2302ZM255.4 297.317V289.657L219.093 253.472H134.51L182.557 297.317H255.4ZM167.782 603.781C167.782 606.354 168.469 603.21 168.469 603.21V567.424L162.456 574.055C165.424 583.812 167.211 593.887 167.782 604.067V603.781ZM78.3313 249.07C78.3313 250.586 78.9347 252.04 80.0086 253.112C81.0826 254.184 82.5392 254.786 84.058 254.786C85.5768 254.786 87.0334 254.184 88.1074 253.112C89.1813 252.04 89.7847 250.586 89.7847 249.07C89.7847 247.554 89.1813 246.1 88.1074 245.028C87.0334 243.956 85.5768 243.353 84.058 243.353C82.5392 243.353 81.0826 243.956 80.0086 245.028C78.9347 246.1 78.3313 247.554 78.3313 249.07ZM167.438 644.597C168.571 644.597 169.678 644.262 170.62 643.634C171.562 643.006 172.296 642.113 172.729 641.069C173.162 640.024 173.276 638.875 173.055 637.766C172.834 636.657 172.289 635.638 171.488 634.839C170.687 634.039 169.666 633.495 168.555 633.274C167.445 633.054 166.293 633.167 165.247 633.6C164.2 634.032 163.306 634.765 162.677 635.705C162.047 636.645 161.712 637.75 161.712 638.881C161.712 640.397 162.315 641.851 163.389 642.923C164.463 643.995 165.919 644.597 167.438 644.597ZM206.208 230.777L255.4 279.025V241.581L206.208 192.533V230.777ZM168.011 517.862H144.589V547.473H168.011V517.862ZM493.801 200.022L456.005 241.581L456.406 307.95C455.854 313.513 454.682 318.996 452.913 324.3H477.48L547.689 254.215L493.801 200.022ZM286.667 403.416V414.85H274.412V428.169H285.465V439.602H274.641V453.093H287.068V464.526H262.615V403.245L245.435 464.24H235.528L217.833 403.188H230.832L238.163 432.514C239.193 436.001 239.594 439.488 240.339 442.918C240.774 439.361 241.405 435.83 242.229 432.342L249.559 403.188L286.667 403.416ZM301.843 538.899H288.958L286.667 528.609H274.47L272.294 538.899H260.268L274.47 477.789H287.183L301.843 538.899ZM289.187 403.416H301.328C309.059 403.416 322.803 404.217 322.803 420.909C322.966 424.08 322.244 427.235 320.717 430.02C319.19 432.806 316.919 435.114 314.155 436.687L325.552 464.526H312.781L301.843 435.944V464.526H289.76L289.187 403.416ZM327.212 403.416H339.295V464.526H327.212V403.416ZM318.221 539.813C314.542 539.848 310.935 538.794 307.856 536.783V525.35C310.436 527.438 313.641 528.605 316.962 528.666C317.928 528.785 318.91 528.69 319.836 528.389C320.762 528.087 321.61 527.585 322.321 526.92C323.031 526.254 323.586 525.441 323.947 524.538C324.307 523.634 324.464 522.663 324.406 521.692C324.406 517.061 320.684 515.232 317.305 512.831C313.888 511.183 311.004 508.611 308.979 505.408C306.954 502.204 305.871 498.498 305.852 494.71C305.621 492.459 305.862 490.185 306.56 488.032C307.259 485.88 308.398 483.896 309.907 482.208C311.415 480.519 313.259 479.162 315.322 478.224C317.384 477.286 319.62 476.788 321.886 476.76C325.665 476.729 329.375 477.759 332.595 479.732V491.451C330.231 489.156 327.124 487.778 323.834 487.564C323.024 487.506 322.211 487.621 321.449 487.9C320.687 488.18 319.993 488.618 319.414 489.186C318.834 489.753 318.382 490.437 318.088 491.193C317.794 491.948 317.663 492.757 317.706 493.566C317.706 503.57 336.146 504.199 336.146 520.663C336.417 523.102 336.161 525.572 335.395 527.904C334.628 530.236 333.369 532.376 331.702 534.181C330.036 535.986 328 537.412 325.734 538.364C323.467 539.316 321.023 539.771 318.565 539.699L318.221 539.813ZM258.378 488.993H248.814V538.841H236.731V489.05H227.225V477.617H258.378V488.993ZM197.961 332.76V590.004H325.552C336.145 591.172 346.241 595.117 354.815 601.438V395.928C277.562 394.27 261.985 333.046 261.985 333.046L197.961 332.76ZM203.688 667.292C203.056 651.811 199.963 636.529 194.525 622.017H171.962C176.124 635.711 182.912 648.466 191.948 659.575C150.545 633.05 106.048 649.571 106.048 649.571C147.109 687.643 203.86 667.292 203.86 667.292H203.688ZM127.123 255.701L115.669 245.125C88.0667 251.757 67.8515 275.88 67.8515 275.88C77.4553 251.819 77.4553 224.998 67.8515 200.937L59.6624 194.134C35.7822 239.294 62.1821 288.8 62.1821 288.8C98.89 279.996 117.444 265.533 126.55 255.187L127.123 255.701ZM65.2172 601.723C99.0046 646.312 158.505 636.023 158.505 636.023C165.72 573.141 140.122 552.447 140.122 552.447C124.259 585.946 148.254 626.362 148.254 626.362C112.119 593.034 65.2172 601.609 65.2172 601.609V601.723ZM167.725 377.692H144.245V407.361H167.725V377.692Z" fill="black" fill-opacity="0.02"/>
</g>
</svg>
