<svg width="59" height="54" viewBox="0 0 59 54" fill="none" xmlns="http://www.w3.org/2000/svg">
<mask id="mask0_124_672" style="mask-type:alpha" maskUnits="userSpaceOnUse" x="0" y="0" width="59" height="54">
<rect width="59" height="54" fill="#C4C4C4"/>
</mask>
<g mask="url(#mask0_124_672)">
<circle cx="47.5" cy="8.5" r="8.5" fill="#0EBCF6"/>
<circle cx="8.5" cy="8.5" r="8.5" fill="#6DF5D0"/>
<path d="M59 54L36 54L36 31.5C36 25.1487 41.1487 20 47.5 20V20C53.8513 20 59 25.1487 59 31.5L59 54Z" fill="#6DF5D0"/>
<path d="M2.56385e-07 19.9191C2.82342 19.9191 5.6192 20.3588 8.2277 21.2131C10.8362 22.0674 13.2063 23.3197 15.2028 24.8983C17.1993 26.4769 18.7829 28.3509 19.8634 30.4135C20.9439 32.476 21.5 34.6866 21.5 36.9191C21.5 39.1515 20.9439 41.3622 19.8634 43.4247C18.7829 45.4872 17.1992 47.3613 15.2028 48.9399C13.2063 50.5185 10.8362 51.7707 8.22768 52.625C5.61918 53.4794 2.8234 53.9191 -1.7514e-05 53.9191L0 36.9191L2.56385e-07 19.9191Z" fill="#AFEBFF"/>
</g>
</svg>
