<svg width="52" height="54" viewBox="0 0 52 54" fill="none" xmlns="http://www.w3.org/2000/svg">
<mask id="mask0_103_519" style="mask-type:alpha" maskUnits="userSpaceOnUse" x="0" y="0" width="52" height="54">
<rect x="0.5" width="51" height="54" fill="#C4C4C4"/>
</mask>
<g mask="url(#mask0_103_519)">
<circle cx="40" cy="8.5" r="8.5" fill="#0EBCF6"/>
<circle cx="9" cy="8.5" r="8.5" fill="#6DF5D0"/>
<path d="M51.5 54L28.5 54L28.5 31.5C28.5 25.1487 33.6487 20 40 20V20C46.3513 20 51.5 25.1487 51.5 31.5L51.5 54Z" fill="#6DF5D0"/>
<path d="M1 20C3.82342 20 6.6192 20.4397 9.2277 21.294C11.8362 22.1484 14.2063 23.4006 16.2028 24.9792C18.1993 26.5578 19.7829 28.4319 20.8634 30.4944C21.9439 32.5569 22.5 34.7675 22.5 37C22.5 39.2325 21.9439 41.4431 20.8634 43.5056C19.7829 45.5682 18.1992 47.4422 16.2028 49.0208C14.2063 50.5994 11.8362 51.8516 9.22768 52.706C6.61918 53.5603 3.8234 54 0.999982 54L1 37L1 20Z" fill="#AFEBFF"/>
</g>
</svg>
