<svg width="51" height="54" viewBox="0 0 51 54" fill="none" xmlns="http://www.w3.org/2000/svg">
<mask id="mask0_124_700" style="mask-type:alpha" maskUnits="userSpaceOnUse" x="0" y="0" width="51" height="54">
<rect width="51" height="54" fill="#C4C4C4"/>
</mask>
<g mask="url(#mask0_124_700)">
<circle cx="39.5" cy="8.5" r="8.5" fill="white"/>
<circle cx="8.5" cy="8.5" r="8.5" fill="#6DF5D0"/>
<path d="M51 54L28 54L28 31.5C28 25.1487 33.1487 20 39.5 20V20C45.8513 20 51 25.1487 51 31.5L51 54Z" fill="#6DF5D0"/>
<path d="M0.5 20C3.32342 20 6.1192 20.4397 8.7277 21.294C11.3362 22.1484 13.7063 23.4006 15.7028 24.9792C17.6993 26.5578 19.2829 28.4319 20.3634 30.4944C21.4439 32.5569 22 34.7675 22 37C22 39.2325 21.4439 41.4431 20.3634 43.5056C19.2829 45.5682 17.6992 47.4422 15.7028 49.0208C13.7063 50.5994 11.3362 51.8516 8.72768 52.706C6.11918 53.5603 3.3234 54 0.499982 54L0.5 37L0.5 20Z" fill="#AFEBFF"/>
</g>
</svg>
