<svg width="59" height="54" viewBox="0 0 59 54" fill="none" xmlns="http://www.w3.org/2000/svg">
<mask id="mask0_124_672" style="mask-type:alpha" maskUnits="userSpaceOnUse" x="0" y="0" width="59" height="54">
<rect width="59" height="54" fill="#C4C4C4"/>
</mask>
<g mask="url(#mask0_124_672)">
<circle cx="47.5" cy="8.5" r="8.5" fill="#0EBCF6"/>
<circle cx="8.5" cy="8.5" r="8.5" fill="#6DF5D0"/>
<path d="M59 54L36 54L36 31.5C36 25.1487 41.1487 20 47.5 20V20C53.8513 20 59 25.1487 59 31.5L59 54Z" fill="#6DF5D0"/>
<path d="M8.5 20C11.3234 20 14.1192 20.4397 16.7277 21.294C19.3362 22.1484 21.7063 23.4006 23.7028 24.9792C25.6993 26.5578 27.2829 28.4319 28.3634 30.4944C29.4439 32.5569 30 34.7675 30 37C30 39.2325 29.4439 41.4431 28.3634 43.5056C27.2829 45.5682 25.6992 47.4422 23.7028 49.0208C21.7063 50.5994 19.3362 51.8516 16.7277 52.706C14.1192 53.5603 11.3234 54 8.49998 54L8.5 37L8.5 20Z" fill="#AFEBFF"/>
</g>
</svg>
